G75*
%MOIN*%
%OFA0B0*%
%FSLAX25Y25*%
%IPPOS*%
%LPD*%
%AMOC8*
5,1,8,0,0,1.08239X$1,22.5*
%
%ADD10C,0.00500*%
%ADD11C,0.00000*%
%ADD12C,0.00300*%
D10*
X0003000Y0003000D02*
X0003000Y0132921D01*
X0136858Y0132921D01*
X0136858Y0003000D01*
X0003000Y0003000D01*
D11*
X0008906Y0018748D02*
X0008908Y0018941D01*
X0008915Y0019134D01*
X0008927Y0019327D01*
X0008944Y0019520D01*
X0008965Y0019712D01*
X0008991Y0019903D01*
X0009022Y0020094D01*
X0009057Y0020284D01*
X0009097Y0020473D01*
X0009142Y0020661D01*
X0009191Y0020848D01*
X0009245Y0021034D01*
X0009303Y0021218D01*
X0009366Y0021401D01*
X0009434Y0021582D01*
X0009505Y0021761D01*
X0009582Y0021939D01*
X0009662Y0022115D01*
X0009747Y0022288D01*
X0009836Y0022460D01*
X0009929Y0022629D01*
X0010026Y0022796D01*
X0010128Y0022961D01*
X0010233Y0023123D01*
X0010342Y0023282D01*
X0010456Y0023439D01*
X0010573Y0023592D01*
X0010693Y0023743D01*
X0010818Y0023891D01*
X0010946Y0024036D01*
X0011077Y0024177D01*
X0011212Y0024316D01*
X0011351Y0024451D01*
X0011492Y0024582D01*
X0011637Y0024710D01*
X0011785Y0024835D01*
X0011936Y0024955D01*
X0012089Y0025072D01*
X0012246Y0025186D01*
X0012405Y0025295D01*
X0012567Y0025400D01*
X0012732Y0025502D01*
X0012899Y0025599D01*
X0013068Y0025692D01*
X0013240Y0025781D01*
X0013413Y0025866D01*
X0013589Y0025946D01*
X0013767Y0026023D01*
X0013946Y0026094D01*
X0014127Y0026162D01*
X0014310Y0026225D01*
X0014494Y0026283D01*
X0014680Y0026337D01*
X0014867Y0026386D01*
X0015055Y0026431D01*
X0015244Y0026471D01*
X0015434Y0026506D01*
X0015625Y0026537D01*
X0015816Y0026563D01*
X0016008Y0026584D01*
X0016201Y0026601D01*
X0016394Y0026613D01*
X0016587Y0026620D01*
X0016780Y0026622D01*
X0016973Y0026620D01*
X0017166Y0026613D01*
X0017359Y0026601D01*
X0017552Y0026584D01*
X0017744Y0026563D01*
X0017935Y0026537D01*
X0018126Y0026506D01*
X0018316Y0026471D01*
X0018505Y0026431D01*
X0018693Y0026386D01*
X0018880Y0026337D01*
X0019066Y0026283D01*
X0019250Y0026225D01*
X0019433Y0026162D01*
X0019614Y0026094D01*
X0019793Y0026023D01*
X0019971Y0025946D01*
X0020147Y0025866D01*
X0020320Y0025781D01*
X0020492Y0025692D01*
X0020661Y0025599D01*
X0020828Y0025502D01*
X0020993Y0025400D01*
X0021155Y0025295D01*
X0021314Y0025186D01*
X0021471Y0025072D01*
X0021624Y0024955D01*
X0021775Y0024835D01*
X0021923Y0024710D01*
X0022068Y0024582D01*
X0022209Y0024451D01*
X0022348Y0024316D01*
X0022483Y0024177D01*
X0022614Y0024036D01*
X0022742Y0023891D01*
X0022867Y0023743D01*
X0022987Y0023592D01*
X0023104Y0023439D01*
X0023218Y0023282D01*
X0023327Y0023123D01*
X0023432Y0022961D01*
X0023534Y0022796D01*
X0023631Y0022629D01*
X0023724Y0022460D01*
X0023813Y0022288D01*
X0023898Y0022115D01*
X0023978Y0021939D01*
X0024055Y0021761D01*
X0024126Y0021582D01*
X0024194Y0021401D01*
X0024257Y0021218D01*
X0024315Y0021034D01*
X0024369Y0020848D01*
X0024418Y0020661D01*
X0024463Y0020473D01*
X0024503Y0020284D01*
X0024538Y0020094D01*
X0024569Y0019903D01*
X0024595Y0019712D01*
X0024616Y0019520D01*
X0024633Y0019327D01*
X0024645Y0019134D01*
X0024652Y0018941D01*
X0024654Y0018748D01*
X0024652Y0018555D01*
X0024645Y0018362D01*
X0024633Y0018169D01*
X0024616Y0017976D01*
X0024595Y0017784D01*
X0024569Y0017593D01*
X0024538Y0017402D01*
X0024503Y0017212D01*
X0024463Y0017023D01*
X0024418Y0016835D01*
X0024369Y0016648D01*
X0024315Y0016462D01*
X0024257Y0016278D01*
X0024194Y0016095D01*
X0024126Y0015914D01*
X0024055Y0015735D01*
X0023978Y0015557D01*
X0023898Y0015381D01*
X0023813Y0015208D01*
X0023724Y0015036D01*
X0023631Y0014867D01*
X0023534Y0014700D01*
X0023432Y0014535D01*
X0023327Y0014373D01*
X0023218Y0014214D01*
X0023104Y0014057D01*
X0022987Y0013904D01*
X0022867Y0013753D01*
X0022742Y0013605D01*
X0022614Y0013460D01*
X0022483Y0013319D01*
X0022348Y0013180D01*
X0022209Y0013045D01*
X0022068Y0012914D01*
X0021923Y0012786D01*
X0021775Y0012661D01*
X0021624Y0012541D01*
X0021471Y0012424D01*
X0021314Y0012310D01*
X0021155Y0012201D01*
X0020993Y0012096D01*
X0020828Y0011994D01*
X0020661Y0011897D01*
X0020492Y0011804D01*
X0020320Y0011715D01*
X0020147Y0011630D01*
X0019971Y0011550D01*
X0019793Y0011473D01*
X0019614Y0011402D01*
X0019433Y0011334D01*
X0019250Y0011271D01*
X0019066Y0011213D01*
X0018880Y0011159D01*
X0018693Y0011110D01*
X0018505Y0011065D01*
X0018316Y0011025D01*
X0018126Y0010990D01*
X0017935Y0010959D01*
X0017744Y0010933D01*
X0017552Y0010912D01*
X0017359Y0010895D01*
X0017166Y0010883D01*
X0016973Y0010876D01*
X0016780Y0010874D01*
X0016587Y0010876D01*
X0016394Y0010883D01*
X0016201Y0010895D01*
X0016008Y0010912D01*
X0015816Y0010933D01*
X0015625Y0010959D01*
X0015434Y0010990D01*
X0015244Y0011025D01*
X0015055Y0011065D01*
X0014867Y0011110D01*
X0014680Y0011159D01*
X0014494Y0011213D01*
X0014310Y0011271D01*
X0014127Y0011334D01*
X0013946Y0011402D01*
X0013767Y0011473D01*
X0013589Y0011550D01*
X0013413Y0011630D01*
X0013240Y0011715D01*
X0013068Y0011804D01*
X0012899Y0011897D01*
X0012732Y0011994D01*
X0012567Y0012096D01*
X0012405Y0012201D01*
X0012246Y0012310D01*
X0012089Y0012424D01*
X0011936Y0012541D01*
X0011785Y0012661D01*
X0011637Y0012786D01*
X0011492Y0012914D01*
X0011351Y0013045D01*
X0011212Y0013180D01*
X0011077Y0013319D01*
X0010946Y0013460D01*
X0010818Y0013605D01*
X0010693Y0013753D01*
X0010573Y0013904D01*
X0010456Y0014057D01*
X0010342Y0014214D01*
X0010233Y0014373D01*
X0010128Y0014535D01*
X0010026Y0014700D01*
X0009929Y0014867D01*
X0009836Y0015036D01*
X0009747Y0015208D01*
X0009662Y0015381D01*
X0009582Y0015557D01*
X0009505Y0015735D01*
X0009434Y0015914D01*
X0009366Y0016095D01*
X0009303Y0016278D01*
X0009245Y0016462D01*
X0009191Y0016648D01*
X0009142Y0016835D01*
X0009097Y0017023D01*
X0009057Y0017212D01*
X0009022Y0017402D01*
X0008991Y0017593D01*
X0008965Y0017784D01*
X0008944Y0017976D01*
X0008927Y0018169D01*
X0008915Y0018362D01*
X0008908Y0018555D01*
X0008906Y0018748D01*
X0008906Y0117173D02*
X0008908Y0117366D01*
X0008915Y0117559D01*
X0008927Y0117752D01*
X0008944Y0117945D01*
X0008965Y0118137D01*
X0008991Y0118328D01*
X0009022Y0118519D01*
X0009057Y0118709D01*
X0009097Y0118898D01*
X0009142Y0119086D01*
X0009191Y0119273D01*
X0009245Y0119459D01*
X0009303Y0119643D01*
X0009366Y0119826D01*
X0009434Y0120007D01*
X0009505Y0120186D01*
X0009582Y0120364D01*
X0009662Y0120540D01*
X0009747Y0120713D01*
X0009836Y0120885D01*
X0009929Y0121054D01*
X0010026Y0121221D01*
X0010128Y0121386D01*
X0010233Y0121548D01*
X0010342Y0121707D01*
X0010456Y0121864D01*
X0010573Y0122017D01*
X0010693Y0122168D01*
X0010818Y0122316D01*
X0010946Y0122461D01*
X0011077Y0122602D01*
X0011212Y0122741D01*
X0011351Y0122876D01*
X0011492Y0123007D01*
X0011637Y0123135D01*
X0011785Y0123260D01*
X0011936Y0123380D01*
X0012089Y0123497D01*
X0012246Y0123611D01*
X0012405Y0123720D01*
X0012567Y0123825D01*
X0012732Y0123927D01*
X0012899Y0124024D01*
X0013068Y0124117D01*
X0013240Y0124206D01*
X0013413Y0124291D01*
X0013589Y0124371D01*
X0013767Y0124448D01*
X0013946Y0124519D01*
X0014127Y0124587D01*
X0014310Y0124650D01*
X0014494Y0124708D01*
X0014680Y0124762D01*
X0014867Y0124811D01*
X0015055Y0124856D01*
X0015244Y0124896D01*
X0015434Y0124931D01*
X0015625Y0124962D01*
X0015816Y0124988D01*
X0016008Y0125009D01*
X0016201Y0125026D01*
X0016394Y0125038D01*
X0016587Y0125045D01*
X0016780Y0125047D01*
X0016973Y0125045D01*
X0017166Y0125038D01*
X0017359Y0125026D01*
X0017552Y0125009D01*
X0017744Y0124988D01*
X0017935Y0124962D01*
X0018126Y0124931D01*
X0018316Y0124896D01*
X0018505Y0124856D01*
X0018693Y0124811D01*
X0018880Y0124762D01*
X0019066Y0124708D01*
X0019250Y0124650D01*
X0019433Y0124587D01*
X0019614Y0124519D01*
X0019793Y0124448D01*
X0019971Y0124371D01*
X0020147Y0124291D01*
X0020320Y0124206D01*
X0020492Y0124117D01*
X0020661Y0124024D01*
X0020828Y0123927D01*
X0020993Y0123825D01*
X0021155Y0123720D01*
X0021314Y0123611D01*
X0021471Y0123497D01*
X0021624Y0123380D01*
X0021775Y0123260D01*
X0021923Y0123135D01*
X0022068Y0123007D01*
X0022209Y0122876D01*
X0022348Y0122741D01*
X0022483Y0122602D01*
X0022614Y0122461D01*
X0022742Y0122316D01*
X0022867Y0122168D01*
X0022987Y0122017D01*
X0023104Y0121864D01*
X0023218Y0121707D01*
X0023327Y0121548D01*
X0023432Y0121386D01*
X0023534Y0121221D01*
X0023631Y0121054D01*
X0023724Y0120885D01*
X0023813Y0120713D01*
X0023898Y0120540D01*
X0023978Y0120364D01*
X0024055Y0120186D01*
X0024126Y0120007D01*
X0024194Y0119826D01*
X0024257Y0119643D01*
X0024315Y0119459D01*
X0024369Y0119273D01*
X0024418Y0119086D01*
X0024463Y0118898D01*
X0024503Y0118709D01*
X0024538Y0118519D01*
X0024569Y0118328D01*
X0024595Y0118137D01*
X0024616Y0117945D01*
X0024633Y0117752D01*
X0024645Y0117559D01*
X0024652Y0117366D01*
X0024654Y0117173D01*
X0024652Y0116980D01*
X0024645Y0116787D01*
X0024633Y0116594D01*
X0024616Y0116401D01*
X0024595Y0116209D01*
X0024569Y0116018D01*
X0024538Y0115827D01*
X0024503Y0115637D01*
X0024463Y0115448D01*
X0024418Y0115260D01*
X0024369Y0115073D01*
X0024315Y0114887D01*
X0024257Y0114703D01*
X0024194Y0114520D01*
X0024126Y0114339D01*
X0024055Y0114160D01*
X0023978Y0113982D01*
X0023898Y0113806D01*
X0023813Y0113633D01*
X0023724Y0113461D01*
X0023631Y0113292D01*
X0023534Y0113125D01*
X0023432Y0112960D01*
X0023327Y0112798D01*
X0023218Y0112639D01*
X0023104Y0112482D01*
X0022987Y0112329D01*
X0022867Y0112178D01*
X0022742Y0112030D01*
X0022614Y0111885D01*
X0022483Y0111744D01*
X0022348Y0111605D01*
X0022209Y0111470D01*
X0022068Y0111339D01*
X0021923Y0111211D01*
X0021775Y0111086D01*
X0021624Y0110966D01*
X0021471Y0110849D01*
X0021314Y0110735D01*
X0021155Y0110626D01*
X0020993Y0110521D01*
X0020828Y0110419D01*
X0020661Y0110322D01*
X0020492Y0110229D01*
X0020320Y0110140D01*
X0020147Y0110055D01*
X0019971Y0109975D01*
X0019793Y0109898D01*
X0019614Y0109827D01*
X0019433Y0109759D01*
X0019250Y0109696D01*
X0019066Y0109638D01*
X0018880Y0109584D01*
X0018693Y0109535D01*
X0018505Y0109490D01*
X0018316Y0109450D01*
X0018126Y0109415D01*
X0017935Y0109384D01*
X0017744Y0109358D01*
X0017552Y0109337D01*
X0017359Y0109320D01*
X0017166Y0109308D01*
X0016973Y0109301D01*
X0016780Y0109299D01*
X0016587Y0109301D01*
X0016394Y0109308D01*
X0016201Y0109320D01*
X0016008Y0109337D01*
X0015816Y0109358D01*
X0015625Y0109384D01*
X0015434Y0109415D01*
X0015244Y0109450D01*
X0015055Y0109490D01*
X0014867Y0109535D01*
X0014680Y0109584D01*
X0014494Y0109638D01*
X0014310Y0109696D01*
X0014127Y0109759D01*
X0013946Y0109827D01*
X0013767Y0109898D01*
X0013589Y0109975D01*
X0013413Y0110055D01*
X0013240Y0110140D01*
X0013068Y0110229D01*
X0012899Y0110322D01*
X0012732Y0110419D01*
X0012567Y0110521D01*
X0012405Y0110626D01*
X0012246Y0110735D01*
X0012089Y0110849D01*
X0011936Y0110966D01*
X0011785Y0111086D01*
X0011637Y0111211D01*
X0011492Y0111339D01*
X0011351Y0111470D01*
X0011212Y0111605D01*
X0011077Y0111744D01*
X0010946Y0111885D01*
X0010818Y0112030D01*
X0010693Y0112178D01*
X0010573Y0112329D01*
X0010456Y0112482D01*
X0010342Y0112639D01*
X0010233Y0112798D01*
X0010128Y0112960D01*
X0010026Y0113125D01*
X0009929Y0113292D01*
X0009836Y0113461D01*
X0009747Y0113633D01*
X0009662Y0113806D01*
X0009582Y0113982D01*
X0009505Y0114160D01*
X0009434Y0114339D01*
X0009366Y0114520D01*
X0009303Y0114703D01*
X0009245Y0114887D01*
X0009191Y0115073D01*
X0009142Y0115260D01*
X0009097Y0115448D01*
X0009057Y0115637D01*
X0009022Y0115827D01*
X0008991Y0116018D01*
X0008965Y0116209D01*
X0008944Y0116401D01*
X0008927Y0116594D01*
X0008915Y0116787D01*
X0008908Y0116980D01*
X0008906Y0117173D01*
X0115205Y0117173D02*
X0115207Y0117366D01*
X0115214Y0117559D01*
X0115226Y0117752D01*
X0115243Y0117945D01*
X0115264Y0118137D01*
X0115290Y0118328D01*
X0115321Y0118519D01*
X0115356Y0118709D01*
X0115396Y0118898D01*
X0115441Y0119086D01*
X0115490Y0119273D01*
X0115544Y0119459D01*
X0115602Y0119643D01*
X0115665Y0119826D01*
X0115733Y0120007D01*
X0115804Y0120186D01*
X0115881Y0120364D01*
X0115961Y0120540D01*
X0116046Y0120713D01*
X0116135Y0120885D01*
X0116228Y0121054D01*
X0116325Y0121221D01*
X0116427Y0121386D01*
X0116532Y0121548D01*
X0116641Y0121707D01*
X0116755Y0121864D01*
X0116872Y0122017D01*
X0116992Y0122168D01*
X0117117Y0122316D01*
X0117245Y0122461D01*
X0117376Y0122602D01*
X0117511Y0122741D01*
X0117650Y0122876D01*
X0117791Y0123007D01*
X0117936Y0123135D01*
X0118084Y0123260D01*
X0118235Y0123380D01*
X0118388Y0123497D01*
X0118545Y0123611D01*
X0118704Y0123720D01*
X0118866Y0123825D01*
X0119031Y0123927D01*
X0119198Y0124024D01*
X0119367Y0124117D01*
X0119539Y0124206D01*
X0119712Y0124291D01*
X0119888Y0124371D01*
X0120066Y0124448D01*
X0120245Y0124519D01*
X0120426Y0124587D01*
X0120609Y0124650D01*
X0120793Y0124708D01*
X0120979Y0124762D01*
X0121166Y0124811D01*
X0121354Y0124856D01*
X0121543Y0124896D01*
X0121733Y0124931D01*
X0121924Y0124962D01*
X0122115Y0124988D01*
X0122307Y0125009D01*
X0122500Y0125026D01*
X0122693Y0125038D01*
X0122886Y0125045D01*
X0123079Y0125047D01*
X0123272Y0125045D01*
X0123465Y0125038D01*
X0123658Y0125026D01*
X0123851Y0125009D01*
X0124043Y0124988D01*
X0124234Y0124962D01*
X0124425Y0124931D01*
X0124615Y0124896D01*
X0124804Y0124856D01*
X0124992Y0124811D01*
X0125179Y0124762D01*
X0125365Y0124708D01*
X0125549Y0124650D01*
X0125732Y0124587D01*
X0125913Y0124519D01*
X0126092Y0124448D01*
X0126270Y0124371D01*
X0126446Y0124291D01*
X0126619Y0124206D01*
X0126791Y0124117D01*
X0126960Y0124024D01*
X0127127Y0123927D01*
X0127292Y0123825D01*
X0127454Y0123720D01*
X0127613Y0123611D01*
X0127770Y0123497D01*
X0127923Y0123380D01*
X0128074Y0123260D01*
X0128222Y0123135D01*
X0128367Y0123007D01*
X0128508Y0122876D01*
X0128647Y0122741D01*
X0128782Y0122602D01*
X0128913Y0122461D01*
X0129041Y0122316D01*
X0129166Y0122168D01*
X0129286Y0122017D01*
X0129403Y0121864D01*
X0129517Y0121707D01*
X0129626Y0121548D01*
X0129731Y0121386D01*
X0129833Y0121221D01*
X0129930Y0121054D01*
X0130023Y0120885D01*
X0130112Y0120713D01*
X0130197Y0120540D01*
X0130277Y0120364D01*
X0130354Y0120186D01*
X0130425Y0120007D01*
X0130493Y0119826D01*
X0130556Y0119643D01*
X0130614Y0119459D01*
X0130668Y0119273D01*
X0130717Y0119086D01*
X0130762Y0118898D01*
X0130802Y0118709D01*
X0130837Y0118519D01*
X0130868Y0118328D01*
X0130894Y0118137D01*
X0130915Y0117945D01*
X0130932Y0117752D01*
X0130944Y0117559D01*
X0130951Y0117366D01*
X0130953Y0117173D01*
X0130951Y0116980D01*
X0130944Y0116787D01*
X0130932Y0116594D01*
X0130915Y0116401D01*
X0130894Y0116209D01*
X0130868Y0116018D01*
X0130837Y0115827D01*
X0130802Y0115637D01*
X0130762Y0115448D01*
X0130717Y0115260D01*
X0130668Y0115073D01*
X0130614Y0114887D01*
X0130556Y0114703D01*
X0130493Y0114520D01*
X0130425Y0114339D01*
X0130354Y0114160D01*
X0130277Y0113982D01*
X0130197Y0113806D01*
X0130112Y0113633D01*
X0130023Y0113461D01*
X0129930Y0113292D01*
X0129833Y0113125D01*
X0129731Y0112960D01*
X0129626Y0112798D01*
X0129517Y0112639D01*
X0129403Y0112482D01*
X0129286Y0112329D01*
X0129166Y0112178D01*
X0129041Y0112030D01*
X0128913Y0111885D01*
X0128782Y0111744D01*
X0128647Y0111605D01*
X0128508Y0111470D01*
X0128367Y0111339D01*
X0128222Y0111211D01*
X0128074Y0111086D01*
X0127923Y0110966D01*
X0127770Y0110849D01*
X0127613Y0110735D01*
X0127454Y0110626D01*
X0127292Y0110521D01*
X0127127Y0110419D01*
X0126960Y0110322D01*
X0126791Y0110229D01*
X0126619Y0110140D01*
X0126446Y0110055D01*
X0126270Y0109975D01*
X0126092Y0109898D01*
X0125913Y0109827D01*
X0125732Y0109759D01*
X0125549Y0109696D01*
X0125365Y0109638D01*
X0125179Y0109584D01*
X0124992Y0109535D01*
X0124804Y0109490D01*
X0124615Y0109450D01*
X0124425Y0109415D01*
X0124234Y0109384D01*
X0124043Y0109358D01*
X0123851Y0109337D01*
X0123658Y0109320D01*
X0123465Y0109308D01*
X0123272Y0109301D01*
X0123079Y0109299D01*
X0122886Y0109301D01*
X0122693Y0109308D01*
X0122500Y0109320D01*
X0122307Y0109337D01*
X0122115Y0109358D01*
X0121924Y0109384D01*
X0121733Y0109415D01*
X0121543Y0109450D01*
X0121354Y0109490D01*
X0121166Y0109535D01*
X0120979Y0109584D01*
X0120793Y0109638D01*
X0120609Y0109696D01*
X0120426Y0109759D01*
X0120245Y0109827D01*
X0120066Y0109898D01*
X0119888Y0109975D01*
X0119712Y0110055D01*
X0119539Y0110140D01*
X0119367Y0110229D01*
X0119198Y0110322D01*
X0119031Y0110419D01*
X0118866Y0110521D01*
X0118704Y0110626D01*
X0118545Y0110735D01*
X0118388Y0110849D01*
X0118235Y0110966D01*
X0118084Y0111086D01*
X0117936Y0111211D01*
X0117791Y0111339D01*
X0117650Y0111470D01*
X0117511Y0111605D01*
X0117376Y0111744D01*
X0117245Y0111885D01*
X0117117Y0112030D01*
X0116992Y0112178D01*
X0116872Y0112329D01*
X0116755Y0112482D01*
X0116641Y0112639D01*
X0116532Y0112798D01*
X0116427Y0112960D01*
X0116325Y0113125D01*
X0116228Y0113292D01*
X0116135Y0113461D01*
X0116046Y0113633D01*
X0115961Y0113806D01*
X0115881Y0113982D01*
X0115804Y0114160D01*
X0115733Y0114339D01*
X0115665Y0114520D01*
X0115602Y0114703D01*
X0115544Y0114887D01*
X0115490Y0115073D01*
X0115441Y0115260D01*
X0115396Y0115448D01*
X0115356Y0115637D01*
X0115321Y0115827D01*
X0115290Y0116018D01*
X0115264Y0116209D01*
X0115243Y0116401D01*
X0115226Y0116594D01*
X0115214Y0116787D01*
X0115207Y0116980D01*
X0115205Y0117173D01*
X0115205Y0018748D02*
X0115207Y0018941D01*
X0115214Y0019134D01*
X0115226Y0019327D01*
X0115243Y0019520D01*
X0115264Y0019712D01*
X0115290Y0019903D01*
X0115321Y0020094D01*
X0115356Y0020284D01*
X0115396Y0020473D01*
X0115441Y0020661D01*
X0115490Y0020848D01*
X0115544Y0021034D01*
X0115602Y0021218D01*
X0115665Y0021401D01*
X0115733Y0021582D01*
X0115804Y0021761D01*
X0115881Y0021939D01*
X0115961Y0022115D01*
X0116046Y0022288D01*
X0116135Y0022460D01*
X0116228Y0022629D01*
X0116325Y0022796D01*
X0116427Y0022961D01*
X0116532Y0023123D01*
X0116641Y0023282D01*
X0116755Y0023439D01*
X0116872Y0023592D01*
X0116992Y0023743D01*
X0117117Y0023891D01*
X0117245Y0024036D01*
X0117376Y0024177D01*
X0117511Y0024316D01*
X0117650Y0024451D01*
X0117791Y0024582D01*
X0117936Y0024710D01*
X0118084Y0024835D01*
X0118235Y0024955D01*
X0118388Y0025072D01*
X0118545Y0025186D01*
X0118704Y0025295D01*
X0118866Y0025400D01*
X0119031Y0025502D01*
X0119198Y0025599D01*
X0119367Y0025692D01*
X0119539Y0025781D01*
X0119712Y0025866D01*
X0119888Y0025946D01*
X0120066Y0026023D01*
X0120245Y0026094D01*
X0120426Y0026162D01*
X0120609Y0026225D01*
X0120793Y0026283D01*
X0120979Y0026337D01*
X0121166Y0026386D01*
X0121354Y0026431D01*
X0121543Y0026471D01*
X0121733Y0026506D01*
X0121924Y0026537D01*
X0122115Y0026563D01*
X0122307Y0026584D01*
X0122500Y0026601D01*
X0122693Y0026613D01*
X0122886Y0026620D01*
X0123079Y0026622D01*
X0123272Y0026620D01*
X0123465Y0026613D01*
X0123658Y0026601D01*
X0123851Y0026584D01*
X0124043Y0026563D01*
X0124234Y0026537D01*
X0124425Y0026506D01*
X0124615Y0026471D01*
X0124804Y0026431D01*
X0124992Y0026386D01*
X0125179Y0026337D01*
X0125365Y0026283D01*
X0125549Y0026225D01*
X0125732Y0026162D01*
X0125913Y0026094D01*
X0126092Y0026023D01*
X0126270Y0025946D01*
X0126446Y0025866D01*
X0126619Y0025781D01*
X0126791Y0025692D01*
X0126960Y0025599D01*
X0127127Y0025502D01*
X0127292Y0025400D01*
X0127454Y0025295D01*
X0127613Y0025186D01*
X0127770Y0025072D01*
X0127923Y0024955D01*
X0128074Y0024835D01*
X0128222Y0024710D01*
X0128367Y0024582D01*
X0128508Y0024451D01*
X0128647Y0024316D01*
X0128782Y0024177D01*
X0128913Y0024036D01*
X0129041Y0023891D01*
X0129166Y0023743D01*
X0129286Y0023592D01*
X0129403Y0023439D01*
X0129517Y0023282D01*
X0129626Y0023123D01*
X0129731Y0022961D01*
X0129833Y0022796D01*
X0129930Y0022629D01*
X0130023Y0022460D01*
X0130112Y0022288D01*
X0130197Y0022115D01*
X0130277Y0021939D01*
X0130354Y0021761D01*
X0130425Y0021582D01*
X0130493Y0021401D01*
X0130556Y0021218D01*
X0130614Y0021034D01*
X0130668Y0020848D01*
X0130717Y0020661D01*
X0130762Y0020473D01*
X0130802Y0020284D01*
X0130837Y0020094D01*
X0130868Y0019903D01*
X0130894Y0019712D01*
X0130915Y0019520D01*
X0130932Y0019327D01*
X0130944Y0019134D01*
X0130951Y0018941D01*
X0130953Y0018748D01*
X0130951Y0018555D01*
X0130944Y0018362D01*
X0130932Y0018169D01*
X0130915Y0017976D01*
X0130894Y0017784D01*
X0130868Y0017593D01*
X0130837Y0017402D01*
X0130802Y0017212D01*
X0130762Y0017023D01*
X0130717Y0016835D01*
X0130668Y0016648D01*
X0130614Y0016462D01*
X0130556Y0016278D01*
X0130493Y0016095D01*
X0130425Y0015914D01*
X0130354Y0015735D01*
X0130277Y0015557D01*
X0130197Y0015381D01*
X0130112Y0015208D01*
X0130023Y0015036D01*
X0129930Y0014867D01*
X0129833Y0014700D01*
X0129731Y0014535D01*
X0129626Y0014373D01*
X0129517Y0014214D01*
X0129403Y0014057D01*
X0129286Y0013904D01*
X0129166Y0013753D01*
X0129041Y0013605D01*
X0128913Y0013460D01*
X0128782Y0013319D01*
X0128647Y0013180D01*
X0128508Y0013045D01*
X0128367Y0012914D01*
X0128222Y0012786D01*
X0128074Y0012661D01*
X0127923Y0012541D01*
X0127770Y0012424D01*
X0127613Y0012310D01*
X0127454Y0012201D01*
X0127292Y0012096D01*
X0127127Y0011994D01*
X0126960Y0011897D01*
X0126791Y0011804D01*
X0126619Y0011715D01*
X0126446Y0011630D01*
X0126270Y0011550D01*
X0126092Y0011473D01*
X0125913Y0011402D01*
X0125732Y0011334D01*
X0125549Y0011271D01*
X0125365Y0011213D01*
X0125179Y0011159D01*
X0124992Y0011110D01*
X0124804Y0011065D01*
X0124615Y0011025D01*
X0124425Y0010990D01*
X0124234Y0010959D01*
X0124043Y0010933D01*
X0123851Y0010912D01*
X0123658Y0010895D01*
X0123465Y0010883D01*
X0123272Y0010876D01*
X0123079Y0010874D01*
X0122886Y0010876D01*
X0122693Y0010883D01*
X0122500Y0010895D01*
X0122307Y0010912D01*
X0122115Y0010933D01*
X0121924Y0010959D01*
X0121733Y0010990D01*
X0121543Y0011025D01*
X0121354Y0011065D01*
X0121166Y0011110D01*
X0120979Y0011159D01*
X0120793Y0011213D01*
X0120609Y0011271D01*
X0120426Y0011334D01*
X0120245Y0011402D01*
X0120066Y0011473D01*
X0119888Y0011550D01*
X0119712Y0011630D01*
X0119539Y0011715D01*
X0119367Y0011804D01*
X0119198Y0011897D01*
X0119031Y0011994D01*
X0118866Y0012096D01*
X0118704Y0012201D01*
X0118545Y0012310D01*
X0118388Y0012424D01*
X0118235Y0012541D01*
X0118084Y0012661D01*
X0117936Y0012786D01*
X0117791Y0012914D01*
X0117650Y0013045D01*
X0117511Y0013180D01*
X0117376Y0013319D01*
X0117245Y0013460D01*
X0117117Y0013605D01*
X0116992Y0013753D01*
X0116872Y0013904D01*
X0116755Y0014057D01*
X0116641Y0014214D01*
X0116532Y0014373D01*
X0116427Y0014535D01*
X0116325Y0014700D01*
X0116228Y0014867D01*
X0116135Y0015036D01*
X0116046Y0015208D01*
X0115961Y0015381D01*
X0115881Y0015557D01*
X0115804Y0015735D01*
X0115733Y0015914D01*
X0115665Y0016095D01*
X0115602Y0016278D01*
X0115544Y0016462D01*
X0115490Y0016648D01*
X0115441Y0016835D01*
X0115396Y0017023D01*
X0115356Y0017212D01*
X0115321Y0017402D01*
X0115290Y0017593D01*
X0115264Y0017784D01*
X0115243Y0017976D01*
X0115226Y0018169D01*
X0115214Y0018362D01*
X0115207Y0018555D01*
X0115205Y0018748D01*
D12*
X0077653Y0024804D02*
X0076202Y0024804D01*
X0075718Y0025287D01*
X0075718Y0027222D01*
X0076202Y0027706D01*
X0077653Y0027706D01*
X0077653Y0024804D01*
X0074707Y0025287D02*
X0074707Y0026255D01*
X0074223Y0026739D01*
X0073255Y0026739D01*
X0072772Y0026255D01*
X0072772Y0025771D01*
X0074707Y0025771D01*
X0074707Y0025287D02*
X0074223Y0024804D01*
X0073255Y0024804D01*
X0071760Y0024804D02*
X0070309Y0024804D01*
X0069825Y0025287D01*
X0070309Y0025771D01*
X0071276Y0025771D01*
X0071760Y0026255D01*
X0071276Y0026739D01*
X0069825Y0026739D01*
X0068814Y0026739D02*
X0068330Y0026739D01*
X0068330Y0024804D01*
X0068814Y0024804D02*
X0067846Y0024804D01*
X0066849Y0025287D02*
X0066849Y0026255D01*
X0066366Y0026739D01*
X0064914Y0026739D01*
X0064914Y0024320D01*
X0065398Y0023836D01*
X0065882Y0023836D01*
X0066366Y0024804D02*
X0064914Y0024804D01*
X0063903Y0024804D02*
X0063903Y0026739D01*
X0062452Y0026739D01*
X0061968Y0026255D01*
X0061968Y0024804D01*
X0060956Y0025287D02*
X0060956Y0026255D01*
X0060472Y0026739D01*
X0059505Y0026739D01*
X0059021Y0026255D01*
X0059021Y0025771D01*
X0060956Y0025771D01*
X0060956Y0025287D02*
X0060472Y0024804D01*
X0059505Y0024804D01*
X0058010Y0025287D02*
X0058010Y0026255D01*
X0057526Y0026739D01*
X0056075Y0026739D01*
X0056075Y0027706D02*
X0056075Y0024804D01*
X0057526Y0024804D01*
X0058010Y0025287D01*
X0052117Y0024804D02*
X0050665Y0024804D01*
X0050182Y0025287D01*
X0050182Y0025771D01*
X0050665Y0026255D01*
X0052117Y0026255D01*
X0052117Y0027706D02*
X0050665Y0027706D01*
X0050182Y0027222D01*
X0050182Y0026739D01*
X0050665Y0026255D01*
X0049170Y0026739D02*
X0049170Y0025287D01*
X0048686Y0024804D01*
X0047235Y0024804D01*
X0047235Y0024320D02*
X0047719Y0023836D01*
X0048203Y0023836D01*
X0047235Y0024320D02*
X0047235Y0026739D01*
X0043277Y0027706D02*
X0041342Y0027706D01*
X0041342Y0027222D01*
X0043277Y0025287D01*
X0043277Y0024804D01*
X0041342Y0024804D01*
X0040331Y0024804D02*
X0040331Y0027706D01*
X0039847Y0026739D02*
X0038879Y0026739D01*
X0038396Y0026255D01*
X0038396Y0024804D01*
X0037384Y0025287D02*
X0037384Y0026255D01*
X0036900Y0026739D01*
X0035933Y0026739D01*
X0035449Y0026255D01*
X0035449Y0025771D01*
X0037384Y0025771D01*
X0037384Y0025287D02*
X0036900Y0024804D01*
X0035933Y0024804D01*
X0034438Y0024804D02*
X0034438Y0026739D01*
X0032986Y0026739D01*
X0032503Y0026255D01*
X0032503Y0024804D01*
X0028545Y0024804D02*
X0027577Y0025771D01*
X0026610Y0024804D01*
X0026610Y0027706D01*
X0025598Y0026255D02*
X0025114Y0026739D01*
X0024147Y0026739D01*
X0023663Y0026255D01*
X0023663Y0025771D01*
X0025598Y0025771D01*
X0025598Y0025287D02*
X0025598Y0026255D01*
X0025598Y0025287D02*
X0025114Y0024804D01*
X0024147Y0024804D01*
X0022651Y0024804D02*
X0021684Y0024804D01*
X0022168Y0024804D02*
X0022168Y0026739D01*
X0022651Y0026739D01*
X0022168Y0027706D02*
X0022168Y0028190D01*
X0028545Y0027706D02*
X0028545Y0024804D01*
X0039847Y0026739D02*
X0040331Y0026255D01*
X0052117Y0024804D02*
X0052117Y0027706D01*
X0066366Y0024804D02*
X0066849Y0025287D01*
X0068330Y0027706D02*
X0068330Y0028190D01*
M02*
