G75*
%MOIN*%
%OFA0B0*%
%FSLAX25Y25*%
%IPPOS*%
%LPD*%
%AMOC8*
5,1,8,0,0,1.08239X$1,22.5*
%
%ADD10R,0.05937X0.05937*%
%ADD11OC8,0.05937*%
%ADD12C,0.01000*%
%ADD13C,0.00500*%
D10*
X0059929Y0010874D03*
X0080323Y0035638D03*
X0099417Y0039220D03*
X0128984Y0077961D03*
X0085677Y0086898D03*
X0059929Y0125047D03*
X0034496Y0109457D03*
X0010874Y0077961D03*
D11*
X0010874Y0067961D03*
X0010874Y0057961D03*
X0040323Y0035638D03*
X0050323Y0035638D03*
X0060323Y0035638D03*
X0070323Y0035638D03*
X0085677Y0056898D03*
X0085677Y0066898D03*
X0085677Y0076898D03*
X0099417Y0057803D03*
X0128984Y0057961D03*
X0128984Y0067961D03*
X0079929Y0010874D03*
X0069929Y0010874D03*
X0034496Y0089457D03*
X0034496Y0099457D03*
X0069929Y0125047D03*
X0079929Y0125047D03*
D12*
X0059929Y0125047D02*
X0059929Y0115362D01*
X0067961Y0107331D01*
X0099614Y0107331D01*
X0128984Y0077961D01*
X0085677Y0086898D02*
X0073118Y0099457D01*
X0034496Y0099457D01*
X0018591Y0077961D02*
X0024654Y0071898D01*
X0024654Y0036465D01*
X0050244Y0010874D01*
X0059929Y0010874D01*
X0018591Y0077961D02*
X0010874Y0077961D01*
D13*
X0024224Y0009046D02*
X0021545Y0007500D01*
X0055911Y0007500D01*
X0055911Y0009324D01*
X0049602Y0009324D01*
X0048694Y0010232D01*
X0023104Y0035823D01*
X0023104Y0071256D01*
X0017949Y0076411D01*
X0014893Y0076411D01*
X0014893Y0074557D01*
X0014277Y0073942D01*
X0007500Y0073942D01*
X0007500Y0070270D01*
X0009209Y0071979D01*
X0012539Y0071979D01*
X0014893Y0069625D01*
X0014893Y0066296D01*
X0012539Y0063942D01*
X0009209Y0063942D01*
X0007500Y0065652D01*
X0007500Y0060552D01*
X0009127Y0062179D01*
X0010624Y0062179D01*
X0010624Y0058211D01*
X0011124Y0058211D01*
X0011124Y0062179D01*
X0012621Y0062179D01*
X0015093Y0059708D01*
X0015093Y0058211D01*
X0011124Y0058211D01*
X0011124Y0057711D01*
X0015093Y0057711D01*
X0015093Y0056213D01*
X0012621Y0053742D01*
X0011124Y0053742D01*
X0011124Y0057711D01*
X0010624Y0057711D01*
X0010624Y0053742D01*
X0009127Y0053742D01*
X0007500Y0055369D01*
X0007500Y0026614D01*
X0009335Y0028450D01*
X0012100Y0030046D01*
X0015183Y0030872D01*
X0018376Y0030872D01*
X0021459Y0030046D01*
X0024224Y0028450D01*
X0026481Y0026192D01*
X0028077Y0023428D01*
X0028904Y0020344D01*
X0028904Y0017152D01*
X0028077Y0014068D01*
X0026481Y0011304D01*
X0024224Y0009046D01*
X0024113Y0008982D02*
X0055911Y0008982D01*
X0055911Y0008484D02*
X0023249Y0008484D01*
X0022386Y0007985D02*
X0055911Y0007985D01*
X0055911Y0012424D02*
X0050886Y0012424D01*
X0026204Y0037107D01*
X0026204Y0072540D01*
X0025296Y0073448D01*
X0019233Y0079511D01*
X0014893Y0079511D01*
X0014893Y0081364D01*
X0014277Y0081979D01*
X0007500Y0081979D01*
X0007500Y0109307D01*
X0009335Y0107472D01*
X0012100Y0105875D01*
X0015183Y0105049D01*
X0018376Y0105049D01*
X0021459Y0105875D01*
X0024224Y0107472D01*
X0026481Y0109729D01*
X0028077Y0112494D01*
X0028904Y0115577D01*
X0028904Y0118769D01*
X0028077Y0121853D01*
X0026481Y0124618D01*
X0024224Y0126875D01*
X0021545Y0128421D01*
X0055911Y0128421D01*
X0055911Y0121644D01*
X0056526Y0121029D01*
X0058379Y0121029D01*
X0058379Y0114720D01*
X0066411Y0106689D01*
X0066411Y0106689D01*
X0067319Y0105781D01*
X0098972Y0105781D01*
X0124966Y0079787D01*
X0124966Y0074557D01*
X0125581Y0073942D01*
X0132358Y0073942D01*
X0132358Y0070270D01*
X0130649Y0071979D01*
X0127320Y0071979D01*
X0124966Y0069625D01*
X0124966Y0066296D01*
X0127320Y0063942D01*
X0130649Y0063942D01*
X0132358Y0065652D01*
X0132358Y0060552D01*
X0130732Y0062179D01*
X0129234Y0062179D01*
X0129234Y0058211D01*
X0128734Y0058211D01*
X0128734Y0062179D01*
X0127237Y0062179D01*
X0124766Y0059708D01*
X0124766Y0058211D01*
X0128734Y0058211D01*
X0128734Y0057711D01*
X0124766Y0057711D01*
X0124766Y0056213D01*
X0127237Y0053742D01*
X0128734Y0053742D01*
X0128734Y0057711D01*
X0129234Y0057711D01*
X0129234Y0053742D01*
X0130732Y0053742D01*
X0132358Y0055369D01*
X0132358Y0026614D01*
X0130523Y0028450D01*
X0127758Y0030046D01*
X0124675Y0030872D01*
X0121483Y0030872D01*
X0118399Y0030046D01*
X0115634Y0028450D01*
X0113377Y0026192D01*
X0111781Y0023428D01*
X0110955Y0020344D01*
X0110955Y0017152D01*
X0111781Y0014068D01*
X0113377Y0011304D01*
X0115634Y0009046D01*
X0118313Y0007500D01*
X0082521Y0007500D01*
X0084148Y0009127D01*
X0084148Y0010624D01*
X0080179Y0010624D01*
X0080179Y0011124D01*
X0079679Y0011124D01*
X0079679Y0010624D01*
X0075711Y0010624D01*
X0075711Y0009127D01*
X0077337Y0007500D01*
X0072238Y0007500D01*
X0073948Y0009209D01*
X0073948Y0012539D01*
X0071594Y0014893D01*
X0068265Y0014893D01*
X0065911Y0012539D01*
X0065911Y0009209D01*
X0067620Y0007500D01*
X0063948Y0007500D01*
X0063948Y0014277D01*
X0063333Y0014893D01*
X0056526Y0014893D01*
X0055911Y0014277D01*
X0055911Y0012424D01*
X0055911Y0012472D02*
X0050838Y0012472D01*
X0050340Y0012970D02*
X0055911Y0012970D01*
X0055911Y0013469D02*
X0049841Y0013469D01*
X0049343Y0013967D02*
X0055911Y0013967D01*
X0056099Y0014466D02*
X0048844Y0014466D01*
X0048346Y0014964D02*
X0078054Y0014964D01*
X0078182Y0015093D02*
X0075711Y0012621D01*
X0075711Y0011124D01*
X0079679Y0011124D01*
X0079679Y0015093D01*
X0078182Y0015093D01*
X0077555Y0014466D02*
X0072020Y0014466D01*
X0072519Y0013967D02*
X0077057Y0013967D01*
X0076558Y0013469D02*
X0073017Y0013469D01*
X0073516Y0012970D02*
X0076059Y0012970D01*
X0075711Y0012472D02*
X0073948Y0012472D01*
X0073948Y0011973D02*
X0075711Y0011973D01*
X0075711Y0011475D02*
X0073948Y0011475D01*
X0073948Y0010976D02*
X0079679Y0010976D01*
X0079679Y0011475D02*
X0080179Y0011475D01*
X0080179Y0011124D02*
X0080179Y0015093D01*
X0081676Y0015093D01*
X0084148Y0012621D01*
X0084148Y0011124D01*
X0080179Y0011124D01*
X0080179Y0010976D02*
X0113705Y0010976D01*
X0113278Y0011475D02*
X0084148Y0011475D01*
X0084148Y0011973D02*
X0112991Y0011973D01*
X0112703Y0012472D02*
X0084148Y0012472D01*
X0083799Y0012970D02*
X0112415Y0012970D01*
X0112127Y0013469D02*
X0083300Y0013469D01*
X0082802Y0013967D02*
X0111839Y0013967D01*
X0111674Y0014466D02*
X0082303Y0014466D01*
X0081805Y0014964D02*
X0111541Y0014964D01*
X0111407Y0015463D02*
X0047847Y0015463D01*
X0047349Y0015961D02*
X0111274Y0015961D01*
X0111140Y0016460D02*
X0046850Y0016460D01*
X0046352Y0016958D02*
X0111007Y0016958D01*
X0110955Y0017457D02*
X0045853Y0017457D01*
X0045355Y0017955D02*
X0110955Y0017955D01*
X0110955Y0018454D02*
X0044856Y0018454D01*
X0044358Y0018952D02*
X0110955Y0018952D01*
X0110955Y0019451D02*
X0043859Y0019451D01*
X0043361Y0019949D02*
X0110955Y0019949D01*
X0110983Y0020448D02*
X0042862Y0020448D01*
X0042364Y0020946D02*
X0111116Y0020946D01*
X0111250Y0021445D02*
X0041865Y0021445D01*
X0041367Y0021943D02*
X0111383Y0021943D01*
X0111517Y0022442D02*
X0040868Y0022442D01*
X0040370Y0022940D02*
X0111650Y0022940D01*
X0111787Y0023439D02*
X0039871Y0023439D01*
X0039373Y0023937D02*
X0112075Y0023937D01*
X0112363Y0024436D02*
X0038874Y0024436D01*
X0038376Y0024934D02*
X0112651Y0024934D01*
X0112939Y0025433D02*
X0037877Y0025433D01*
X0037379Y0025932D02*
X0113227Y0025932D01*
X0113615Y0026430D02*
X0036880Y0026430D01*
X0036382Y0026929D02*
X0114113Y0026929D01*
X0114612Y0027427D02*
X0035883Y0027427D01*
X0035385Y0027926D02*
X0115110Y0027926D01*
X0115609Y0028424D02*
X0034886Y0028424D01*
X0034388Y0028923D02*
X0116454Y0028923D01*
X0117317Y0029421D02*
X0033889Y0029421D01*
X0033391Y0029920D02*
X0118180Y0029920D01*
X0119789Y0030418D02*
X0032892Y0030418D01*
X0032393Y0030917D02*
X0132358Y0030917D01*
X0132358Y0031415D02*
X0031895Y0031415D01*
X0031396Y0031914D02*
X0038081Y0031914D01*
X0038575Y0031419D02*
X0040073Y0031419D01*
X0040073Y0035388D01*
X0036104Y0035388D01*
X0036104Y0033890D01*
X0038575Y0031419D01*
X0037583Y0032412D02*
X0030898Y0032412D01*
X0030399Y0032911D02*
X0037084Y0032911D01*
X0036586Y0033409D02*
X0029901Y0033409D01*
X0029402Y0033908D02*
X0036104Y0033908D01*
X0036104Y0034406D02*
X0028904Y0034406D01*
X0028405Y0034905D02*
X0036104Y0034905D01*
X0036104Y0035888D02*
X0040073Y0035888D01*
X0040073Y0039856D01*
X0038575Y0039856D01*
X0036104Y0037385D01*
X0036104Y0035888D01*
X0036104Y0035902D02*
X0027408Y0035902D01*
X0026910Y0036400D02*
X0036104Y0036400D01*
X0036104Y0036899D02*
X0026411Y0036899D01*
X0026204Y0037397D02*
X0036116Y0037397D01*
X0036615Y0037896D02*
X0026204Y0037896D01*
X0026204Y0038394D02*
X0037113Y0038394D01*
X0037612Y0038893D02*
X0026204Y0038893D01*
X0026204Y0039391D02*
X0038111Y0039391D01*
X0040073Y0039391D02*
X0040573Y0039391D01*
X0040573Y0039856D02*
X0042070Y0039856D01*
X0044541Y0037385D01*
X0044541Y0035888D01*
X0040573Y0035888D01*
X0040073Y0035888D01*
X0040073Y0035388D01*
X0040573Y0035388D01*
X0040573Y0035888D01*
X0040573Y0039856D01*
X0040573Y0038893D02*
X0040073Y0038893D01*
X0040073Y0038394D02*
X0040573Y0038394D01*
X0040573Y0037896D02*
X0040073Y0037896D01*
X0040073Y0037397D02*
X0040573Y0037397D01*
X0040573Y0036899D02*
X0040073Y0036899D01*
X0040073Y0036400D02*
X0040573Y0036400D01*
X0040573Y0035902D02*
X0040073Y0035902D01*
X0040073Y0035403D02*
X0027907Y0035403D01*
X0025517Y0033409D02*
X0007500Y0033409D01*
X0007500Y0032911D02*
X0026015Y0032911D01*
X0026514Y0032412D02*
X0007500Y0032412D01*
X0007500Y0031914D02*
X0027012Y0031914D01*
X0027511Y0031415D02*
X0007500Y0031415D01*
X0007500Y0030917D02*
X0028009Y0030917D01*
X0028508Y0030418D02*
X0020070Y0030418D01*
X0021678Y0029920D02*
X0029006Y0029920D01*
X0029505Y0029421D02*
X0022541Y0029421D01*
X0023405Y0028923D02*
X0030003Y0028923D01*
X0030502Y0028424D02*
X0024249Y0028424D01*
X0024748Y0027926D02*
X0031001Y0027926D01*
X0031499Y0027427D02*
X0025246Y0027427D01*
X0025745Y0026929D02*
X0031998Y0026929D01*
X0032496Y0026430D02*
X0026243Y0026430D01*
X0026632Y0025932D02*
X0032995Y0025932D01*
X0033493Y0025433D02*
X0026920Y0025433D01*
X0027207Y0024934D02*
X0033992Y0024934D01*
X0034490Y0024436D02*
X0027495Y0024436D01*
X0027783Y0023937D02*
X0034989Y0023937D01*
X0035487Y0023439D02*
X0028071Y0023439D01*
X0028208Y0022940D02*
X0035986Y0022940D01*
X0036484Y0022442D02*
X0028341Y0022442D01*
X0028475Y0021943D02*
X0036983Y0021943D01*
X0037481Y0021445D02*
X0028609Y0021445D01*
X0028742Y0020946D02*
X0037980Y0020946D01*
X0038478Y0020448D02*
X0028876Y0020448D01*
X0028904Y0019949D02*
X0038977Y0019949D01*
X0039475Y0019451D02*
X0028904Y0019451D01*
X0028904Y0018952D02*
X0039974Y0018952D01*
X0040472Y0018454D02*
X0028904Y0018454D01*
X0028904Y0017955D02*
X0040971Y0017955D01*
X0041469Y0017457D02*
X0028904Y0017457D01*
X0028852Y0016958D02*
X0041968Y0016958D01*
X0042466Y0016460D02*
X0028718Y0016460D01*
X0028585Y0015961D02*
X0042965Y0015961D01*
X0043463Y0015463D02*
X0028451Y0015463D01*
X0028317Y0014964D02*
X0043962Y0014964D01*
X0044460Y0014466D02*
X0028184Y0014466D01*
X0028019Y0013967D02*
X0044959Y0013967D01*
X0045457Y0013469D02*
X0027731Y0013469D01*
X0027443Y0012970D02*
X0045956Y0012970D01*
X0046454Y0012472D02*
X0027155Y0012472D01*
X0026868Y0011973D02*
X0046953Y0011973D01*
X0047451Y0011475D02*
X0026580Y0011475D01*
X0026154Y0010976D02*
X0047950Y0010976D01*
X0048448Y0010478D02*
X0025655Y0010478D01*
X0025157Y0009979D02*
X0048947Y0009979D01*
X0049445Y0009481D02*
X0024658Y0009481D01*
X0007814Y0026929D02*
X0007500Y0026929D01*
X0007500Y0027427D02*
X0008313Y0027427D01*
X0008811Y0027926D02*
X0007500Y0027926D01*
X0007500Y0028424D02*
X0009310Y0028424D01*
X0010154Y0028923D02*
X0007500Y0028923D01*
X0007500Y0029421D02*
X0011018Y0029421D01*
X0011881Y0029920D02*
X0007500Y0029920D01*
X0007500Y0030418D02*
X0013489Y0030418D01*
X0007500Y0033908D02*
X0025018Y0033908D01*
X0024520Y0034406D02*
X0007500Y0034406D01*
X0007500Y0034905D02*
X0024021Y0034905D01*
X0023523Y0035403D02*
X0007500Y0035403D01*
X0007500Y0035902D02*
X0023104Y0035902D01*
X0023104Y0036400D02*
X0007500Y0036400D01*
X0007500Y0036899D02*
X0023104Y0036899D01*
X0023104Y0037397D02*
X0007500Y0037397D01*
X0007500Y0037896D02*
X0023104Y0037896D01*
X0023104Y0038394D02*
X0007500Y0038394D01*
X0007500Y0038893D02*
X0023104Y0038893D01*
X0023104Y0039391D02*
X0007500Y0039391D01*
X0007500Y0039890D02*
X0023104Y0039890D01*
X0023104Y0040388D02*
X0007500Y0040388D01*
X0007500Y0040887D02*
X0023104Y0040887D01*
X0023104Y0041385D02*
X0007500Y0041385D01*
X0007500Y0041884D02*
X0023104Y0041884D01*
X0023104Y0042382D02*
X0007500Y0042382D01*
X0007500Y0042881D02*
X0023104Y0042881D01*
X0023104Y0043379D02*
X0007500Y0043379D01*
X0007500Y0043878D02*
X0023104Y0043878D01*
X0023104Y0044376D02*
X0007500Y0044376D01*
X0007500Y0044875D02*
X0023104Y0044875D01*
X0023104Y0045373D02*
X0007500Y0045373D01*
X0007500Y0045872D02*
X0023104Y0045872D01*
X0023104Y0046370D02*
X0007500Y0046370D01*
X0007500Y0046869D02*
X0023104Y0046869D01*
X0023104Y0047368D02*
X0007500Y0047368D01*
X0007500Y0047866D02*
X0023104Y0047866D01*
X0023104Y0048365D02*
X0007500Y0048365D01*
X0007500Y0048863D02*
X0023104Y0048863D01*
X0023104Y0049362D02*
X0007500Y0049362D01*
X0007500Y0049860D02*
X0023104Y0049860D01*
X0023104Y0050359D02*
X0007500Y0050359D01*
X0007500Y0050857D02*
X0023104Y0050857D01*
X0023104Y0051356D02*
X0007500Y0051356D01*
X0007500Y0051854D02*
X0023104Y0051854D01*
X0023104Y0052353D02*
X0007500Y0052353D01*
X0007500Y0052851D02*
X0023104Y0052851D01*
X0023104Y0053350D02*
X0007500Y0053350D01*
X0007500Y0053848D02*
X0009021Y0053848D01*
X0008522Y0054347D02*
X0007500Y0054347D01*
X0007500Y0054845D02*
X0008024Y0054845D01*
X0007525Y0055344D02*
X0007500Y0055344D01*
X0010624Y0055344D02*
X0011124Y0055344D01*
X0011124Y0055842D02*
X0010624Y0055842D01*
X0010624Y0056341D02*
X0011124Y0056341D01*
X0011124Y0056839D02*
X0010624Y0056839D01*
X0010624Y0057338D02*
X0011124Y0057338D01*
X0011124Y0057836D02*
X0023104Y0057836D01*
X0023104Y0057338D02*
X0015093Y0057338D01*
X0015093Y0056839D02*
X0023104Y0056839D01*
X0023104Y0056341D02*
X0015093Y0056341D01*
X0014721Y0055842D02*
X0023104Y0055842D01*
X0023104Y0055344D02*
X0014223Y0055344D01*
X0013724Y0054845D02*
X0023104Y0054845D01*
X0023104Y0054347D02*
X0013226Y0054347D01*
X0012727Y0053848D02*
X0023104Y0053848D01*
X0026204Y0053848D02*
X0083044Y0053848D01*
X0083542Y0053350D02*
X0026204Y0053350D01*
X0026204Y0052851D02*
X0132358Y0052851D01*
X0132358Y0052353D02*
X0026204Y0052353D01*
X0026204Y0051854D02*
X0132358Y0051854D01*
X0132358Y0051356D02*
X0026204Y0051356D01*
X0026204Y0050857D02*
X0132358Y0050857D01*
X0132358Y0050359D02*
X0026204Y0050359D01*
X0026204Y0049860D02*
X0132358Y0049860D01*
X0132358Y0049362D02*
X0026204Y0049362D01*
X0026204Y0048863D02*
X0132358Y0048863D01*
X0132358Y0048365D02*
X0026204Y0048365D01*
X0026204Y0047866D02*
X0132358Y0047866D01*
X0132358Y0047368D02*
X0026204Y0047368D01*
X0026204Y0046869D02*
X0132358Y0046869D01*
X0132358Y0046370D02*
X0026204Y0046370D01*
X0026204Y0045872D02*
X0132358Y0045872D01*
X0132358Y0045373D02*
X0026204Y0045373D01*
X0026204Y0044875D02*
X0132358Y0044875D01*
X0132358Y0044376D02*
X0026204Y0044376D01*
X0026204Y0043878D02*
X0132358Y0043878D01*
X0132358Y0043379D02*
X0102773Y0043379D01*
X0102868Y0043354D02*
X0102550Y0043439D01*
X0099667Y0043439D01*
X0099667Y0039471D01*
X0099167Y0039471D01*
X0099167Y0043439D01*
X0096284Y0043439D01*
X0095966Y0043354D01*
X0095681Y0043189D01*
X0095449Y0042956D01*
X0095284Y0042671D01*
X0095199Y0042354D01*
X0095199Y0039470D01*
X0099167Y0039470D01*
X0099167Y0038970D01*
X0099667Y0038970D01*
X0099667Y0035002D01*
X0102550Y0035002D01*
X0102868Y0035087D01*
X0103153Y0035252D01*
X0103386Y0035484D01*
X0103551Y0035769D01*
X0103636Y0036087D01*
X0103636Y0038970D01*
X0099667Y0038970D01*
X0099667Y0039470D01*
X0103636Y0039470D01*
X0103636Y0042354D01*
X0103551Y0042671D01*
X0103386Y0042956D01*
X0103153Y0043189D01*
X0102868Y0043354D01*
X0103430Y0042881D02*
X0132358Y0042881D01*
X0132358Y0042382D02*
X0103628Y0042382D01*
X0103636Y0041884D02*
X0132358Y0041884D01*
X0132358Y0041385D02*
X0103636Y0041385D01*
X0103636Y0040887D02*
X0132358Y0040887D01*
X0132358Y0040388D02*
X0103636Y0040388D01*
X0103636Y0039890D02*
X0132358Y0039890D01*
X0132358Y0039391D02*
X0099667Y0039391D01*
X0099667Y0038893D02*
X0099167Y0038893D01*
X0099167Y0038970D02*
X0099167Y0035002D01*
X0096284Y0035002D01*
X0095966Y0035087D01*
X0095681Y0035252D01*
X0095449Y0035484D01*
X0095284Y0035769D01*
X0095199Y0036087D01*
X0095199Y0038970D01*
X0099167Y0038970D01*
X0099167Y0039391D02*
X0083991Y0039391D01*
X0083726Y0039656D02*
X0076919Y0039656D01*
X0076304Y0039041D01*
X0076304Y0032234D01*
X0076919Y0031619D01*
X0083726Y0031619D01*
X0084341Y0032234D01*
X0084341Y0039041D01*
X0083726Y0039656D01*
X0084341Y0038893D02*
X0095199Y0038893D01*
X0095199Y0038394D02*
X0084341Y0038394D01*
X0084341Y0037896D02*
X0095199Y0037896D01*
X0095199Y0037397D02*
X0084341Y0037397D01*
X0084341Y0036899D02*
X0095199Y0036899D01*
X0095199Y0036400D02*
X0084341Y0036400D01*
X0084341Y0035902D02*
X0095249Y0035902D01*
X0095530Y0035403D02*
X0084341Y0035403D01*
X0084341Y0034905D02*
X0132358Y0034905D01*
X0132358Y0035403D02*
X0103305Y0035403D01*
X0103586Y0035902D02*
X0132358Y0035902D01*
X0132358Y0036400D02*
X0103636Y0036400D01*
X0103636Y0036899D02*
X0132358Y0036899D01*
X0132358Y0037397D02*
X0103636Y0037397D01*
X0103636Y0037896D02*
X0132358Y0037896D01*
X0132358Y0038394D02*
X0103636Y0038394D01*
X0103636Y0038893D02*
X0132358Y0038893D01*
X0132358Y0034406D02*
X0084341Y0034406D01*
X0084341Y0033908D02*
X0132358Y0033908D01*
X0132358Y0033409D02*
X0084341Y0033409D01*
X0084341Y0032911D02*
X0132358Y0032911D01*
X0132358Y0032412D02*
X0084341Y0032412D01*
X0084021Y0031914D02*
X0132358Y0031914D01*
X0132358Y0030418D02*
X0126369Y0030418D01*
X0127977Y0029920D02*
X0132358Y0029920D01*
X0132358Y0029421D02*
X0128840Y0029421D01*
X0129704Y0028923D02*
X0132358Y0028923D01*
X0132358Y0028424D02*
X0130549Y0028424D01*
X0131047Y0027926D02*
X0132358Y0027926D01*
X0132358Y0027427D02*
X0131546Y0027427D01*
X0132044Y0026929D02*
X0132358Y0026929D01*
X0115200Y0009481D02*
X0084148Y0009481D01*
X0084148Y0009979D02*
X0114702Y0009979D01*
X0114203Y0010478D02*
X0084148Y0010478D01*
X0084003Y0008982D02*
X0115746Y0008982D01*
X0116609Y0008484D02*
X0083505Y0008484D01*
X0083006Y0007985D02*
X0117473Y0007985D01*
X0099667Y0035403D02*
X0099167Y0035403D01*
X0099167Y0035902D02*
X0099667Y0035902D01*
X0099667Y0036400D02*
X0099167Y0036400D01*
X0099167Y0036899D02*
X0099667Y0036899D01*
X0099667Y0037397D02*
X0099167Y0037397D01*
X0099167Y0037896D02*
X0099667Y0037896D01*
X0099667Y0038394D02*
X0099167Y0038394D01*
X0099167Y0039890D02*
X0099667Y0039890D01*
X0099667Y0040388D02*
X0099167Y0040388D01*
X0099167Y0040887D02*
X0099667Y0040887D01*
X0099667Y0041385D02*
X0099167Y0041385D01*
X0099167Y0041884D02*
X0099667Y0041884D01*
X0099667Y0042382D02*
X0099167Y0042382D01*
X0099167Y0042881D02*
X0099667Y0042881D01*
X0099667Y0043379D02*
X0099167Y0043379D01*
X0096062Y0043379D02*
X0026204Y0043379D01*
X0026204Y0042881D02*
X0095405Y0042881D01*
X0095207Y0042382D02*
X0026204Y0042382D01*
X0026204Y0041884D02*
X0095199Y0041884D01*
X0095199Y0041385D02*
X0026204Y0041385D01*
X0026204Y0040887D02*
X0095199Y0040887D01*
X0095199Y0040388D02*
X0026204Y0040388D01*
X0026204Y0039890D02*
X0095199Y0039890D01*
X0087342Y0052879D02*
X0084013Y0052879D01*
X0081659Y0055233D01*
X0081659Y0058562D01*
X0084013Y0060916D01*
X0087342Y0060916D01*
X0089696Y0058562D01*
X0089696Y0055233D01*
X0087342Y0052879D01*
X0087812Y0053350D02*
X0132358Y0053350D01*
X0132358Y0053848D02*
X0130838Y0053848D01*
X0131336Y0054347D02*
X0132358Y0054347D01*
X0132358Y0054845D02*
X0131835Y0054845D01*
X0132333Y0055344D02*
X0132358Y0055344D01*
X0129234Y0055344D02*
X0128734Y0055344D01*
X0128734Y0055842D02*
X0129234Y0055842D01*
X0129234Y0056341D02*
X0128734Y0056341D01*
X0128734Y0056839D02*
X0129234Y0056839D01*
X0129234Y0057338D02*
X0128734Y0057338D01*
X0128734Y0057836D02*
X0103436Y0057836D01*
X0103436Y0057338D02*
X0124766Y0057338D01*
X0124766Y0056839D02*
X0103436Y0056839D01*
X0103436Y0056341D02*
X0124766Y0056341D01*
X0125137Y0055842D02*
X0103139Y0055842D01*
X0103436Y0056139D02*
X0101082Y0053785D01*
X0097753Y0053785D01*
X0095399Y0056139D01*
X0095399Y0059468D01*
X0097753Y0061822D01*
X0101082Y0061822D01*
X0103436Y0059468D01*
X0103436Y0056139D01*
X0102641Y0055344D02*
X0125635Y0055344D01*
X0126134Y0054845D02*
X0102142Y0054845D01*
X0101644Y0054347D02*
X0126632Y0054347D01*
X0127131Y0053848D02*
X0101145Y0053848D01*
X0097689Y0053848D02*
X0088311Y0053848D01*
X0088809Y0054347D02*
X0097191Y0054347D01*
X0096692Y0054845D02*
X0089308Y0054845D01*
X0089696Y0055344D02*
X0096194Y0055344D01*
X0095695Y0055842D02*
X0089696Y0055842D01*
X0089696Y0056341D02*
X0095399Y0056341D01*
X0095399Y0056839D02*
X0089696Y0056839D01*
X0089696Y0057338D02*
X0095399Y0057338D01*
X0095399Y0057836D02*
X0089696Y0057836D01*
X0089696Y0058335D02*
X0095399Y0058335D01*
X0095399Y0058833D02*
X0089425Y0058833D01*
X0088926Y0059332D02*
X0095399Y0059332D01*
X0095761Y0059830D02*
X0088428Y0059830D01*
X0087929Y0060329D02*
X0096260Y0060329D01*
X0096758Y0060827D02*
X0087430Y0060827D01*
X0087342Y0062879D02*
X0089696Y0065233D01*
X0089696Y0068562D01*
X0087342Y0070916D01*
X0084013Y0070916D01*
X0081659Y0068562D01*
X0081659Y0065233D01*
X0084013Y0062879D01*
X0087342Y0062879D01*
X0087782Y0063320D02*
X0132358Y0063320D01*
X0132358Y0063818D02*
X0088281Y0063818D01*
X0088779Y0064317D02*
X0126945Y0064317D01*
X0126446Y0064815D02*
X0089278Y0064815D01*
X0089696Y0065314D02*
X0125948Y0065314D01*
X0125449Y0065812D02*
X0089696Y0065812D01*
X0089696Y0066311D02*
X0124966Y0066311D01*
X0124966Y0066809D02*
X0089696Y0066809D01*
X0089696Y0067308D02*
X0124966Y0067308D01*
X0124966Y0067806D02*
X0089696Y0067806D01*
X0089696Y0068305D02*
X0124966Y0068305D01*
X0124966Y0068803D02*
X0089454Y0068803D01*
X0088956Y0069302D02*
X0124966Y0069302D01*
X0125141Y0069801D02*
X0088457Y0069801D01*
X0087959Y0070299D02*
X0125640Y0070299D01*
X0126138Y0070798D02*
X0087460Y0070798D01*
X0087425Y0072679D02*
X0085927Y0072679D01*
X0085927Y0076648D01*
X0085927Y0077148D01*
X0085427Y0077148D01*
X0085427Y0081116D01*
X0083930Y0081116D01*
X0081459Y0078645D01*
X0081459Y0077148D01*
X0085427Y0077148D01*
X0085427Y0076648D01*
X0081459Y0076648D01*
X0081459Y0075150D01*
X0083930Y0072679D01*
X0085427Y0072679D01*
X0085427Y0076648D01*
X0085927Y0076648D01*
X0089896Y0076648D01*
X0089896Y0075150D01*
X0087425Y0072679D01*
X0087537Y0072792D02*
X0132358Y0072792D01*
X0132358Y0073290D02*
X0088035Y0073290D01*
X0088534Y0073789D02*
X0132358Y0073789D01*
X0132358Y0072293D02*
X0026204Y0072293D01*
X0026204Y0071795D02*
X0127135Y0071795D01*
X0126637Y0071296D02*
X0026204Y0071296D01*
X0026204Y0070798D02*
X0083894Y0070798D01*
X0083396Y0070299D02*
X0026204Y0070299D01*
X0026204Y0069801D02*
X0082897Y0069801D01*
X0082399Y0069302D02*
X0026204Y0069302D01*
X0026204Y0068803D02*
X0081900Y0068803D01*
X0081659Y0068305D02*
X0026204Y0068305D01*
X0026204Y0067806D02*
X0081659Y0067806D01*
X0081659Y0067308D02*
X0026204Y0067308D01*
X0026204Y0066809D02*
X0081659Y0066809D01*
X0081659Y0066311D02*
X0026204Y0066311D01*
X0026204Y0065812D02*
X0081659Y0065812D01*
X0081659Y0065314D02*
X0026204Y0065314D01*
X0026204Y0064815D02*
X0082076Y0064815D01*
X0082575Y0064317D02*
X0026204Y0064317D01*
X0026204Y0063818D02*
X0083073Y0063818D01*
X0083572Y0063320D02*
X0026204Y0063320D01*
X0026204Y0062821D02*
X0132358Y0062821D01*
X0132358Y0062323D02*
X0026204Y0062323D01*
X0026204Y0061824D02*
X0126882Y0061824D01*
X0126384Y0061326D02*
X0101578Y0061326D01*
X0102076Y0060827D02*
X0125885Y0060827D01*
X0125387Y0060329D02*
X0102575Y0060329D01*
X0103073Y0059830D02*
X0124888Y0059830D01*
X0124766Y0059332D02*
X0103436Y0059332D01*
X0103436Y0058833D02*
X0124766Y0058833D01*
X0124766Y0058335D02*
X0103436Y0058335D01*
X0097257Y0061326D02*
X0026204Y0061326D01*
X0026204Y0060827D02*
X0083924Y0060827D01*
X0083425Y0060329D02*
X0026204Y0060329D01*
X0026204Y0059830D02*
X0082927Y0059830D01*
X0082428Y0059332D02*
X0026204Y0059332D01*
X0026204Y0058833D02*
X0081930Y0058833D01*
X0081659Y0058335D02*
X0026204Y0058335D01*
X0026204Y0057836D02*
X0081659Y0057836D01*
X0081659Y0057338D02*
X0026204Y0057338D01*
X0026204Y0056839D02*
X0081659Y0056839D01*
X0081659Y0056341D02*
X0026204Y0056341D01*
X0026204Y0055842D02*
X0081659Y0055842D01*
X0081659Y0055344D02*
X0026204Y0055344D01*
X0026204Y0054845D02*
X0082047Y0054845D01*
X0082545Y0054347D02*
X0026204Y0054347D01*
X0023104Y0058335D02*
X0015093Y0058335D01*
X0015093Y0058833D02*
X0023104Y0058833D01*
X0023104Y0059332D02*
X0015093Y0059332D01*
X0014970Y0059830D02*
X0023104Y0059830D01*
X0023104Y0060329D02*
X0014472Y0060329D01*
X0013973Y0060827D02*
X0023104Y0060827D01*
X0023104Y0061326D02*
X0013475Y0061326D01*
X0012976Y0061824D02*
X0023104Y0061824D01*
X0023104Y0062323D02*
X0007500Y0062323D01*
X0007500Y0062821D02*
X0023104Y0062821D01*
X0023104Y0063320D02*
X0007500Y0063320D01*
X0007500Y0063818D02*
X0023104Y0063818D01*
X0023104Y0064317D02*
X0012913Y0064317D01*
X0013412Y0064815D02*
X0023104Y0064815D01*
X0023104Y0065314D02*
X0013910Y0065314D01*
X0014409Y0065812D02*
X0023104Y0065812D01*
X0023104Y0066311D02*
X0014893Y0066311D01*
X0014893Y0066809D02*
X0023104Y0066809D01*
X0023104Y0067308D02*
X0014893Y0067308D01*
X0014893Y0067806D02*
X0023104Y0067806D01*
X0023104Y0068305D02*
X0014893Y0068305D01*
X0014893Y0068803D02*
X0023104Y0068803D01*
X0023104Y0069302D02*
X0014893Y0069302D01*
X0014717Y0069801D02*
X0023104Y0069801D01*
X0023104Y0070299D02*
X0014219Y0070299D01*
X0013720Y0070798D02*
X0023104Y0070798D01*
X0023063Y0071296D02*
X0013222Y0071296D01*
X0012723Y0071795D02*
X0022565Y0071795D01*
X0022066Y0072293D02*
X0007500Y0072293D01*
X0007500Y0071795D02*
X0009025Y0071795D01*
X0008526Y0071296D02*
X0007500Y0071296D01*
X0007500Y0070798D02*
X0008028Y0070798D01*
X0007529Y0070299D02*
X0007500Y0070299D01*
X0007500Y0072792D02*
X0021568Y0072792D01*
X0021069Y0073290D02*
X0007500Y0073290D01*
X0007500Y0073789D02*
X0020571Y0073789D01*
X0020072Y0074287D02*
X0014622Y0074287D01*
X0014893Y0074786D02*
X0019574Y0074786D01*
X0019075Y0075284D02*
X0014893Y0075284D01*
X0014893Y0075783D02*
X0018576Y0075783D01*
X0018078Y0076281D02*
X0014893Y0076281D01*
X0014893Y0079771D02*
X0082584Y0079771D01*
X0082086Y0079272D02*
X0019471Y0079272D01*
X0019969Y0078774D02*
X0081587Y0078774D01*
X0081459Y0078275D02*
X0020468Y0078275D01*
X0020966Y0077777D02*
X0081459Y0077777D01*
X0081459Y0077278D02*
X0021465Y0077278D01*
X0021964Y0076780D02*
X0085427Y0076780D01*
X0085427Y0077278D02*
X0085927Y0077278D01*
X0085927Y0077148D02*
X0085927Y0081116D01*
X0087425Y0081116D01*
X0089896Y0078645D01*
X0089896Y0077148D01*
X0085927Y0077148D01*
X0085927Y0076780D02*
X0124966Y0076780D01*
X0124966Y0077278D02*
X0089896Y0077278D01*
X0089896Y0077777D02*
X0124966Y0077777D01*
X0124966Y0078275D02*
X0089896Y0078275D01*
X0089767Y0078774D02*
X0124966Y0078774D01*
X0124966Y0079272D02*
X0089268Y0079272D01*
X0088770Y0079771D02*
X0124966Y0079771D01*
X0124484Y0080269D02*
X0088271Y0080269D01*
X0087773Y0080768D02*
X0123985Y0080768D01*
X0123487Y0081266D02*
X0014893Y0081266D01*
X0014893Y0080768D02*
X0083581Y0080768D01*
X0083083Y0080269D02*
X0014893Y0080269D01*
X0014492Y0081765D02*
X0122988Y0081765D01*
X0122490Y0082263D02*
X0007500Y0082263D01*
X0007500Y0082762D02*
X0121991Y0082762D01*
X0121493Y0083260D02*
X0089462Y0083260D01*
X0089696Y0083494D02*
X0089696Y0090301D01*
X0089081Y0090916D01*
X0083851Y0090916D01*
X0074668Y0100099D01*
X0073760Y0101007D01*
X0038515Y0101007D01*
X0038515Y0101121D01*
X0036161Y0103475D01*
X0032832Y0103475D01*
X0030478Y0101121D01*
X0030478Y0097792D01*
X0032832Y0095438D01*
X0036161Y0095438D01*
X0038515Y0097792D01*
X0038515Y0097907D01*
X0072476Y0097907D01*
X0081659Y0088724D01*
X0081659Y0083494D01*
X0082274Y0082879D01*
X0089081Y0082879D01*
X0089696Y0083494D01*
X0089696Y0083759D02*
X0120994Y0083759D01*
X0120495Y0084257D02*
X0089696Y0084257D01*
X0089696Y0084756D02*
X0119997Y0084756D01*
X0119498Y0085254D02*
X0089696Y0085254D01*
X0089696Y0085753D02*
X0119000Y0085753D01*
X0118501Y0086251D02*
X0089696Y0086251D01*
X0089696Y0086750D02*
X0118003Y0086750D01*
X0117504Y0087248D02*
X0089696Y0087248D01*
X0089696Y0087747D02*
X0117006Y0087747D01*
X0116507Y0088245D02*
X0089696Y0088245D01*
X0089696Y0088744D02*
X0116009Y0088744D01*
X0115510Y0089242D02*
X0089696Y0089242D01*
X0089696Y0089741D02*
X0115012Y0089741D01*
X0114513Y0090239D02*
X0089696Y0090239D01*
X0089259Y0090738D02*
X0114015Y0090738D01*
X0113516Y0091237D02*
X0083530Y0091237D01*
X0083032Y0091735D02*
X0113018Y0091735D01*
X0112519Y0092234D02*
X0082533Y0092234D01*
X0082035Y0092732D02*
X0112021Y0092732D01*
X0111522Y0093231D02*
X0081536Y0093231D01*
X0081038Y0093729D02*
X0111024Y0093729D01*
X0110525Y0094228D02*
X0080539Y0094228D01*
X0080041Y0094726D02*
X0110027Y0094726D01*
X0109528Y0095225D02*
X0079542Y0095225D01*
X0079044Y0095723D02*
X0109030Y0095723D01*
X0108531Y0096222D02*
X0078545Y0096222D01*
X0078047Y0096720D02*
X0108033Y0096720D01*
X0107534Y0097219D02*
X0077548Y0097219D01*
X0077050Y0097717D02*
X0107036Y0097717D01*
X0106537Y0098216D02*
X0076551Y0098216D01*
X0076053Y0098714D02*
X0106039Y0098714D01*
X0105540Y0099213D02*
X0075554Y0099213D01*
X0075056Y0099711D02*
X0105042Y0099711D01*
X0104543Y0100210D02*
X0074557Y0100210D01*
X0074059Y0100708D02*
X0104045Y0100708D01*
X0103546Y0101207D02*
X0038429Y0101207D01*
X0037931Y0101705D02*
X0103048Y0101705D01*
X0102549Y0102204D02*
X0037432Y0102204D01*
X0036933Y0102702D02*
X0102051Y0102702D01*
X0101552Y0103201D02*
X0036435Y0103201D01*
X0037899Y0105438D02*
X0038515Y0106053D01*
X0038515Y0112860D01*
X0037899Y0113475D01*
X0031093Y0113475D01*
X0030478Y0112860D01*
X0030478Y0106053D01*
X0031093Y0105438D01*
X0037899Y0105438D01*
X0038155Y0105693D02*
X0099060Y0105693D01*
X0099558Y0105195D02*
X0018919Y0105195D01*
X0020780Y0105693D02*
X0030837Y0105693D01*
X0030478Y0106192D02*
X0022007Y0106192D01*
X0022871Y0106690D02*
X0030478Y0106690D01*
X0030478Y0107189D02*
X0023734Y0107189D01*
X0024440Y0107687D02*
X0030478Y0107687D01*
X0030478Y0108186D02*
X0024938Y0108186D01*
X0025437Y0108684D02*
X0030478Y0108684D01*
X0030478Y0109183D02*
X0025935Y0109183D01*
X0026434Y0109681D02*
X0030478Y0109681D01*
X0030478Y0110180D02*
X0026742Y0110180D01*
X0027029Y0110678D02*
X0030478Y0110678D01*
X0030478Y0111177D02*
X0027317Y0111177D01*
X0027605Y0111675D02*
X0030478Y0111675D01*
X0030478Y0112174D02*
X0027893Y0112174D01*
X0028125Y0112672D02*
X0030478Y0112672D01*
X0030788Y0113171D02*
X0028259Y0113171D01*
X0028392Y0113670D02*
X0059430Y0113670D01*
X0058931Y0114168D02*
X0028526Y0114168D01*
X0028660Y0114667D02*
X0058433Y0114667D01*
X0058379Y0115165D02*
X0028793Y0115165D01*
X0028904Y0115664D02*
X0058379Y0115664D01*
X0058379Y0116162D02*
X0028904Y0116162D01*
X0028904Y0116661D02*
X0058379Y0116661D01*
X0058379Y0117159D02*
X0028904Y0117159D01*
X0028904Y0117658D02*
X0058379Y0117658D01*
X0058379Y0118156D02*
X0028904Y0118156D01*
X0028904Y0118655D02*
X0058379Y0118655D01*
X0058379Y0119153D02*
X0028801Y0119153D01*
X0028667Y0119652D02*
X0058379Y0119652D01*
X0058379Y0120150D02*
X0028534Y0120150D01*
X0028400Y0120649D02*
X0058379Y0120649D01*
X0056407Y0121147D02*
X0028266Y0121147D01*
X0028133Y0121646D02*
X0055911Y0121646D01*
X0055911Y0122144D02*
X0027909Y0122144D01*
X0027621Y0122643D02*
X0055911Y0122643D01*
X0055911Y0123141D02*
X0027334Y0123141D01*
X0027046Y0123640D02*
X0055911Y0123640D01*
X0055911Y0124138D02*
X0026758Y0124138D01*
X0026462Y0124637D02*
X0055911Y0124637D01*
X0055911Y0125135D02*
X0025963Y0125135D01*
X0025465Y0125634D02*
X0055911Y0125634D01*
X0055911Y0126132D02*
X0024966Y0126132D01*
X0024468Y0126631D02*
X0055911Y0126631D01*
X0055911Y0127129D02*
X0023783Y0127129D01*
X0022920Y0127628D02*
X0055911Y0127628D01*
X0055911Y0128126D02*
X0022056Y0128126D01*
X0038204Y0113171D02*
X0059928Y0113171D01*
X0060427Y0112672D02*
X0038515Y0112672D01*
X0038515Y0112174D02*
X0060925Y0112174D01*
X0061424Y0111675D02*
X0038515Y0111675D01*
X0038515Y0111177D02*
X0061922Y0111177D01*
X0062421Y0110678D02*
X0038515Y0110678D01*
X0038515Y0110180D02*
X0062919Y0110180D01*
X0063418Y0109681D02*
X0038515Y0109681D01*
X0038515Y0109183D02*
X0063916Y0109183D01*
X0064415Y0108684D02*
X0038515Y0108684D01*
X0038515Y0108186D02*
X0064913Y0108186D01*
X0065412Y0107687D02*
X0038515Y0107687D01*
X0038515Y0107189D02*
X0065910Y0107189D01*
X0066409Y0106690D02*
X0038515Y0106690D01*
X0038515Y0106192D02*
X0066907Y0106192D01*
X0068603Y0108881D02*
X0098972Y0108881D01*
X0100256Y0108881D01*
X0127158Y0081979D01*
X0132358Y0081979D01*
X0132358Y0109307D01*
X0130523Y0107472D01*
X0127758Y0105875D01*
X0124675Y0105049D01*
X0121483Y0105049D01*
X0118399Y0105875D01*
X0115634Y0107472D01*
X0113377Y0109729D01*
X0111781Y0112494D01*
X0110955Y0115577D01*
X0110955Y0118769D01*
X0111781Y0121853D01*
X0113377Y0124618D01*
X0115634Y0126875D01*
X0118313Y0128421D01*
X0082521Y0128421D01*
X0084148Y0126795D01*
X0084148Y0125297D01*
X0080179Y0125297D01*
X0080179Y0124797D01*
X0080179Y0120829D01*
X0081676Y0120829D01*
X0084148Y0123300D01*
X0084148Y0124797D01*
X0080179Y0124797D01*
X0079679Y0124797D01*
X0079679Y0120829D01*
X0078182Y0120829D01*
X0075711Y0123300D01*
X0075711Y0124797D01*
X0079679Y0124797D01*
X0079679Y0125297D01*
X0075711Y0125297D01*
X0075711Y0126795D01*
X0077337Y0128421D01*
X0072238Y0128421D01*
X0073948Y0126712D01*
X0073948Y0123383D01*
X0071594Y0121029D01*
X0068265Y0121029D01*
X0065911Y0123383D01*
X0065911Y0126712D01*
X0067620Y0128421D01*
X0063948Y0128421D01*
X0063948Y0121644D01*
X0063333Y0121029D01*
X0061479Y0121029D01*
X0061479Y0116004D01*
X0068603Y0108881D01*
X0068300Y0109183D02*
X0113923Y0109183D01*
X0113425Y0109681D02*
X0067802Y0109681D01*
X0067303Y0110180D02*
X0113117Y0110180D01*
X0112829Y0110678D02*
X0066805Y0110678D01*
X0066306Y0111177D02*
X0112541Y0111177D01*
X0112253Y0111675D02*
X0065808Y0111675D01*
X0065309Y0112174D02*
X0111965Y0112174D01*
X0111733Y0112672D02*
X0064811Y0112672D01*
X0064312Y0113171D02*
X0111599Y0113171D01*
X0111466Y0113670D02*
X0063814Y0113670D01*
X0063315Y0114168D02*
X0111332Y0114168D01*
X0111199Y0114667D02*
X0062817Y0114667D01*
X0062318Y0115165D02*
X0111065Y0115165D01*
X0110955Y0115664D02*
X0061820Y0115664D01*
X0061479Y0116162D02*
X0110955Y0116162D01*
X0110955Y0116661D02*
X0061479Y0116661D01*
X0061479Y0117159D02*
X0110955Y0117159D01*
X0110955Y0117658D02*
X0061479Y0117658D01*
X0061479Y0118156D02*
X0110955Y0118156D01*
X0110955Y0118655D02*
X0061479Y0118655D01*
X0061479Y0119153D02*
X0111058Y0119153D01*
X0111191Y0119652D02*
X0061479Y0119652D01*
X0061479Y0120150D02*
X0111325Y0120150D01*
X0111458Y0120649D02*
X0061479Y0120649D01*
X0063451Y0121147D02*
X0068146Y0121147D01*
X0067648Y0121646D02*
X0063948Y0121646D01*
X0063948Y0122144D02*
X0067149Y0122144D01*
X0066651Y0122643D02*
X0063948Y0122643D01*
X0063948Y0123141D02*
X0066152Y0123141D01*
X0065911Y0123640D02*
X0063948Y0123640D01*
X0063948Y0124138D02*
X0065911Y0124138D01*
X0065911Y0124637D02*
X0063948Y0124637D01*
X0063948Y0125135D02*
X0065911Y0125135D01*
X0065911Y0125634D02*
X0063948Y0125634D01*
X0063948Y0126132D02*
X0065911Y0126132D01*
X0065911Y0126631D02*
X0063948Y0126631D01*
X0063948Y0127129D02*
X0066328Y0127129D01*
X0066827Y0127628D02*
X0063948Y0127628D01*
X0063948Y0128126D02*
X0067325Y0128126D01*
X0072533Y0128126D02*
X0077042Y0128126D01*
X0076544Y0127628D02*
X0073032Y0127628D01*
X0073530Y0127129D02*
X0076045Y0127129D01*
X0075711Y0126631D02*
X0073948Y0126631D01*
X0073948Y0126132D02*
X0075711Y0126132D01*
X0075711Y0125634D02*
X0073948Y0125634D01*
X0073948Y0125135D02*
X0079679Y0125135D01*
X0079679Y0124637D02*
X0080179Y0124637D01*
X0080179Y0125135D02*
X0113895Y0125135D01*
X0113396Y0124637D02*
X0084148Y0124637D01*
X0084148Y0124138D02*
X0113100Y0124138D01*
X0112813Y0123640D02*
X0084148Y0123640D01*
X0083989Y0123141D02*
X0112525Y0123141D01*
X0112237Y0122643D02*
X0083490Y0122643D01*
X0082992Y0122144D02*
X0111949Y0122144D01*
X0111725Y0121646D02*
X0082493Y0121646D01*
X0081995Y0121147D02*
X0111592Y0121147D01*
X0114393Y0125634D02*
X0084148Y0125634D01*
X0084148Y0126132D02*
X0114892Y0126132D01*
X0115390Y0126631D02*
X0084148Y0126631D01*
X0083813Y0127129D02*
X0116075Y0127129D01*
X0116939Y0127628D02*
X0083314Y0127628D01*
X0082816Y0128126D02*
X0117802Y0128126D01*
X0132234Y0109183D02*
X0132358Y0109183D01*
X0132358Y0108684D02*
X0131736Y0108684D01*
X0131237Y0108186D02*
X0132358Y0108186D01*
X0132358Y0107687D02*
X0130739Y0107687D01*
X0130033Y0107189D02*
X0132358Y0107189D01*
X0132358Y0106690D02*
X0129170Y0106690D01*
X0128306Y0106192D02*
X0132358Y0106192D01*
X0132358Y0105693D02*
X0127079Y0105693D01*
X0125218Y0105195D02*
X0132358Y0105195D01*
X0132358Y0104696D02*
X0104441Y0104696D01*
X0104939Y0104198D02*
X0132358Y0104198D01*
X0132358Y0103699D02*
X0105438Y0103699D01*
X0105936Y0103201D02*
X0132358Y0103201D01*
X0132358Y0102702D02*
X0106435Y0102702D01*
X0106933Y0102204D02*
X0132358Y0102204D01*
X0132358Y0101705D02*
X0107432Y0101705D01*
X0107930Y0101207D02*
X0132358Y0101207D01*
X0132358Y0100708D02*
X0108429Y0100708D01*
X0108927Y0100210D02*
X0132358Y0100210D01*
X0132358Y0099711D02*
X0109426Y0099711D01*
X0109924Y0099213D02*
X0132358Y0099213D01*
X0132358Y0098714D02*
X0110423Y0098714D01*
X0110921Y0098216D02*
X0132358Y0098216D01*
X0132358Y0097717D02*
X0111420Y0097717D01*
X0111918Y0097219D02*
X0132358Y0097219D01*
X0132358Y0096720D02*
X0112417Y0096720D01*
X0112915Y0096222D02*
X0132358Y0096222D01*
X0132358Y0095723D02*
X0113414Y0095723D01*
X0113912Y0095225D02*
X0132358Y0095225D01*
X0132358Y0094726D02*
X0114411Y0094726D01*
X0114909Y0094228D02*
X0132358Y0094228D01*
X0132358Y0093729D02*
X0115408Y0093729D01*
X0115906Y0093231D02*
X0132358Y0093231D01*
X0132358Y0092732D02*
X0116405Y0092732D01*
X0116903Y0092234D02*
X0132358Y0092234D01*
X0132358Y0091735D02*
X0117402Y0091735D01*
X0117900Y0091237D02*
X0132358Y0091237D01*
X0132358Y0090738D02*
X0118399Y0090738D01*
X0118897Y0090239D02*
X0132358Y0090239D01*
X0132358Y0089741D02*
X0119396Y0089741D01*
X0119894Y0089242D02*
X0132358Y0089242D01*
X0132358Y0088744D02*
X0120393Y0088744D01*
X0120891Y0088245D02*
X0132358Y0088245D01*
X0132358Y0087747D02*
X0121390Y0087747D01*
X0121888Y0087248D02*
X0132358Y0087248D01*
X0132358Y0086750D02*
X0122387Y0086750D01*
X0122886Y0086251D02*
X0132358Y0086251D01*
X0132358Y0085753D02*
X0123384Y0085753D01*
X0123883Y0085254D02*
X0132358Y0085254D01*
X0132358Y0084756D02*
X0124381Y0084756D01*
X0124880Y0084257D02*
X0132358Y0084257D01*
X0132358Y0083759D02*
X0125378Y0083759D01*
X0125877Y0083260D02*
X0132358Y0083260D01*
X0132358Y0082762D02*
X0126375Y0082762D01*
X0126874Y0082263D02*
X0132358Y0082263D01*
X0124966Y0076281D02*
X0089896Y0076281D01*
X0089896Y0075783D02*
X0124966Y0075783D01*
X0124966Y0075284D02*
X0089896Y0075284D01*
X0089531Y0074786D02*
X0124966Y0074786D01*
X0125236Y0074287D02*
X0089033Y0074287D01*
X0085927Y0074287D02*
X0085427Y0074287D01*
X0085427Y0073789D02*
X0085927Y0073789D01*
X0085927Y0073290D02*
X0085427Y0073290D01*
X0085427Y0072792D02*
X0085927Y0072792D01*
X0085927Y0074786D02*
X0085427Y0074786D01*
X0085427Y0075284D02*
X0085927Y0075284D01*
X0085927Y0075783D02*
X0085427Y0075783D01*
X0085427Y0076281D02*
X0085927Y0076281D01*
X0085927Y0077777D02*
X0085427Y0077777D01*
X0085427Y0078275D02*
X0085927Y0078275D01*
X0085927Y0078774D02*
X0085427Y0078774D01*
X0085427Y0079272D02*
X0085927Y0079272D01*
X0085927Y0079771D02*
X0085427Y0079771D01*
X0085427Y0080269D02*
X0085927Y0080269D01*
X0085927Y0080768D02*
X0085427Y0080768D01*
X0081893Y0083260D02*
X0007500Y0083260D01*
X0007500Y0083759D02*
X0081659Y0083759D01*
X0081659Y0084257D02*
X0007500Y0084257D01*
X0007500Y0084756D02*
X0081659Y0084756D01*
X0081659Y0085254D02*
X0036260Y0085254D01*
X0036243Y0085238D02*
X0038715Y0087709D01*
X0038715Y0089207D01*
X0034746Y0089207D01*
X0034746Y0089707D01*
X0034246Y0089707D01*
X0034246Y0093675D01*
X0032749Y0093675D01*
X0030278Y0091204D01*
X0030278Y0089707D01*
X0034246Y0089707D01*
X0034246Y0089207D01*
X0030278Y0089207D01*
X0030278Y0087709D01*
X0032749Y0085238D01*
X0034246Y0085238D01*
X0034246Y0089207D01*
X0034746Y0089207D01*
X0034746Y0085238D01*
X0036243Y0085238D01*
X0036758Y0085753D02*
X0081659Y0085753D01*
X0081659Y0086251D02*
X0037257Y0086251D01*
X0037755Y0086750D02*
X0081659Y0086750D01*
X0081659Y0087248D02*
X0038254Y0087248D01*
X0038715Y0087747D02*
X0081659Y0087747D01*
X0081659Y0088245D02*
X0038715Y0088245D01*
X0038715Y0088744D02*
X0081639Y0088744D01*
X0081140Y0089242D02*
X0034746Y0089242D01*
X0034746Y0089707D02*
X0038715Y0089707D01*
X0038715Y0091204D01*
X0036243Y0093675D01*
X0034746Y0093675D01*
X0034746Y0089707D01*
X0034746Y0089741D02*
X0034246Y0089741D01*
X0034246Y0090239D02*
X0034746Y0090239D01*
X0034746Y0090738D02*
X0034246Y0090738D01*
X0034246Y0091237D02*
X0034746Y0091237D01*
X0034746Y0091735D02*
X0034246Y0091735D01*
X0034246Y0092234D02*
X0034746Y0092234D01*
X0034746Y0092732D02*
X0034246Y0092732D01*
X0034246Y0093231D02*
X0034746Y0093231D01*
X0036688Y0093231D02*
X0077152Y0093231D01*
X0076654Y0093729D02*
X0007500Y0093729D01*
X0007500Y0093231D02*
X0032304Y0093231D01*
X0031806Y0092732D02*
X0007500Y0092732D01*
X0007500Y0092234D02*
X0031307Y0092234D01*
X0030809Y0091735D02*
X0007500Y0091735D01*
X0007500Y0091237D02*
X0030310Y0091237D01*
X0030278Y0090738D02*
X0007500Y0090738D01*
X0007500Y0090239D02*
X0030278Y0090239D01*
X0030278Y0089741D02*
X0007500Y0089741D01*
X0007500Y0089242D02*
X0034246Y0089242D01*
X0034246Y0088744D02*
X0034746Y0088744D01*
X0034746Y0088245D02*
X0034246Y0088245D01*
X0034246Y0087747D02*
X0034746Y0087747D01*
X0034746Y0087248D02*
X0034246Y0087248D01*
X0034246Y0086750D02*
X0034746Y0086750D01*
X0034746Y0086251D02*
X0034246Y0086251D01*
X0034246Y0085753D02*
X0034746Y0085753D01*
X0034746Y0085254D02*
X0034246Y0085254D01*
X0032733Y0085254D02*
X0007500Y0085254D01*
X0007500Y0085753D02*
X0032234Y0085753D01*
X0031735Y0086251D02*
X0007500Y0086251D01*
X0007500Y0086750D02*
X0031237Y0086750D01*
X0030738Y0087248D02*
X0007500Y0087248D01*
X0007500Y0087747D02*
X0030278Y0087747D01*
X0030278Y0088245D02*
X0007500Y0088245D01*
X0007500Y0088744D02*
X0030278Y0088744D01*
X0032547Y0095723D02*
X0007500Y0095723D01*
X0007500Y0095225D02*
X0075158Y0095225D01*
X0074660Y0095723D02*
X0036445Y0095723D01*
X0036944Y0096222D02*
X0074161Y0096222D01*
X0073663Y0096720D02*
X0037443Y0096720D01*
X0037941Y0097219D02*
X0073164Y0097219D01*
X0072666Y0097717D02*
X0038440Y0097717D01*
X0037187Y0092732D02*
X0077651Y0092732D01*
X0078149Y0092234D02*
X0037685Y0092234D01*
X0038184Y0091735D02*
X0078648Y0091735D01*
X0079146Y0091237D02*
X0038682Y0091237D01*
X0038715Y0090738D02*
X0079645Y0090738D01*
X0080143Y0090239D02*
X0038715Y0090239D01*
X0038715Y0089741D02*
X0080642Y0089741D01*
X0076155Y0094228D02*
X0007500Y0094228D01*
X0007500Y0094726D02*
X0075657Y0094726D01*
X0081459Y0076281D02*
X0022462Y0076281D01*
X0022961Y0075783D02*
X0081459Y0075783D01*
X0081459Y0075284D02*
X0023459Y0075284D01*
X0023958Y0074786D02*
X0081823Y0074786D01*
X0082322Y0074287D02*
X0024456Y0074287D01*
X0024955Y0073789D02*
X0082820Y0073789D01*
X0083319Y0073290D02*
X0025453Y0073290D01*
X0025952Y0072792D02*
X0083817Y0072792D01*
X0101054Y0103699D02*
X0007500Y0103699D01*
X0007500Y0103201D02*
X0032557Y0103201D01*
X0032059Y0102702D02*
X0007500Y0102702D01*
X0007500Y0102204D02*
X0031560Y0102204D01*
X0031062Y0101705D02*
X0007500Y0101705D01*
X0007500Y0101207D02*
X0030563Y0101207D01*
X0030478Y0100708D02*
X0007500Y0100708D01*
X0007500Y0100210D02*
X0030478Y0100210D01*
X0030478Y0099711D02*
X0007500Y0099711D01*
X0007500Y0099213D02*
X0030478Y0099213D01*
X0030478Y0098714D02*
X0007500Y0098714D01*
X0007500Y0098216D02*
X0030478Y0098216D01*
X0030553Y0097717D02*
X0007500Y0097717D01*
X0007500Y0097219D02*
X0031051Y0097219D01*
X0031550Y0096720D02*
X0007500Y0096720D01*
X0007500Y0096222D02*
X0032048Y0096222D01*
X0014640Y0105195D02*
X0007500Y0105195D01*
X0007500Y0105693D02*
X0012779Y0105693D01*
X0011552Y0106192D02*
X0007500Y0106192D01*
X0007500Y0106690D02*
X0010688Y0106690D01*
X0009825Y0107189D02*
X0007500Y0107189D01*
X0007500Y0107687D02*
X0009119Y0107687D01*
X0008621Y0108186D02*
X0007500Y0108186D01*
X0007500Y0108684D02*
X0008122Y0108684D01*
X0007624Y0109183D02*
X0007500Y0109183D01*
X0007500Y0104696D02*
X0100057Y0104696D01*
X0100555Y0104198D02*
X0007500Y0104198D01*
X0007500Y0065314D02*
X0007838Y0065314D01*
X0007500Y0064815D02*
X0008336Y0064815D01*
X0008835Y0064317D02*
X0007500Y0064317D01*
X0007500Y0061824D02*
X0008772Y0061824D01*
X0008273Y0061326D02*
X0007500Y0061326D01*
X0007500Y0060827D02*
X0007775Y0060827D01*
X0010624Y0060827D02*
X0011124Y0060827D01*
X0011124Y0060329D02*
X0010624Y0060329D01*
X0010624Y0059830D02*
X0011124Y0059830D01*
X0011124Y0059332D02*
X0010624Y0059332D01*
X0010624Y0058833D02*
X0011124Y0058833D01*
X0011124Y0058335D02*
X0010624Y0058335D01*
X0010624Y0061326D02*
X0011124Y0061326D01*
X0011124Y0061824D02*
X0010624Y0061824D01*
X0010624Y0054845D02*
X0011124Y0054845D01*
X0011124Y0054347D02*
X0010624Y0054347D01*
X0010624Y0053848D02*
X0011124Y0053848D01*
X0040073Y0034905D02*
X0040573Y0034905D01*
X0040573Y0035388D02*
X0040573Y0031419D01*
X0042070Y0031419D01*
X0044541Y0033890D01*
X0044541Y0035388D01*
X0040573Y0035388D01*
X0040573Y0035403D02*
X0046304Y0035403D01*
X0046304Y0034905D02*
X0044541Y0034905D01*
X0044541Y0034406D02*
X0046304Y0034406D01*
X0046304Y0033973D02*
X0048658Y0031619D01*
X0051987Y0031619D01*
X0054341Y0033973D01*
X0054341Y0037302D01*
X0051987Y0039656D01*
X0048658Y0039656D01*
X0046304Y0037302D01*
X0046304Y0033973D01*
X0046370Y0033908D02*
X0044541Y0033908D01*
X0044060Y0033409D02*
X0046868Y0033409D01*
X0047367Y0032911D02*
X0043562Y0032911D01*
X0043063Y0032412D02*
X0047865Y0032412D01*
X0048364Y0031914D02*
X0042565Y0031914D01*
X0040573Y0031914D02*
X0040073Y0031914D01*
X0040073Y0032412D02*
X0040573Y0032412D01*
X0040573Y0032911D02*
X0040073Y0032911D01*
X0040073Y0033409D02*
X0040573Y0033409D01*
X0040573Y0033908D02*
X0040073Y0033908D01*
X0040073Y0034406D02*
X0040573Y0034406D01*
X0044541Y0035902D02*
X0046304Y0035902D01*
X0046304Y0036400D02*
X0044541Y0036400D01*
X0044541Y0036899D02*
X0046304Y0036899D01*
X0046399Y0037397D02*
X0044529Y0037397D01*
X0044031Y0037896D02*
X0046898Y0037896D01*
X0047396Y0038394D02*
X0043532Y0038394D01*
X0043034Y0038893D02*
X0047895Y0038893D01*
X0048393Y0039391D02*
X0042535Y0039391D01*
X0052252Y0039391D02*
X0058393Y0039391D01*
X0058658Y0039656D02*
X0056304Y0037302D01*
X0056304Y0033973D01*
X0058658Y0031619D01*
X0061987Y0031619D01*
X0064341Y0033973D01*
X0064341Y0037302D01*
X0061987Y0039656D01*
X0058658Y0039656D01*
X0057895Y0038893D02*
X0052751Y0038893D01*
X0053249Y0038394D02*
X0057396Y0038394D01*
X0056898Y0037896D02*
X0053748Y0037896D01*
X0054246Y0037397D02*
X0056399Y0037397D01*
X0056304Y0036899D02*
X0054341Y0036899D01*
X0054341Y0036400D02*
X0056304Y0036400D01*
X0056304Y0035902D02*
X0054341Y0035902D01*
X0054341Y0035403D02*
X0056304Y0035403D01*
X0056304Y0034905D02*
X0054341Y0034905D01*
X0054341Y0034406D02*
X0056304Y0034406D01*
X0056370Y0033908D02*
X0054276Y0033908D01*
X0053777Y0033409D02*
X0056868Y0033409D01*
X0057367Y0032911D02*
X0053279Y0032911D01*
X0052780Y0032412D02*
X0057865Y0032412D01*
X0058364Y0031914D02*
X0052282Y0031914D01*
X0062282Y0031914D02*
X0068364Y0031914D01*
X0068658Y0031619D02*
X0071987Y0031619D01*
X0074341Y0033973D01*
X0074341Y0037302D01*
X0071987Y0039656D01*
X0068658Y0039656D01*
X0066304Y0037302D01*
X0066304Y0033973D01*
X0068658Y0031619D01*
X0067865Y0032412D02*
X0062780Y0032412D01*
X0063279Y0032911D02*
X0067367Y0032911D01*
X0066868Y0033409D02*
X0063777Y0033409D01*
X0064276Y0033908D02*
X0066370Y0033908D01*
X0066304Y0034406D02*
X0064341Y0034406D01*
X0064341Y0034905D02*
X0066304Y0034905D01*
X0066304Y0035403D02*
X0064341Y0035403D01*
X0064341Y0035902D02*
X0066304Y0035902D01*
X0066304Y0036400D02*
X0064341Y0036400D01*
X0064341Y0036899D02*
X0066304Y0036899D01*
X0066399Y0037397D02*
X0064246Y0037397D01*
X0063748Y0037896D02*
X0066898Y0037896D01*
X0067396Y0038394D02*
X0063249Y0038394D01*
X0062751Y0038893D02*
X0067895Y0038893D01*
X0068393Y0039391D02*
X0062252Y0039391D01*
X0072252Y0039391D02*
X0076654Y0039391D01*
X0076304Y0038893D02*
X0072751Y0038893D01*
X0073249Y0038394D02*
X0076304Y0038394D01*
X0076304Y0037896D02*
X0073748Y0037896D01*
X0074246Y0037397D02*
X0076304Y0037397D01*
X0076304Y0036899D02*
X0074341Y0036899D01*
X0074341Y0036400D02*
X0076304Y0036400D01*
X0076304Y0035902D02*
X0074341Y0035902D01*
X0074341Y0035403D02*
X0076304Y0035403D01*
X0076304Y0034905D02*
X0074341Y0034905D01*
X0074341Y0034406D02*
X0076304Y0034406D01*
X0076304Y0033908D02*
X0074276Y0033908D01*
X0073777Y0033409D02*
X0076304Y0033409D01*
X0076304Y0032911D02*
X0073279Y0032911D01*
X0072780Y0032412D02*
X0076304Y0032412D01*
X0076625Y0031914D02*
X0072282Y0031914D01*
X0079679Y0014964D02*
X0080179Y0014964D01*
X0080179Y0014466D02*
X0079679Y0014466D01*
X0079679Y0013967D02*
X0080179Y0013967D01*
X0080179Y0013469D02*
X0079679Y0013469D01*
X0079679Y0012970D02*
X0080179Y0012970D01*
X0080179Y0012472D02*
X0079679Y0012472D01*
X0079679Y0011973D02*
X0080179Y0011973D01*
X0076354Y0008484D02*
X0073222Y0008484D01*
X0073720Y0008982D02*
X0075855Y0008982D01*
X0075711Y0009481D02*
X0073948Y0009481D01*
X0073948Y0009979D02*
X0075711Y0009979D01*
X0075711Y0010478D02*
X0073948Y0010478D01*
X0072723Y0007985D02*
X0076852Y0007985D01*
X0067838Y0014466D02*
X0063759Y0014466D01*
X0063948Y0013967D02*
X0067339Y0013967D01*
X0066841Y0013469D02*
X0063948Y0013469D01*
X0063948Y0012970D02*
X0066342Y0012970D01*
X0065911Y0012472D02*
X0063948Y0012472D01*
X0063948Y0011973D02*
X0065911Y0011973D01*
X0065911Y0011475D02*
X0063948Y0011475D01*
X0063948Y0010976D02*
X0065911Y0010976D01*
X0065911Y0010478D02*
X0063948Y0010478D01*
X0063948Y0009979D02*
X0065911Y0009979D01*
X0065911Y0009481D02*
X0063948Y0009481D01*
X0063948Y0008982D02*
X0066138Y0008982D01*
X0066637Y0008484D02*
X0063948Y0008484D01*
X0063948Y0007985D02*
X0067135Y0007985D01*
X0128734Y0053848D02*
X0129234Y0053848D01*
X0129234Y0054347D02*
X0128734Y0054347D01*
X0128734Y0054845D02*
X0129234Y0054845D01*
X0129234Y0058335D02*
X0128734Y0058335D01*
X0128734Y0058833D02*
X0129234Y0058833D01*
X0129234Y0059332D02*
X0128734Y0059332D01*
X0128734Y0059830D02*
X0129234Y0059830D01*
X0129234Y0060329D02*
X0128734Y0060329D01*
X0128734Y0060827D02*
X0129234Y0060827D01*
X0129234Y0061326D02*
X0128734Y0061326D01*
X0128734Y0061824D02*
X0129234Y0061824D01*
X0131086Y0061824D02*
X0132358Y0061824D01*
X0132358Y0061326D02*
X0131585Y0061326D01*
X0132083Y0060827D02*
X0132358Y0060827D01*
X0132358Y0064317D02*
X0131024Y0064317D01*
X0131522Y0064815D02*
X0132358Y0064815D01*
X0132358Y0065314D02*
X0132021Y0065314D01*
X0132329Y0070299D02*
X0132358Y0070299D01*
X0132358Y0070798D02*
X0131830Y0070798D01*
X0131332Y0071296D02*
X0132358Y0071296D01*
X0132358Y0071795D02*
X0130833Y0071795D01*
X0120939Y0105195D02*
X0103942Y0105195D01*
X0103444Y0105693D02*
X0119079Y0105693D01*
X0117851Y0106192D02*
X0102945Y0106192D01*
X0102447Y0106690D02*
X0116988Y0106690D01*
X0116124Y0107189D02*
X0101948Y0107189D01*
X0101450Y0107687D02*
X0115419Y0107687D01*
X0114920Y0108186D02*
X0100951Y0108186D01*
X0100452Y0108684D02*
X0114422Y0108684D01*
X0080179Y0121147D02*
X0079679Y0121147D01*
X0079679Y0121646D02*
X0080179Y0121646D01*
X0080179Y0122144D02*
X0079679Y0122144D01*
X0079679Y0122643D02*
X0080179Y0122643D01*
X0080179Y0123141D02*
X0079679Y0123141D01*
X0079679Y0123640D02*
X0080179Y0123640D01*
X0080179Y0124138D02*
X0079679Y0124138D01*
X0077365Y0121646D02*
X0072211Y0121646D01*
X0072709Y0122144D02*
X0076866Y0122144D01*
X0076368Y0122643D02*
X0073208Y0122643D01*
X0073706Y0123141D02*
X0075869Y0123141D01*
X0075711Y0123640D02*
X0073948Y0123640D01*
X0073948Y0124138D02*
X0075711Y0124138D01*
X0075711Y0124637D02*
X0073948Y0124637D01*
X0071712Y0121147D02*
X0077863Y0121147D01*
M02*
