G75*
%MOIN*%
%OFA0B0*%
%FSLAX25Y25*%
%IPPOS*%
%LPD*%
%AMOC8*
5,1,8,0,0,1.08239X$1,22.5*
%
%ADD10R,0.05906X0.05512*%
%ADD11R,0.05512X0.05906*%
%ADD12R,0.05937X0.05937*%
%ADD13OC8,0.05937*%
%ADD14R,0.05906X0.01378*%
%ADD15C,0.01000*%
%ADD16C,0.00500*%
D10*
X0020717Y0042272D03*
X0020717Y0050343D03*
X0020717Y0059988D03*
X0020717Y0068059D03*
X0095520Y0068650D03*
X0095520Y0076720D03*
X0119142Y0068059D03*
X0119142Y0059988D03*
X0119142Y0050343D03*
X0119142Y0042272D03*
D11*
X0095618Y0020717D03*
X0087547Y0020717D03*
X0077902Y0020717D03*
X0069831Y0020717D03*
X0055461Y0079772D03*
X0047390Y0079772D03*
X0047390Y0089614D03*
X0055461Y0089614D03*
X0055461Y0099457D03*
X0047390Y0099457D03*
X0069831Y0115205D03*
X0077902Y0115205D03*
X0087547Y0115205D03*
X0095618Y0115205D03*
X0095421Y0087252D03*
X0103492Y0087252D03*
D12*
X0085677Y0086898D03*
X0059929Y0125047D03*
X0034496Y0109457D03*
X0010874Y0077961D03*
X0059929Y0010874D03*
X0080323Y0035638D03*
X0099417Y0039220D03*
X0128984Y0077961D03*
D13*
X0128984Y0067961D03*
X0128984Y0057961D03*
X0099417Y0057803D03*
X0085677Y0056898D03*
X0085677Y0066898D03*
X0085677Y0076898D03*
X0070323Y0035638D03*
X0060323Y0035638D03*
X0050323Y0035638D03*
X0040323Y0035638D03*
X0069929Y0010874D03*
X0079929Y0010874D03*
X0010874Y0057961D03*
X0010874Y0067961D03*
X0034496Y0089457D03*
X0034496Y0099457D03*
X0069929Y0125047D03*
X0079929Y0125047D03*
D14*
X0070717Y0071337D03*
X0070717Y0068837D03*
X0070717Y0066337D03*
X0070717Y0063837D03*
X0070717Y0061337D03*
X0070717Y0058837D03*
X0070717Y0056337D03*
X0070717Y0053837D03*
X0070717Y0051337D03*
X0070717Y0048837D03*
X0047094Y0048837D03*
X0047094Y0051337D03*
X0047094Y0053837D03*
X0047094Y0056337D03*
X0047094Y0058837D03*
X0047094Y0061337D03*
X0047094Y0063837D03*
X0047094Y0066337D03*
X0047094Y0068837D03*
X0047094Y0071337D03*
D15*
X0047094Y0079772D01*
X0047390Y0079772D01*
X0047390Y0089614D01*
X0047390Y0099457D01*
X0034496Y0099457D01*
X0034496Y0109457D02*
X0030717Y0109457D01*
X0010874Y0089614D01*
X0010874Y0077961D01*
X0010874Y0067961D02*
X0020618Y0067961D01*
X0020717Y0068059D01*
X0020717Y0059988D02*
X0026524Y0059988D01*
X0032872Y0066337D01*
X0047094Y0066337D01*
X0047094Y0068837D02*
X0057026Y0068837D01*
X0077902Y0089713D01*
X0077902Y0115205D01*
X0087547Y0115205D01*
X0089614Y0115205D01*
X0069929Y0115303D02*
X0069831Y0115205D01*
X0069929Y0115303D02*
X0069929Y0125047D01*
X0059929Y0125047D02*
X0050087Y0125047D01*
X0034496Y0109457D01*
X0038246Y0063837D02*
X0047094Y0063837D01*
X0047094Y0061337D02*
X0039683Y0061337D01*
X0032528Y0054181D01*
X0032528Y0032528D01*
X0036465Y0028591D01*
X0103394Y0028591D01*
X0109299Y0034496D01*
X0109299Y0050146D01*
X0119142Y0059988D01*
X0119142Y0050343D01*
X0119240Y0067961D02*
X0119142Y0068059D01*
X0119240Y0067961D02*
X0128984Y0067961D01*
X0103492Y0076622D02*
X0095520Y0068650D01*
X0095520Y0056898D01*
X0098512Y0056898D01*
X0099417Y0057803D01*
X0095520Y0056898D02*
X0085677Y0056898D01*
X0081238Y0061337D01*
X0070717Y0061337D01*
X0070717Y0063837D02*
X0082616Y0063837D01*
X0085677Y0066898D01*
X0077085Y0058837D02*
X0079772Y0056150D01*
X0079772Y0036189D01*
X0080323Y0035638D01*
X0077803Y0043118D02*
X0070323Y0035638D01*
X0077803Y0043118D02*
X0077803Y0054181D01*
X0075648Y0056337D01*
X0070717Y0056337D01*
X0070717Y0058837D02*
X0077085Y0058837D01*
X0056150Y0056150D02*
X0056150Y0039811D01*
X0060323Y0035638D01*
X0054181Y0039496D02*
X0050323Y0035638D01*
X0054181Y0039496D02*
X0054181Y0054181D01*
X0052026Y0056337D01*
X0047094Y0056337D01*
X0047094Y0058837D02*
X0053463Y0058837D01*
X0056150Y0056150D01*
X0038246Y0063837D02*
X0030559Y0056150D01*
X0030559Y0030559D01*
X0034496Y0026622D01*
X0071996Y0026622D01*
X0077902Y0020717D01*
X0087547Y0020717D01*
X0069929Y0020618D02*
X0069929Y0010874D01*
X0069929Y0020618D02*
X0069831Y0020717D01*
X0020717Y0050343D02*
X0020717Y0059988D01*
X0085677Y0086898D02*
X0095067Y0086898D01*
X0095421Y0087252D01*
X0103492Y0087252D02*
X0103492Y0076622D01*
D16*
X0024224Y0009046D02*
X0021545Y0007500D01*
X0055911Y0007500D01*
X0055911Y0014277D01*
X0056526Y0014893D01*
X0063333Y0014893D01*
X0063948Y0014277D01*
X0063948Y0007500D01*
X0067620Y0007500D01*
X0065911Y0009209D01*
X0065911Y0012539D01*
X0068265Y0014893D01*
X0068379Y0014893D01*
X0068379Y0016714D01*
X0066640Y0016714D01*
X0066025Y0017329D01*
X0066025Y0024104D01*
X0066640Y0024719D01*
X0071707Y0024719D01*
X0071354Y0025072D01*
X0033854Y0025072D01*
X0029917Y0029009D01*
X0029009Y0029917D01*
X0029009Y0056792D01*
X0036696Y0064479D01*
X0037004Y0064787D01*
X0033514Y0064787D01*
X0028074Y0059346D01*
X0028074Y0059346D01*
X0027166Y0058438D01*
X0024719Y0058438D01*
X0024719Y0056797D01*
X0024104Y0056182D01*
X0022267Y0056182D01*
X0022267Y0054148D01*
X0024104Y0054148D01*
X0024719Y0053533D01*
X0024719Y0047152D01*
X0024104Y0046537D01*
X0017329Y0046537D01*
X0016714Y0047152D01*
X0016714Y0053533D01*
X0017329Y0054148D01*
X0019167Y0054148D01*
X0019167Y0056182D01*
X0017329Y0056182D01*
X0016714Y0056797D01*
X0016714Y0063179D01*
X0017329Y0063794D01*
X0024104Y0063794D01*
X0024719Y0063179D01*
X0024719Y0061538D01*
X0025882Y0061538D01*
X0031322Y0066979D01*
X0031322Y0066979D01*
X0032230Y0067887D01*
X0043092Y0067887D01*
X0043092Y0069961D01*
X0043218Y0070087D01*
X0043092Y0070213D01*
X0043092Y0072461D01*
X0043707Y0073076D01*
X0045544Y0073076D01*
X0045544Y0075769D01*
X0044199Y0075769D01*
X0043584Y0076384D01*
X0043584Y0083159D01*
X0044199Y0083774D01*
X0045840Y0083774D01*
X0045840Y0085611D01*
X0044199Y0085611D01*
X0043584Y0086226D01*
X0043584Y0093002D01*
X0044199Y0093617D01*
X0045840Y0093617D01*
X0045840Y0095454D01*
X0044199Y0095454D01*
X0043584Y0096069D01*
X0043584Y0097907D01*
X0038515Y0097907D01*
X0038515Y0097792D01*
X0036161Y0095438D01*
X0032832Y0095438D01*
X0030478Y0097792D01*
X0030478Y0101121D01*
X0032832Y0103475D01*
X0036161Y0103475D01*
X0038515Y0101121D01*
X0038515Y0101007D01*
X0043584Y0101007D01*
X0043584Y0102844D01*
X0044199Y0103459D01*
X0050581Y0103459D01*
X0051196Y0102844D01*
X0051196Y0096069D01*
X0050581Y0095454D01*
X0048940Y0095454D01*
X0048940Y0093617D01*
X0050581Y0093617D01*
X0051196Y0093002D01*
X0051196Y0086226D01*
X0050581Y0085611D01*
X0048940Y0085611D01*
X0048940Y0083774D01*
X0050581Y0083774D01*
X0051196Y0083159D01*
X0051196Y0076384D01*
X0050581Y0075769D01*
X0048644Y0075769D01*
X0048644Y0073076D01*
X0050482Y0073076D01*
X0051097Y0072461D01*
X0051097Y0070387D01*
X0056384Y0070387D01*
X0076352Y0090355D01*
X0076352Y0111202D01*
X0074711Y0111202D01*
X0074096Y0111817D01*
X0074096Y0118592D01*
X0074711Y0119207D01*
X0081092Y0119207D01*
X0081707Y0118592D01*
X0081707Y0116755D01*
X0083741Y0116755D01*
X0083741Y0118592D01*
X0084356Y0119207D01*
X0090738Y0119207D01*
X0091353Y0118592D01*
X0091353Y0111817D01*
X0090738Y0111202D01*
X0084356Y0111202D01*
X0083741Y0111817D01*
X0083741Y0113655D01*
X0081707Y0113655D01*
X0081707Y0111817D01*
X0081092Y0111202D01*
X0079452Y0111202D01*
X0079452Y0089071D01*
X0058576Y0068195D01*
X0057668Y0067287D01*
X0051097Y0067287D01*
X0051097Y0065213D01*
X0050971Y0065087D01*
X0051097Y0064961D01*
X0051097Y0062713D01*
X0050971Y0062587D01*
X0051097Y0062461D01*
X0051097Y0060387D01*
X0054105Y0060387D01*
X0056792Y0057700D01*
X0057700Y0056792D01*
X0057700Y0040453D01*
X0058577Y0039575D01*
X0058658Y0039656D01*
X0061987Y0039656D01*
X0064341Y0037302D01*
X0064341Y0033973D01*
X0061987Y0031619D01*
X0058658Y0031619D01*
X0056304Y0033973D01*
X0056304Y0037302D01*
X0056385Y0037383D01*
X0055323Y0038446D01*
X0054260Y0037383D01*
X0054341Y0037302D01*
X0054341Y0033973D01*
X0051987Y0031619D01*
X0048658Y0031619D01*
X0046304Y0033973D01*
X0046304Y0037302D01*
X0048658Y0039656D01*
X0051987Y0039656D01*
X0052068Y0039575D01*
X0052631Y0040138D01*
X0052631Y0053539D01*
X0051384Y0054787D01*
X0051097Y0054787D01*
X0051097Y0052713D01*
X0050971Y0052587D01*
X0051097Y0052461D01*
X0051097Y0050213D01*
X0050971Y0050087D01*
X0051097Y0049961D01*
X0051097Y0047713D01*
X0050482Y0047098D01*
X0043707Y0047098D01*
X0043092Y0047713D01*
X0043092Y0049961D01*
X0043218Y0050087D01*
X0043092Y0050213D01*
X0043092Y0052461D01*
X0043218Y0052587D01*
X0043092Y0052713D01*
X0043092Y0054961D01*
X0043218Y0055087D01*
X0043092Y0055213D01*
X0043092Y0057461D01*
X0043218Y0057587D01*
X0043092Y0057713D01*
X0043092Y0059787D01*
X0040325Y0059787D01*
X0034078Y0053539D01*
X0034078Y0033170D01*
X0037107Y0030141D01*
X0102752Y0030141D01*
X0107749Y0035138D01*
X0107749Y0050788D01*
X0108657Y0051696D01*
X0115139Y0058177D01*
X0115139Y0063179D01*
X0115754Y0063794D01*
X0122529Y0063794D01*
X0123144Y0063179D01*
X0123144Y0056797D01*
X0122529Y0056182D01*
X0120692Y0056182D01*
X0120692Y0054148D01*
X0122529Y0054148D01*
X0123144Y0053533D01*
X0123144Y0047152D01*
X0122529Y0046537D01*
X0115754Y0046537D01*
X0115139Y0047152D01*
X0115139Y0053533D01*
X0115754Y0054148D01*
X0117592Y0054148D01*
X0117592Y0056182D01*
X0117528Y0056182D01*
X0110849Y0049504D01*
X0110849Y0033854D01*
X0104944Y0027949D01*
X0104036Y0027041D01*
X0073770Y0027041D01*
X0076091Y0024719D01*
X0081092Y0024719D01*
X0081707Y0024104D01*
X0081707Y0022267D01*
X0083741Y0022267D01*
X0083741Y0024104D01*
X0084356Y0024719D01*
X0090738Y0024719D01*
X0091353Y0024104D01*
X0091353Y0017329D01*
X0090738Y0016714D01*
X0084356Y0016714D01*
X0083741Y0017329D01*
X0083741Y0019167D01*
X0081707Y0019167D01*
X0081707Y0017329D01*
X0081092Y0016714D01*
X0074711Y0016714D01*
X0074096Y0017329D01*
X0074096Y0022330D01*
X0073637Y0022789D01*
X0073637Y0017329D01*
X0073022Y0016714D01*
X0071479Y0016714D01*
X0071479Y0014893D01*
X0071594Y0014893D01*
X0073948Y0012539D01*
X0073948Y0009209D01*
X0072238Y0007500D01*
X0077337Y0007500D01*
X0075711Y0009127D01*
X0075711Y0010624D01*
X0079679Y0010624D01*
X0079679Y0011124D01*
X0075711Y0011124D01*
X0075711Y0012621D01*
X0078182Y0015093D01*
X0079679Y0015093D01*
X0079679Y0011124D01*
X0080179Y0011124D01*
X0080179Y0015093D01*
X0081676Y0015093D01*
X0084148Y0012621D01*
X0084148Y0011124D01*
X0080179Y0011124D01*
X0080179Y0010624D01*
X0084148Y0010624D01*
X0084148Y0009127D01*
X0082521Y0007500D01*
X0118313Y0007500D01*
X0115634Y0009046D01*
X0113377Y0011304D01*
X0111781Y0014068D01*
X0110955Y0017152D01*
X0110955Y0020344D01*
X0111781Y0023428D01*
X0113377Y0026192D01*
X0115634Y0028450D01*
X0118399Y0030046D01*
X0121483Y0030872D01*
X0124675Y0030872D01*
X0127758Y0030046D01*
X0130523Y0028450D01*
X0132358Y0026614D01*
X0132358Y0055369D01*
X0130732Y0053742D01*
X0129234Y0053742D01*
X0129234Y0057711D01*
X0128734Y0057711D01*
X0124766Y0057711D01*
X0124766Y0056213D01*
X0127237Y0053742D01*
X0128734Y0053742D01*
X0128734Y0057711D01*
X0128734Y0058211D01*
X0128734Y0062179D01*
X0127237Y0062179D01*
X0124766Y0059708D01*
X0124766Y0058211D01*
X0128734Y0058211D01*
X0129234Y0058211D01*
X0129234Y0062179D01*
X0130732Y0062179D01*
X0132358Y0060552D01*
X0132358Y0065652D01*
X0130649Y0063942D01*
X0127320Y0063942D01*
X0124966Y0066296D01*
X0124966Y0066411D01*
X0123144Y0066411D01*
X0123144Y0064868D01*
X0122529Y0064253D01*
X0115754Y0064253D01*
X0115139Y0064868D01*
X0115139Y0071250D01*
X0115754Y0071865D01*
X0122529Y0071865D01*
X0123144Y0071250D01*
X0123144Y0069511D01*
X0124966Y0069511D01*
X0124966Y0069625D01*
X0127320Y0071979D01*
X0130649Y0071979D01*
X0132358Y0070270D01*
X0132358Y0073942D01*
X0125581Y0073942D01*
X0124966Y0074557D01*
X0124966Y0081364D01*
X0125581Y0081979D01*
X0132358Y0081979D01*
X0132358Y0109307D01*
X0130523Y0107472D01*
X0127758Y0105875D01*
X0124675Y0105049D01*
X0121483Y0105049D01*
X0118399Y0105875D01*
X0115634Y0107472D01*
X0113377Y0109729D01*
X0111781Y0112494D01*
X0110955Y0115577D01*
X0110955Y0118769D01*
X0111781Y0121853D01*
X0113377Y0124618D01*
X0115634Y0126875D01*
X0118313Y0128421D01*
X0082521Y0128421D01*
X0084148Y0126795D01*
X0084148Y0125297D01*
X0080179Y0125297D01*
X0080179Y0124797D01*
X0080179Y0120829D01*
X0081676Y0120829D01*
X0084148Y0123300D01*
X0084148Y0124797D01*
X0080179Y0124797D01*
X0079679Y0124797D01*
X0079679Y0120829D01*
X0078182Y0120829D01*
X0075711Y0123300D01*
X0075711Y0124797D01*
X0079679Y0124797D01*
X0079679Y0125297D01*
X0075711Y0125297D01*
X0075711Y0126795D01*
X0077337Y0128421D01*
X0072238Y0128421D01*
X0073948Y0126712D01*
X0073948Y0123383D01*
X0071594Y0121029D01*
X0071479Y0121029D01*
X0071479Y0119207D01*
X0073022Y0119207D01*
X0073637Y0118592D01*
X0073637Y0111817D01*
X0073022Y0111202D01*
X0066640Y0111202D01*
X0066025Y0111817D01*
X0066025Y0118592D01*
X0066640Y0119207D01*
X0068379Y0119207D01*
X0068379Y0121029D01*
X0068265Y0121029D01*
X0065911Y0123383D01*
X0065911Y0126712D01*
X0067620Y0128421D01*
X0063948Y0128421D01*
X0063948Y0121644D01*
X0063333Y0121029D01*
X0056526Y0121029D01*
X0055911Y0121644D01*
X0055911Y0123497D01*
X0050729Y0123497D01*
X0038515Y0111283D01*
X0038515Y0106053D01*
X0037899Y0105438D01*
X0031093Y0105438D01*
X0030478Y0106053D01*
X0030478Y0107026D01*
X0012424Y0088972D01*
X0012424Y0081979D01*
X0014277Y0081979D01*
X0014893Y0081364D01*
X0014893Y0074557D01*
X0014277Y0073942D01*
X0007500Y0073942D01*
X0007500Y0070270D01*
X0009209Y0071979D01*
X0012539Y0071979D01*
X0014893Y0069625D01*
X0014893Y0069511D01*
X0016714Y0069511D01*
X0016714Y0071250D01*
X0017329Y0071865D01*
X0024104Y0071865D01*
X0024719Y0071250D01*
X0024719Y0064868D01*
X0024104Y0064253D01*
X0017329Y0064253D01*
X0016714Y0064868D01*
X0016714Y0066411D01*
X0014893Y0066411D01*
X0014893Y0066296D01*
X0012539Y0063942D01*
X0009209Y0063942D01*
X0007500Y0065652D01*
X0007500Y0060552D01*
X0009127Y0062179D01*
X0010624Y0062179D01*
X0010624Y0058211D01*
X0011124Y0058211D01*
X0011124Y0062179D01*
X0012621Y0062179D01*
X0015093Y0059708D01*
X0015093Y0058211D01*
X0011124Y0058211D01*
X0011124Y0057711D01*
X0015093Y0057711D01*
X0015093Y0056213D01*
X0012621Y0053742D01*
X0011124Y0053742D01*
X0011124Y0057711D01*
X0010624Y0057711D01*
X0010624Y0053742D01*
X0009127Y0053742D01*
X0007500Y0055369D01*
X0007500Y0026614D01*
X0009335Y0028450D01*
X0012100Y0030046D01*
X0015183Y0030872D01*
X0018376Y0030872D01*
X0021459Y0030046D01*
X0024224Y0028450D01*
X0026481Y0026192D01*
X0028077Y0023428D01*
X0028904Y0020344D01*
X0028904Y0017152D01*
X0028077Y0014068D01*
X0026481Y0011304D01*
X0024224Y0009046D01*
X0024113Y0008982D02*
X0055911Y0008982D01*
X0055911Y0008484D02*
X0023249Y0008484D01*
X0022386Y0007985D02*
X0055911Y0007985D01*
X0055911Y0009481D02*
X0024658Y0009481D01*
X0025157Y0009979D02*
X0055911Y0009979D01*
X0055911Y0010478D02*
X0025655Y0010478D01*
X0026154Y0010976D02*
X0055911Y0010976D01*
X0055911Y0011475D02*
X0026580Y0011475D01*
X0026868Y0011973D02*
X0055911Y0011973D01*
X0055911Y0012472D02*
X0027155Y0012472D01*
X0027443Y0012970D02*
X0055911Y0012970D01*
X0055911Y0013469D02*
X0027731Y0013469D01*
X0028019Y0013967D02*
X0055911Y0013967D01*
X0056099Y0014466D02*
X0028184Y0014466D01*
X0028317Y0014964D02*
X0068379Y0014964D01*
X0068379Y0015463D02*
X0028451Y0015463D01*
X0028585Y0015961D02*
X0068379Y0015961D01*
X0068379Y0016460D02*
X0028718Y0016460D01*
X0028852Y0016958D02*
X0066395Y0016958D01*
X0066025Y0017457D02*
X0028904Y0017457D01*
X0028904Y0017955D02*
X0066025Y0017955D01*
X0066025Y0018454D02*
X0028904Y0018454D01*
X0028904Y0018952D02*
X0066025Y0018952D01*
X0066025Y0019451D02*
X0028904Y0019451D01*
X0028904Y0019949D02*
X0066025Y0019949D01*
X0066025Y0020448D02*
X0028876Y0020448D01*
X0028742Y0020946D02*
X0066025Y0020946D01*
X0066025Y0021445D02*
X0028609Y0021445D01*
X0028475Y0021943D02*
X0066025Y0021943D01*
X0066025Y0022442D02*
X0028341Y0022442D01*
X0028208Y0022940D02*
X0066025Y0022940D01*
X0066025Y0023439D02*
X0028071Y0023439D01*
X0027783Y0023937D02*
X0066025Y0023937D01*
X0066357Y0024436D02*
X0027495Y0024436D01*
X0027207Y0024934D02*
X0071492Y0024934D01*
X0073882Y0026929D02*
X0114113Y0026929D01*
X0114612Y0027427D02*
X0104422Y0027427D01*
X0104921Y0027926D02*
X0115110Y0027926D01*
X0115609Y0028424D02*
X0105419Y0028424D01*
X0105918Y0028923D02*
X0116454Y0028923D01*
X0117317Y0029421D02*
X0106416Y0029421D01*
X0106915Y0029920D02*
X0118180Y0029920D01*
X0119789Y0030418D02*
X0107413Y0030418D01*
X0107912Y0030917D02*
X0132358Y0030917D01*
X0132358Y0031415D02*
X0108410Y0031415D01*
X0108909Y0031914D02*
X0132358Y0031914D01*
X0132358Y0032412D02*
X0109407Y0032412D01*
X0109906Y0032911D02*
X0132358Y0032911D01*
X0132358Y0033409D02*
X0110404Y0033409D01*
X0110849Y0033908D02*
X0132358Y0033908D01*
X0132358Y0034406D02*
X0110849Y0034406D01*
X0110849Y0034905D02*
X0132358Y0034905D01*
X0132358Y0035403D02*
X0110849Y0035403D01*
X0110849Y0035902D02*
X0132358Y0035902D01*
X0132358Y0036400D02*
X0110849Y0036400D01*
X0110849Y0036899D02*
X0132358Y0036899D01*
X0132358Y0037397D02*
X0110849Y0037397D01*
X0110849Y0037896D02*
X0132358Y0037896D01*
X0132358Y0038394D02*
X0122652Y0038394D01*
X0122577Y0038351D02*
X0122862Y0038516D01*
X0123095Y0038748D01*
X0123259Y0039033D01*
X0123344Y0039351D01*
X0123344Y0042022D01*
X0119392Y0042022D01*
X0119392Y0042522D01*
X0118892Y0042522D01*
X0118892Y0046278D01*
X0116024Y0046278D01*
X0115706Y0046192D01*
X0115421Y0046028D01*
X0115189Y0045795D01*
X0115024Y0045510D01*
X0114939Y0045192D01*
X0114939Y0042522D01*
X0118892Y0042522D01*
X0118892Y0042022D01*
X0114939Y0042022D01*
X0114939Y0039351D01*
X0115024Y0039033D01*
X0115189Y0038748D01*
X0115421Y0038516D01*
X0115706Y0038351D01*
X0116024Y0038266D01*
X0118892Y0038266D01*
X0118892Y0042022D01*
X0119392Y0042022D01*
X0119392Y0038266D01*
X0122259Y0038266D01*
X0122577Y0038351D01*
X0123178Y0038893D02*
X0132358Y0038893D01*
X0132358Y0039391D02*
X0123344Y0039391D01*
X0123344Y0039890D02*
X0132358Y0039890D01*
X0132358Y0040388D02*
X0123344Y0040388D01*
X0123344Y0040887D02*
X0132358Y0040887D01*
X0132358Y0041385D02*
X0123344Y0041385D01*
X0123344Y0041884D02*
X0132358Y0041884D01*
X0132358Y0042382D02*
X0119392Y0042382D01*
X0119392Y0042522D02*
X0123344Y0042522D01*
X0123344Y0045192D01*
X0123259Y0045510D01*
X0123095Y0045795D01*
X0122862Y0046028D01*
X0122577Y0046192D01*
X0122259Y0046278D01*
X0119392Y0046278D01*
X0119392Y0042522D01*
X0119392Y0042881D02*
X0118892Y0042881D01*
X0118892Y0043379D02*
X0119392Y0043379D01*
X0119392Y0043878D02*
X0118892Y0043878D01*
X0118892Y0044376D02*
X0119392Y0044376D01*
X0119392Y0044875D02*
X0118892Y0044875D01*
X0118892Y0045373D02*
X0119392Y0045373D01*
X0119392Y0045872D02*
X0118892Y0045872D01*
X0122862Y0046869D02*
X0132358Y0046869D01*
X0132358Y0046370D02*
X0110849Y0046370D01*
X0110849Y0045872D02*
X0115266Y0045872D01*
X0114988Y0045373D02*
X0110849Y0045373D01*
X0110849Y0044875D02*
X0114939Y0044875D01*
X0114939Y0044376D02*
X0110849Y0044376D01*
X0110849Y0043878D02*
X0114939Y0043878D01*
X0114939Y0043379D02*
X0110849Y0043379D01*
X0110849Y0042881D02*
X0114939Y0042881D01*
X0114939Y0041884D02*
X0110849Y0041884D01*
X0110849Y0042382D02*
X0118892Y0042382D01*
X0118892Y0041884D02*
X0119392Y0041884D01*
X0119392Y0041385D02*
X0118892Y0041385D01*
X0118892Y0040887D02*
X0119392Y0040887D01*
X0119392Y0040388D02*
X0118892Y0040388D01*
X0118892Y0039890D02*
X0119392Y0039890D01*
X0119392Y0039391D02*
X0118892Y0039391D01*
X0118892Y0038893D02*
X0119392Y0038893D01*
X0119392Y0038394D02*
X0118892Y0038394D01*
X0115631Y0038394D02*
X0110849Y0038394D01*
X0110849Y0038893D02*
X0115105Y0038893D01*
X0114939Y0039391D02*
X0110849Y0039391D01*
X0110849Y0039890D02*
X0114939Y0039890D01*
X0114939Y0040388D02*
X0110849Y0040388D01*
X0110849Y0040887D02*
X0114939Y0040887D01*
X0114939Y0041385D02*
X0110849Y0041385D01*
X0107749Y0041385D02*
X0103636Y0041385D01*
X0103636Y0040887D02*
X0107749Y0040887D01*
X0107749Y0040388D02*
X0103636Y0040388D01*
X0103636Y0039890D02*
X0107749Y0039890D01*
X0107749Y0039391D02*
X0099667Y0039391D01*
X0099667Y0039470D02*
X0103636Y0039470D01*
X0103636Y0042354D01*
X0103551Y0042671D01*
X0103386Y0042956D01*
X0103153Y0043189D01*
X0102868Y0043354D01*
X0102550Y0043439D01*
X0099667Y0043439D01*
X0099667Y0039471D01*
X0099167Y0039471D01*
X0099167Y0043439D01*
X0096284Y0043439D01*
X0095966Y0043354D01*
X0095681Y0043189D01*
X0095449Y0042956D01*
X0095284Y0042671D01*
X0095199Y0042354D01*
X0095199Y0039470D01*
X0099167Y0039470D01*
X0099167Y0038970D01*
X0099667Y0038970D01*
X0099667Y0035002D01*
X0102550Y0035002D01*
X0102868Y0035087D01*
X0103153Y0035252D01*
X0103386Y0035484D01*
X0103551Y0035769D01*
X0103636Y0036087D01*
X0103636Y0038970D01*
X0099667Y0038970D01*
X0099667Y0039470D01*
X0099667Y0039890D02*
X0099167Y0039890D01*
X0099167Y0040388D02*
X0099667Y0040388D01*
X0099667Y0040887D02*
X0099167Y0040887D01*
X0099167Y0041385D02*
X0099667Y0041385D01*
X0099667Y0041884D02*
X0099167Y0041884D01*
X0099167Y0042382D02*
X0099667Y0042382D01*
X0099667Y0042881D02*
X0099167Y0042881D01*
X0099167Y0043379D02*
X0099667Y0043379D01*
X0102773Y0043379D02*
X0107749Y0043379D01*
X0107749Y0042881D02*
X0103430Y0042881D01*
X0103628Y0042382D02*
X0107749Y0042382D01*
X0107749Y0041884D02*
X0103636Y0041884D01*
X0103636Y0038893D02*
X0107749Y0038893D01*
X0107749Y0038394D02*
X0103636Y0038394D01*
X0103636Y0037896D02*
X0107749Y0037896D01*
X0107749Y0037397D02*
X0103636Y0037397D01*
X0103636Y0036899D02*
X0107749Y0036899D01*
X0107749Y0036400D02*
X0103636Y0036400D01*
X0103586Y0035902D02*
X0107749Y0035902D01*
X0107749Y0035403D02*
X0103305Y0035403D01*
X0105522Y0032911D02*
X0084341Y0032911D01*
X0084341Y0033409D02*
X0106020Y0033409D01*
X0106519Y0033908D02*
X0084341Y0033908D01*
X0084341Y0034406D02*
X0107017Y0034406D01*
X0107516Y0034905D02*
X0084341Y0034905D01*
X0084341Y0035403D02*
X0095530Y0035403D01*
X0095449Y0035484D02*
X0095681Y0035252D01*
X0095966Y0035087D01*
X0096284Y0035002D01*
X0099167Y0035002D01*
X0099167Y0038970D01*
X0095199Y0038970D01*
X0095199Y0036087D01*
X0095284Y0035769D01*
X0095449Y0035484D01*
X0095249Y0035902D02*
X0084341Y0035902D01*
X0084341Y0036400D02*
X0095199Y0036400D01*
X0095199Y0036899D02*
X0084341Y0036899D01*
X0084341Y0037397D02*
X0095199Y0037397D01*
X0095199Y0037896D02*
X0084341Y0037896D01*
X0084341Y0038394D02*
X0095199Y0038394D01*
X0095199Y0038893D02*
X0084341Y0038893D01*
X0084341Y0039041D02*
X0083726Y0039656D01*
X0081322Y0039656D01*
X0081322Y0056792D01*
X0080414Y0057700D01*
X0078327Y0059787D01*
X0080596Y0059787D01*
X0081740Y0058643D01*
X0081659Y0058562D01*
X0081659Y0055233D01*
X0084013Y0052879D01*
X0087342Y0052879D01*
X0089696Y0055233D01*
X0089696Y0055348D01*
X0096190Y0055348D01*
X0097753Y0053785D01*
X0101082Y0053785D01*
X0103436Y0056139D01*
X0103436Y0059468D01*
X0101082Y0061822D01*
X0097753Y0061822D01*
X0097070Y0061138D01*
X0097070Y0064844D01*
X0098907Y0064844D01*
X0099522Y0065459D01*
X0099522Y0070460D01*
X0105042Y0075980D01*
X0105042Y0083249D01*
X0106683Y0083249D01*
X0107298Y0083864D01*
X0107298Y0090640D01*
X0106683Y0091255D01*
X0100301Y0091255D01*
X0099686Y0090640D01*
X0099686Y0083864D01*
X0100301Y0083249D01*
X0101942Y0083249D01*
X0101942Y0077264D01*
X0099722Y0075044D01*
X0099722Y0076470D01*
X0095770Y0076470D01*
X0095770Y0072715D01*
X0097393Y0072715D01*
X0097134Y0072455D01*
X0092132Y0072455D01*
X0091517Y0071840D01*
X0091517Y0065459D01*
X0092132Y0064844D01*
X0093970Y0064844D01*
X0093970Y0058448D01*
X0089696Y0058448D01*
X0089696Y0058562D01*
X0087342Y0060916D01*
X0084013Y0060916D01*
X0083932Y0060835D01*
X0082480Y0062287D01*
X0083258Y0062287D01*
X0083932Y0062960D01*
X0084013Y0062879D01*
X0087342Y0062879D01*
X0089696Y0065233D01*
X0089696Y0068562D01*
X0087342Y0070916D01*
X0084013Y0070916D01*
X0081659Y0068562D01*
X0081659Y0065387D01*
X0074719Y0065387D01*
X0074719Y0067461D01*
X0074593Y0067587D01*
X0074719Y0067713D01*
X0074719Y0069961D01*
X0074717Y0069963D01*
X0074834Y0070165D01*
X0074919Y0070483D01*
X0074919Y0071242D01*
X0070811Y0071242D01*
X0070811Y0071431D01*
X0074919Y0071431D01*
X0074919Y0072190D01*
X0074834Y0072508D01*
X0074670Y0072793D01*
X0074437Y0073026D01*
X0074152Y0073190D01*
X0073834Y0073276D01*
X0070811Y0073276D01*
X0070811Y0071431D01*
X0070622Y0071431D01*
X0070622Y0071242D01*
X0066514Y0071242D01*
X0066514Y0070483D01*
X0066599Y0070165D01*
X0066716Y0069963D01*
X0066714Y0069961D01*
X0066714Y0067713D01*
X0066840Y0067587D01*
X0066714Y0067461D01*
X0066714Y0065213D01*
X0066840Y0065087D01*
X0066714Y0064961D01*
X0066714Y0062713D01*
X0066840Y0062587D01*
X0066714Y0062461D01*
X0066714Y0060213D01*
X0066840Y0060087D01*
X0066714Y0059961D01*
X0066714Y0057713D01*
X0066840Y0057587D01*
X0066714Y0057461D01*
X0066714Y0055213D01*
X0066840Y0055087D01*
X0066714Y0054961D01*
X0066714Y0052713D01*
X0066840Y0052587D01*
X0066714Y0052461D01*
X0066714Y0050213D01*
X0066840Y0050087D01*
X0066714Y0049961D01*
X0066714Y0047713D01*
X0067329Y0047098D01*
X0074104Y0047098D01*
X0074719Y0047713D01*
X0074719Y0049961D01*
X0074593Y0050087D01*
X0074719Y0050213D01*
X0074719Y0052461D01*
X0074593Y0052587D01*
X0074719Y0052713D01*
X0074719Y0054787D01*
X0075006Y0054787D01*
X0076253Y0053539D01*
X0076253Y0043760D01*
X0072068Y0039575D01*
X0071987Y0039656D01*
X0068658Y0039656D01*
X0066304Y0037302D01*
X0066304Y0033973D01*
X0068658Y0031619D01*
X0071987Y0031619D01*
X0074341Y0033973D01*
X0074341Y0037302D01*
X0074260Y0037383D01*
X0078222Y0041345D01*
X0078222Y0039656D01*
X0076919Y0039656D01*
X0076304Y0039041D01*
X0076304Y0032234D01*
X0076919Y0031619D01*
X0083726Y0031619D01*
X0084341Y0032234D01*
X0084341Y0039041D01*
X0083991Y0039391D02*
X0099167Y0039391D01*
X0099167Y0038893D02*
X0099667Y0038893D01*
X0099667Y0038394D02*
X0099167Y0038394D01*
X0099167Y0037896D02*
X0099667Y0037896D01*
X0099667Y0037397D02*
X0099167Y0037397D01*
X0099167Y0036899D02*
X0099667Y0036899D01*
X0099667Y0036400D02*
X0099167Y0036400D01*
X0099167Y0035902D02*
X0099667Y0035902D01*
X0099667Y0035403D02*
X0099167Y0035403D01*
X0095199Y0039890D02*
X0081322Y0039890D01*
X0081322Y0040388D02*
X0095199Y0040388D01*
X0095199Y0040887D02*
X0081322Y0040887D01*
X0081322Y0041385D02*
X0095199Y0041385D01*
X0095199Y0041884D02*
X0081322Y0041884D01*
X0081322Y0042382D02*
X0095207Y0042382D01*
X0095405Y0042881D02*
X0081322Y0042881D01*
X0081322Y0043379D02*
X0096062Y0043379D01*
X0087812Y0053350D02*
X0110311Y0053350D01*
X0110810Y0053848D02*
X0101145Y0053848D01*
X0101644Y0054347D02*
X0111308Y0054347D01*
X0111807Y0054845D02*
X0102142Y0054845D01*
X0102641Y0055344D02*
X0112305Y0055344D01*
X0112804Y0055842D02*
X0103139Y0055842D01*
X0103436Y0056341D02*
X0113302Y0056341D01*
X0113801Y0056839D02*
X0103436Y0056839D01*
X0103436Y0057338D02*
X0114299Y0057338D01*
X0114798Y0057836D02*
X0103436Y0057836D01*
X0103436Y0058335D02*
X0115139Y0058335D01*
X0115139Y0058833D02*
X0103436Y0058833D01*
X0103436Y0059332D02*
X0115139Y0059332D01*
X0115139Y0059830D02*
X0103073Y0059830D01*
X0102575Y0060329D02*
X0115139Y0060329D01*
X0115139Y0060827D02*
X0102076Y0060827D01*
X0101578Y0061326D02*
X0115139Y0061326D01*
X0115139Y0061824D02*
X0097070Y0061824D01*
X0097070Y0061326D02*
X0097257Y0061326D01*
X0097070Y0062323D02*
X0115139Y0062323D01*
X0115139Y0062821D02*
X0097070Y0062821D01*
X0097070Y0063320D02*
X0115280Y0063320D01*
X0115690Y0064317D02*
X0097070Y0064317D01*
X0097070Y0064815D02*
X0115192Y0064815D01*
X0115139Y0065314D02*
X0099378Y0065314D01*
X0099522Y0065812D02*
X0115139Y0065812D01*
X0115139Y0066311D02*
X0099522Y0066311D01*
X0099522Y0066809D02*
X0115139Y0066809D01*
X0115139Y0067308D02*
X0099522Y0067308D01*
X0099522Y0067806D02*
X0115139Y0067806D01*
X0115139Y0068305D02*
X0099522Y0068305D01*
X0099522Y0068803D02*
X0115139Y0068803D01*
X0115139Y0069302D02*
X0099522Y0069302D01*
X0099522Y0069801D02*
X0115139Y0069801D01*
X0115139Y0070299D02*
X0099522Y0070299D01*
X0099860Y0070798D02*
X0115139Y0070798D01*
X0115185Y0071296D02*
X0100358Y0071296D01*
X0100857Y0071795D02*
X0115684Y0071795D01*
X0122600Y0071795D02*
X0127135Y0071795D01*
X0126637Y0071296D02*
X0123098Y0071296D01*
X0123144Y0070798D02*
X0126138Y0070798D01*
X0125640Y0070299D02*
X0123144Y0070299D01*
X0123144Y0069801D02*
X0125141Y0069801D01*
X0124966Y0066311D02*
X0123144Y0066311D01*
X0123144Y0065812D02*
X0125449Y0065812D01*
X0125948Y0065314D02*
X0123144Y0065314D01*
X0123092Y0064815D02*
X0126446Y0064815D01*
X0126945Y0064317D02*
X0122593Y0064317D01*
X0123004Y0063320D02*
X0132358Y0063320D01*
X0132358Y0063818D02*
X0097070Y0063818D01*
X0093970Y0063818D02*
X0088281Y0063818D01*
X0087782Y0063320D02*
X0093970Y0063320D01*
X0093970Y0062821D02*
X0083793Y0062821D01*
X0083294Y0062323D02*
X0093970Y0062323D01*
X0093970Y0061824D02*
X0082942Y0061824D01*
X0083441Y0061326D02*
X0093970Y0061326D01*
X0093970Y0060827D02*
X0087430Y0060827D01*
X0087929Y0060329D02*
X0093970Y0060329D01*
X0093970Y0059830D02*
X0088428Y0059830D01*
X0088926Y0059332D02*
X0093970Y0059332D01*
X0093970Y0058833D02*
X0089425Y0058833D01*
X0089696Y0055344D02*
X0096194Y0055344D01*
X0096692Y0054845D02*
X0089308Y0054845D01*
X0088809Y0054347D02*
X0097191Y0054347D01*
X0097689Y0053848D02*
X0088311Y0053848D01*
X0083542Y0053350D02*
X0081322Y0053350D01*
X0081322Y0053848D02*
X0083044Y0053848D01*
X0082545Y0054347D02*
X0081322Y0054347D01*
X0081322Y0054845D02*
X0082047Y0054845D01*
X0081659Y0055344D02*
X0081322Y0055344D01*
X0081322Y0055842D02*
X0081659Y0055842D01*
X0081659Y0056341D02*
X0081322Y0056341D01*
X0081274Y0056839D02*
X0081659Y0056839D01*
X0081659Y0057338D02*
X0080776Y0057338D01*
X0080277Y0057836D02*
X0081659Y0057836D01*
X0081659Y0058335D02*
X0079779Y0058335D01*
X0079280Y0058833D02*
X0081549Y0058833D01*
X0081051Y0059332D02*
X0078781Y0059332D01*
X0075446Y0054347D02*
X0074719Y0054347D01*
X0074719Y0053848D02*
X0075944Y0053848D01*
X0076253Y0053350D02*
X0074719Y0053350D01*
X0074719Y0052851D02*
X0076253Y0052851D01*
X0076253Y0052353D02*
X0074719Y0052353D01*
X0074719Y0051854D02*
X0076253Y0051854D01*
X0076253Y0051356D02*
X0074719Y0051356D01*
X0074719Y0050857D02*
X0076253Y0050857D01*
X0076253Y0050359D02*
X0074719Y0050359D01*
X0074719Y0049860D02*
X0076253Y0049860D01*
X0076253Y0049362D02*
X0074719Y0049362D01*
X0074719Y0048863D02*
X0076253Y0048863D01*
X0076253Y0048365D02*
X0074719Y0048365D01*
X0074719Y0047866D02*
X0076253Y0047866D01*
X0076253Y0047368D02*
X0074374Y0047368D01*
X0076253Y0046869D02*
X0057700Y0046869D01*
X0057700Y0046370D02*
X0076253Y0046370D01*
X0076253Y0045872D02*
X0057700Y0045872D01*
X0057700Y0045373D02*
X0076253Y0045373D01*
X0076253Y0044875D02*
X0057700Y0044875D01*
X0057700Y0044376D02*
X0076253Y0044376D01*
X0076253Y0043878D02*
X0057700Y0043878D01*
X0057700Y0043379D02*
X0075872Y0043379D01*
X0075374Y0042881D02*
X0057700Y0042881D01*
X0057700Y0042382D02*
X0074875Y0042382D01*
X0074377Y0041884D02*
X0057700Y0041884D01*
X0057700Y0041385D02*
X0073878Y0041385D01*
X0073380Y0040887D02*
X0057700Y0040887D01*
X0057764Y0040388D02*
X0072881Y0040388D01*
X0072383Y0039890D02*
X0058263Y0039890D01*
X0055873Y0037896D02*
X0054773Y0037896D01*
X0055271Y0038394D02*
X0055374Y0038394D01*
X0056371Y0037397D02*
X0054274Y0037397D01*
X0054341Y0036899D02*
X0056304Y0036899D01*
X0056304Y0036400D02*
X0054341Y0036400D01*
X0054341Y0035902D02*
X0056304Y0035902D01*
X0056304Y0035403D02*
X0054341Y0035403D01*
X0054341Y0034905D02*
X0056304Y0034905D01*
X0056304Y0034406D02*
X0054341Y0034406D01*
X0054276Y0033908D02*
X0056370Y0033908D01*
X0056868Y0033409D02*
X0053777Y0033409D01*
X0053279Y0032911D02*
X0057367Y0032911D01*
X0057865Y0032412D02*
X0052780Y0032412D01*
X0052282Y0031914D02*
X0058364Y0031914D01*
X0062282Y0031914D02*
X0068364Y0031914D01*
X0067865Y0032412D02*
X0062780Y0032412D01*
X0063279Y0032911D02*
X0067367Y0032911D01*
X0066868Y0033409D02*
X0063777Y0033409D01*
X0064276Y0033908D02*
X0066370Y0033908D01*
X0066304Y0034406D02*
X0064341Y0034406D01*
X0064341Y0034905D02*
X0066304Y0034905D01*
X0066304Y0035403D02*
X0064341Y0035403D01*
X0064341Y0035902D02*
X0066304Y0035902D01*
X0066304Y0036400D02*
X0064341Y0036400D01*
X0064341Y0036899D02*
X0066304Y0036899D01*
X0066399Y0037397D02*
X0064246Y0037397D01*
X0063748Y0037896D02*
X0066898Y0037896D01*
X0067396Y0038394D02*
X0063249Y0038394D01*
X0062751Y0038893D02*
X0067895Y0038893D01*
X0068393Y0039391D02*
X0062252Y0039391D01*
X0057700Y0047368D02*
X0067059Y0047368D01*
X0066714Y0047866D02*
X0057700Y0047866D01*
X0057700Y0048365D02*
X0066714Y0048365D01*
X0066714Y0048863D02*
X0057700Y0048863D01*
X0057700Y0049362D02*
X0066714Y0049362D01*
X0066714Y0049860D02*
X0057700Y0049860D01*
X0057700Y0050359D02*
X0066714Y0050359D01*
X0066714Y0050857D02*
X0057700Y0050857D01*
X0057700Y0051356D02*
X0066714Y0051356D01*
X0066714Y0051854D02*
X0057700Y0051854D01*
X0057700Y0052353D02*
X0066714Y0052353D01*
X0066714Y0052851D02*
X0057700Y0052851D01*
X0057700Y0053350D02*
X0066714Y0053350D01*
X0066714Y0053848D02*
X0057700Y0053848D01*
X0057700Y0054347D02*
X0066714Y0054347D01*
X0066714Y0054845D02*
X0057700Y0054845D01*
X0057700Y0055344D02*
X0066714Y0055344D01*
X0066714Y0055842D02*
X0057700Y0055842D01*
X0057700Y0056341D02*
X0066714Y0056341D01*
X0066714Y0056839D02*
X0057652Y0056839D01*
X0057153Y0057338D02*
X0066714Y0057338D01*
X0066714Y0057836D02*
X0056655Y0057836D01*
X0056156Y0058335D02*
X0066714Y0058335D01*
X0066714Y0058833D02*
X0055658Y0058833D01*
X0055159Y0059332D02*
X0066714Y0059332D01*
X0066714Y0059830D02*
X0054661Y0059830D01*
X0054162Y0060329D02*
X0066714Y0060329D01*
X0066714Y0060827D02*
X0051097Y0060827D01*
X0051097Y0061326D02*
X0066714Y0061326D01*
X0066714Y0061824D02*
X0051097Y0061824D01*
X0051097Y0062323D02*
X0066714Y0062323D01*
X0066714Y0062821D02*
X0051097Y0062821D01*
X0051097Y0063320D02*
X0066714Y0063320D01*
X0066714Y0063818D02*
X0051097Y0063818D01*
X0051097Y0064317D02*
X0066714Y0064317D01*
X0066714Y0064815D02*
X0051097Y0064815D01*
X0051097Y0065314D02*
X0066714Y0065314D01*
X0066714Y0065812D02*
X0051097Y0065812D01*
X0051097Y0066311D02*
X0066714Y0066311D01*
X0066714Y0066809D02*
X0051097Y0066809D01*
X0051097Y0070798D02*
X0056794Y0070798D01*
X0057293Y0071296D02*
X0051097Y0071296D01*
X0051097Y0071795D02*
X0057792Y0071795D01*
X0058290Y0072293D02*
X0051097Y0072293D01*
X0050766Y0072792D02*
X0058789Y0072792D01*
X0059287Y0073290D02*
X0048644Y0073290D01*
X0048644Y0073789D02*
X0059786Y0073789D01*
X0060284Y0074287D02*
X0048644Y0074287D01*
X0048644Y0074786D02*
X0060783Y0074786D01*
X0061281Y0075284D02*
X0048644Y0075284D01*
X0050594Y0075783D02*
X0052000Y0075783D01*
X0051937Y0075819D02*
X0052222Y0075654D01*
X0052540Y0075569D01*
X0055211Y0075569D01*
X0055211Y0079522D01*
X0055711Y0079522D01*
X0055711Y0080022D01*
X0059467Y0080022D01*
X0059467Y0082889D01*
X0059381Y0083207D01*
X0059217Y0083492D01*
X0058984Y0083725D01*
X0058699Y0083889D01*
X0058381Y0083974D01*
X0055711Y0083974D01*
X0055711Y0080022D01*
X0055211Y0080022D01*
X0055211Y0083974D01*
X0052540Y0083974D01*
X0052222Y0083889D01*
X0051937Y0083725D01*
X0051704Y0083492D01*
X0051540Y0083207D01*
X0051455Y0082889D01*
X0051455Y0080022D01*
X0055211Y0080022D01*
X0055211Y0079522D01*
X0051455Y0079522D01*
X0051455Y0076654D01*
X0051540Y0076336D01*
X0051704Y0076051D01*
X0051937Y0075819D01*
X0051572Y0076281D02*
X0051093Y0076281D01*
X0051196Y0076780D02*
X0051455Y0076780D01*
X0051455Y0077278D02*
X0051196Y0077278D01*
X0051196Y0077777D02*
X0051455Y0077777D01*
X0051455Y0078275D02*
X0051196Y0078275D01*
X0051196Y0078774D02*
X0051455Y0078774D01*
X0051455Y0079272D02*
X0051196Y0079272D01*
X0051196Y0079771D02*
X0055211Y0079771D01*
X0055211Y0080269D02*
X0055711Y0080269D01*
X0055711Y0079771D02*
X0065768Y0079771D01*
X0066266Y0080269D02*
X0059467Y0080269D01*
X0059467Y0080768D02*
X0066765Y0080768D01*
X0067263Y0081266D02*
X0059467Y0081266D01*
X0059467Y0081765D02*
X0067762Y0081765D01*
X0068260Y0082263D02*
X0059467Y0082263D01*
X0059467Y0082762D02*
X0068759Y0082762D01*
X0069257Y0083260D02*
X0059350Y0083260D01*
X0058925Y0083759D02*
X0069756Y0083759D01*
X0070254Y0084257D02*
X0048940Y0084257D01*
X0048940Y0084756D02*
X0070753Y0084756D01*
X0071251Y0085254D02*
X0048940Y0085254D01*
X0050722Y0085753D02*
X0051845Y0085753D01*
X0051937Y0085661D02*
X0052222Y0085497D01*
X0052540Y0085411D01*
X0055211Y0085411D01*
X0055211Y0089364D01*
X0055711Y0089364D01*
X0055711Y0089864D01*
X0059467Y0089864D01*
X0059467Y0092731D01*
X0059381Y0093049D01*
X0059217Y0093334D01*
X0058984Y0093567D01*
X0058699Y0093732D01*
X0058381Y0093817D01*
X0055711Y0093817D01*
X0055711Y0089864D01*
X0055211Y0089864D01*
X0055211Y0093817D01*
X0052540Y0093817D01*
X0052222Y0093732D01*
X0051937Y0093567D01*
X0051704Y0093334D01*
X0051540Y0093049D01*
X0051455Y0092731D01*
X0051455Y0089864D01*
X0055211Y0089864D01*
X0055211Y0089364D01*
X0051455Y0089364D01*
X0051455Y0086497D01*
X0051540Y0086179D01*
X0051704Y0085894D01*
X0051937Y0085661D01*
X0051520Y0086251D02*
X0051196Y0086251D01*
X0051196Y0086750D02*
X0051455Y0086750D01*
X0051455Y0087248D02*
X0051196Y0087248D01*
X0051196Y0087747D02*
X0051455Y0087747D01*
X0051455Y0088245D02*
X0051196Y0088245D01*
X0051196Y0088744D02*
X0051455Y0088744D01*
X0051455Y0089242D02*
X0051196Y0089242D01*
X0051196Y0089741D02*
X0055211Y0089741D01*
X0055211Y0090239D02*
X0055711Y0090239D01*
X0055711Y0089741D02*
X0075738Y0089741D01*
X0076236Y0090239D02*
X0059467Y0090239D01*
X0059467Y0090738D02*
X0076352Y0090738D01*
X0076352Y0091237D02*
X0059467Y0091237D01*
X0059467Y0091735D02*
X0076352Y0091735D01*
X0076352Y0092234D02*
X0059467Y0092234D01*
X0059466Y0092732D02*
X0076352Y0092732D01*
X0076352Y0093231D02*
X0059277Y0093231D01*
X0058704Y0093729D02*
X0076352Y0093729D01*
X0076352Y0094228D02*
X0048940Y0094228D01*
X0048940Y0094726D02*
X0076352Y0094726D01*
X0076352Y0095225D02*
X0048940Y0095225D01*
X0048940Y0093729D02*
X0052218Y0093729D01*
X0051645Y0093231D02*
X0050967Y0093231D01*
X0051196Y0092732D02*
X0051455Y0092732D01*
X0051455Y0092234D02*
X0051196Y0092234D01*
X0051196Y0091735D02*
X0051455Y0091735D01*
X0051455Y0091237D02*
X0051196Y0091237D01*
X0051196Y0090738D02*
X0051455Y0090738D01*
X0051455Y0090239D02*
X0051196Y0090239D01*
X0055211Y0090738D02*
X0055711Y0090738D01*
X0055711Y0091237D02*
X0055211Y0091237D01*
X0055211Y0091735D02*
X0055711Y0091735D01*
X0055711Y0092234D02*
X0055211Y0092234D01*
X0055211Y0092732D02*
X0055711Y0092732D01*
X0055711Y0093231D02*
X0055211Y0093231D01*
X0055211Y0093729D02*
X0055711Y0093729D01*
X0055711Y0095254D02*
X0058381Y0095254D01*
X0058699Y0095339D01*
X0058984Y0095504D01*
X0059217Y0095736D01*
X0059381Y0096021D01*
X0059467Y0096339D01*
X0059467Y0099207D01*
X0055711Y0099207D01*
X0055711Y0099707D01*
X0059467Y0099707D01*
X0059467Y0102574D01*
X0059381Y0102892D01*
X0059217Y0103177D01*
X0058984Y0103410D01*
X0058699Y0103574D01*
X0058381Y0103659D01*
X0055711Y0103659D01*
X0055711Y0099707D01*
X0055211Y0099707D01*
X0055211Y0103659D01*
X0052540Y0103659D01*
X0052222Y0103574D01*
X0051937Y0103410D01*
X0051704Y0103177D01*
X0051540Y0102892D01*
X0051455Y0102574D01*
X0051455Y0099707D01*
X0055211Y0099707D01*
X0055211Y0099207D01*
X0055711Y0099207D01*
X0055711Y0095254D01*
X0055711Y0095723D02*
X0055211Y0095723D01*
X0055211Y0095254D02*
X0052540Y0095254D01*
X0052222Y0095339D01*
X0051937Y0095504D01*
X0051704Y0095736D01*
X0051540Y0096021D01*
X0051455Y0096339D01*
X0051455Y0099207D01*
X0055211Y0099207D01*
X0055211Y0095254D01*
X0055211Y0096222D02*
X0055711Y0096222D01*
X0055711Y0096720D02*
X0055211Y0096720D01*
X0055211Y0097219D02*
X0055711Y0097219D01*
X0055711Y0097717D02*
X0055211Y0097717D01*
X0055211Y0098216D02*
X0055711Y0098216D01*
X0055711Y0098714D02*
X0055211Y0098714D01*
X0055211Y0099213D02*
X0051196Y0099213D01*
X0051196Y0099711D02*
X0051455Y0099711D01*
X0051455Y0100210D02*
X0051196Y0100210D01*
X0051196Y0100708D02*
X0051455Y0100708D01*
X0051455Y0101207D02*
X0051196Y0101207D01*
X0051196Y0101705D02*
X0051455Y0101705D01*
X0051455Y0102204D02*
X0051196Y0102204D01*
X0051196Y0102702D02*
X0051489Y0102702D01*
X0051728Y0103201D02*
X0050839Y0103201D01*
X0055211Y0103201D02*
X0055711Y0103201D01*
X0055711Y0102702D02*
X0055211Y0102702D01*
X0055211Y0102204D02*
X0055711Y0102204D01*
X0055711Y0101705D02*
X0055211Y0101705D01*
X0055211Y0101207D02*
X0055711Y0101207D01*
X0055711Y0100708D02*
X0055211Y0100708D01*
X0055211Y0100210D02*
X0055711Y0100210D01*
X0055711Y0099711D02*
X0055211Y0099711D01*
X0055711Y0099213D02*
X0076352Y0099213D01*
X0076352Y0099711D02*
X0059467Y0099711D01*
X0059467Y0100210D02*
X0076352Y0100210D01*
X0076352Y0100708D02*
X0059467Y0100708D01*
X0059467Y0101207D02*
X0076352Y0101207D01*
X0076352Y0101705D02*
X0059467Y0101705D01*
X0059467Y0102204D02*
X0076352Y0102204D01*
X0076352Y0102702D02*
X0059432Y0102702D01*
X0059193Y0103201D02*
X0076352Y0103201D01*
X0076352Y0103699D02*
X0027151Y0103699D01*
X0026653Y0103201D02*
X0032557Y0103201D01*
X0032059Y0102702D02*
X0026154Y0102702D01*
X0025656Y0102204D02*
X0031560Y0102204D01*
X0031062Y0101705D02*
X0025157Y0101705D01*
X0024659Y0101207D02*
X0030563Y0101207D01*
X0030478Y0100708D02*
X0024160Y0100708D01*
X0023662Y0100210D02*
X0030478Y0100210D01*
X0030478Y0099711D02*
X0023163Y0099711D01*
X0022665Y0099213D02*
X0030478Y0099213D01*
X0030478Y0098714D02*
X0022166Y0098714D01*
X0021668Y0098216D02*
X0030478Y0098216D01*
X0030553Y0097717D02*
X0021169Y0097717D01*
X0020670Y0097219D02*
X0031051Y0097219D01*
X0031550Y0096720D02*
X0020172Y0096720D01*
X0019673Y0096222D02*
X0032048Y0096222D01*
X0032547Y0095723D02*
X0019175Y0095723D01*
X0018676Y0095225D02*
X0045840Y0095225D01*
X0045840Y0094726D02*
X0018178Y0094726D01*
X0017679Y0094228D02*
X0045840Y0094228D01*
X0045840Y0093729D02*
X0017181Y0093729D01*
X0016682Y0093231D02*
X0032304Y0093231D01*
X0032749Y0093675D02*
X0030278Y0091204D01*
X0030278Y0089707D01*
X0034246Y0089707D01*
X0034246Y0093675D01*
X0032749Y0093675D01*
X0031806Y0092732D02*
X0016184Y0092732D01*
X0015685Y0092234D02*
X0031307Y0092234D01*
X0030809Y0091735D02*
X0015187Y0091735D01*
X0014688Y0091237D02*
X0030310Y0091237D01*
X0030278Y0090738D02*
X0014190Y0090738D01*
X0013691Y0090239D02*
X0030278Y0090239D01*
X0030278Y0089741D02*
X0013193Y0089741D01*
X0012694Y0089242D02*
X0034246Y0089242D01*
X0034246Y0089207D02*
X0030278Y0089207D01*
X0030278Y0087709D01*
X0032749Y0085238D01*
X0034246Y0085238D01*
X0034246Y0089207D01*
X0034246Y0089707D01*
X0034746Y0089707D01*
X0034746Y0093675D01*
X0036243Y0093675D01*
X0038715Y0091204D01*
X0038715Y0089707D01*
X0034746Y0089707D01*
X0034746Y0089207D01*
X0038715Y0089207D01*
X0038715Y0087709D01*
X0036243Y0085238D01*
X0034746Y0085238D01*
X0034746Y0089207D01*
X0034246Y0089207D01*
X0034246Y0088744D02*
X0034746Y0088744D01*
X0034746Y0089242D02*
X0043584Y0089242D01*
X0043584Y0088744D02*
X0038715Y0088744D01*
X0038715Y0088245D02*
X0043584Y0088245D01*
X0043584Y0087747D02*
X0038715Y0087747D01*
X0038254Y0087248D02*
X0043584Y0087248D01*
X0043584Y0086750D02*
X0037755Y0086750D01*
X0037257Y0086251D02*
X0043584Y0086251D01*
X0044057Y0085753D02*
X0036758Y0085753D01*
X0036260Y0085254D02*
X0045840Y0085254D01*
X0045840Y0084756D02*
X0012424Y0084756D01*
X0012424Y0085254D02*
X0032733Y0085254D01*
X0032234Y0085753D02*
X0012424Y0085753D01*
X0012424Y0086251D02*
X0031735Y0086251D01*
X0031237Y0086750D02*
X0012424Y0086750D01*
X0012424Y0087248D02*
X0030738Y0087248D01*
X0030278Y0087747D02*
X0012424Y0087747D01*
X0012424Y0088245D02*
X0030278Y0088245D01*
X0030278Y0088744D02*
X0012424Y0088744D01*
X0012424Y0084257D02*
X0045840Y0084257D01*
X0044183Y0083759D02*
X0012424Y0083759D01*
X0012424Y0083260D02*
X0043685Y0083260D01*
X0043584Y0082762D02*
X0012424Y0082762D01*
X0012424Y0082263D02*
X0043584Y0082263D01*
X0043584Y0081765D02*
X0014492Y0081765D01*
X0014893Y0081266D02*
X0043584Y0081266D01*
X0043584Y0080768D02*
X0014893Y0080768D01*
X0014893Y0080269D02*
X0043584Y0080269D01*
X0043584Y0079771D02*
X0014893Y0079771D01*
X0014893Y0079272D02*
X0043584Y0079272D01*
X0043584Y0078774D02*
X0014893Y0078774D01*
X0014893Y0078275D02*
X0043584Y0078275D01*
X0043584Y0077777D02*
X0014893Y0077777D01*
X0014893Y0077278D02*
X0043584Y0077278D01*
X0043584Y0076780D02*
X0014893Y0076780D01*
X0014893Y0076281D02*
X0043687Y0076281D01*
X0044185Y0075783D02*
X0014893Y0075783D01*
X0014893Y0075284D02*
X0045544Y0075284D01*
X0045544Y0074786D02*
X0014893Y0074786D01*
X0014622Y0074287D02*
X0045544Y0074287D01*
X0045544Y0073789D02*
X0007500Y0073789D01*
X0007500Y0073290D02*
X0045544Y0073290D01*
X0043423Y0072792D02*
X0007500Y0072792D01*
X0007500Y0072293D02*
X0043092Y0072293D01*
X0043092Y0071795D02*
X0024175Y0071795D01*
X0024673Y0071296D02*
X0043092Y0071296D01*
X0043092Y0070798D02*
X0024719Y0070798D01*
X0024719Y0070299D02*
X0043092Y0070299D01*
X0043092Y0069801D02*
X0024719Y0069801D01*
X0024719Y0069302D02*
X0043092Y0069302D01*
X0043092Y0068803D02*
X0024719Y0068803D01*
X0024719Y0068305D02*
X0043092Y0068305D01*
X0036534Y0064317D02*
X0033044Y0064317D01*
X0032546Y0063818D02*
X0036036Y0063818D01*
X0035537Y0063320D02*
X0032047Y0063320D01*
X0031549Y0062821D02*
X0035039Y0062821D01*
X0034540Y0062323D02*
X0031050Y0062323D01*
X0030552Y0061824D02*
X0034042Y0061824D01*
X0033543Y0061326D02*
X0030053Y0061326D01*
X0029555Y0060827D02*
X0033045Y0060827D01*
X0032546Y0060329D02*
X0029056Y0060329D01*
X0028558Y0059830D02*
X0032048Y0059830D01*
X0031549Y0059332D02*
X0028059Y0059332D01*
X0027561Y0058833D02*
X0031051Y0058833D01*
X0030552Y0058335D02*
X0024719Y0058335D01*
X0024719Y0057836D02*
X0030054Y0057836D01*
X0029555Y0057338D02*
X0024719Y0057338D01*
X0024719Y0056839D02*
X0029057Y0056839D01*
X0029009Y0056341D02*
X0024263Y0056341D01*
X0022267Y0055842D02*
X0029009Y0055842D01*
X0029009Y0055344D02*
X0022267Y0055344D01*
X0022267Y0054845D02*
X0029009Y0054845D01*
X0029009Y0054347D02*
X0022267Y0054347D01*
X0024404Y0053848D02*
X0029009Y0053848D01*
X0029009Y0053350D02*
X0024719Y0053350D01*
X0024719Y0052851D02*
X0029009Y0052851D01*
X0029009Y0052353D02*
X0024719Y0052353D01*
X0024719Y0051854D02*
X0029009Y0051854D01*
X0029009Y0051356D02*
X0024719Y0051356D01*
X0024719Y0050857D02*
X0029009Y0050857D01*
X0029009Y0050359D02*
X0024719Y0050359D01*
X0024719Y0049860D02*
X0029009Y0049860D01*
X0029009Y0049362D02*
X0024719Y0049362D01*
X0024719Y0048863D02*
X0029009Y0048863D01*
X0029009Y0048365D02*
X0024719Y0048365D01*
X0024719Y0047866D02*
X0029009Y0047866D01*
X0029009Y0047368D02*
X0024719Y0047368D01*
X0024437Y0046869D02*
X0029009Y0046869D01*
X0029009Y0046370D02*
X0007500Y0046370D01*
X0007500Y0045872D02*
X0016840Y0045872D01*
X0016764Y0045795D02*
X0016599Y0045510D01*
X0016514Y0045192D01*
X0016514Y0042522D01*
X0020466Y0042522D01*
X0020466Y0042022D01*
X0016514Y0042022D01*
X0016514Y0039351D01*
X0016599Y0039033D01*
X0016764Y0038748D01*
X0016996Y0038516D01*
X0017281Y0038351D01*
X0017599Y0038266D01*
X0020467Y0038266D01*
X0020467Y0042022D01*
X0020966Y0042022D01*
X0020966Y0038266D01*
X0023834Y0038266D01*
X0024152Y0038351D01*
X0024437Y0038516D01*
X0024670Y0038748D01*
X0024834Y0039033D01*
X0024919Y0039351D01*
X0024919Y0042022D01*
X0020967Y0042022D01*
X0020967Y0042522D01*
X0024919Y0042522D01*
X0024919Y0045192D01*
X0024834Y0045510D01*
X0024670Y0045795D01*
X0024437Y0046028D01*
X0024152Y0046192D01*
X0023834Y0046278D01*
X0020966Y0046278D01*
X0020966Y0042522D01*
X0020467Y0042522D01*
X0020467Y0046278D01*
X0017599Y0046278D01*
X0017281Y0046192D01*
X0016996Y0046028D01*
X0016764Y0045795D01*
X0016562Y0045373D02*
X0007500Y0045373D01*
X0007500Y0044875D02*
X0016514Y0044875D01*
X0016514Y0044376D02*
X0007500Y0044376D01*
X0007500Y0043878D02*
X0016514Y0043878D01*
X0016514Y0043379D02*
X0007500Y0043379D01*
X0007500Y0042881D02*
X0016514Y0042881D01*
X0016514Y0041884D02*
X0007500Y0041884D01*
X0007500Y0042382D02*
X0020466Y0042382D01*
X0020467Y0041884D02*
X0020966Y0041884D01*
X0020967Y0042382D02*
X0029009Y0042382D01*
X0029009Y0041884D02*
X0024919Y0041884D01*
X0024919Y0041385D02*
X0029009Y0041385D01*
X0029009Y0040887D02*
X0024919Y0040887D01*
X0024919Y0040388D02*
X0029009Y0040388D01*
X0029009Y0039890D02*
X0024919Y0039890D01*
X0024919Y0039391D02*
X0029009Y0039391D01*
X0029009Y0038893D02*
X0024753Y0038893D01*
X0024227Y0038394D02*
X0029009Y0038394D01*
X0029009Y0037896D02*
X0007500Y0037896D01*
X0007500Y0038394D02*
X0017206Y0038394D01*
X0016680Y0038893D02*
X0007500Y0038893D01*
X0007500Y0039391D02*
X0016514Y0039391D01*
X0016514Y0039890D02*
X0007500Y0039890D01*
X0007500Y0040388D02*
X0016514Y0040388D01*
X0016514Y0040887D02*
X0007500Y0040887D01*
X0007500Y0041385D02*
X0016514Y0041385D01*
X0020467Y0041385D02*
X0020966Y0041385D01*
X0020966Y0040887D02*
X0020467Y0040887D01*
X0020467Y0040388D02*
X0020966Y0040388D01*
X0020966Y0039890D02*
X0020467Y0039890D01*
X0020467Y0039391D02*
X0020966Y0039391D01*
X0020966Y0038893D02*
X0020467Y0038893D01*
X0020467Y0038394D02*
X0020966Y0038394D01*
X0020966Y0042881D02*
X0020467Y0042881D01*
X0020467Y0043379D02*
X0020966Y0043379D01*
X0020966Y0043878D02*
X0020467Y0043878D01*
X0020467Y0044376D02*
X0020966Y0044376D01*
X0020966Y0044875D02*
X0020467Y0044875D01*
X0020467Y0045373D02*
X0020966Y0045373D01*
X0020966Y0045872D02*
X0020467Y0045872D01*
X0016996Y0046869D02*
X0007500Y0046869D01*
X0007500Y0047368D02*
X0016714Y0047368D01*
X0016714Y0047866D02*
X0007500Y0047866D01*
X0007500Y0048365D02*
X0016714Y0048365D01*
X0016714Y0048863D02*
X0007500Y0048863D01*
X0007500Y0049362D02*
X0016714Y0049362D01*
X0016714Y0049860D02*
X0007500Y0049860D01*
X0007500Y0050359D02*
X0016714Y0050359D01*
X0016714Y0050857D02*
X0007500Y0050857D01*
X0007500Y0051356D02*
X0016714Y0051356D01*
X0016714Y0051854D02*
X0007500Y0051854D01*
X0007500Y0052353D02*
X0016714Y0052353D01*
X0016714Y0052851D02*
X0007500Y0052851D01*
X0007500Y0053350D02*
X0016714Y0053350D01*
X0017029Y0053848D02*
X0012727Y0053848D01*
X0013226Y0054347D02*
X0019167Y0054347D01*
X0019167Y0054845D02*
X0013724Y0054845D01*
X0014223Y0055344D02*
X0019167Y0055344D01*
X0019167Y0055842D02*
X0014721Y0055842D01*
X0015093Y0056341D02*
X0017170Y0056341D01*
X0016714Y0056839D02*
X0015093Y0056839D01*
X0015093Y0057338D02*
X0016714Y0057338D01*
X0016714Y0057836D02*
X0011124Y0057836D01*
X0011124Y0057338D02*
X0010624Y0057338D01*
X0010624Y0056839D02*
X0011124Y0056839D01*
X0011124Y0056341D02*
X0010624Y0056341D01*
X0010624Y0055842D02*
X0011124Y0055842D01*
X0011124Y0055344D02*
X0010624Y0055344D01*
X0010624Y0054845D02*
X0011124Y0054845D01*
X0011124Y0054347D02*
X0010624Y0054347D01*
X0010624Y0053848D02*
X0011124Y0053848D01*
X0009021Y0053848D02*
X0007500Y0053848D01*
X0007500Y0054347D02*
X0008522Y0054347D01*
X0008024Y0054845D02*
X0007500Y0054845D01*
X0007500Y0055344D02*
X0007525Y0055344D01*
X0010624Y0058335D02*
X0011124Y0058335D01*
X0011124Y0058833D02*
X0010624Y0058833D01*
X0010624Y0059332D02*
X0011124Y0059332D01*
X0011124Y0059830D02*
X0010624Y0059830D01*
X0010624Y0060329D02*
X0011124Y0060329D01*
X0011124Y0060827D02*
X0010624Y0060827D01*
X0010624Y0061326D02*
X0011124Y0061326D01*
X0011124Y0061824D02*
X0010624Y0061824D01*
X0008772Y0061824D02*
X0007500Y0061824D01*
X0007500Y0061326D02*
X0008273Y0061326D01*
X0007775Y0060827D02*
X0007500Y0060827D01*
X0007500Y0062323D02*
X0016714Y0062323D01*
X0016714Y0062821D02*
X0007500Y0062821D01*
X0007500Y0063320D02*
X0016855Y0063320D01*
X0017265Y0064317D02*
X0012913Y0064317D01*
X0013412Y0064815D02*
X0016767Y0064815D01*
X0016714Y0065314D02*
X0013910Y0065314D01*
X0014409Y0065812D02*
X0016714Y0065812D01*
X0016714Y0066311D02*
X0014893Y0066311D01*
X0014717Y0069801D02*
X0016714Y0069801D01*
X0016714Y0070299D02*
X0014219Y0070299D01*
X0013720Y0070798D02*
X0016714Y0070798D01*
X0016760Y0071296D02*
X0013222Y0071296D01*
X0012723Y0071795D02*
X0017258Y0071795D01*
X0024719Y0067806D02*
X0032150Y0067806D01*
X0031651Y0067308D02*
X0024719Y0067308D01*
X0024719Y0066809D02*
X0031153Y0066809D01*
X0030654Y0066311D02*
X0024719Y0066311D01*
X0024719Y0065812D02*
X0030156Y0065812D01*
X0029657Y0065314D02*
X0024719Y0065314D01*
X0024666Y0064815D02*
X0029159Y0064815D01*
X0028660Y0064317D02*
X0024168Y0064317D01*
X0024578Y0063320D02*
X0027663Y0063320D01*
X0027165Y0062821D02*
X0024719Y0062821D01*
X0024719Y0062323D02*
X0026666Y0062323D01*
X0026168Y0061824D02*
X0024719Y0061824D01*
X0028162Y0063818D02*
X0007500Y0063818D01*
X0007500Y0064317D02*
X0008835Y0064317D01*
X0008336Y0064815D02*
X0007500Y0064815D01*
X0007500Y0065314D02*
X0007838Y0065314D01*
X0007529Y0070299D02*
X0007500Y0070299D01*
X0007500Y0070798D02*
X0008028Y0070798D01*
X0008526Y0071296D02*
X0007500Y0071296D01*
X0007500Y0071795D02*
X0009025Y0071795D01*
X0012976Y0061824D02*
X0016714Y0061824D01*
X0016714Y0061326D02*
X0013475Y0061326D01*
X0013973Y0060827D02*
X0016714Y0060827D01*
X0016714Y0060329D02*
X0014472Y0060329D01*
X0014970Y0059830D02*
X0016714Y0059830D01*
X0016714Y0059332D02*
X0015093Y0059332D01*
X0015093Y0058833D02*
X0016714Y0058833D01*
X0016714Y0058335D02*
X0015093Y0058335D01*
X0024593Y0045872D02*
X0029009Y0045872D01*
X0029009Y0045373D02*
X0024871Y0045373D01*
X0024919Y0044875D02*
X0029009Y0044875D01*
X0029009Y0044376D02*
X0024919Y0044376D01*
X0024919Y0043878D02*
X0029009Y0043878D01*
X0029009Y0043379D02*
X0024919Y0043379D01*
X0024919Y0042881D02*
X0029009Y0042881D01*
X0034078Y0042881D02*
X0052631Y0042881D01*
X0052631Y0043379D02*
X0034078Y0043379D01*
X0034078Y0043878D02*
X0052631Y0043878D01*
X0052631Y0044376D02*
X0034078Y0044376D01*
X0034078Y0044875D02*
X0052631Y0044875D01*
X0052631Y0045373D02*
X0034078Y0045373D01*
X0034078Y0045872D02*
X0052631Y0045872D01*
X0052631Y0046370D02*
X0034078Y0046370D01*
X0034078Y0046869D02*
X0052631Y0046869D01*
X0052631Y0047368D02*
X0050752Y0047368D01*
X0051097Y0047866D02*
X0052631Y0047866D01*
X0052631Y0048365D02*
X0051097Y0048365D01*
X0051097Y0048863D02*
X0052631Y0048863D01*
X0052631Y0049362D02*
X0051097Y0049362D01*
X0051097Y0049860D02*
X0052631Y0049860D01*
X0052631Y0050359D02*
X0051097Y0050359D01*
X0051097Y0050857D02*
X0052631Y0050857D01*
X0052631Y0051356D02*
X0051097Y0051356D01*
X0051097Y0051854D02*
X0052631Y0051854D01*
X0052631Y0052353D02*
X0051097Y0052353D01*
X0051097Y0052851D02*
X0052631Y0052851D01*
X0052631Y0053350D02*
X0051097Y0053350D01*
X0051097Y0053848D02*
X0052322Y0053848D01*
X0051823Y0054347D02*
X0051097Y0054347D01*
X0043092Y0054347D02*
X0034885Y0054347D01*
X0035384Y0054845D02*
X0043092Y0054845D01*
X0043092Y0055344D02*
X0035882Y0055344D01*
X0036381Y0055842D02*
X0043092Y0055842D01*
X0043092Y0056341D02*
X0036879Y0056341D01*
X0037378Y0056839D02*
X0043092Y0056839D01*
X0043092Y0057338D02*
X0037876Y0057338D01*
X0038375Y0057836D02*
X0043092Y0057836D01*
X0043092Y0058335D02*
X0038873Y0058335D01*
X0039372Y0058833D02*
X0043092Y0058833D01*
X0043092Y0059332D02*
X0039870Y0059332D01*
X0043092Y0053848D02*
X0034387Y0053848D01*
X0034078Y0053350D02*
X0043092Y0053350D01*
X0043092Y0052851D02*
X0034078Y0052851D01*
X0034078Y0052353D02*
X0043092Y0052353D01*
X0043092Y0051854D02*
X0034078Y0051854D01*
X0034078Y0051356D02*
X0043092Y0051356D01*
X0043092Y0050857D02*
X0034078Y0050857D01*
X0034078Y0050359D02*
X0043092Y0050359D01*
X0043092Y0049860D02*
X0034078Y0049860D01*
X0034078Y0049362D02*
X0043092Y0049362D01*
X0043092Y0048863D02*
X0034078Y0048863D01*
X0034078Y0048365D02*
X0043092Y0048365D01*
X0043092Y0047866D02*
X0034078Y0047866D01*
X0034078Y0047368D02*
X0043437Y0047368D01*
X0042070Y0039856D02*
X0040573Y0039856D01*
X0040573Y0035888D01*
X0040073Y0035888D01*
X0040073Y0039856D01*
X0038575Y0039856D01*
X0036104Y0037385D01*
X0036104Y0035888D01*
X0040073Y0035888D01*
X0040073Y0035388D01*
X0036104Y0035388D01*
X0036104Y0033890D01*
X0038575Y0031419D01*
X0040073Y0031419D01*
X0040073Y0035388D01*
X0040573Y0035388D01*
X0040573Y0035888D01*
X0044541Y0035888D01*
X0044541Y0037385D01*
X0042070Y0039856D01*
X0042535Y0039391D02*
X0048393Y0039391D01*
X0047895Y0038893D02*
X0043034Y0038893D01*
X0043532Y0038394D02*
X0047396Y0038394D01*
X0046898Y0037896D02*
X0044031Y0037896D01*
X0044529Y0037397D02*
X0046399Y0037397D01*
X0046304Y0036899D02*
X0044541Y0036899D01*
X0044541Y0036400D02*
X0046304Y0036400D01*
X0046304Y0035902D02*
X0044541Y0035902D01*
X0044541Y0035388D02*
X0040573Y0035388D01*
X0040573Y0031419D01*
X0042070Y0031419D01*
X0044541Y0033890D01*
X0044541Y0035388D01*
X0044541Y0034905D02*
X0046304Y0034905D01*
X0046304Y0035403D02*
X0040573Y0035403D01*
X0040573Y0034905D02*
X0040073Y0034905D01*
X0040073Y0035403D02*
X0034078Y0035403D01*
X0034078Y0034905D02*
X0036104Y0034905D01*
X0036104Y0034406D02*
X0034078Y0034406D01*
X0034078Y0033908D02*
X0036104Y0033908D01*
X0036586Y0033409D02*
X0034078Y0033409D01*
X0034336Y0032911D02*
X0037084Y0032911D01*
X0037583Y0032412D02*
X0034835Y0032412D01*
X0035333Y0031914D02*
X0038081Y0031914D01*
X0036829Y0030418D02*
X0103029Y0030418D01*
X0103528Y0030917D02*
X0036330Y0030917D01*
X0035832Y0031415D02*
X0104026Y0031415D01*
X0104525Y0031914D02*
X0084021Y0031914D01*
X0084341Y0032412D02*
X0105023Y0032412D01*
X0113227Y0025932D02*
X0074879Y0025932D01*
X0074380Y0026430D02*
X0113615Y0026430D01*
X0112939Y0025433D02*
X0075377Y0025433D01*
X0075876Y0024934D02*
X0112651Y0024934D01*
X0112363Y0024436D02*
X0099375Y0024436D01*
X0099374Y0024437D02*
X0099142Y0024670D01*
X0098856Y0024834D01*
X0098539Y0024919D01*
X0095868Y0024919D01*
X0095868Y0020967D01*
X0095368Y0020967D01*
X0095368Y0024919D01*
X0092698Y0024919D01*
X0092380Y0024834D01*
X0092095Y0024670D01*
X0091862Y0024437D01*
X0091697Y0024152D01*
X0091612Y0023834D01*
X0091612Y0020966D01*
X0095368Y0020966D01*
X0095368Y0020467D01*
X0091612Y0020467D01*
X0091612Y0017599D01*
X0091697Y0017281D01*
X0091862Y0016996D01*
X0092095Y0016764D01*
X0092380Y0016599D01*
X0092698Y0016514D01*
X0095368Y0016514D01*
X0095368Y0020466D01*
X0095868Y0020466D01*
X0095868Y0016514D01*
X0098539Y0016514D01*
X0098856Y0016599D01*
X0099142Y0016764D01*
X0099374Y0016996D01*
X0099539Y0017281D01*
X0099624Y0017599D01*
X0099624Y0020467D01*
X0095868Y0020467D01*
X0095868Y0020966D01*
X0099624Y0020966D01*
X0099624Y0023834D01*
X0099539Y0024152D01*
X0099374Y0024437D01*
X0099596Y0023937D02*
X0112075Y0023937D01*
X0111787Y0023439D02*
X0099624Y0023439D01*
X0099624Y0022940D02*
X0111650Y0022940D01*
X0111517Y0022442D02*
X0099624Y0022442D01*
X0099624Y0021943D02*
X0111383Y0021943D01*
X0111250Y0021445D02*
X0099624Y0021445D01*
X0099624Y0020448D02*
X0110983Y0020448D01*
X0110955Y0019949D02*
X0099624Y0019949D01*
X0099624Y0019451D02*
X0110955Y0019451D01*
X0110955Y0018952D02*
X0099624Y0018952D01*
X0099624Y0018454D02*
X0110955Y0018454D01*
X0110955Y0017955D02*
X0099624Y0017955D01*
X0099586Y0017457D02*
X0110955Y0017457D01*
X0111007Y0016958D02*
X0099336Y0016958D01*
X0095868Y0016958D02*
X0095368Y0016958D01*
X0095368Y0017457D02*
X0095868Y0017457D01*
X0095868Y0017955D02*
X0095368Y0017955D01*
X0095368Y0018454D02*
X0095868Y0018454D01*
X0095868Y0018952D02*
X0095368Y0018952D01*
X0095368Y0019451D02*
X0095868Y0019451D01*
X0095868Y0019949D02*
X0095368Y0019949D01*
X0095368Y0020448D02*
X0095868Y0020448D01*
X0095868Y0020946D02*
X0111116Y0020946D01*
X0111140Y0016460D02*
X0071479Y0016460D01*
X0071479Y0015961D02*
X0111274Y0015961D01*
X0111407Y0015463D02*
X0071479Y0015463D01*
X0071479Y0014964D02*
X0078054Y0014964D01*
X0077555Y0014466D02*
X0072020Y0014466D01*
X0072519Y0013967D02*
X0077057Y0013967D01*
X0076558Y0013469D02*
X0073017Y0013469D01*
X0073516Y0012970D02*
X0076059Y0012970D01*
X0075711Y0012472D02*
X0073948Y0012472D01*
X0073948Y0011973D02*
X0075711Y0011973D01*
X0075711Y0011475D02*
X0073948Y0011475D01*
X0073948Y0010976D02*
X0079679Y0010976D01*
X0079679Y0011475D02*
X0080179Y0011475D01*
X0080179Y0011973D02*
X0079679Y0011973D01*
X0079679Y0012472D02*
X0080179Y0012472D01*
X0080179Y0012970D02*
X0079679Y0012970D01*
X0079679Y0013469D02*
X0080179Y0013469D01*
X0080179Y0013967D02*
X0079679Y0013967D01*
X0079679Y0014466D02*
X0080179Y0014466D01*
X0080179Y0014964D02*
X0079679Y0014964D01*
X0081337Y0016958D02*
X0084112Y0016958D01*
X0083741Y0017457D02*
X0081707Y0017457D01*
X0081707Y0017955D02*
X0083741Y0017955D01*
X0083741Y0018454D02*
X0081707Y0018454D01*
X0081707Y0018952D02*
X0083741Y0018952D01*
X0083741Y0022442D02*
X0081707Y0022442D01*
X0081707Y0022940D02*
X0083741Y0022940D01*
X0083741Y0023439D02*
X0081707Y0023439D01*
X0081707Y0023937D02*
X0083741Y0023937D01*
X0084073Y0024436D02*
X0081376Y0024436D01*
X0073984Y0022442D02*
X0073637Y0022442D01*
X0073637Y0021943D02*
X0074096Y0021943D01*
X0074096Y0021445D02*
X0073637Y0021445D01*
X0073637Y0020946D02*
X0074096Y0020946D01*
X0074096Y0020448D02*
X0073637Y0020448D01*
X0073637Y0019949D02*
X0074096Y0019949D01*
X0074096Y0019451D02*
X0073637Y0019451D01*
X0073637Y0018952D02*
X0074096Y0018952D01*
X0074096Y0018454D02*
X0073637Y0018454D01*
X0073637Y0017955D02*
X0074096Y0017955D01*
X0074096Y0017457D02*
X0073637Y0017457D01*
X0073266Y0016958D02*
X0074466Y0016958D01*
X0067838Y0014466D02*
X0063759Y0014466D01*
X0063948Y0013967D02*
X0067339Y0013967D01*
X0066841Y0013469D02*
X0063948Y0013469D01*
X0063948Y0012970D02*
X0066342Y0012970D01*
X0065911Y0012472D02*
X0063948Y0012472D01*
X0063948Y0011973D02*
X0065911Y0011973D01*
X0065911Y0011475D02*
X0063948Y0011475D01*
X0063948Y0010976D02*
X0065911Y0010976D01*
X0065911Y0010478D02*
X0063948Y0010478D01*
X0063948Y0009979D02*
X0065911Y0009979D01*
X0065911Y0009481D02*
X0063948Y0009481D01*
X0063948Y0008982D02*
X0066138Y0008982D01*
X0066637Y0008484D02*
X0063948Y0008484D01*
X0063948Y0007985D02*
X0067135Y0007985D01*
X0072723Y0007985D02*
X0076852Y0007985D01*
X0076354Y0008484D02*
X0073222Y0008484D01*
X0073720Y0008982D02*
X0075855Y0008982D01*
X0075711Y0009481D02*
X0073948Y0009481D01*
X0073948Y0009979D02*
X0075711Y0009979D01*
X0075711Y0010478D02*
X0073948Y0010478D01*
X0080179Y0010976D02*
X0113705Y0010976D01*
X0113278Y0011475D02*
X0084148Y0011475D01*
X0084148Y0011973D02*
X0112991Y0011973D01*
X0112703Y0012472D02*
X0084148Y0012472D01*
X0083799Y0012970D02*
X0112415Y0012970D01*
X0112127Y0013469D02*
X0083300Y0013469D01*
X0082802Y0013967D02*
X0111839Y0013967D01*
X0111674Y0014466D02*
X0082303Y0014466D01*
X0081805Y0014964D02*
X0111541Y0014964D01*
X0114203Y0010478D02*
X0084148Y0010478D01*
X0084148Y0009979D02*
X0114702Y0009979D01*
X0115200Y0009481D02*
X0084148Y0009481D01*
X0084003Y0008982D02*
X0115746Y0008982D01*
X0116609Y0008484D02*
X0083505Y0008484D01*
X0083006Y0007985D02*
X0117473Y0007985D01*
X0132044Y0026929D02*
X0132358Y0026929D01*
X0132358Y0027427D02*
X0131546Y0027427D01*
X0131047Y0027926D02*
X0132358Y0027926D01*
X0132358Y0028424D02*
X0130549Y0028424D01*
X0129704Y0028923D02*
X0132358Y0028923D01*
X0132358Y0029421D02*
X0128840Y0029421D01*
X0127977Y0029920D02*
X0132358Y0029920D01*
X0132358Y0030418D02*
X0126369Y0030418D01*
X0123344Y0042881D02*
X0132358Y0042881D01*
X0132358Y0043379D02*
X0123344Y0043379D01*
X0123344Y0043878D02*
X0132358Y0043878D01*
X0132358Y0044376D02*
X0123344Y0044376D01*
X0123344Y0044875D02*
X0132358Y0044875D01*
X0132358Y0045373D02*
X0123296Y0045373D01*
X0123018Y0045872D02*
X0132358Y0045872D01*
X0132358Y0047368D02*
X0123144Y0047368D01*
X0123144Y0047866D02*
X0132358Y0047866D01*
X0132358Y0048365D02*
X0123144Y0048365D01*
X0123144Y0048863D02*
X0132358Y0048863D01*
X0132358Y0049362D02*
X0123144Y0049362D01*
X0123144Y0049860D02*
X0132358Y0049860D01*
X0132358Y0050359D02*
X0123144Y0050359D01*
X0123144Y0050857D02*
X0132358Y0050857D01*
X0132358Y0051356D02*
X0123144Y0051356D01*
X0123144Y0051854D02*
X0132358Y0051854D01*
X0132358Y0052353D02*
X0123144Y0052353D01*
X0123144Y0052851D02*
X0132358Y0052851D01*
X0132358Y0053350D02*
X0123144Y0053350D01*
X0122830Y0053848D02*
X0127131Y0053848D01*
X0126632Y0054347D02*
X0120692Y0054347D01*
X0120692Y0054845D02*
X0126134Y0054845D01*
X0125635Y0055344D02*
X0120692Y0055344D01*
X0120692Y0055842D02*
X0125137Y0055842D01*
X0124766Y0056341D02*
X0122688Y0056341D01*
X0123144Y0056839D02*
X0124766Y0056839D01*
X0124766Y0057338D02*
X0123144Y0057338D01*
X0123144Y0057836D02*
X0128734Y0057836D01*
X0128734Y0057338D02*
X0129234Y0057338D01*
X0129234Y0056839D02*
X0128734Y0056839D01*
X0128734Y0056341D02*
X0129234Y0056341D01*
X0129234Y0055842D02*
X0128734Y0055842D01*
X0128734Y0055344D02*
X0129234Y0055344D01*
X0129234Y0054845D02*
X0128734Y0054845D01*
X0128734Y0054347D02*
X0129234Y0054347D01*
X0129234Y0053848D02*
X0128734Y0053848D01*
X0130838Y0053848D02*
X0132358Y0053848D01*
X0132358Y0054347D02*
X0131336Y0054347D01*
X0131835Y0054845D02*
X0132358Y0054845D01*
X0132333Y0055344D02*
X0132358Y0055344D01*
X0129234Y0058335D02*
X0128734Y0058335D01*
X0128734Y0058833D02*
X0129234Y0058833D01*
X0129234Y0059332D02*
X0128734Y0059332D01*
X0128734Y0059830D02*
X0129234Y0059830D01*
X0129234Y0060329D02*
X0128734Y0060329D01*
X0128734Y0060827D02*
X0129234Y0060827D01*
X0129234Y0061326D02*
X0128734Y0061326D01*
X0128734Y0061824D02*
X0129234Y0061824D01*
X0131086Y0061824D02*
X0132358Y0061824D01*
X0132358Y0061326D02*
X0131585Y0061326D01*
X0132083Y0060827D02*
X0132358Y0060827D01*
X0132358Y0062323D02*
X0123144Y0062323D01*
X0123144Y0062821D02*
X0132358Y0062821D01*
X0132358Y0064317D02*
X0131024Y0064317D01*
X0131522Y0064815D02*
X0132358Y0064815D01*
X0132358Y0065314D02*
X0132021Y0065314D01*
X0132329Y0070299D02*
X0132358Y0070299D01*
X0132358Y0070798D02*
X0131830Y0070798D01*
X0131332Y0071296D02*
X0132358Y0071296D01*
X0132358Y0071795D02*
X0130833Y0071795D01*
X0132358Y0072293D02*
X0101355Y0072293D01*
X0101854Y0072792D02*
X0132358Y0072792D01*
X0132358Y0073290D02*
X0102352Y0073290D01*
X0102851Y0073789D02*
X0132358Y0073789D01*
X0125236Y0074287D02*
X0103349Y0074287D01*
X0103848Y0074786D02*
X0124966Y0074786D01*
X0124966Y0075284D02*
X0104346Y0075284D01*
X0104845Y0075783D02*
X0124966Y0075783D01*
X0124966Y0076281D02*
X0105042Y0076281D01*
X0105042Y0076780D02*
X0124966Y0076780D01*
X0124966Y0077278D02*
X0105042Y0077278D01*
X0105042Y0077777D02*
X0124966Y0077777D01*
X0124966Y0078275D02*
X0105042Y0078275D01*
X0105042Y0078774D02*
X0124966Y0078774D01*
X0124966Y0079272D02*
X0105042Y0079272D01*
X0105042Y0079771D02*
X0124966Y0079771D01*
X0124966Y0080269D02*
X0105042Y0080269D01*
X0105042Y0080768D02*
X0124966Y0080768D01*
X0124966Y0081266D02*
X0105042Y0081266D01*
X0105042Y0081765D02*
X0125366Y0081765D01*
X0132358Y0082263D02*
X0105042Y0082263D01*
X0105042Y0082762D02*
X0132358Y0082762D01*
X0132358Y0083260D02*
X0106694Y0083260D01*
X0107193Y0083759D02*
X0132358Y0083759D01*
X0132358Y0084257D02*
X0107298Y0084257D01*
X0107298Y0084756D02*
X0132358Y0084756D01*
X0132358Y0085254D02*
X0107298Y0085254D01*
X0107298Y0085753D02*
X0132358Y0085753D01*
X0132358Y0086251D02*
X0107298Y0086251D01*
X0107298Y0086750D02*
X0132358Y0086750D01*
X0132358Y0087248D02*
X0107298Y0087248D01*
X0107298Y0087747D02*
X0132358Y0087747D01*
X0132358Y0088245D02*
X0107298Y0088245D01*
X0107298Y0088744D02*
X0132358Y0088744D01*
X0132358Y0089242D02*
X0107298Y0089242D01*
X0107298Y0089741D02*
X0132358Y0089741D01*
X0132358Y0090239D02*
X0107298Y0090239D01*
X0107200Y0090738D02*
X0132358Y0090738D01*
X0132358Y0091237D02*
X0106701Y0091237D01*
X0100283Y0091237D02*
X0098630Y0091237D01*
X0098612Y0091255D02*
X0092230Y0091255D01*
X0091615Y0090640D01*
X0091615Y0088448D01*
X0089696Y0088448D01*
X0089696Y0090301D01*
X0089081Y0090916D01*
X0082274Y0090916D01*
X0081659Y0090301D01*
X0081659Y0083494D01*
X0082274Y0082879D01*
X0089081Y0082879D01*
X0089696Y0083494D01*
X0089696Y0085348D01*
X0091615Y0085348D01*
X0091615Y0083864D01*
X0092230Y0083249D01*
X0098612Y0083249D01*
X0099227Y0083864D01*
X0099227Y0090640D01*
X0098612Y0091255D01*
X0099129Y0090738D02*
X0099785Y0090738D01*
X0099686Y0090239D02*
X0099227Y0090239D01*
X0099227Y0089741D02*
X0099686Y0089741D01*
X0099686Y0089242D02*
X0099227Y0089242D01*
X0099227Y0088744D02*
X0099686Y0088744D01*
X0099686Y0088245D02*
X0099227Y0088245D01*
X0099227Y0087747D02*
X0099686Y0087747D01*
X0099686Y0087248D02*
X0099227Y0087248D01*
X0099227Y0086750D02*
X0099686Y0086750D01*
X0099686Y0086251D02*
X0099227Y0086251D01*
X0099227Y0085753D02*
X0099686Y0085753D01*
X0099686Y0085254D02*
X0099227Y0085254D01*
X0099227Y0084756D02*
X0099686Y0084756D01*
X0099686Y0084257D02*
X0099227Y0084257D01*
X0099122Y0083759D02*
X0099792Y0083759D01*
X0100290Y0083260D02*
X0098623Y0083260D01*
X0098637Y0080726D02*
X0095770Y0080726D01*
X0095770Y0076971D01*
X0095270Y0076971D01*
X0095270Y0080726D01*
X0092402Y0080726D01*
X0092084Y0080641D01*
X0091799Y0080477D01*
X0091567Y0080244D01*
X0091402Y0079959D01*
X0091317Y0079641D01*
X0091317Y0076970D01*
X0095270Y0076970D01*
X0095270Y0076470D01*
X0095770Y0076470D01*
X0095770Y0076970D01*
X0099722Y0076970D01*
X0099722Y0079641D01*
X0099637Y0079959D01*
X0099473Y0080244D01*
X0099240Y0080477D01*
X0098955Y0080641D01*
X0098637Y0080726D01*
X0099447Y0080269D02*
X0101942Y0080269D01*
X0101942Y0079771D02*
X0099688Y0079771D01*
X0099722Y0079272D02*
X0101942Y0079272D01*
X0101942Y0078774D02*
X0099722Y0078774D01*
X0099722Y0078275D02*
X0101942Y0078275D01*
X0101942Y0077777D02*
X0099722Y0077777D01*
X0099722Y0077278D02*
X0101942Y0077278D01*
X0101458Y0076780D02*
X0095770Y0076780D01*
X0095770Y0077278D02*
X0095270Y0077278D01*
X0095270Y0076780D02*
X0085927Y0076780D01*
X0085927Y0076648D02*
X0085927Y0077148D01*
X0085427Y0077148D01*
X0085427Y0081116D01*
X0083930Y0081116D01*
X0081459Y0078645D01*
X0081459Y0077148D01*
X0085427Y0077148D01*
X0085427Y0076648D01*
X0081459Y0076648D01*
X0081459Y0075150D01*
X0083930Y0072679D01*
X0085427Y0072679D01*
X0085427Y0076648D01*
X0085927Y0076648D01*
X0089896Y0076648D01*
X0089896Y0075150D01*
X0087425Y0072679D01*
X0085927Y0072679D01*
X0085927Y0076648D01*
X0085927Y0076281D02*
X0085427Y0076281D01*
X0085427Y0075783D02*
X0085927Y0075783D01*
X0085927Y0075284D02*
X0085427Y0075284D01*
X0085427Y0074786D02*
X0085927Y0074786D01*
X0085927Y0074287D02*
X0085427Y0074287D01*
X0085427Y0073789D02*
X0085927Y0073789D01*
X0085927Y0073290D02*
X0085427Y0073290D01*
X0085427Y0072792D02*
X0085927Y0072792D01*
X0087537Y0072792D02*
X0092115Y0072792D01*
X0092084Y0072800D02*
X0092402Y0072715D01*
X0095270Y0072715D01*
X0095270Y0076470D01*
X0091317Y0076470D01*
X0091317Y0073800D01*
X0091402Y0073482D01*
X0091567Y0073197D01*
X0091799Y0072964D01*
X0092084Y0072800D01*
X0091970Y0072293D02*
X0074892Y0072293D01*
X0074919Y0071795D02*
X0091517Y0071795D01*
X0091517Y0071296D02*
X0070811Y0071296D01*
X0070622Y0071296D02*
X0061677Y0071296D01*
X0061179Y0070798D02*
X0066514Y0070798D01*
X0066563Y0070299D02*
X0060680Y0070299D01*
X0060182Y0069801D02*
X0066714Y0069801D01*
X0066714Y0069302D02*
X0059683Y0069302D01*
X0059184Y0068803D02*
X0066714Y0068803D01*
X0066714Y0068305D02*
X0058686Y0068305D01*
X0058187Y0067806D02*
X0066714Y0067806D01*
X0066714Y0067308D02*
X0057689Y0067308D01*
X0062176Y0071795D02*
X0066514Y0071795D01*
X0066514Y0071431D02*
X0070622Y0071431D01*
X0070622Y0073276D01*
X0067599Y0073276D01*
X0067281Y0073190D01*
X0066996Y0073026D01*
X0066764Y0072793D01*
X0066599Y0072508D01*
X0066514Y0072190D01*
X0066514Y0071431D01*
X0066541Y0072293D02*
X0062674Y0072293D01*
X0063173Y0072792D02*
X0066763Y0072792D01*
X0065167Y0074786D02*
X0081823Y0074786D01*
X0081459Y0075284D02*
X0065665Y0075284D01*
X0066164Y0075783D02*
X0081459Y0075783D01*
X0081459Y0076281D02*
X0066662Y0076281D01*
X0067161Y0076780D02*
X0085427Y0076780D01*
X0085427Y0077278D02*
X0085927Y0077278D01*
X0085927Y0077148D02*
X0085927Y0081116D01*
X0087425Y0081116D01*
X0089896Y0078645D01*
X0089896Y0077148D01*
X0085927Y0077148D01*
X0085927Y0077777D02*
X0085427Y0077777D01*
X0085427Y0078275D02*
X0085927Y0078275D01*
X0085927Y0078774D02*
X0085427Y0078774D01*
X0085427Y0079272D02*
X0085927Y0079272D01*
X0085927Y0079771D02*
X0085427Y0079771D01*
X0085427Y0080269D02*
X0085927Y0080269D01*
X0085927Y0080768D02*
X0085427Y0080768D01*
X0083581Y0080768D02*
X0071149Y0080768D01*
X0071647Y0081266D02*
X0101942Y0081266D01*
X0101942Y0080768D02*
X0087773Y0080768D01*
X0088271Y0080269D02*
X0091592Y0080269D01*
X0091352Y0079771D02*
X0088770Y0079771D01*
X0089268Y0079272D02*
X0091317Y0079272D01*
X0091317Y0078774D02*
X0089767Y0078774D01*
X0089896Y0078275D02*
X0091317Y0078275D01*
X0091317Y0077777D02*
X0089896Y0077777D01*
X0089896Y0077278D02*
X0091317Y0077278D01*
X0091317Y0076281D02*
X0089896Y0076281D01*
X0089896Y0075783D02*
X0091317Y0075783D01*
X0091317Y0075284D02*
X0089896Y0075284D01*
X0089531Y0074786D02*
X0091317Y0074786D01*
X0091317Y0074287D02*
X0089033Y0074287D01*
X0088534Y0073789D02*
X0091320Y0073789D01*
X0091513Y0073290D02*
X0088035Y0073290D01*
X0087460Y0070798D02*
X0091517Y0070798D01*
X0091517Y0070299D02*
X0087959Y0070299D01*
X0088457Y0069801D02*
X0091517Y0069801D01*
X0091517Y0069302D02*
X0088956Y0069302D01*
X0089454Y0068803D02*
X0091517Y0068803D01*
X0091517Y0068305D02*
X0089696Y0068305D01*
X0089696Y0067806D02*
X0091517Y0067806D01*
X0091517Y0067308D02*
X0089696Y0067308D01*
X0089696Y0066809D02*
X0091517Y0066809D01*
X0091517Y0066311D02*
X0089696Y0066311D01*
X0089696Y0065812D02*
X0091517Y0065812D01*
X0091662Y0065314D02*
X0089696Y0065314D01*
X0089278Y0064815D02*
X0093970Y0064815D01*
X0093970Y0064317D02*
X0088779Y0064317D01*
X0081659Y0065812D02*
X0074719Y0065812D01*
X0074719Y0066311D02*
X0081659Y0066311D01*
X0081659Y0066809D02*
X0074719Y0066809D01*
X0074719Y0067308D02*
X0081659Y0067308D01*
X0081659Y0067806D02*
X0074719Y0067806D01*
X0074719Y0068305D02*
X0081659Y0068305D01*
X0081900Y0068803D02*
X0074719Y0068803D01*
X0074719Y0069302D02*
X0082399Y0069302D01*
X0082897Y0069801D02*
X0074719Y0069801D01*
X0074870Y0070299D02*
X0083396Y0070299D01*
X0083894Y0070798D02*
X0074919Y0070798D01*
X0074670Y0072792D02*
X0083817Y0072792D01*
X0083319Y0073290D02*
X0063671Y0073290D01*
X0064170Y0073789D02*
X0082820Y0073789D01*
X0082322Y0074287D02*
X0064668Y0074287D01*
X0062278Y0076281D02*
X0059349Y0076281D01*
X0059381Y0076336D02*
X0059467Y0076654D01*
X0059467Y0079522D01*
X0055711Y0079522D01*
X0055711Y0075569D01*
X0058381Y0075569D01*
X0058699Y0075654D01*
X0058984Y0075819D01*
X0059217Y0076051D01*
X0059381Y0076336D01*
X0059467Y0076780D02*
X0062777Y0076780D01*
X0063275Y0077278D02*
X0059467Y0077278D01*
X0059467Y0077777D02*
X0063774Y0077777D01*
X0064272Y0078275D02*
X0059467Y0078275D01*
X0059467Y0078774D02*
X0064771Y0078774D01*
X0065269Y0079272D02*
X0059467Y0079272D01*
X0058922Y0075783D02*
X0061780Y0075783D01*
X0067659Y0077278D02*
X0081459Y0077278D01*
X0081459Y0077777D02*
X0068158Y0077777D01*
X0068656Y0078275D02*
X0081459Y0078275D01*
X0081587Y0078774D02*
X0069155Y0078774D01*
X0069653Y0079272D02*
X0082086Y0079272D01*
X0082584Y0079771D02*
X0070152Y0079771D01*
X0070650Y0080269D02*
X0083083Y0080269D01*
X0081893Y0083260D02*
X0073641Y0083260D01*
X0073143Y0082762D02*
X0101942Y0082762D01*
X0101942Y0082263D02*
X0072644Y0082263D01*
X0072146Y0081765D02*
X0101942Y0081765D01*
X0100959Y0076281D02*
X0099722Y0076281D01*
X0099722Y0075783D02*
X0100461Y0075783D01*
X0099962Y0075284D02*
X0099722Y0075284D01*
X0095770Y0075284D02*
X0095270Y0075284D01*
X0095270Y0074786D02*
X0095770Y0074786D01*
X0095770Y0074287D02*
X0095270Y0074287D01*
X0095270Y0073789D02*
X0095770Y0073789D01*
X0095770Y0073290D02*
X0095270Y0073290D01*
X0095270Y0072792D02*
X0095770Y0072792D01*
X0095770Y0075783D02*
X0095270Y0075783D01*
X0095270Y0076281D02*
X0095770Y0076281D01*
X0095770Y0077777D02*
X0095270Y0077777D01*
X0095270Y0078275D02*
X0095770Y0078275D01*
X0095770Y0078774D02*
X0095270Y0078774D01*
X0095270Y0079272D02*
X0095770Y0079272D01*
X0095770Y0079771D02*
X0095270Y0079771D01*
X0095270Y0080269D02*
X0095770Y0080269D01*
X0092219Y0083260D02*
X0089462Y0083260D01*
X0089696Y0083759D02*
X0091721Y0083759D01*
X0091615Y0084257D02*
X0089696Y0084257D01*
X0089696Y0084756D02*
X0091615Y0084756D01*
X0091615Y0085254D02*
X0089696Y0085254D01*
X0089696Y0088744D02*
X0091615Y0088744D01*
X0091615Y0089242D02*
X0089696Y0089242D01*
X0089696Y0089741D02*
X0091615Y0089741D01*
X0091615Y0090239D02*
X0089696Y0090239D01*
X0089259Y0090738D02*
X0091714Y0090738D01*
X0092212Y0091237D02*
X0079452Y0091237D01*
X0079452Y0091735D02*
X0132358Y0091735D01*
X0132358Y0092234D02*
X0079452Y0092234D01*
X0079452Y0092732D02*
X0132358Y0092732D01*
X0132358Y0093231D02*
X0079452Y0093231D01*
X0079452Y0093729D02*
X0132358Y0093729D01*
X0132358Y0094228D02*
X0079452Y0094228D01*
X0079452Y0094726D02*
X0132358Y0094726D01*
X0132358Y0095225D02*
X0079452Y0095225D01*
X0079452Y0095723D02*
X0132358Y0095723D01*
X0132358Y0096222D02*
X0079452Y0096222D01*
X0079452Y0096720D02*
X0132358Y0096720D01*
X0132358Y0097219D02*
X0079452Y0097219D01*
X0079452Y0097717D02*
X0132358Y0097717D01*
X0132358Y0098216D02*
X0079452Y0098216D01*
X0079452Y0098714D02*
X0132358Y0098714D01*
X0132358Y0099213D02*
X0079452Y0099213D01*
X0079452Y0099711D02*
X0132358Y0099711D01*
X0132358Y0100210D02*
X0079452Y0100210D01*
X0079452Y0100708D02*
X0132358Y0100708D01*
X0132358Y0101207D02*
X0079452Y0101207D01*
X0079452Y0101705D02*
X0132358Y0101705D01*
X0132358Y0102204D02*
X0079452Y0102204D01*
X0079452Y0102702D02*
X0132358Y0102702D01*
X0132358Y0103201D02*
X0079452Y0103201D01*
X0079452Y0103699D02*
X0132358Y0103699D01*
X0132358Y0104198D02*
X0079452Y0104198D01*
X0079452Y0104696D02*
X0132358Y0104696D01*
X0132358Y0105195D02*
X0125218Y0105195D01*
X0127079Y0105693D02*
X0132358Y0105693D01*
X0132358Y0106192D02*
X0128306Y0106192D01*
X0129170Y0106690D02*
X0132358Y0106690D01*
X0132358Y0107189D02*
X0130033Y0107189D01*
X0130739Y0107687D02*
X0132358Y0107687D01*
X0132358Y0108186D02*
X0131237Y0108186D01*
X0131736Y0108684D02*
X0132358Y0108684D01*
X0132358Y0109183D02*
X0132234Y0109183D01*
X0120939Y0105195D02*
X0079452Y0105195D01*
X0079452Y0105693D02*
X0119079Y0105693D01*
X0117851Y0106192D02*
X0079452Y0106192D01*
X0079452Y0106690D02*
X0116988Y0106690D01*
X0116124Y0107189D02*
X0079452Y0107189D01*
X0079452Y0107687D02*
X0115419Y0107687D01*
X0114920Y0108186D02*
X0079452Y0108186D01*
X0079452Y0108684D02*
X0114422Y0108684D01*
X0113923Y0109183D02*
X0079452Y0109183D01*
X0079452Y0109681D02*
X0113425Y0109681D01*
X0113117Y0110180D02*
X0079452Y0110180D01*
X0079452Y0110678D02*
X0112829Y0110678D01*
X0112541Y0111177D02*
X0099012Y0111177D01*
X0099142Y0111252D02*
X0099374Y0111484D01*
X0099539Y0111769D01*
X0099624Y0112087D01*
X0099624Y0114955D01*
X0095868Y0114955D01*
X0095868Y0115455D01*
X0095368Y0115455D01*
X0095368Y0119407D01*
X0092698Y0119407D01*
X0092380Y0119322D01*
X0092095Y0119158D01*
X0091862Y0118925D01*
X0091697Y0118640D01*
X0091612Y0118322D01*
X0091612Y0115455D01*
X0095368Y0115455D01*
X0095368Y0114955D01*
X0091612Y0114955D01*
X0091612Y0112087D01*
X0091697Y0111769D01*
X0091862Y0111484D01*
X0092095Y0111252D01*
X0092380Y0111087D01*
X0092698Y0111002D01*
X0095368Y0111002D01*
X0095368Y0114955D01*
X0095868Y0114955D01*
X0095868Y0111002D01*
X0098539Y0111002D01*
X0098856Y0111087D01*
X0099142Y0111252D01*
X0099485Y0111675D02*
X0112253Y0111675D01*
X0111965Y0112174D02*
X0099624Y0112174D01*
X0099624Y0112672D02*
X0111733Y0112672D01*
X0111599Y0113171D02*
X0099624Y0113171D01*
X0099624Y0113670D02*
X0111466Y0113670D01*
X0111332Y0114168D02*
X0099624Y0114168D01*
X0099624Y0114667D02*
X0111199Y0114667D01*
X0111065Y0115165D02*
X0095868Y0115165D01*
X0095868Y0115455D02*
X0099624Y0115455D01*
X0099624Y0118322D01*
X0099539Y0118640D01*
X0099374Y0118925D01*
X0099142Y0119158D01*
X0098856Y0119322D01*
X0098539Y0119407D01*
X0095868Y0119407D01*
X0095868Y0115455D01*
X0095868Y0115664D02*
X0095368Y0115664D01*
X0095368Y0116162D02*
X0095868Y0116162D01*
X0095868Y0116661D02*
X0095368Y0116661D01*
X0095368Y0117159D02*
X0095868Y0117159D01*
X0095868Y0117658D02*
X0095368Y0117658D01*
X0095368Y0118156D02*
X0095868Y0118156D01*
X0095868Y0118655D02*
X0095368Y0118655D01*
X0095368Y0119153D02*
X0095868Y0119153D01*
X0099146Y0119153D02*
X0111058Y0119153D01*
X0110955Y0118655D02*
X0099530Y0118655D01*
X0099624Y0118156D02*
X0110955Y0118156D01*
X0110955Y0117658D02*
X0099624Y0117658D01*
X0099624Y0117159D02*
X0110955Y0117159D01*
X0110955Y0116661D02*
X0099624Y0116661D01*
X0099624Y0116162D02*
X0110955Y0116162D01*
X0110955Y0115664D02*
X0099624Y0115664D01*
X0095868Y0114667D02*
X0095368Y0114667D01*
X0095368Y0115165D02*
X0091353Y0115165D01*
X0091353Y0114667D02*
X0091612Y0114667D01*
X0091612Y0114168D02*
X0091353Y0114168D01*
X0091353Y0113670D02*
X0091612Y0113670D01*
X0091612Y0113171D02*
X0091353Y0113171D01*
X0091353Y0112672D02*
X0091612Y0112672D01*
X0091612Y0112174D02*
X0091353Y0112174D01*
X0091212Y0111675D02*
X0091752Y0111675D01*
X0092224Y0111177D02*
X0079452Y0111177D01*
X0081566Y0111675D02*
X0083883Y0111675D01*
X0083741Y0112174D02*
X0081707Y0112174D01*
X0081707Y0112672D02*
X0083741Y0112672D01*
X0083741Y0113171D02*
X0081707Y0113171D01*
X0081707Y0117159D02*
X0083741Y0117159D01*
X0083741Y0117658D02*
X0081707Y0117658D01*
X0081707Y0118156D02*
X0083741Y0118156D01*
X0083804Y0118655D02*
X0081645Y0118655D01*
X0081147Y0119153D02*
X0084302Y0119153D01*
X0081995Y0121147D02*
X0111592Y0121147D01*
X0111458Y0120649D02*
X0071479Y0120649D01*
X0071479Y0120150D02*
X0111325Y0120150D01*
X0111191Y0119652D02*
X0071479Y0119652D01*
X0071712Y0121147D02*
X0077863Y0121147D01*
X0077365Y0121646D02*
X0072211Y0121646D01*
X0072709Y0122144D02*
X0076866Y0122144D01*
X0076368Y0122643D02*
X0073208Y0122643D01*
X0073706Y0123141D02*
X0075869Y0123141D01*
X0075711Y0123640D02*
X0073948Y0123640D01*
X0073948Y0124138D02*
X0075711Y0124138D01*
X0075711Y0124637D02*
X0073948Y0124637D01*
X0073948Y0125135D02*
X0079679Y0125135D01*
X0079679Y0124637D02*
X0080179Y0124637D01*
X0080179Y0125135D02*
X0113895Y0125135D01*
X0113396Y0124637D02*
X0084148Y0124637D01*
X0084148Y0124138D02*
X0113100Y0124138D01*
X0112813Y0123640D02*
X0084148Y0123640D01*
X0083989Y0123141D02*
X0112525Y0123141D01*
X0112237Y0122643D02*
X0083490Y0122643D01*
X0082992Y0122144D02*
X0111949Y0122144D01*
X0111725Y0121646D02*
X0082493Y0121646D01*
X0080179Y0121646D02*
X0079679Y0121646D01*
X0079679Y0122144D02*
X0080179Y0122144D01*
X0080179Y0122643D02*
X0079679Y0122643D01*
X0079679Y0123141D02*
X0080179Y0123141D01*
X0080179Y0123640D02*
X0079679Y0123640D01*
X0079679Y0124138D02*
X0080179Y0124138D01*
X0080179Y0121147D02*
X0079679Y0121147D01*
X0074656Y0119153D02*
X0073076Y0119153D01*
X0073574Y0118655D02*
X0074158Y0118655D01*
X0074096Y0118156D02*
X0073637Y0118156D01*
X0073637Y0117658D02*
X0074096Y0117658D01*
X0074096Y0117159D02*
X0073637Y0117159D01*
X0073637Y0116661D02*
X0074096Y0116661D01*
X0074096Y0116162D02*
X0073637Y0116162D01*
X0073637Y0115664D02*
X0074096Y0115664D01*
X0074096Y0115165D02*
X0073637Y0115165D01*
X0073637Y0114667D02*
X0074096Y0114667D01*
X0074096Y0114168D02*
X0073637Y0114168D01*
X0073637Y0113670D02*
X0074096Y0113670D01*
X0074096Y0113171D02*
X0073637Y0113171D01*
X0073637Y0112672D02*
X0074096Y0112672D01*
X0074096Y0112174D02*
X0073637Y0112174D01*
X0073495Y0111675D02*
X0074237Y0111675D01*
X0076352Y0111177D02*
X0038515Y0111177D01*
X0038515Y0110678D02*
X0076352Y0110678D01*
X0076352Y0110180D02*
X0038515Y0110180D01*
X0038515Y0109681D02*
X0076352Y0109681D01*
X0076352Y0109183D02*
X0038515Y0109183D01*
X0038515Y0108684D02*
X0076352Y0108684D01*
X0076352Y0108186D02*
X0038515Y0108186D01*
X0038515Y0107687D02*
X0076352Y0107687D01*
X0076352Y0107189D02*
X0038515Y0107189D01*
X0038515Y0106690D02*
X0076352Y0106690D01*
X0076352Y0106192D02*
X0038515Y0106192D01*
X0038155Y0105693D02*
X0076352Y0105693D01*
X0076352Y0105195D02*
X0028647Y0105195D01*
X0029145Y0105693D02*
X0030837Y0105693D01*
X0030478Y0106192D02*
X0029644Y0106192D01*
X0030142Y0106690D02*
X0030478Y0106690D01*
X0028148Y0104696D02*
X0076352Y0104696D01*
X0076352Y0104198D02*
X0027650Y0104198D01*
X0036435Y0103201D02*
X0043940Y0103201D01*
X0043584Y0102702D02*
X0036933Y0102702D01*
X0037432Y0102204D02*
X0043584Y0102204D01*
X0043584Y0101705D02*
X0037931Y0101705D01*
X0038429Y0101207D02*
X0043584Y0101207D01*
X0043584Y0097717D02*
X0038440Y0097717D01*
X0037941Y0097219D02*
X0043584Y0097219D01*
X0043584Y0096720D02*
X0037443Y0096720D01*
X0036944Y0096222D02*
X0043584Y0096222D01*
X0043930Y0095723D02*
X0036445Y0095723D01*
X0036688Y0093231D02*
X0043813Y0093231D01*
X0043584Y0092732D02*
X0037187Y0092732D01*
X0037685Y0092234D02*
X0043584Y0092234D01*
X0043584Y0091735D02*
X0038184Y0091735D01*
X0038682Y0091237D02*
X0043584Y0091237D01*
X0043584Y0090738D02*
X0038715Y0090738D01*
X0038715Y0090239D02*
X0043584Y0090239D01*
X0043584Y0089741D02*
X0038715Y0089741D01*
X0034746Y0089741D02*
X0034246Y0089741D01*
X0034246Y0090239D02*
X0034746Y0090239D01*
X0034746Y0090738D02*
X0034246Y0090738D01*
X0034246Y0091237D02*
X0034746Y0091237D01*
X0034746Y0091735D02*
X0034246Y0091735D01*
X0034246Y0092234D02*
X0034746Y0092234D01*
X0034746Y0092732D02*
X0034246Y0092732D01*
X0034246Y0093231D02*
X0034746Y0093231D01*
X0034746Y0088245D02*
X0034246Y0088245D01*
X0034246Y0087747D02*
X0034746Y0087747D01*
X0034746Y0087248D02*
X0034246Y0087248D01*
X0034246Y0086750D02*
X0034746Y0086750D01*
X0034746Y0086251D02*
X0034246Y0086251D01*
X0034246Y0085753D02*
X0034746Y0085753D01*
X0034746Y0085254D02*
X0034246Y0085254D01*
X0050596Y0083759D02*
X0051996Y0083759D01*
X0051571Y0083260D02*
X0051095Y0083260D01*
X0051196Y0082762D02*
X0051455Y0082762D01*
X0051455Y0082263D02*
X0051196Y0082263D01*
X0051196Y0081765D02*
X0051455Y0081765D01*
X0051455Y0081266D02*
X0051196Y0081266D01*
X0051196Y0080768D02*
X0051455Y0080768D01*
X0051455Y0080269D02*
X0051196Y0080269D01*
X0055211Y0080768D02*
X0055711Y0080768D01*
X0055711Y0081266D02*
X0055211Y0081266D01*
X0055211Y0081765D02*
X0055711Y0081765D01*
X0055711Y0082263D02*
X0055211Y0082263D01*
X0055211Y0082762D02*
X0055711Y0082762D01*
X0055711Y0083260D02*
X0055211Y0083260D01*
X0055211Y0083759D02*
X0055711Y0083759D01*
X0055711Y0085411D02*
X0058381Y0085411D01*
X0058699Y0085497D01*
X0058984Y0085661D01*
X0059217Y0085894D01*
X0059381Y0086179D01*
X0059467Y0086497D01*
X0059467Y0089364D01*
X0055711Y0089364D01*
X0055711Y0085411D01*
X0055711Y0085753D02*
X0055211Y0085753D01*
X0055211Y0086251D02*
X0055711Y0086251D01*
X0055711Y0086750D02*
X0055211Y0086750D01*
X0055211Y0087248D02*
X0055711Y0087248D01*
X0055711Y0087747D02*
X0055211Y0087747D01*
X0055211Y0088245D02*
X0055711Y0088245D01*
X0055711Y0088744D02*
X0055211Y0088744D01*
X0055211Y0089242D02*
X0055711Y0089242D01*
X0059401Y0086251D02*
X0072248Y0086251D01*
X0071750Y0085753D02*
X0059076Y0085753D01*
X0059467Y0086750D02*
X0072747Y0086750D01*
X0073245Y0087248D02*
X0059467Y0087248D01*
X0059467Y0087747D02*
X0073744Y0087747D01*
X0074242Y0088245D02*
X0059467Y0088245D01*
X0059467Y0088744D02*
X0074741Y0088744D01*
X0075239Y0089242D02*
X0059467Y0089242D01*
X0059203Y0095723D02*
X0076352Y0095723D01*
X0076352Y0096222D02*
X0059435Y0096222D01*
X0059467Y0096720D02*
X0076352Y0096720D01*
X0076352Y0097219D02*
X0059467Y0097219D01*
X0059467Y0097717D02*
X0076352Y0097717D01*
X0076352Y0098216D02*
X0059467Y0098216D01*
X0059467Y0098714D02*
X0076352Y0098714D01*
X0079452Y0090738D02*
X0082096Y0090738D01*
X0081659Y0090239D02*
X0079452Y0090239D01*
X0079452Y0089741D02*
X0081659Y0089741D01*
X0081659Y0089242D02*
X0079452Y0089242D01*
X0079125Y0088744D02*
X0081659Y0088744D01*
X0081659Y0088245D02*
X0078626Y0088245D01*
X0078128Y0087747D02*
X0081659Y0087747D01*
X0081659Y0087248D02*
X0077629Y0087248D01*
X0077131Y0086750D02*
X0081659Y0086750D01*
X0081659Y0086251D02*
X0076632Y0086251D01*
X0076134Y0085753D02*
X0081659Y0085753D01*
X0081659Y0085254D02*
X0075635Y0085254D01*
X0075137Y0084756D02*
X0081659Y0084756D01*
X0081659Y0084257D02*
X0074638Y0084257D01*
X0074140Y0083759D02*
X0081659Y0083759D01*
X0070811Y0072792D02*
X0070622Y0072792D01*
X0070622Y0072293D02*
X0070811Y0072293D01*
X0070811Y0071795D02*
X0070622Y0071795D01*
X0055711Y0075783D02*
X0055211Y0075783D01*
X0055211Y0076281D02*
X0055711Y0076281D01*
X0055711Y0076780D02*
X0055211Y0076780D01*
X0055211Y0077278D02*
X0055711Y0077278D01*
X0055711Y0077777D02*
X0055211Y0077777D01*
X0055211Y0078275D02*
X0055711Y0078275D01*
X0055711Y0078774D02*
X0055211Y0078774D01*
X0055211Y0079272D02*
X0055711Y0079272D01*
X0051718Y0095723D02*
X0050850Y0095723D01*
X0051196Y0096222D02*
X0051486Y0096222D01*
X0051455Y0096720D02*
X0051196Y0096720D01*
X0051196Y0097219D02*
X0051455Y0097219D01*
X0051455Y0097717D02*
X0051196Y0097717D01*
X0051196Y0098216D02*
X0051455Y0098216D01*
X0051455Y0098714D02*
X0051196Y0098714D01*
X0038907Y0111675D02*
X0066166Y0111675D01*
X0066025Y0112174D02*
X0039405Y0112174D01*
X0039904Y0112672D02*
X0066025Y0112672D01*
X0066025Y0113171D02*
X0040402Y0113171D01*
X0040901Y0113670D02*
X0066025Y0113670D01*
X0066025Y0114168D02*
X0041399Y0114168D01*
X0041898Y0114667D02*
X0066025Y0114667D01*
X0066025Y0115165D02*
X0042396Y0115165D01*
X0042895Y0115664D02*
X0066025Y0115664D01*
X0066025Y0116162D02*
X0043393Y0116162D01*
X0043892Y0116661D02*
X0066025Y0116661D01*
X0066025Y0117159D02*
X0044390Y0117159D01*
X0044889Y0117658D02*
X0066025Y0117658D01*
X0066025Y0118156D02*
X0045387Y0118156D01*
X0045886Y0118655D02*
X0066087Y0118655D01*
X0066586Y0119153D02*
X0046385Y0119153D01*
X0046883Y0119652D02*
X0068379Y0119652D01*
X0068379Y0120150D02*
X0047382Y0120150D01*
X0047880Y0120649D02*
X0068379Y0120649D01*
X0068146Y0121147D02*
X0063451Y0121147D01*
X0063948Y0121646D02*
X0067648Y0121646D01*
X0067149Y0122144D02*
X0063948Y0122144D01*
X0063948Y0122643D02*
X0066651Y0122643D01*
X0066152Y0123141D02*
X0063948Y0123141D01*
X0063948Y0123640D02*
X0065911Y0123640D01*
X0065911Y0124138D02*
X0063948Y0124138D01*
X0063948Y0124637D02*
X0065911Y0124637D01*
X0065911Y0125135D02*
X0063948Y0125135D01*
X0063948Y0125634D02*
X0065911Y0125634D01*
X0065911Y0126132D02*
X0063948Y0126132D01*
X0063948Y0126631D02*
X0065911Y0126631D01*
X0066328Y0127129D02*
X0063948Y0127129D01*
X0063948Y0127628D02*
X0066827Y0127628D01*
X0067325Y0128126D02*
X0063948Y0128126D01*
X0072533Y0128126D02*
X0077042Y0128126D01*
X0076544Y0127628D02*
X0073032Y0127628D01*
X0073530Y0127129D02*
X0076045Y0127129D01*
X0075711Y0126631D02*
X0073948Y0126631D01*
X0073948Y0126132D02*
X0075711Y0126132D01*
X0075711Y0125634D02*
X0073948Y0125634D01*
X0082816Y0128126D02*
X0117802Y0128126D01*
X0116939Y0127628D02*
X0083314Y0127628D01*
X0083813Y0127129D02*
X0116075Y0127129D01*
X0115390Y0126631D02*
X0084148Y0126631D01*
X0084148Y0126132D02*
X0114892Y0126132D01*
X0114393Y0125634D02*
X0084148Y0125634D01*
X0090792Y0119153D02*
X0092090Y0119153D01*
X0091706Y0118655D02*
X0091291Y0118655D01*
X0091353Y0118156D02*
X0091612Y0118156D01*
X0091612Y0117658D02*
X0091353Y0117658D01*
X0091353Y0117159D02*
X0091612Y0117159D01*
X0091612Y0116661D02*
X0091353Y0116661D01*
X0091353Y0116162D02*
X0091612Y0116162D01*
X0091612Y0115664D02*
X0091353Y0115664D01*
X0095368Y0114168D02*
X0095868Y0114168D01*
X0095868Y0113670D02*
X0095368Y0113670D01*
X0095368Y0113171D02*
X0095868Y0113171D01*
X0095868Y0112672D02*
X0095368Y0112672D01*
X0095368Y0112174D02*
X0095868Y0112174D01*
X0095868Y0111675D02*
X0095368Y0111675D01*
X0095368Y0111177D02*
X0095868Y0111177D01*
X0056407Y0121147D02*
X0048379Y0121147D01*
X0048877Y0121646D02*
X0055911Y0121646D01*
X0055911Y0122144D02*
X0049376Y0122144D01*
X0049874Y0122643D02*
X0055911Y0122643D01*
X0055911Y0123141D02*
X0050373Y0123141D01*
X0117188Y0055842D02*
X0117592Y0055842D01*
X0117592Y0055344D02*
X0116689Y0055344D01*
X0116191Y0054845D02*
X0117592Y0054845D01*
X0117592Y0054347D02*
X0115692Y0054347D01*
X0115454Y0053848D02*
X0115194Y0053848D01*
X0115139Y0053350D02*
X0114695Y0053350D01*
X0115139Y0052851D02*
X0114197Y0052851D01*
X0113698Y0052353D02*
X0115139Y0052353D01*
X0115139Y0051854D02*
X0113200Y0051854D01*
X0112701Y0051356D02*
X0115139Y0051356D01*
X0115139Y0050857D02*
X0112203Y0050857D01*
X0111704Y0050359D02*
X0115139Y0050359D01*
X0115139Y0049860D02*
X0111206Y0049860D01*
X0110849Y0049362D02*
X0115139Y0049362D01*
X0115139Y0048863D02*
X0110849Y0048863D01*
X0110849Y0048365D02*
X0115139Y0048365D01*
X0115139Y0047866D02*
X0110849Y0047866D01*
X0110849Y0047368D02*
X0115139Y0047368D01*
X0115422Y0046869D02*
X0110849Y0046869D01*
X0107749Y0046869D02*
X0081322Y0046869D01*
X0081322Y0046370D02*
X0107749Y0046370D01*
X0107749Y0045872D02*
X0081322Y0045872D01*
X0081322Y0045373D02*
X0107749Y0045373D01*
X0107749Y0044875D02*
X0081322Y0044875D01*
X0081322Y0044376D02*
X0107749Y0044376D01*
X0107749Y0043878D02*
X0081322Y0043878D01*
X0078222Y0040887D02*
X0077764Y0040887D01*
X0078222Y0040388D02*
X0077265Y0040388D01*
X0076767Y0039890D02*
X0078222Y0039890D01*
X0076654Y0039391D02*
X0076268Y0039391D01*
X0076304Y0038893D02*
X0075770Y0038893D01*
X0075271Y0038394D02*
X0076304Y0038394D01*
X0076304Y0037896D02*
X0074773Y0037896D01*
X0074274Y0037397D02*
X0076304Y0037397D01*
X0076304Y0036899D02*
X0074341Y0036899D01*
X0074341Y0036400D02*
X0076304Y0036400D01*
X0076304Y0035902D02*
X0074341Y0035902D01*
X0074341Y0035403D02*
X0076304Y0035403D01*
X0076304Y0034905D02*
X0074341Y0034905D01*
X0074341Y0034406D02*
X0076304Y0034406D01*
X0076304Y0033908D02*
X0074276Y0033908D01*
X0073777Y0033409D02*
X0076304Y0033409D01*
X0076304Y0032911D02*
X0073279Y0032911D01*
X0072780Y0032412D02*
X0076304Y0032412D01*
X0076625Y0031914D02*
X0072282Y0031914D01*
X0081322Y0047368D02*
X0107749Y0047368D01*
X0107749Y0047866D02*
X0081322Y0047866D01*
X0081322Y0048365D02*
X0107749Y0048365D01*
X0107749Y0048863D02*
X0081322Y0048863D01*
X0081322Y0049362D02*
X0107749Y0049362D01*
X0107749Y0049860D02*
X0081322Y0049860D01*
X0081322Y0050359D02*
X0107749Y0050359D01*
X0107819Y0050857D02*
X0081322Y0050857D01*
X0081322Y0051356D02*
X0108317Y0051356D01*
X0108816Y0051854D02*
X0081322Y0051854D01*
X0081322Y0052353D02*
X0109314Y0052353D01*
X0109813Y0052851D02*
X0081322Y0052851D01*
X0052631Y0042382D02*
X0034078Y0042382D01*
X0034078Y0041884D02*
X0052631Y0041884D01*
X0052631Y0041385D02*
X0034078Y0041385D01*
X0034078Y0040887D02*
X0052631Y0040887D01*
X0052631Y0040388D02*
X0034078Y0040388D01*
X0034078Y0039890D02*
X0052383Y0039890D01*
X0046304Y0034406D02*
X0044541Y0034406D01*
X0044541Y0033908D02*
X0046370Y0033908D01*
X0046868Y0033409D02*
X0044060Y0033409D01*
X0043562Y0032911D02*
X0047367Y0032911D01*
X0047865Y0032412D02*
X0043063Y0032412D01*
X0042565Y0031914D02*
X0048364Y0031914D01*
X0040573Y0031914D02*
X0040073Y0031914D01*
X0040073Y0032412D02*
X0040573Y0032412D01*
X0040573Y0032911D02*
X0040073Y0032911D01*
X0040073Y0033409D02*
X0040573Y0033409D01*
X0040573Y0033908D02*
X0040073Y0033908D01*
X0040073Y0034406D02*
X0040573Y0034406D01*
X0040573Y0035902D02*
X0040073Y0035902D01*
X0040073Y0036400D02*
X0040573Y0036400D01*
X0040573Y0036899D02*
X0040073Y0036899D01*
X0040073Y0037397D02*
X0040573Y0037397D01*
X0040573Y0037896D02*
X0040073Y0037896D01*
X0040073Y0038394D02*
X0040573Y0038394D01*
X0040573Y0038893D02*
X0040073Y0038893D01*
X0040073Y0039391D02*
X0040573Y0039391D01*
X0038111Y0039391D02*
X0034078Y0039391D01*
X0034078Y0038893D02*
X0037612Y0038893D01*
X0037113Y0038394D02*
X0034078Y0038394D01*
X0034078Y0037896D02*
X0036615Y0037896D01*
X0036116Y0037397D02*
X0034078Y0037397D01*
X0034078Y0036899D02*
X0036104Y0036899D01*
X0036104Y0036400D02*
X0034078Y0036400D01*
X0034078Y0035902D02*
X0036104Y0035902D01*
X0029505Y0029421D02*
X0022541Y0029421D01*
X0021678Y0029920D02*
X0029009Y0029920D01*
X0029009Y0030418D02*
X0020070Y0030418D01*
X0023405Y0028923D02*
X0030003Y0028923D01*
X0030502Y0028424D02*
X0024249Y0028424D01*
X0024748Y0027926D02*
X0031001Y0027926D01*
X0031499Y0027427D02*
X0025246Y0027427D01*
X0025745Y0026929D02*
X0031998Y0026929D01*
X0032496Y0026430D02*
X0026243Y0026430D01*
X0026632Y0025932D02*
X0032995Y0025932D01*
X0033493Y0025433D02*
X0026920Y0025433D01*
X0029009Y0030917D02*
X0007500Y0030917D01*
X0007500Y0031415D02*
X0029009Y0031415D01*
X0029009Y0031914D02*
X0007500Y0031914D01*
X0007500Y0032412D02*
X0029009Y0032412D01*
X0029009Y0032911D02*
X0007500Y0032911D01*
X0007500Y0033409D02*
X0029009Y0033409D01*
X0029009Y0033908D02*
X0007500Y0033908D01*
X0007500Y0034406D02*
X0029009Y0034406D01*
X0029009Y0034905D02*
X0007500Y0034905D01*
X0007500Y0035403D02*
X0029009Y0035403D01*
X0029009Y0035902D02*
X0007500Y0035902D01*
X0007500Y0036400D02*
X0029009Y0036400D01*
X0029009Y0036899D02*
X0007500Y0036899D01*
X0007500Y0037397D02*
X0029009Y0037397D01*
X0013489Y0030418D02*
X0007500Y0030418D01*
X0007500Y0029920D02*
X0011881Y0029920D01*
X0011018Y0029421D02*
X0007500Y0029421D01*
X0007500Y0028923D02*
X0010154Y0028923D01*
X0009310Y0028424D02*
X0007500Y0028424D01*
X0007500Y0027926D02*
X0008811Y0027926D01*
X0008313Y0027427D02*
X0007500Y0027427D01*
X0007500Y0026929D02*
X0007814Y0026929D01*
X0091021Y0024436D02*
X0091861Y0024436D01*
X0091640Y0023937D02*
X0091353Y0023937D01*
X0091353Y0023439D02*
X0091612Y0023439D01*
X0091612Y0022940D02*
X0091353Y0022940D01*
X0091353Y0022442D02*
X0091612Y0022442D01*
X0091612Y0021943D02*
X0091353Y0021943D01*
X0091353Y0021445D02*
X0091612Y0021445D01*
X0091353Y0020946D02*
X0095368Y0020946D01*
X0095368Y0021445D02*
X0095868Y0021445D01*
X0095868Y0021943D02*
X0095368Y0021943D01*
X0095368Y0022442D02*
X0095868Y0022442D01*
X0095868Y0022940D02*
X0095368Y0022940D01*
X0095368Y0023439D02*
X0095868Y0023439D01*
X0095868Y0023937D02*
X0095368Y0023937D01*
X0095368Y0024436D02*
X0095868Y0024436D01*
X0091612Y0020448D02*
X0091353Y0020448D01*
X0091353Y0019949D02*
X0091612Y0019949D01*
X0091612Y0019451D02*
X0091353Y0019451D01*
X0091353Y0018952D02*
X0091612Y0018952D01*
X0091612Y0018454D02*
X0091353Y0018454D01*
X0091353Y0017955D02*
X0091612Y0017955D01*
X0091650Y0017457D02*
X0091353Y0017457D01*
X0090983Y0016958D02*
X0091900Y0016958D01*
X0123144Y0058335D02*
X0124766Y0058335D01*
X0124766Y0058833D02*
X0123144Y0058833D01*
X0123144Y0059332D02*
X0124766Y0059332D01*
X0124888Y0059830D02*
X0123144Y0059830D01*
X0123144Y0060329D02*
X0125387Y0060329D01*
X0125885Y0060827D02*
X0123144Y0060827D01*
X0123144Y0061326D02*
X0126384Y0061326D01*
X0126882Y0061824D02*
X0123144Y0061824D01*
M02*
