%
M48
M72
T01C0.03937
T02C0.15748
%
T01
X40323Y35638
X50323Y35638
X60323Y35638
X70323Y35638
X80323Y35638
X99417Y39220
X85677Y56898
X85677Y66898
X85677Y76898
X85677Y86898
X99417Y57803
X128984Y57961
X128984Y67961
X128984Y77961
X79929Y125047
X69929Y125047
X59929Y125047
X34496Y109457
X34496Y99457
X34496Y89457
X10874Y77961
X10874Y67961
X10874Y57961
X59929Y10874
X69929Y10874
X79929Y10874
T02
X16780Y18748
X16780Y117173
X123079Y117173
X123079Y18748
M30
