G75*
%MOIN*%
%OFA0B0*%
%FSLAX25Y25*%
%IPPOS*%
%LPD*%
%AMOC8*
5,1,8,0,0,1.08239X$1,22.5*
%
%ADD10C,0.11627*%
%ADD11R,0.06800X0.06800*%
%ADD12C,0.06800*%
%ADD13R,0.06737X0.06737*%
%ADD14OC8,0.06737*%
D10*
X0018780Y0018780D03*
X0247126Y0018780D03*
X0247126Y0211693D03*
X0018780Y0211693D03*
D11*
X0037953Y0206693D03*
D12*
X0047900Y0206700D03*
X0057900Y0206700D03*
X0067900Y0206700D03*
X0077900Y0206700D03*
X0087900Y0206700D03*
X0097900Y0206700D03*
X0107900Y0206700D03*
X0117900Y0206700D03*
X0127900Y0206700D03*
X0137900Y0206700D03*
X0147900Y0206700D03*
X0157900Y0206700D03*
X0167900Y0206700D03*
X0177900Y0206700D03*
X0187900Y0206700D03*
X0197900Y0206700D03*
X0207900Y0206700D03*
X0217900Y0206700D03*
X0227900Y0206700D03*
X0227900Y0216700D03*
X0217900Y0216700D03*
X0207900Y0216700D03*
X0197900Y0216700D03*
X0187900Y0216700D03*
X0177900Y0216700D03*
X0167900Y0216700D03*
X0157900Y0216700D03*
X0147900Y0216700D03*
X0137900Y0216700D03*
X0127900Y0216700D03*
X0117900Y0216700D03*
X0107900Y0216700D03*
X0097900Y0216700D03*
X0087900Y0216700D03*
X0077900Y0216700D03*
X0067900Y0216700D03*
X0057900Y0216700D03*
X0047900Y0216700D03*
X0037900Y0216700D03*
D13*
X0038307Y0184134D03*
X0038307Y0174134D03*
X0038307Y0164134D03*
X0038307Y0154134D03*
X0038307Y0144134D03*
X0038307Y0134134D03*
X0038307Y0124134D03*
X0038307Y0114134D03*
X0127677Y0114134D03*
X0127677Y0124134D03*
X0127677Y0134134D03*
X0127677Y0144134D03*
X0127677Y0154134D03*
X0127677Y0164134D03*
X0127677Y0174134D03*
X0127677Y0184134D03*
D14*
X0137677Y0184134D03*
X0147677Y0184134D03*
X0147677Y0174134D03*
X0137677Y0174134D03*
X0137677Y0164134D03*
X0147677Y0164134D03*
X0147677Y0154134D03*
X0137677Y0154134D03*
X0137677Y0144134D03*
X0147677Y0144134D03*
X0147677Y0134134D03*
X0137677Y0134134D03*
X0137677Y0124134D03*
X0147677Y0124134D03*
X0147677Y0114134D03*
X0137677Y0114134D03*
X0058307Y0114134D03*
X0048307Y0114134D03*
X0048307Y0124134D03*
X0058307Y0124134D03*
X0058307Y0134134D03*
X0048307Y0134134D03*
X0048307Y0144134D03*
X0058307Y0144134D03*
X0058307Y0154134D03*
X0048307Y0154134D03*
X0048307Y0164134D03*
X0058307Y0164134D03*
X0058307Y0174134D03*
X0048307Y0174134D03*
X0048307Y0184134D03*
X0058307Y0184134D03*
M02*
