G75*
%MOIN*%
%OFA0B0*%
%FSLAX25Y25*%
%IPPOS*%
%LPD*%
%AMOC8*
5,1,8,0,0,1.08239X$1,22.5*
%
%ADD10C,0.00500*%
D10*
X0015236Y0071929D02*
X0015236Y0095551D01*
X0011299Y0099488D01*
X0011299Y0134921D01*
X0015236Y0138858D01*
X0015236Y0158543D01*
X0027047Y0158543D01*
X0027047Y0071929D01*
X0015236Y0071929D01*
X0015236Y0072299D02*
X0027047Y0072299D01*
X0027047Y0072798D02*
X0015236Y0072798D01*
X0015236Y0073296D02*
X0027047Y0073296D01*
X0027047Y0073795D02*
X0015236Y0073795D01*
X0015236Y0074293D02*
X0027047Y0074293D01*
X0027047Y0074792D02*
X0015236Y0074792D01*
X0015236Y0075290D02*
X0027047Y0075290D01*
X0027047Y0075789D02*
X0015236Y0075789D01*
X0015236Y0076287D02*
X0027047Y0076287D01*
X0027047Y0076786D02*
X0015236Y0076786D01*
X0015236Y0077284D02*
X0027047Y0077284D01*
X0027047Y0077783D02*
X0015236Y0077783D01*
X0015236Y0078281D02*
X0027047Y0078281D01*
X0027047Y0078780D02*
X0015236Y0078780D01*
X0015236Y0079278D02*
X0027047Y0079278D01*
X0027047Y0079777D02*
X0015236Y0079777D01*
X0015236Y0080275D02*
X0027047Y0080275D01*
X0027047Y0080774D02*
X0015236Y0080774D01*
X0015236Y0081272D02*
X0027047Y0081272D01*
X0027047Y0081771D02*
X0015236Y0081771D01*
X0015236Y0082269D02*
X0027047Y0082269D01*
X0027047Y0082768D02*
X0015236Y0082768D01*
X0015236Y0083266D02*
X0027047Y0083266D01*
X0027047Y0083765D02*
X0015236Y0083765D01*
X0015236Y0084263D02*
X0027047Y0084263D01*
X0027047Y0084762D02*
X0015236Y0084762D01*
X0015236Y0085260D02*
X0027047Y0085260D01*
X0027047Y0085759D02*
X0015236Y0085759D01*
X0015236Y0086257D02*
X0027047Y0086257D01*
X0027047Y0086756D02*
X0015236Y0086756D01*
X0015236Y0087254D02*
X0027047Y0087254D01*
X0027047Y0087753D02*
X0015236Y0087753D01*
X0015236Y0088251D02*
X0027047Y0088251D01*
X0027047Y0088750D02*
X0015236Y0088750D01*
X0015236Y0089248D02*
X0027047Y0089248D01*
X0027047Y0089747D02*
X0015236Y0089747D01*
X0015236Y0090245D02*
X0027047Y0090245D01*
X0027047Y0090744D02*
X0015236Y0090744D01*
X0015236Y0091242D02*
X0027047Y0091242D01*
X0027047Y0091741D02*
X0015236Y0091741D01*
X0015236Y0092239D02*
X0027047Y0092239D01*
X0027047Y0092738D02*
X0015236Y0092738D01*
X0015236Y0093237D02*
X0027047Y0093237D01*
X0027047Y0093735D02*
X0015236Y0093735D01*
X0015236Y0094234D02*
X0027047Y0094234D01*
X0027047Y0094732D02*
X0015236Y0094732D01*
X0015236Y0095231D02*
X0027047Y0095231D01*
X0027047Y0095729D02*
X0015058Y0095729D01*
X0014560Y0096228D02*
X0027047Y0096228D01*
X0027047Y0096726D02*
X0014061Y0096726D01*
X0013563Y0097225D02*
X0027047Y0097225D01*
X0027047Y0097723D02*
X0013064Y0097723D01*
X0012566Y0098222D02*
X0027047Y0098222D01*
X0027047Y0098720D02*
X0012067Y0098720D01*
X0011569Y0099219D02*
X0027047Y0099219D01*
X0027047Y0099717D02*
X0011299Y0099717D01*
X0011299Y0100216D02*
X0027047Y0100216D01*
X0027047Y0100714D02*
X0011299Y0100714D01*
X0011299Y0101213D02*
X0027047Y0101213D01*
X0027047Y0101711D02*
X0011299Y0101711D01*
X0011299Y0102210D02*
X0027047Y0102210D01*
X0027047Y0102708D02*
X0011299Y0102708D01*
X0011299Y0103207D02*
X0027047Y0103207D01*
X0027047Y0103705D02*
X0011299Y0103705D01*
X0011299Y0104204D02*
X0027047Y0104204D01*
X0027047Y0104702D02*
X0011299Y0104702D01*
X0011299Y0105201D02*
X0027047Y0105201D01*
X0027047Y0105699D02*
X0011299Y0105699D01*
X0011299Y0106198D02*
X0027047Y0106198D01*
X0027047Y0106696D02*
X0011299Y0106696D01*
X0011299Y0107195D02*
X0027047Y0107195D01*
X0027047Y0107693D02*
X0011299Y0107693D01*
X0011299Y0108192D02*
X0027047Y0108192D01*
X0027047Y0108690D02*
X0011299Y0108690D01*
X0011299Y0109189D02*
X0027047Y0109189D01*
X0027047Y0109687D02*
X0011299Y0109687D01*
X0011299Y0110186D02*
X0027047Y0110186D01*
X0027047Y0110684D02*
X0011299Y0110684D01*
X0011299Y0111183D02*
X0027047Y0111183D01*
X0027047Y0111681D02*
X0011299Y0111681D01*
X0011299Y0112180D02*
X0027047Y0112180D01*
X0027047Y0112678D02*
X0011299Y0112678D01*
X0011299Y0113177D02*
X0027047Y0113177D01*
X0027047Y0113675D02*
X0011299Y0113675D01*
X0011299Y0114174D02*
X0027047Y0114174D01*
X0027047Y0114672D02*
X0011299Y0114672D01*
X0011299Y0115171D02*
X0027047Y0115171D01*
X0027047Y0115670D02*
X0011299Y0115670D01*
X0011299Y0116168D02*
X0027047Y0116168D01*
X0027047Y0116667D02*
X0011299Y0116667D01*
X0011299Y0117165D02*
X0027047Y0117165D01*
X0027047Y0117664D02*
X0011299Y0117664D01*
X0011299Y0118162D02*
X0027047Y0118162D01*
X0027047Y0118661D02*
X0011299Y0118661D01*
X0011299Y0119159D02*
X0027047Y0119159D01*
X0027047Y0119658D02*
X0011299Y0119658D01*
X0011299Y0120156D02*
X0027047Y0120156D01*
X0027047Y0120655D02*
X0011299Y0120655D01*
X0011299Y0121153D02*
X0027047Y0121153D01*
X0027047Y0121652D02*
X0011299Y0121652D01*
X0011299Y0122150D02*
X0027047Y0122150D01*
X0027047Y0122649D02*
X0011299Y0122649D01*
X0011299Y0123147D02*
X0027047Y0123147D01*
X0027047Y0123646D02*
X0011299Y0123646D01*
X0011299Y0124144D02*
X0027047Y0124144D01*
X0027047Y0124643D02*
X0011299Y0124643D01*
X0011299Y0125141D02*
X0027047Y0125141D01*
X0027047Y0125640D02*
X0011299Y0125640D01*
X0011299Y0126138D02*
X0027047Y0126138D01*
X0027047Y0126637D02*
X0011299Y0126637D01*
X0011299Y0127135D02*
X0027047Y0127135D01*
X0027047Y0127634D02*
X0011299Y0127634D01*
X0011299Y0128132D02*
X0027047Y0128132D01*
X0027047Y0128631D02*
X0011299Y0128631D01*
X0011299Y0129129D02*
X0027047Y0129129D01*
X0027047Y0129628D02*
X0011299Y0129628D01*
X0011299Y0130126D02*
X0027047Y0130126D01*
X0027047Y0130625D02*
X0011299Y0130625D01*
X0011299Y0131123D02*
X0027047Y0131123D01*
X0027047Y0131622D02*
X0011299Y0131622D01*
X0011299Y0132120D02*
X0027047Y0132120D01*
X0027047Y0132619D02*
X0011299Y0132619D01*
X0011299Y0133117D02*
X0027047Y0133117D01*
X0027047Y0133616D02*
X0011299Y0133616D01*
X0011299Y0134114D02*
X0027047Y0134114D01*
X0027047Y0134613D02*
X0011299Y0134613D01*
X0011489Y0135111D02*
X0027047Y0135111D01*
X0027047Y0135610D02*
X0011988Y0135610D01*
X0012486Y0136108D02*
X0027047Y0136108D01*
X0027047Y0136607D02*
X0012985Y0136607D01*
X0013483Y0137105D02*
X0027047Y0137105D01*
X0027047Y0137604D02*
X0013982Y0137604D01*
X0014480Y0138103D02*
X0027047Y0138103D01*
X0027047Y0138601D02*
X0014979Y0138601D01*
X0015236Y0139100D02*
X0027047Y0139100D01*
X0027047Y0139598D02*
X0015236Y0139598D01*
X0015236Y0140097D02*
X0027047Y0140097D01*
X0027047Y0140595D02*
X0015236Y0140595D01*
X0015236Y0141094D02*
X0027047Y0141094D01*
X0027047Y0141592D02*
X0015236Y0141592D01*
X0015236Y0142091D02*
X0027047Y0142091D01*
X0027047Y0142589D02*
X0015236Y0142589D01*
X0015236Y0143088D02*
X0027047Y0143088D01*
X0027047Y0143586D02*
X0015236Y0143586D01*
X0015236Y0144085D02*
X0027047Y0144085D01*
X0027047Y0144583D02*
X0015236Y0144583D01*
X0015236Y0145082D02*
X0027047Y0145082D01*
X0027047Y0145580D02*
X0015236Y0145580D01*
X0015236Y0146079D02*
X0027047Y0146079D01*
X0027047Y0146577D02*
X0015236Y0146577D01*
X0015236Y0147076D02*
X0027047Y0147076D01*
X0027047Y0147574D02*
X0015236Y0147574D01*
X0015236Y0148073D02*
X0027047Y0148073D01*
X0027047Y0148571D02*
X0015236Y0148571D01*
X0015236Y0149070D02*
X0027047Y0149070D01*
X0027047Y0149568D02*
X0015236Y0149568D01*
X0015236Y0150067D02*
X0027047Y0150067D01*
X0027047Y0150565D02*
X0015236Y0150565D01*
X0015236Y0151064D02*
X0027047Y0151064D01*
X0027047Y0151562D02*
X0015236Y0151562D01*
X0015236Y0152061D02*
X0027047Y0152061D01*
X0027047Y0152559D02*
X0015236Y0152559D01*
X0015236Y0153058D02*
X0027047Y0153058D01*
X0027047Y0153556D02*
X0015236Y0153556D01*
X0015236Y0154055D02*
X0027047Y0154055D01*
X0027047Y0154553D02*
X0015236Y0154553D01*
X0015236Y0155052D02*
X0027047Y0155052D01*
X0027047Y0155550D02*
X0015236Y0155550D01*
X0015236Y0156049D02*
X0027047Y0156049D01*
X0027047Y0156547D02*
X0015236Y0156547D01*
X0015236Y0157046D02*
X0027047Y0157046D01*
X0027047Y0157544D02*
X0015236Y0157544D01*
X0015236Y0158043D02*
X0027047Y0158043D01*
X0027047Y0158541D02*
X0015236Y0158541D01*
X0178228Y0093583D02*
X0178228Y0006969D01*
X0190039Y0006969D01*
X0190039Y0026654D01*
X0193976Y0030591D01*
X0193976Y0066024D01*
X0190039Y0069961D01*
X0190039Y0093583D01*
X0178228Y0093583D01*
X0178228Y0093237D02*
X0190039Y0093237D01*
X0190039Y0092738D02*
X0178228Y0092738D01*
X0178228Y0092239D02*
X0190039Y0092239D01*
X0190039Y0091741D02*
X0178228Y0091741D01*
X0178228Y0091242D02*
X0190039Y0091242D01*
X0190039Y0090744D02*
X0178228Y0090744D01*
X0178228Y0090245D02*
X0190039Y0090245D01*
X0190039Y0089747D02*
X0178228Y0089747D01*
X0178228Y0089248D02*
X0190039Y0089248D01*
X0190039Y0088750D02*
X0178228Y0088750D01*
X0178228Y0088251D02*
X0190039Y0088251D01*
X0190039Y0087753D02*
X0178228Y0087753D01*
X0178228Y0087254D02*
X0190039Y0087254D01*
X0190039Y0086756D02*
X0178228Y0086756D01*
X0178228Y0086257D02*
X0190039Y0086257D01*
X0190039Y0085759D02*
X0178228Y0085759D01*
X0178228Y0085260D02*
X0190039Y0085260D01*
X0190039Y0084762D02*
X0178228Y0084762D01*
X0178228Y0084263D02*
X0190039Y0084263D01*
X0190039Y0083765D02*
X0178228Y0083765D01*
X0178228Y0083266D02*
X0190039Y0083266D01*
X0190039Y0082768D02*
X0178228Y0082768D01*
X0178228Y0082269D02*
X0190039Y0082269D01*
X0190039Y0081771D02*
X0178228Y0081771D01*
X0178228Y0081272D02*
X0190039Y0081272D01*
X0190039Y0080774D02*
X0178228Y0080774D01*
X0178228Y0080275D02*
X0190039Y0080275D01*
X0190039Y0079777D02*
X0178228Y0079777D01*
X0178228Y0079278D02*
X0190039Y0079278D01*
X0190039Y0078780D02*
X0178228Y0078780D01*
X0178228Y0078281D02*
X0190039Y0078281D01*
X0190039Y0077783D02*
X0178228Y0077783D01*
X0178228Y0077284D02*
X0190039Y0077284D01*
X0190039Y0076786D02*
X0178228Y0076786D01*
X0178228Y0076287D02*
X0190039Y0076287D01*
X0190039Y0075789D02*
X0178228Y0075789D01*
X0178228Y0075290D02*
X0190039Y0075290D01*
X0190039Y0074792D02*
X0178228Y0074792D01*
X0178228Y0074293D02*
X0190039Y0074293D01*
X0190039Y0073795D02*
X0178228Y0073795D01*
X0178228Y0073296D02*
X0190039Y0073296D01*
X0190039Y0072798D02*
X0178228Y0072798D01*
X0178228Y0072299D02*
X0190039Y0072299D01*
X0190039Y0071801D02*
X0178228Y0071801D01*
X0178228Y0071302D02*
X0190039Y0071302D01*
X0190039Y0070803D02*
X0178228Y0070803D01*
X0178228Y0070305D02*
X0190039Y0070305D01*
X0190194Y0069806D02*
X0178228Y0069806D01*
X0178228Y0069308D02*
X0190692Y0069308D01*
X0191191Y0068809D02*
X0178228Y0068809D01*
X0178228Y0068311D02*
X0191689Y0068311D01*
X0192188Y0067812D02*
X0178228Y0067812D01*
X0178228Y0067314D02*
X0192686Y0067314D01*
X0193185Y0066815D02*
X0178228Y0066815D01*
X0178228Y0066317D02*
X0193683Y0066317D01*
X0193976Y0065818D02*
X0178228Y0065818D01*
X0178228Y0065320D02*
X0193976Y0065320D01*
X0193976Y0064821D02*
X0178228Y0064821D01*
X0178228Y0064323D02*
X0193976Y0064323D01*
X0193976Y0063824D02*
X0178228Y0063824D01*
X0178228Y0063326D02*
X0193976Y0063326D01*
X0193976Y0062827D02*
X0178228Y0062827D01*
X0178228Y0062329D02*
X0193976Y0062329D01*
X0193976Y0061830D02*
X0178228Y0061830D01*
X0178228Y0061332D02*
X0193976Y0061332D01*
X0193976Y0060833D02*
X0178228Y0060833D01*
X0178228Y0060335D02*
X0193976Y0060335D01*
X0193976Y0059836D02*
X0178228Y0059836D01*
X0178228Y0059338D02*
X0193976Y0059338D01*
X0193976Y0058839D02*
X0178228Y0058839D01*
X0178228Y0058341D02*
X0193976Y0058341D01*
X0193976Y0057842D02*
X0178228Y0057842D01*
X0178228Y0057344D02*
X0193976Y0057344D01*
X0193976Y0056845D02*
X0178228Y0056845D01*
X0178228Y0056347D02*
X0193976Y0056347D01*
X0193976Y0055848D02*
X0178228Y0055848D01*
X0178228Y0055350D02*
X0193976Y0055350D01*
X0193976Y0054851D02*
X0178228Y0054851D01*
X0178228Y0054353D02*
X0193976Y0054353D01*
X0193976Y0053854D02*
X0178228Y0053854D01*
X0178228Y0053356D02*
X0193976Y0053356D01*
X0193976Y0052857D02*
X0178228Y0052857D01*
X0178228Y0052359D02*
X0193976Y0052359D01*
X0193976Y0051860D02*
X0178228Y0051860D01*
X0178228Y0051362D02*
X0193976Y0051362D01*
X0193976Y0050863D02*
X0178228Y0050863D01*
X0178228Y0050365D02*
X0193976Y0050365D01*
X0193976Y0049866D02*
X0178228Y0049866D01*
X0178228Y0049368D02*
X0193976Y0049368D01*
X0193976Y0048869D02*
X0178228Y0048869D01*
X0178228Y0048370D02*
X0193976Y0048370D01*
X0193976Y0047872D02*
X0178228Y0047872D01*
X0178228Y0047373D02*
X0193976Y0047373D01*
X0193976Y0046875D02*
X0178228Y0046875D01*
X0178228Y0046376D02*
X0193976Y0046376D01*
X0193976Y0045878D02*
X0178228Y0045878D01*
X0178228Y0045379D02*
X0193976Y0045379D01*
X0193976Y0044881D02*
X0178228Y0044881D01*
X0178228Y0044382D02*
X0193976Y0044382D01*
X0193976Y0043884D02*
X0178228Y0043884D01*
X0178228Y0043385D02*
X0193976Y0043385D01*
X0193976Y0042887D02*
X0178228Y0042887D01*
X0178228Y0042388D02*
X0193976Y0042388D01*
X0193976Y0041890D02*
X0178228Y0041890D01*
X0178228Y0041391D02*
X0193976Y0041391D01*
X0193976Y0040893D02*
X0178228Y0040893D01*
X0178228Y0040394D02*
X0193976Y0040394D01*
X0193976Y0039896D02*
X0178228Y0039896D01*
X0178228Y0039397D02*
X0193976Y0039397D01*
X0193976Y0038899D02*
X0178228Y0038899D01*
X0178228Y0038400D02*
X0193976Y0038400D01*
X0193976Y0037902D02*
X0178228Y0037902D01*
X0178228Y0037403D02*
X0193976Y0037403D01*
X0193976Y0036905D02*
X0178228Y0036905D01*
X0178228Y0036406D02*
X0193976Y0036406D01*
X0193976Y0035908D02*
X0178228Y0035908D01*
X0178228Y0035409D02*
X0193976Y0035409D01*
X0193976Y0034911D02*
X0178228Y0034911D01*
X0178228Y0034412D02*
X0193976Y0034412D01*
X0193976Y0033914D02*
X0178228Y0033914D01*
X0178228Y0033415D02*
X0193976Y0033415D01*
X0193976Y0032917D02*
X0178228Y0032917D01*
X0178228Y0032418D02*
X0193976Y0032418D01*
X0193976Y0031920D02*
X0178228Y0031920D01*
X0178228Y0031421D02*
X0193976Y0031421D01*
X0193976Y0030923D02*
X0178228Y0030923D01*
X0178228Y0030424D02*
X0193810Y0030424D01*
X0193311Y0029926D02*
X0178228Y0029926D01*
X0178228Y0029427D02*
X0192813Y0029427D01*
X0192314Y0028929D02*
X0178228Y0028929D01*
X0178228Y0028430D02*
X0191816Y0028430D01*
X0191317Y0027932D02*
X0178228Y0027932D01*
X0178228Y0027433D02*
X0190819Y0027433D01*
X0190320Y0026934D02*
X0178228Y0026934D01*
X0178228Y0026436D02*
X0190039Y0026436D01*
X0190039Y0025937D02*
X0178228Y0025937D01*
X0178228Y0025439D02*
X0190039Y0025439D01*
X0190039Y0024940D02*
X0178228Y0024940D01*
X0178228Y0024442D02*
X0190039Y0024442D01*
X0190039Y0023943D02*
X0178228Y0023943D01*
X0178228Y0023445D02*
X0190039Y0023445D01*
X0190039Y0022946D02*
X0178228Y0022946D01*
X0178228Y0022448D02*
X0190039Y0022448D01*
X0190039Y0021949D02*
X0178228Y0021949D01*
X0178228Y0021451D02*
X0190039Y0021451D01*
X0190039Y0020952D02*
X0178228Y0020952D01*
X0178228Y0020454D02*
X0190039Y0020454D01*
X0190039Y0019955D02*
X0178228Y0019955D01*
X0178228Y0019457D02*
X0190039Y0019457D01*
X0190039Y0018958D02*
X0178228Y0018958D01*
X0178228Y0018460D02*
X0190039Y0018460D01*
X0190039Y0017961D02*
X0178228Y0017961D01*
X0178228Y0017463D02*
X0190039Y0017463D01*
X0190039Y0016964D02*
X0178228Y0016964D01*
X0178228Y0016466D02*
X0190039Y0016466D01*
X0190039Y0015967D02*
X0178228Y0015967D01*
X0178228Y0015469D02*
X0190039Y0015469D01*
X0190039Y0014970D02*
X0178228Y0014970D01*
X0178228Y0014472D02*
X0190039Y0014472D01*
X0190039Y0013973D02*
X0178228Y0013973D01*
X0178228Y0013475D02*
X0190039Y0013475D01*
X0190039Y0012976D02*
X0178228Y0012976D01*
X0178228Y0012478D02*
X0190039Y0012478D01*
X0190039Y0011979D02*
X0178228Y0011979D01*
X0178228Y0011481D02*
X0190039Y0011481D01*
X0190039Y0010982D02*
X0178228Y0010982D01*
X0178228Y0010484D02*
X0190039Y0010484D01*
X0190039Y0009985D02*
X0178228Y0009985D01*
X0178228Y0009487D02*
X0190039Y0009487D01*
X0190039Y0008988D02*
X0178228Y0008988D01*
X0178228Y0008490D02*
X0190039Y0008490D01*
X0190039Y0007991D02*
X0178228Y0007991D01*
X0178228Y0007493D02*
X0190039Y0007493D01*
X0190039Y0006994D02*
X0178228Y0006994D01*
M02*
