%
M48
M72
T01C0.03937
T02C0.04000
T03C0.10827
%
T01
X38307Y114134
X48307Y114134
X58307Y114134
X58307Y124134
X48307Y124134
X38307Y124134
X38307Y134134
X48307Y134134
X58307Y134134
X58307Y144134
X48307Y144134
X38307Y144134
X38307Y154134
X48307Y154134
X58307Y154134
X58307Y164134
X48307Y164134
X38307Y164134
X38307Y174134
X48307Y174134
X58307Y174134
X58307Y184134
X48307Y184134
X38307Y184134
X127677Y184134
X137677Y184134
X147677Y184134
X147677Y174134
X137677Y174134
X127677Y174134
X127677Y164134
X137677Y164134
X147677Y164134
X147677Y154134
X137677Y154134
X127677Y154134
X127677Y144134
X137677Y144134
X147677Y144134
X147677Y134134
X137677Y134134
X127677Y134134
X127677Y124134
X137677Y124134
X147677Y124134
X147677Y114134
X137677Y114134
X127677Y114134
T02
X127900Y206700
X117900Y206700
X107900Y206700
X97900Y206700
X87900Y206700
X77900Y206700
X67900Y206700
X57900Y206700
X47900Y206700
X37953Y206693
X37900Y216700
X47900Y216700
X57900Y216700
X67900Y216700
X77900Y216700
X87900Y216700
X97900Y216700
X107900Y216700
X117900Y216700
X127900Y216700
X137900Y216700
X147900Y216700
X157900Y216700
X167900Y216700
X177900Y216700
X187900Y216700
X197900Y216700
X207900Y216700
X217900Y216700
X227900Y216700
X227900Y206700
X217900Y206700
X207900Y206700
X197900Y206700
X187900Y206700
X177900Y206700
X167900Y206700
X157900Y206700
X147900Y206700
X137900Y206700
T03
X18780Y18780
X247126Y18780
X247126Y211693
X18780Y211693
M30
