%
M48
M72
T01C0.02362
T02C0.03543
T03C0.03937
T04C0.04000
T05C0.10827
%
T01
X58150Y62087
X54213Y69961
X54213Y75866
X54213Y81772
X42402Y64055
X85709Y54213
X97520Y54213
X109331Y54213
X117205Y56181
X123110Y54213
X127047Y50276
X123110Y60118
X130984Y60118
X130984Y66024
X105984Y74685
X102244Y77835
X123110Y89646
X123110Y95551
X95551Y28622
T02
X98543Y102835
X108543Y102835
X118543Y102835
X128543Y102835
X138543Y102835
X148543Y102835
X88543Y102835
X78543Y102835
X68543Y112835
X68543Y122835
X68543Y132835
X68543Y142835
X68543Y152835
X68543Y162835
X68543Y172835
X68543Y182835
X42402Y178543
X42402Y168543
X42402Y158543
X42402Y148543
X42402Y138543
X42402Y128543
X42402Y188543
T03
X78543Y182835
X88543Y182835
X98543Y182835
X108543Y182835
X118543Y182835
X128543Y182835
X138543Y182835
X148543Y182835
X158543Y182835
X168543Y182835
X178543Y182835
X188543Y182835
X198543Y182835
X208543Y182835
X218543Y182835
X228543Y182835
X238543Y182835
X248543Y182835
X258543Y182835
X258543Y172835
X248543Y172835
X238543Y172835
X228543Y172835
X218543Y172835
X208543Y172835
X198543Y172835
X188543Y172835
X178543Y172835
X168543Y172835
X158543Y172835
X148543Y172835
X138543Y172835
X128543Y172835
X118543Y172835
X108543Y172835
X98543Y172835
X88543Y172835
X78543Y172835
X78543Y162835
X88543Y162835
X98543Y162835
X108543Y162835
X118543Y162835
X128543Y162835
X138543Y162835
X148543Y162835
X158543Y162835
X168543Y162835
X178543Y162835
X188543Y162835
X198543Y162835
X208543Y162835
X218543Y162835
X228543Y162835
X238543Y162835
X248543Y162835
X258543Y162835
X258543Y152835
X248543Y152835
X238543Y152835
X228543Y152835
X218543Y152835
X208543Y152835
X198543Y152835
X188543Y152835
X178543Y152835
X168543Y152835
X158543Y152835
X148543Y152835
X138543Y152835
X128543Y152835
X118543Y152835
X108543Y152835
X98543Y152835
X88543Y152835
X78543Y152835
X78543Y142835
X88543Y142835
X98543Y142835
X108543Y142835
X118543Y142835
X128543Y142835
X138543Y142835
X148543Y142835
X158543Y142835
X168543Y142835
X178543Y142835
X188543Y142835
X198543Y142835
X208543Y142835
X218543Y142835
X228543Y142835
X238543Y142835
X248543Y142835
X258543Y142835
X258543Y132835
X248543Y132835
X238543Y132835
X228543Y132835
X218543Y132835
X208543Y132835
X198543Y132835
X188543Y132835
X178543Y132835
X168543Y132835
X158543Y132835
X148543Y132835
X138543Y132835
X128543Y132835
X118543Y132835
X108543Y132835
X98543Y132835
X88543Y132835
X78543Y132835
X78543Y122835
X88543Y122835
X98543Y122835
X108543Y122835
X118543Y122835
X128543Y122835
X138543Y122835
X148543Y122835
X158543Y122835
X168543Y122835
X178543Y122835
X188543Y122835
X198543Y122835
X208543Y122835
X218543Y122835
X228543Y122835
X238543Y122835
X248543Y122835
X258543Y122835
X258543Y112835
X248543Y112835
X238543Y112835
X228543Y112835
X218543Y112835
X208543Y112835
X198543Y112835
X188543Y112835
X178543Y112835
X168543Y112835
X158543Y112835
X148543Y112835
X138543Y112835
X128543Y112835
X118543Y112835
X108543Y112835
X98543Y112835
X88543Y112835
X78543Y112835
X158543Y102835
X168543Y102835
X178543Y102835
X188543Y102835
X198543Y102835
X208543Y102835
X218543Y102835
X228543Y102835
X238543Y102835
X248543Y102835
X258543Y102835
X158543Y92835
X158543Y82835
X158543Y72835
X158543Y62835
X122362Y16811
X112362Y16811
X102362Y16811
X92362Y16811
X58307Y30591
X48307Y30591
X38307Y30591
T04
X37953Y206693
X47900Y206700
X47900Y216700
X37900Y216700
X57900Y216700
X67900Y216700
X67900Y206700
X57900Y206700
X77900Y206700
X87900Y206700
X97900Y206700
X97900Y216700
X87900Y216700
X77900Y216700
X107900Y216700
X117900Y216700
X117900Y206700
X107900Y206700
X127900Y206700
X137900Y206700
X137900Y216700
X127900Y216700
X147900Y216700
X157900Y216700
X157900Y206700
X147900Y206700
X167900Y206700
X177900Y206700
X177900Y216700
X167900Y216700
X187900Y216700
X197900Y216700
X197900Y206700
X187900Y206700
X207900Y206700
X217900Y206700
X217900Y216700
X207900Y216700
X227900Y216700
X227900Y206700
T05
X18780Y18780
X247126Y18780
M30
