G75*
%MOIN*%
%OFA0B0*%
%FSLAX25Y25*%
%IPPOS*%
%LPD*%
%AMOC8*
5,1,8,0,0,1.08239X$1,22.5*
%
%ADD10C,0.16548*%
%ADD11R,0.06312X0.06706*%
%ADD12R,0.05512X0.05906*%
%ADD13R,0.23635X0.05131*%
%ADD14R,0.22835X0.04331*%
%ADD15R,0.06737X0.06737*%
%ADD16OC8,0.06737*%
%ADD17R,0.09265X0.13595*%
%ADD18R,0.08465X0.12795*%
%ADD19R,0.09265X0.04540*%
%ADD20R,0.08465X0.03740*%
%ADD21R,0.11548X0.11548*%
%ADD22OC8,0.11548*%
%ADD23C,0.13855*%
%ADD24R,0.06422X0.06422*%
%ADD25C,0.06422*%
%ADD26R,0.02178X0.06706*%
%ADD27R,0.01378X0.05906*%
%ADD28R,0.02178X0.04737*%
%ADD29R,0.01378X0.03937*%
%ADD30R,0.08674X0.04737*%
%ADD31R,0.07874X0.03937*%
%ADD32R,0.03753X0.09658*%
%ADD33R,0.02953X0.08858*%
%ADD34OC8,0.06343*%
%ADD35R,0.06343X0.06343*%
%ADD36R,0.06706X0.06312*%
%ADD37R,0.05906X0.05512*%
%ADD38C,0.04369*%
%ADD39C,0.05156*%
D10*
X0015205Y0013061D03*
X0147094Y0227628D03*
X0385283Y0249281D03*
X0385283Y0013061D03*
D11*
X0223965Y0030778D03*
X0215894Y0030778D03*
X0208217Y0030778D03*
X0200146Y0030778D03*
X0176720Y0060305D03*
X0168650Y0060305D03*
X0168650Y0068179D03*
X0176720Y0068179D03*
X0176720Y0076053D03*
X0168650Y0076053D03*
X0190303Y0115423D03*
X0198374Y0115423D03*
X0206051Y0115423D03*
X0214122Y0115423D03*
X0139319Y0172510D03*
X0131248Y0172510D03*
X0131248Y0182352D03*
X0139319Y0182352D03*
X0117665Y0152825D03*
X0109594Y0152825D03*
X0109594Y0144951D03*
X0117665Y0144951D03*
X0064516Y0142982D03*
X0056445Y0142982D03*
X0056445Y0135108D03*
X0064516Y0135108D03*
X0184398Y0178415D03*
X0192469Y0178415D03*
X0192469Y0186289D03*
X0184398Y0186289D03*
X0184398Y0194163D03*
X0192469Y0194163D03*
X0192272Y0231565D03*
X0184594Y0231565D03*
X0176524Y0231565D03*
X0200343Y0231565D03*
X0208020Y0231565D03*
X0216091Y0231565D03*
X0223768Y0231565D03*
X0231839Y0231565D03*
X0021209Y0221722D03*
X0013138Y0221722D03*
D12*
X0013138Y0221722D03*
X0021209Y0221722D03*
X0109594Y0152825D03*
X0117665Y0152825D03*
X0117665Y0144951D03*
X0109594Y0144951D03*
X0131248Y0172510D03*
X0139319Y0172510D03*
X0139319Y0182352D03*
X0131248Y0182352D03*
X0184398Y0178415D03*
X0192469Y0178415D03*
X0192469Y0186289D03*
X0184398Y0186289D03*
X0184398Y0194163D03*
X0192469Y0194163D03*
X0192272Y0231565D03*
X0184594Y0231565D03*
X0176524Y0231565D03*
X0200343Y0231565D03*
X0208020Y0231565D03*
X0216091Y0231565D03*
X0223768Y0231565D03*
X0231839Y0231565D03*
X0064516Y0142982D03*
X0056445Y0142982D03*
X0056445Y0135108D03*
X0064516Y0135108D03*
X0168650Y0076053D03*
X0176720Y0076053D03*
X0176720Y0068179D03*
X0168650Y0068179D03*
X0168650Y0060305D03*
X0176720Y0060305D03*
X0200146Y0030778D03*
X0208217Y0030778D03*
X0215894Y0030778D03*
X0223965Y0030778D03*
X0214122Y0115423D03*
X0206051Y0115423D03*
X0198374Y0115423D03*
X0190303Y0115423D03*
D13*
X0099850Y0166604D03*
X0064417Y0166604D03*
X0054575Y0113455D03*
X0019142Y0113455D03*
D14*
X0019142Y0113455D03*
X0054575Y0113455D03*
X0064417Y0166604D03*
X0099850Y0166604D03*
D15*
X0037409Y0208415D03*
X0182882Y0146919D03*
X0182882Y0136919D03*
X0192882Y0158730D03*
X0184457Y0211880D03*
X0210244Y0249281D03*
X0299890Y0209911D03*
X0299890Y0199911D03*
X0299890Y0146919D03*
X0299890Y0136919D03*
X0385283Y0064085D03*
X0275795Y0022904D03*
X0190244Y0013061D03*
X0185205Y0046526D03*
X0168709Y0095738D03*
X0094693Y0022904D03*
X0015205Y0084085D03*
D16*
X0015205Y0074085D03*
X0015205Y0064085D03*
X0104693Y0022904D03*
X0114693Y0022904D03*
X0124693Y0022904D03*
X0195205Y0046526D03*
X0200244Y0013061D03*
X0210244Y0013061D03*
X0285795Y0022904D03*
X0295795Y0022904D03*
X0305795Y0022904D03*
X0385283Y0074085D03*
X0385283Y0084085D03*
X0289890Y0136919D03*
X0279890Y0136919D03*
X0269890Y0136919D03*
X0269890Y0146919D03*
X0279890Y0146919D03*
X0289890Y0146919D03*
X0212882Y0146919D03*
X0202882Y0146919D03*
X0192882Y0146919D03*
X0192882Y0136919D03*
X0202882Y0136919D03*
X0212882Y0136919D03*
X0202882Y0158730D03*
X0269890Y0199911D03*
X0279890Y0199911D03*
X0289890Y0199911D03*
X0289890Y0209911D03*
X0279890Y0209911D03*
X0269890Y0209911D03*
X0214457Y0211880D03*
X0204457Y0211880D03*
X0194457Y0211880D03*
X0190244Y0249281D03*
X0200244Y0249281D03*
X0027409Y0208415D03*
X0017409Y0208415D03*
X0178709Y0095738D03*
X0188709Y0095738D03*
X0198709Y0095738D03*
D17*
X0076622Y0133140D03*
D18*
X0076622Y0133140D03*
D19*
X0099457Y0133140D03*
X0099457Y0142195D03*
X0099457Y0124085D03*
D20*
X0099457Y0124085D03*
X0099457Y0133140D03*
X0099457Y0142195D03*
D21*
X0013079Y0245344D03*
D22*
X0033079Y0245344D03*
D23*
X0060205Y0204006D03*
X0111937Y0204006D03*
D24*
X0099850Y0193337D03*
D25*
X0090008Y0193337D03*
X0082134Y0193337D03*
X0072291Y0193337D03*
D26*
X0202774Y0196132D03*
X0205274Y0196132D03*
X0207774Y0196132D03*
X0210274Y0196132D03*
X0212774Y0196132D03*
X0215274Y0196132D03*
X0217774Y0196132D03*
X0220274Y0196132D03*
X0222774Y0196132D03*
X0225274Y0196132D03*
X0225274Y0172510D03*
X0222774Y0172510D03*
X0220274Y0172510D03*
X0217774Y0172510D03*
X0215274Y0172510D03*
X0212774Y0172510D03*
X0210274Y0172510D03*
X0207774Y0172510D03*
X0205274Y0172510D03*
X0202774Y0172510D03*
D27*
X0202774Y0172510D03*
X0205274Y0172510D03*
X0207774Y0172510D03*
X0210274Y0172510D03*
X0212774Y0172510D03*
X0215274Y0172510D03*
X0217774Y0172510D03*
X0220274Y0172510D03*
X0222774Y0172510D03*
X0225274Y0172510D03*
X0225274Y0196132D03*
X0222774Y0196132D03*
X0220274Y0196132D03*
X0217774Y0196132D03*
X0215274Y0196132D03*
X0212774Y0196132D03*
X0210274Y0196132D03*
X0207774Y0196132D03*
X0205274Y0196132D03*
X0202774Y0196132D03*
D28*
X0202902Y0079990D03*
X0205461Y0079990D03*
X0208020Y0079990D03*
X0210579Y0079990D03*
X0213138Y0079990D03*
X0215697Y0079990D03*
X0218256Y0079990D03*
X0220815Y0079990D03*
X0200343Y0079990D03*
X0197783Y0079990D03*
X0195224Y0079990D03*
X0192665Y0079990D03*
X0190106Y0079990D03*
X0187547Y0079990D03*
X0187547Y0056368D03*
X0190106Y0056368D03*
X0192665Y0056368D03*
X0195224Y0056368D03*
X0197783Y0056368D03*
X0200343Y0056368D03*
X0202902Y0056368D03*
X0205461Y0056368D03*
X0208020Y0056368D03*
X0210579Y0056368D03*
X0213138Y0056368D03*
X0215697Y0056368D03*
X0218256Y0056368D03*
X0220815Y0056368D03*
D29*
X0220815Y0056368D03*
X0218256Y0056368D03*
X0215697Y0056368D03*
X0213138Y0056368D03*
X0210579Y0056368D03*
X0208020Y0056368D03*
X0205461Y0056368D03*
X0202902Y0056368D03*
X0200343Y0056368D03*
X0197783Y0056368D03*
X0195224Y0056368D03*
X0192665Y0056368D03*
X0190106Y0056368D03*
X0187547Y0056368D03*
X0187547Y0079990D03*
X0190106Y0079990D03*
X0192665Y0079990D03*
X0195224Y0079990D03*
X0197783Y0079990D03*
X0200343Y0079990D03*
X0202902Y0079990D03*
X0205461Y0079990D03*
X0208020Y0079990D03*
X0210579Y0079990D03*
X0213138Y0079990D03*
X0215697Y0079990D03*
X0218256Y0079990D03*
X0220815Y0079990D03*
D30*
X0210087Y0101644D03*
X0241583Y0101644D03*
X0257331Y0211880D03*
X0225835Y0211880D03*
D31*
X0225835Y0211880D03*
X0257331Y0211880D03*
X0241583Y0101644D03*
X0210087Y0101644D03*
D32*
X0268295Y0093514D03*
X0273295Y0093514D03*
X0278295Y0093514D03*
X0283295Y0093514D03*
X0288295Y0093514D03*
X0293295Y0093514D03*
X0298295Y0093514D03*
X0303295Y0093514D03*
X0308295Y0093514D03*
X0313295Y0093514D03*
X0313295Y0054656D03*
X0308295Y0054656D03*
X0303295Y0054656D03*
X0298295Y0054656D03*
X0293295Y0054656D03*
X0288295Y0054656D03*
X0283295Y0054656D03*
X0278295Y0054656D03*
X0273295Y0054656D03*
X0268295Y0054656D03*
X0132193Y0054656D03*
X0127193Y0054656D03*
X0122193Y0054656D03*
X0117193Y0054656D03*
X0112193Y0054656D03*
X0107193Y0054656D03*
X0102193Y0054656D03*
X0097193Y0054656D03*
X0092193Y0054656D03*
X0087193Y0054656D03*
X0087193Y0093514D03*
X0092193Y0093514D03*
X0097193Y0093514D03*
X0102193Y0093514D03*
X0107193Y0093514D03*
X0112193Y0093514D03*
X0117193Y0093514D03*
X0122193Y0093514D03*
X0127193Y0093514D03*
X0132193Y0093514D03*
D33*
X0132193Y0093514D03*
X0127193Y0093514D03*
X0122193Y0093514D03*
X0117193Y0093514D03*
X0112193Y0093514D03*
X0107193Y0093514D03*
X0102193Y0093514D03*
X0097193Y0093514D03*
X0092193Y0093514D03*
X0087193Y0093514D03*
X0087193Y0054656D03*
X0092193Y0054656D03*
X0097193Y0054656D03*
X0102193Y0054656D03*
X0107193Y0054656D03*
X0112193Y0054656D03*
X0117193Y0054656D03*
X0122193Y0054656D03*
X0127193Y0054656D03*
X0132193Y0054656D03*
X0268295Y0054656D03*
X0273295Y0054656D03*
X0278295Y0054656D03*
X0283295Y0054656D03*
X0288295Y0054656D03*
X0293295Y0054656D03*
X0298295Y0054656D03*
X0303295Y0054656D03*
X0308295Y0054656D03*
X0313295Y0054656D03*
X0313295Y0093514D03*
X0308295Y0093514D03*
X0303295Y0093514D03*
X0298295Y0093514D03*
X0293295Y0093514D03*
X0288295Y0093514D03*
X0283295Y0093514D03*
X0278295Y0093514D03*
X0273295Y0093514D03*
X0268295Y0093514D03*
D34*
X0300165Y0249281D03*
X0310165Y0249281D03*
X0320165Y0249281D03*
X0330165Y0249281D03*
X0340165Y0249281D03*
X0350165Y0249281D03*
D35*
X0360165Y0249281D03*
D36*
X0367567Y0097805D03*
X0367567Y0089734D03*
X0367567Y0082057D03*
X0367567Y0073986D03*
X0032921Y0074183D03*
X0032921Y0066112D03*
X0032921Y0058435D03*
X0032921Y0050364D03*
D37*
X0032921Y0050364D03*
X0032921Y0058435D03*
X0032921Y0066112D03*
X0032921Y0074183D03*
X0367567Y0073986D03*
X0367567Y0082057D03*
X0367567Y0089734D03*
X0367567Y0097805D03*
D38*
X0355756Y0089833D03*
X0310480Y0083927D03*
X0265205Y0117392D03*
X0282921Y0129203D03*
X0227803Y0079990D03*
X0231740Y0078022D03*
X0215992Y0070148D03*
X0215992Y0064242D03*
X0212055Y0062274D03*
X0206150Y0064242D03*
X0215992Y0036683D03*
X0263669Y0050030D03*
X0160874Y0089833D03*
X0127409Y0083927D03*
X0127409Y0062274D03*
X0093945Y0066211D03*
X0060480Y0091801D03*
X0042764Y0074085D03*
X0164811Y0125266D03*
X0217961Y0184321D03*
X0219929Y0190226D03*
X0184496Y0221722D03*
X0320323Y0204006D03*
X0320323Y0188258D03*
D39*
X0261268Y0091801D03*
X0308512Y0044557D03*
X0127409Y0044557D03*
X0082134Y0093770D03*
M02*
