G75*
%MOIN*%
%OFA0B0*%
%FSLAX25Y25*%
%IPPOS*%
%LPD*%
%AMOC8*
5,1,8,0,0,1.08239X$1,22.5*
%
%ADD10C,0.00500*%
%ADD11C,0.00000*%
D10*
X0003394Y0001250D02*
X0003394Y0261093D01*
X0397094Y0261093D01*
X0397094Y0001250D01*
X0003394Y0001250D01*
D11*
X0007331Y0013061D02*
X0007333Y0013254D01*
X0007340Y0013447D01*
X0007352Y0013640D01*
X0007369Y0013833D01*
X0007390Y0014025D01*
X0007416Y0014216D01*
X0007447Y0014407D01*
X0007482Y0014597D01*
X0007522Y0014786D01*
X0007567Y0014974D01*
X0007616Y0015161D01*
X0007670Y0015347D01*
X0007728Y0015531D01*
X0007791Y0015714D01*
X0007859Y0015895D01*
X0007930Y0016074D01*
X0008007Y0016252D01*
X0008087Y0016428D01*
X0008172Y0016601D01*
X0008261Y0016773D01*
X0008354Y0016942D01*
X0008451Y0017109D01*
X0008553Y0017274D01*
X0008658Y0017436D01*
X0008767Y0017595D01*
X0008881Y0017752D01*
X0008998Y0017905D01*
X0009118Y0018056D01*
X0009243Y0018204D01*
X0009371Y0018349D01*
X0009502Y0018490D01*
X0009637Y0018629D01*
X0009776Y0018764D01*
X0009917Y0018895D01*
X0010062Y0019023D01*
X0010210Y0019148D01*
X0010361Y0019268D01*
X0010514Y0019385D01*
X0010671Y0019499D01*
X0010830Y0019608D01*
X0010992Y0019713D01*
X0011157Y0019815D01*
X0011324Y0019912D01*
X0011493Y0020005D01*
X0011665Y0020094D01*
X0011838Y0020179D01*
X0012014Y0020259D01*
X0012192Y0020336D01*
X0012371Y0020407D01*
X0012552Y0020475D01*
X0012735Y0020538D01*
X0012919Y0020596D01*
X0013105Y0020650D01*
X0013292Y0020699D01*
X0013480Y0020744D01*
X0013669Y0020784D01*
X0013859Y0020819D01*
X0014050Y0020850D01*
X0014241Y0020876D01*
X0014433Y0020897D01*
X0014626Y0020914D01*
X0014819Y0020926D01*
X0015012Y0020933D01*
X0015205Y0020935D01*
X0015398Y0020933D01*
X0015591Y0020926D01*
X0015784Y0020914D01*
X0015977Y0020897D01*
X0016169Y0020876D01*
X0016360Y0020850D01*
X0016551Y0020819D01*
X0016741Y0020784D01*
X0016930Y0020744D01*
X0017118Y0020699D01*
X0017305Y0020650D01*
X0017491Y0020596D01*
X0017675Y0020538D01*
X0017858Y0020475D01*
X0018039Y0020407D01*
X0018218Y0020336D01*
X0018396Y0020259D01*
X0018572Y0020179D01*
X0018745Y0020094D01*
X0018917Y0020005D01*
X0019086Y0019912D01*
X0019253Y0019815D01*
X0019418Y0019713D01*
X0019580Y0019608D01*
X0019739Y0019499D01*
X0019896Y0019385D01*
X0020049Y0019268D01*
X0020200Y0019148D01*
X0020348Y0019023D01*
X0020493Y0018895D01*
X0020634Y0018764D01*
X0020773Y0018629D01*
X0020908Y0018490D01*
X0021039Y0018349D01*
X0021167Y0018204D01*
X0021292Y0018056D01*
X0021412Y0017905D01*
X0021529Y0017752D01*
X0021643Y0017595D01*
X0021752Y0017436D01*
X0021857Y0017274D01*
X0021959Y0017109D01*
X0022056Y0016942D01*
X0022149Y0016773D01*
X0022238Y0016601D01*
X0022323Y0016428D01*
X0022403Y0016252D01*
X0022480Y0016074D01*
X0022551Y0015895D01*
X0022619Y0015714D01*
X0022682Y0015531D01*
X0022740Y0015347D01*
X0022794Y0015161D01*
X0022843Y0014974D01*
X0022888Y0014786D01*
X0022928Y0014597D01*
X0022963Y0014407D01*
X0022994Y0014216D01*
X0023020Y0014025D01*
X0023041Y0013833D01*
X0023058Y0013640D01*
X0023070Y0013447D01*
X0023077Y0013254D01*
X0023079Y0013061D01*
X0023077Y0012868D01*
X0023070Y0012675D01*
X0023058Y0012482D01*
X0023041Y0012289D01*
X0023020Y0012097D01*
X0022994Y0011906D01*
X0022963Y0011715D01*
X0022928Y0011525D01*
X0022888Y0011336D01*
X0022843Y0011148D01*
X0022794Y0010961D01*
X0022740Y0010775D01*
X0022682Y0010591D01*
X0022619Y0010408D01*
X0022551Y0010227D01*
X0022480Y0010048D01*
X0022403Y0009870D01*
X0022323Y0009694D01*
X0022238Y0009521D01*
X0022149Y0009349D01*
X0022056Y0009180D01*
X0021959Y0009013D01*
X0021857Y0008848D01*
X0021752Y0008686D01*
X0021643Y0008527D01*
X0021529Y0008370D01*
X0021412Y0008217D01*
X0021292Y0008066D01*
X0021167Y0007918D01*
X0021039Y0007773D01*
X0020908Y0007632D01*
X0020773Y0007493D01*
X0020634Y0007358D01*
X0020493Y0007227D01*
X0020348Y0007099D01*
X0020200Y0006974D01*
X0020049Y0006854D01*
X0019896Y0006737D01*
X0019739Y0006623D01*
X0019580Y0006514D01*
X0019418Y0006409D01*
X0019253Y0006307D01*
X0019086Y0006210D01*
X0018917Y0006117D01*
X0018745Y0006028D01*
X0018572Y0005943D01*
X0018396Y0005863D01*
X0018218Y0005786D01*
X0018039Y0005715D01*
X0017858Y0005647D01*
X0017675Y0005584D01*
X0017491Y0005526D01*
X0017305Y0005472D01*
X0017118Y0005423D01*
X0016930Y0005378D01*
X0016741Y0005338D01*
X0016551Y0005303D01*
X0016360Y0005272D01*
X0016169Y0005246D01*
X0015977Y0005225D01*
X0015784Y0005208D01*
X0015591Y0005196D01*
X0015398Y0005189D01*
X0015205Y0005187D01*
X0015012Y0005189D01*
X0014819Y0005196D01*
X0014626Y0005208D01*
X0014433Y0005225D01*
X0014241Y0005246D01*
X0014050Y0005272D01*
X0013859Y0005303D01*
X0013669Y0005338D01*
X0013480Y0005378D01*
X0013292Y0005423D01*
X0013105Y0005472D01*
X0012919Y0005526D01*
X0012735Y0005584D01*
X0012552Y0005647D01*
X0012371Y0005715D01*
X0012192Y0005786D01*
X0012014Y0005863D01*
X0011838Y0005943D01*
X0011665Y0006028D01*
X0011493Y0006117D01*
X0011324Y0006210D01*
X0011157Y0006307D01*
X0010992Y0006409D01*
X0010830Y0006514D01*
X0010671Y0006623D01*
X0010514Y0006737D01*
X0010361Y0006854D01*
X0010210Y0006974D01*
X0010062Y0007099D01*
X0009917Y0007227D01*
X0009776Y0007358D01*
X0009637Y0007493D01*
X0009502Y0007632D01*
X0009371Y0007773D01*
X0009243Y0007918D01*
X0009118Y0008066D01*
X0008998Y0008217D01*
X0008881Y0008370D01*
X0008767Y0008527D01*
X0008658Y0008686D01*
X0008553Y0008848D01*
X0008451Y0009013D01*
X0008354Y0009180D01*
X0008261Y0009349D01*
X0008172Y0009521D01*
X0008087Y0009694D01*
X0008007Y0009870D01*
X0007930Y0010048D01*
X0007859Y0010227D01*
X0007791Y0010408D01*
X0007728Y0010591D01*
X0007670Y0010775D01*
X0007616Y0010961D01*
X0007567Y0011148D01*
X0007522Y0011336D01*
X0007482Y0011525D01*
X0007447Y0011715D01*
X0007416Y0011906D01*
X0007390Y0012097D01*
X0007369Y0012289D01*
X0007352Y0012482D01*
X0007340Y0012675D01*
X0007333Y0012868D01*
X0007331Y0013061D01*
X0139220Y0227628D02*
X0139222Y0227821D01*
X0139229Y0228014D01*
X0139241Y0228207D01*
X0139258Y0228400D01*
X0139279Y0228592D01*
X0139305Y0228783D01*
X0139336Y0228974D01*
X0139371Y0229164D01*
X0139411Y0229353D01*
X0139456Y0229541D01*
X0139505Y0229728D01*
X0139559Y0229914D01*
X0139617Y0230098D01*
X0139680Y0230281D01*
X0139748Y0230462D01*
X0139819Y0230641D01*
X0139896Y0230819D01*
X0139976Y0230995D01*
X0140061Y0231168D01*
X0140150Y0231340D01*
X0140243Y0231509D01*
X0140340Y0231676D01*
X0140442Y0231841D01*
X0140547Y0232003D01*
X0140656Y0232162D01*
X0140770Y0232319D01*
X0140887Y0232472D01*
X0141007Y0232623D01*
X0141132Y0232771D01*
X0141260Y0232916D01*
X0141391Y0233057D01*
X0141526Y0233196D01*
X0141665Y0233331D01*
X0141806Y0233462D01*
X0141951Y0233590D01*
X0142099Y0233715D01*
X0142250Y0233835D01*
X0142403Y0233952D01*
X0142560Y0234066D01*
X0142719Y0234175D01*
X0142881Y0234280D01*
X0143046Y0234382D01*
X0143213Y0234479D01*
X0143382Y0234572D01*
X0143554Y0234661D01*
X0143727Y0234746D01*
X0143903Y0234826D01*
X0144081Y0234903D01*
X0144260Y0234974D01*
X0144441Y0235042D01*
X0144624Y0235105D01*
X0144808Y0235163D01*
X0144994Y0235217D01*
X0145181Y0235266D01*
X0145369Y0235311D01*
X0145558Y0235351D01*
X0145748Y0235386D01*
X0145939Y0235417D01*
X0146130Y0235443D01*
X0146322Y0235464D01*
X0146515Y0235481D01*
X0146708Y0235493D01*
X0146901Y0235500D01*
X0147094Y0235502D01*
X0147287Y0235500D01*
X0147480Y0235493D01*
X0147673Y0235481D01*
X0147866Y0235464D01*
X0148058Y0235443D01*
X0148249Y0235417D01*
X0148440Y0235386D01*
X0148630Y0235351D01*
X0148819Y0235311D01*
X0149007Y0235266D01*
X0149194Y0235217D01*
X0149380Y0235163D01*
X0149564Y0235105D01*
X0149747Y0235042D01*
X0149928Y0234974D01*
X0150107Y0234903D01*
X0150285Y0234826D01*
X0150461Y0234746D01*
X0150634Y0234661D01*
X0150806Y0234572D01*
X0150975Y0234479D01*
X0151142Y0234382D01*
X0151307Y0234280D01*
X0151469Y0234175D01*
X0151628Y0234066D01*
X0151785Y0233952D01*
X0151938Y0233835D01*
X0152089Y0233715D01*
X0152237Y0233590D01*
X0152382Y0233462D01*
X0152523Y0233331D01*
X0152662Y0233196D01*
X0152797Y0233057D01*
X0152928Y0232916D01*
X0153056Y0232771D01*
X0153181Y0232623D01*
X0153301Y0232472D01*
X0153418Y0232319D01*
X0153532Y0232162D01*
X0153641Y0232003D01*
X0153746Y0231841D01*
X0153848Y0231676D01*
X0153945Y0231509D01*
X0154038Y0231340D01*
X0154127Y0231168D01*
X0154212Y0230995D01*
X0154292Y0230819D01*
X0154369Y0230641D01*
X0154440Y0230462D01*
X0154508Y0230281D01*
X0154571Y0230098D01*
X0154629Y0229914D01*
X0154683Y0229728D01*
X0154732Y0229541D01*
X0154777Y0229353D01*
X0154817Y0229164D01*
X0154852Y0228974D01*
X0154883Y0228783D01*
X0154909Y0228592D01*
X0154930Y0228400D01*
X0154947Y0228207D01*
X0154959Y0228014D01*
X0154966Y0227821D01*
X0154968Y0227628D01*
X0154966Y0227435D01*
X0154959Y0227242D01*
X0154947Y0227049D01*
X0154930Y0226856D01*
X0154909Y0226664D01*
X0154883Y0226473D01*
X0154852Y0226282D01*
X0154817Y0226092D01*
X0154777Y0225903D01*
X0154732Y0225715D01*
X0154683Y0225528D01*
X0154629Y0225342D01*
X0154571Y0225158D01*
X0154508Y0224975D01*
X0154440Y0224794D01*
X0154369Y0224615D01*
X0154292Y0224437D01*
X0154212Y0224261D01*
X0154127Y0224088D01*
X0154038Y0223916D01*
X0153945Y0223747D01*
X0153848Y0223580D01*
X0153746Y0223415D01*
X0153641Y0223253D01*
X0153532Y0223094D01*
X0153418Y0222937D01*
X0153301Y0222784D01*
X0153181Y0222633D01*
X0153056Y0222485D01*
X0152928Y0222340D01*
X0152797Y0222199D01*
X0152662Y0222060D01*
X0152523Y0221925D01*
X0152382Y0221794D01*
X0152237Y0221666D01*
X0152089Y0221541D01*
X0151938Y0221421D01*
X0151785Y0221304D01*
X0151628Y0221190D01*
X0151469Y0221081D01*
X0151307Y0220976D01*
X0151142Y0220874D01*
X0150975Y0220777D01*
X0150806Y0220684D01*
X0150634Y0220595D01*
X0150461Y0220510D01*
X0150285Y0220430D01*
X0150107Y0220353D01*
X0149928Y0220282D01*
X0149747Y0220214D01*
X0149564Y0220151D01*
X0149380Y0220093D01*
X0149194Y0220039D01*
X0149007Y0219990D01*
X0148819Y0219945D01*
X0148630Y0219905D01*
X0148440Y0219870D01*
X0148249Y0219839D01*
X0148058Y0219813D01*
X0147866Y0219792D01*
X0147673Y0219775D01*
X0147480Y0219763D01*
X0147287Y0219756D01*
X0147094Y0219754D01*
X0146901Y0219756D01*
X0146708Y0219763D01*
X0146515Y0219775D01*
X0146322Y0219792D01*
X0146130Y0219813D01*
X0145939Y0219839D01*
X0145748Y0219870D01*
X0145558Y0219905D01*
X0145369Y0219945D01*
X0145181Y0219990D01*
X0144994Y0220039D01*
X0144808Y0220093D01*
X0144624Y0220151D01*
X0144441Y0220214D01*
X0144260Y0220282D01*
X0144081Y0220353D01*
X0143903Y0220430D01*
X0143727Y0220510D01*
X0143554Y0220595D01*
X0143382Y0220684D01*
X0143213Y0220777D01*
X0143046Y0220874D01*
X0142881Y0220976D01*
X0142719Y0221081D01*
X0142560Y0221190D01*
X0142403Y0221304D01*
X0142250Y0221421D01*
X0142099Y0221541D01*
X0141951Y0221666D01*
X0141806Y0221794D01*
X0141665Y0221925D01*
X0141526Y0222060D01*
X0141391Y0222199D01*
X0141260Y0222340D01*
X0141132Y0222485D01*
X0141007Y0222633D01*
X0140887Y0222784D01*
X0140770Y0222937D01*
X0140656Y0223094D01*
X0140547Y0223253D01*
X0140442Y0223415D01*
X0140340Y0223580D01*
X0140243Y0223747D01*
X0140150Y0223916D01*
X0140061Y0224088D01*
X0139976Y0224261D01*
X0139896Y0224437D01*
X0139819Y0224615D01*
X0139748Y0224794D01*
X0139680Y0224975D01*
X0139617Y0225158D01*
X0139559Y0225342D01*
X0139505Y0225528D01*
X0139456Y0225715D01*
X0139411Y0225903D01*
X0139371Y0226092D01*
X0139336Y0226282D01*
X0139305Y0226473D01*
X0139279Y0226664D01*
X0139258Y0226856D01*
X0139241Y0227049D01*
X0139229Y0227242D01*
X0139222Y0227435D01*
X0139220Y0227628D01*
X0377409Y0249281D02*
X0377411Y0249474D01*
X0377418Y0249667D01*
X0377430Y0249860D01*
X0377447Y0250053D01*
X0377468Y0250245D01*
X0377494Y0250436D01*
X0377525Y0250627D01*
X0377560Y0250817D01*
X0377600Y0251006D01*
X0377645Y0251194D01*
X0377694Y0251381D01*
X0377748Y0251567D01*
X0377806Y0251751D01*
X0377869Y0251934D01*
X0377937Y0252115D01*
X0378008Y0252294D01*
X0378085Y0252472D01*
X0378165Y0252648D01*
X0378250Y0252821D01*
X0378339Y0252993D01*
X0378432Y0253162D01*
X0378529Y0253329D01*
X0378631Y0253494D01*
X0378736Y0253656D01*
X0378845Y0253815D01*
X0378959Y0253972D01*
X0379076Y0254125D01*
X0379196Y0254276D01*
X0379321Y0254424D01*
X0379449Y0254569D01*
X0379580Y0254710D01*
X0379715Y0254849D01*
X0379854Y0254984D01*
X0379995Y0255115D01*
X0380140Y0255243D01*
X0380288Y0255368D01*
X0380439Y0255488D01*
X0380592Y0255605D01*
X0380749Y0255719D01*
X0380908Y0255828D01*
X0381070Y0255933D01*
X0381235Y0256035D01*
X0381402Y0256132D01*
X0381571Y0256225D01*
X0381743Y0256314D01*
X0381916Y0256399D01*
X0382092Y0256479D01*
X0382270Y0256556D01*
X0382449Y0256627D01*
X0382630Y0256695D01*
X0382813Y0256758D01*
X0382997Y0256816D01*
X0383183Y0256870D01*
X0383370Y0256919D01*
X0383558Y0256964D01*
X0383747Y0257004D01*
X0383937Y0257039D01*
X0384128Y0257070D01*
X0384319Y0257096D01*
X0384511Y0257117D01*
X0384704Y0257134D01*
X0384897Y0257146D01*
X0385090Y0257153D01*
X0385283Y0257155D01*
X0385476Y0257153D01*
X0385669Y0257146D01*
X0385862Y0257134D01*
X0386055Y0257117D01*
X0386247Y0257096D01*
X0386438Y0257070D01*
X0386629Y0257039D01*
X0386819Y0257004D01*
X0387008Y0256964D01*
X0387196Y0256919D01*
X0387383Y0256870D01*
X0387569Y0256816D01*
X0387753Y0256758D01*
X0387936Y0256695D01*
X0388117Y0256627D01*
X0388296Y0256556D01*
X0388474Y0256479D01*
X0388650Y0256399D01*
X0388823Y0256314D01*
X0388995Y0256225D01*
X0389164Y0256132D01*
X0389331Y0256035D01*
X0389496Y0255933D01*
X0389658Y0255828D01*
X0389817Y0255719D01*
X0389974Y0255605D01*
X0390127Y0255488D01*
X0390278Y0255368D01*
X0390426Y0255243D01*
X0390571Y0255115D01*
X0390712Y0254984D01*
X0390851Y0254849D01*
X0390986Y0254710D01*
X0391117Y0254569D01*
X0391245Y0254424D01*
X0391370Y0254276D01*
X0391490Y0254125D01*
X0391607Y0253972D01*
X0391721Y0253815D01*
X0391830Y0253656D01*
X0391935Y0253494D01*
X0392037Y0253329D01*
X0392134Y0253162D01*
X0392227Y0252993D01*
X0392316Y0252821D01*
X0392401Y0252648D01*
X0392481Y0252472D01*
X0392558Y0252294D01*
X0392629Y0252115D01*
X0392697Y0251934D01*
X0392760Y0251751D01*
X0392818Y0251567D01*
X0392872Y0251381D01*
X0392921Y0251194D01*
X0392966Y0251006D01*
X0393006Y0250817D01*
X0393041Y0250627D01*
X0393072Y0250436D01*
X0393098Y0250245D01*
X0393119Y0250053D01*
X0393136Y0249860D01*
X0393148Y0249667D01*
X0393155Y0249474D01*
X0393157Y0249281D01*
X0393155Y0249088D01*
X0393148Y0248895D01*
X0393136Y0248702D01*
X0393119Y0248509D01*
X0393098Y0248317D01*
X0393072Y0248126D01*
X0393041Y0247935D01*
X0393006Y0247745D01*
X0392966Y0247556D01*
X0392921Y0247368D01*
X0392872Y0247181D01*
X0392818Y0246995D01*
X0392760Y0246811D01*
X0392697Y0246628D01*
X0392629Y0246447D01*
X0392558Y0246268D01*
X0392481Y0246090D01*
X0392401Y0245914D01*
X0392316Y0245741D01*
X0392227Y0245569D01*
X0392134Y0245400D01*
X0392037Y0245233D01*
X0391935Y0245068D01*
X0391830Y0244906D01*
X0391721Y0244747D01*
X0391607Y0244590D01*
X0391490Y0244437D01*
X0391370Y0244286D01*
X0391245Y0244138D01*
X0391117Y0243993D01*
X0390986Y0243852D01*
X0390851Y0243713D01*
X0390712Y0243578D01*
X0390571Y0243447D01*
X0390426Y0243319D01*
X0390278Y0243194D01*
X0390127Y0243074D01*
X0389974Y0242957D01*
X0389817Y0242843D01*
X0389658Y0242734D01*
X0389496Y0242629D01*
X0389331Y0242527D01*
X0389164Y0242430D01*
X0388995Y0242337D01*
X0388823Y0242248D01*
X0388650Y0242163D01*
X0388474Y0242083D01*
X0388296Y0242006D01*
X0388117Y0241935D01*
X0387936Y0241867D01*
X0387753Y0241804D01*
X0387569Y0241746D01*
X0387383Y0241692D01*
X0387196Y0241643D01*
X0387008Y0241598D01*
X0386819Y0241558D01*
X0386629Y0241523D01*
X0386438Y0241492D01*
X0386247Y0241466D01*
X0386055Y0241445D01*
X0385862Y0241428D01*
X0385669Y0241416D01*
X0385476Y0241409D01*
X0385283Y0241407D01*
X0385090Y0241409D01*
X0384897Y0241416D01*
X0384704Y0241428D01*
X0384511Y0241445D01*
X0384319Y0241466D01*
X0384128Y0241492D01*
X0383937Y0241523D01*
X0383747Y0241558D01*
X0383558Y0241598D01*
X0383370Y0241643D01*
X0383183Y0241692D01*
X0382997Y0241746D01*
X0382813Y0241804D01*
X0382630Y0241867D01*
X0382449Y0241935D01*
X0382270Y0242006D01*
X0382092Y0242083D01*
X0381916Y0242163D01*
X0381743Y0242248D01*
X0381571Y0242337D01*
X0381402Y0242430D01*
X0381235Y0242527D01*
X0381070Y0242629D01*
X0380908Y0242734D01*
X0380749Y0242843D01*
X0380592Y0242957D01*
X0380439Y0243074D01*
X0380288Y0243194D01*
X0380140Y0243319D01*
X0379995Y0243447D01*
X0379854Y0243578D01*
X0379715Y0243713D01*
X0379580Y0243852D01*
X0379449Y0243993D01*
X0379321Y0244138D01*
X0379196Y0244286D01*
X0379076Y0244437D01*
X0378959Y0244590D01*
X0378845Y0244747D01*
X0378736Y0244906D01*
X0378631Y0245068D01*
X0378529Y0245233D01*
X0378432Y0245400D01*
X0378339Y0245569D01*
X0378250Y0245741D01*
X0378165Y0245914D01*
X0378085Y0246090D01*
X0378008Y0246268D01*
X0377937Y0246447D01*
X0377869Y0246628D01*
X0377806Y0246811D01*
X0377748Y0246995D01*
X0377694Y0247181D01*
X0377645Y0247368D01*
X0377600Y0247556D01*
X0377560Y0247745D01*
X0377525Y0247935D01*
X0377494Y0248126D01*
X0377468Y0248317D01*
X0377447Y0248509D01*
X0377430Y0248702D01*
X0377418Y0248895D01*
X0377411Y0249088D01*
X0377409Y0249281D01*
X0377409Y0013061D02*
X0377411Y0013254D01*
X0377418Y0013447D01*
X0377430Y0013640D01*
X0377447Y0013833D01*
X0377468Y0014025D01*
X0377494Y0014216D01*
X0377525Y0014407D01*
X0377560Y0014597D01*
X0377600Y0014786D01*
X0377645Y0014974D01*
X0377694Y0015161D01*
X0377748Y0015347D01*
X0377806Y0015531D01*
X0377869Y0015714D01*
X0377937Y0015895D01*
X0378008Y0016074D01*
X0378085Y0016252D01*
X0378165Y0016428D01*
X0378250Y0016601D01*
X0378339Y0016773D01*
X0378432Y0016942D01*
X0378529Y0017109D01*
X0378631Y0017274D01*
X0378736Y0017436D01*
X0378845Y0017595D01*
X0378959Y0017752D01*
X0379076Y0017905D01*
X0379196Y0018056D01*
X0379321Y0018204D01*
X0379449Y0018349D01*
X0379580Y0018490D01*
X0379715Y0018629D01*
X0379854Y0018764D01*
X0379995Y0018895D01*
X0380140Y0019023D01*
X0380288Y0019148D01*
X0380439Y0019268D01*
X0380592Y0019385D01*
X0380749Y0019499D01*
X0380908Y0019608D01*
X0381070Y0019713D01*
X0381235Y0019815D01*
X0381402Y0019912D01*
X0381571Y0020005D01*
X0381743Y0020094D01*
X0381916Y0020179D01*
X0382092Y0020259D01*
X0382270Y0020336D01*
X0382449Y0020407D01*
X0382630Y0020475D01*
X0382813Y0020538D01*
X0382997Y0020596D01*
X0383183Y0020650D01*
X0383370Y0020699D01*
X0383558Y0020744D01*
X0383747Y0020784D01*
X0383937Y0020819D01*
X0384128Y0020850D01*
X0384319Y0020876D01*
X0384511Y0020897D01*
X0384704Y0020914D01*
X0384897Y0020926D01*
X0385090Y0020933D01*
X0385283Y0020935D01*
X0385476Y0020933D01*
X0385669Y0020926D01*
X0385862Y0020914D01*
X0386055Y0020897D01*
X0386247Y0020876D01*
X0386438Y0020850D01*
X0386629Y0020819D01*
X0386819Y0020784D01*
X0387008Y0020744D01*
X0387196Y0020699D01*
X0387383Y0020650D01*
X0387569Y0020596D01*
X0387753Y0020538D01*
X0387936Y0020475D01*
X0388117Y0020407D01*
X0388296Y0020336D01*
X0388474Y0020259D01*
X0388650Y0020179D01*
X0388823Y0020094D01*
X0388995Y0020005D01*
X0389164Y0019912D01*
X0389331Y0019815D01*
X0389496Y0019713D01*
X0389658Y0019608D01*
X0389817Y0019499D01*
X0389974Y0019385D01*
X0390127Y0019268D01*
X0390278Y0019148D01*
X0390426Y0019023D01*
X0390571Y0018895D01*
X0390712Y0018764D01*
X0390851Y0018629D01*
X0390986Y0018490D01*
X0391117Y0018349D01*
X0391245Y0018204D01*
X0391370Y0018056D01*
X0391490Y0017905D01*
X0391607Y0017752D01*
X0391721Y0017595D01*
X0391830Y0017436D01*
X0391935Y0017274D01*
X0392037Y0017109D01*
X0392134Y0016942D01*
X0392227Y0016773D01*
X0392316Y0016601D01*
X0392401Y0016428D01*
X0392481Y0016252D01*
X0392558Y0016074D01*
X0392629Y0015895D01*
X0392697Y0015714D01*
X0392760Y0015531D01*
X0392818Y0015347D01*
X0392872Y0015161D01*
X0392921Y0014974D01*
X0392966Y0014786D01*
X0393006Y0014597D01*
X0393041Y0014407D01*
X0393072Y0014216D01*
X0393098Y0014025D01*
X0393119Y0013833D01*
X0393136Y0013640D01*
X0393148Y0013447D01*
X0393155Y0013254D01*
X0393157Y0013061D01*
X0393155Y0012868D01*
X0393148Y0012675D01*
X0393136Y0012482D01*
X0393119Y0012289D01*
X0393098Y0012097D01*
X0393072Y0011906D01*
X0393041Y0011715D01*
X0393006Y0011525D01*
X0392966Y0011336D01*
X0392921Y0011148D01*
X0392872Y0010961D01*
X0392818Y0010775D01*
X0392760Y0010591D01*
X0392697Y0010408D01*
X0392629Y0010227D01*
X0392558Y0010048D01*
X0392481Y0009870D01*
X0392401Y0009694D01*
X0392316Y0009521D01*
X0392227Y0009349D01*
X0392134Y0009180D01*
X0392037Y0009013D01*
X0391935Y0008848D01*
X0391830Y0008686D01*
X0391721Y0008527D01*
X0391607Y0008370D01*
X0391490Y0008217D01*
X0391370Y0008066D01*
X0391245Y0007918D01*
X0391117Y0007773D01*
X0390986Y0007632D01*
X0390851Y0007493D01*
X0390712Y0007358D01*
X0390571Y0007227D01*
X0390426Y0007099D01*
X0390278Y0006974D01*
X0390127Y0006854D01*
X0389974Y0006737D01*
X0389817Y0006623D01*
X0389658Y0006514D01*
X0389496Y0006409D01*
X0389331Y0006307D01*
X0389164Y0006210D01*
X0388995Y0006117D01*
X0388823Y0006028D01*
X0388650Y0005943D01*
X0388474Y0005863D01*
X0388296Y0005786D01*
X0388117Y0005715D01*
X0387936Y0005647D01*
X0387753Y0005584D01*
X0387569Y0005526D01*
X0387383Y0005472D01*
X0387196Y0005423D01*
X0387008Y0005378D01*
X0386819Y0005338D01*
X0386629Y0005303D01*
X0386438Y0005272D01*
X0386247Y0005246D01*
X0386055Y0005225D01*
X0385862Y0005208D01*
X0385669Y0005196D01*
X0385476Y0005189D01*
X0385283Y0005187D01*
X0385090Y0005189D01*
X0384897Y0005196D01*
X0384704Y0005208D01*
X0384511Y0005225D01*
X0384319Y0005246D01*
X0384128Y0005272D01*
X0383937Y0005303D01*
X0383747Y0005338D01*
X0383558Y0005378D01*
X0383370Y0005423D01*
X0383183Y0005472D01*
X0382997Y0005526D01*
X0382813Y0005584D01*
X0382630Y0005647D01*
X0382449Y0005715D01*
X0382270Y0005786D01*
X0382092Y0005863D01*
X0381916Y0005943D01*
X0381743Y0006028D01*
X0381571Y0006117D01*
X0381402Y0006210D01*
X0381235Y0006307D01*
X0381070Y0006409D01*
X0380908Y0006514D01*
X0380749Y0006623D01*
X0380592Y0006737D01*
X0380439Y0006854D01*
X0380288Y0006974D01*
X0380140Y0007099D01*
X0379995Y0007227D01*
X0379854Y0007358D01*
X0379715Y0007493D01*
X0379580Y0007632D01*
X0379449Y0007773D01*
X0379321Y0007918D01*
X0379196Y0008066D01*
X0379076Y0008217D01*
X0378959Y0008370D01*
X0378845Y0008527D01*
X0378736Y0008686D01*
X0378631Y0008848D01*
X0378529Y0009013D01*
X0378432Y0009180D01*
X0378339Y0009349D01*
X0378250Y0009521D01*
X0378165Y0009694D01*
X0378085Y0009870D01*
X0378008Y0010048D01*
X0377937Y0010227D01*
X0377869Y0010408D01*
X0377806Y0010591D01*
X0377748Y0010775D01*
X0377694Y0010961D01*
X0377645Y0011148D01*
X0377600Y0011336D01*
X0377560Y0011525D01*
X0377525Y0011715D01*
X0377494Y0011906D01*
X0377468Y0012097D01*
X0377447Y0012289D01*
X0377430Y0012482D01*
X0377418Y0012675D01*
X0377411Y0012868D01*
X0377409Y0013061D01*
M02*
