G75*
%MOIN*%
%OFA0B0*%
%FSLAX25Y25*%
%IPPOS*%
%LPD*%
%AMOC8*
5,1,8,0,0,1.08239X$1,22.5*
%
%ADD10C,0.16548*%
%ADD11R,0.06737X0.06737*%
%ADD12OC8,0.06737*%
%ADD13R,0.11548X0.11548*%
%ADD14OC8,0.11548*%
%ADD15C,0.13855*%
%ADD16R,0.06422X0.06422*%
%ADD17C,0.06422*%
%ADD18OC8,0.06343*%
%ADD19R,0.06343X0.06343*%
%ADD20C,0.04369*%
%ADD21C,0.05156*%
D10*
X0015205Y0013061D03*
X0147094Y0227628D03*
X0385283Y0249281D03*
X0385283Y0013061D03*
D11*
X0385283Y0064085D03*
X0299890Y0136919D03*
X0299890Y0146919D03*
X0299890Y0199911D03*
X0299890Y0209911D03*
X0210244Y0249281D03*
X0184457Y0211880D03*
X0192882Y0158730D03*
X0182882Y0146919D03*
X0182882Y0136919D03*
X0168709Y0095738D03*
X0185205Y0046526D03*
X0190244Y0013061D03*
X0275795Y0022904D03*
X0094693Y0022904D03*
X0015205Y0084085D03*
X0037409Y0208415D03*
D12*
X0027409Y0208415D03*
X0017409Y0208415D03*
X0178709Y0095738D03*
X0188709Y0095738D03*
X0198709Y0095738D03*
X0202882Y0136919D03*
X0192882Y0136919D03*
X0192882Y0146919D03*
X0202882Y0146919D03*
X0212882Y0146919D03*
X0212882Y0136919D03*
X0202882Y0158730D03*
X0269890Y0146919D03*
X0279890Y0146919D03*
X0289890Y0146919D03*
X0289890Y0136919D03*
X0279890Y0136919D03*
X0269890Y0136919D03*
X0269890Y0199911D03*
X0279890Y0199911D03*
X0289890Y0199911D03*
X0289890Y0209911D03*
X0279890Y0209911D03*
X0269890Y0209911D03*
X0214457Y0211880D03*
X0204457Y0211880D03*
X0194457Y0211880D03*
X0190244Y0249281D03*
X0200244Y0249281D03*
X0385283Y0084085D03*
X0385283Y0074085D03*
X0305795Y0022904D03*
X0295795Y0022904D03*
X0285795Y0022904D03*
X0210244Y0013061D03*
X0200244Y0013061D03*
X0195205Y0046526D03*
X0124693Y0022904D03*
X0114693Y0022904D03*
X0104693Y0022904D03*
X0015205Y0064085D03*
X0015205Y0074085D03*
D13*
X0013079Y0245344D03*
D14*
X0033079Y0245344D03*
D15*
X0060205Y0204006D03*
X0111937Y0204006D03*
D16*
X0099850Y0193337D03*
D17*
X0090008Y0193337D03*
X0082134Y0193337D03*
X0072291Y0193337D03*
D18*
X0300165Y0249281D03*
X0310165Y0249281D03*
X0320165Y0249281D03*
X0330165Y0249281D03*
X0340165Y0249281D03*
X0350165Y0249281D03*
D19*
X0360165Y0249281D03*
D20*
X0320323Y0204006D03*
X0320323Y0188258D03*
X0282921Y0129203D03*
X0265205Y0117392D03*
X0310480Y0083927D03*
X0355756Y0089833D03*
X0263669Y0050030D03*
X0231740Y0078022D03*
X0227803Y0079990D03*
X0215992Y0070148D03*
X0215992Y0064242D03*
X0212055Y0062274D03*
X0206150Y0064242D03*
X0215992Y0036683D03*
X0160874Y0089833D03*
X0127409Y0083927D03*
X0127409Y0062274D03*
X0093945Y0066211D03*
X0060480Y0091801D03*
X0042764Y0074085D03*
X0164811Y0125266D03*
X0217961Y0184321D03*
X0219929Y0190226D03*
X0184496Y0221722D03*
D21*
X0082134Y0093770D03*
X0127409Y0044557D03*
X0261268Y0091801D03*
X0308512Y0044557D03*
M02*
