%
M48
M72
T01C0.01969
T02C0.02756
T03C0.03543
T04C0.03622
T05C0.03937
T06C0.07165
T07C0.09055
T08C0.15748
%
T01
X93945Y66211
X127409Y62274
X127409Y83927
X160874Y89833
X206150Y64242
X212055Y62274
X215992Y64242
X215992Y70148
X227803Y79990
X231740Y78022
X263669Y50030
X215992Y36683
X310480Y83927
X355756Y89833
X282921Y129203
X265205Y117392
X217961Y184321
X219929Y190226
X184496Y221722
X320323Y204006
X320323Y188258
X164811Y125266
X60480Y91801
X42764Y74085
T02
X82134Y93770
X127409Y44557
X261268Y91801
X308512Y44557
T03
X310165Y249281
X300165Y249281
X320165Y249281
X330165Y249281
X340165Y249281
X350165Y249281
X360165Y249281
T04
X99850Y193337
X90008Y193337
X82134Y193337
X72291Y193337
T05
X37409Y208415
X27409Y208415
X17409Y208415
X182882Y146919
X192882Y146919
X202882Y146919
X212882Y146919
X212882Y136919
X202882Y136919
X192882Y136919
X182882Y136919
X192882Y158730
X202882Y158730
X269890Y146919
X279890Y146919
X289890Y146919
X299890Y146919
X299890Y136919
X289890Y136919
X279890Y136919
X269890Y136919
X198709Y95738
X188709Y95738
X178709Y95738
X168709Y95738
X185205Y46526
X195205Y46526
X190244Y13061
X200244Y13061
X210244Y13061
X275795Y22904
X285795Y22904
X295795Y22904
X305795Y22904
X385283Y64085
X385283Y74085
X385283Y84085
X299890Y199911
X289890Y199911
X279890Y199911
X269890Y199911
X269890Y209911
X279890Y209911
X289890Y209911
X299890Y209911
X214457Y211880
X204457Y211880
X194457Y211880
X184457Y211880
X190244Y249281
X200244Y249281
X210244Y249281
X15205Y84085
X15205Y74085
X15205Y64085
X94693Y22904
X104693Y22904
X114693Y22904
X124693Y22904
T06
X33079Y245344
X13079Y245344
T07
X60205Y204006
X111937Y204006
T08
X15205Y13061
X147094Y227628
X385283Y249281
X385283Y13061
M30
