G75*
%MOIN*%
%OFA0B0*%
%FSLAX25Y25*%
%IPPOS*%
%LPD*%
%AMOC8*
5,1,8,0,0,1.08239X$1,22.5*
%
%ADD10C,0.00500*%
%ADD11C,0.00000*%
%ADD12C,0.00300*%
%ADD13C,0.00400*%
%ADD14C,0.01600*%
D10*
X0014113Y0032580D02*
X0014113Y0203840D01*
X0163719Y0203840D01*
X0163719Y0032580D01*
X0014113Y0032580D01*
X0016081Y0034549D02*
X0016081Y0050297D01*
X0051515Y0050297D01*
X0051515Y0034549D01*
X0016081Y0034549D01*
X0016475Y0062502D02*
X0043247Y0062502D01*
X0043247Y0077462D01*
X0016475Y0077462D01*
X0016475Y0062502D01*
X0031830Y0087698D02*
X0031830Y0111321D01*
X0055452Y0111321D01*
X0055452Y0087698D01*
X0031830Y0087698D01*
X0045609Y0077856D02*
X0045609Y0062108D01*
X0053483Y0062108D01*
X0053483Y0077856D01*
X0045609Y0077856D01*
X0055452Y0077856D02*
X0055452Y0062108D01*
X0063326Y0062108D01*
X0063326Y0077856D01*
X0055452Y0077856D01*
X0061357Y0060927D02*
X0045609Y0060927D01*
X0045609Y0053053D01*
X0061357Y0053053D01*
X0061357Y0060927D01*
X0075373Y0045533D02*
X0130491Y0045533D01*
X0130491Y0037659D01*
X0075373Y0037659D01*
X0075373Y0045533D01*
X0091869Y0052423D02*
X0115491Y0052423D01*
X0115491Y0091006D01*
X0091869Y0091006D01*
X0091869Y0052423D01*
X0095567Y0088643D02*
X0095569Y0088718D01*
X0095575Y0088793D01*
X0095585Y0088867D01*
X0095599Y0088941D01*
X0095616Y0089014D01*
X0095638Y0089085D01*
X0095663Y0089156D01*
X0095692Y0089225D01*
X0095724Y0089293D01*
X0095760Y0089358D01*
X0095800Y0089422D01*
X0095843Y0089484D01*
X0095889Y0089543D01*
X0095938Y0089600D01*
X0095990Y0089654D01*
X0096044Y0089705D01*
X0096102Y0089753D01*
X0096161Y0089798D01*
X0096224Y0089840D01*
X0096288Y0089879D01*
X0096354Y0089914D01*
X0096422Y0089946D01*
X0096492Y0089974D01*
X0096562Y0089998D01*
X0096635Y0090019D01*
X0096708Y0090035D01*
X0096782Y0090048D01*
X0096856Y0090057D01*
X0096931Y0090062D01*
X0097006Y0090063D01*
X0097081Y0090060D01*
X0097155Y0090053D01*
X0097229Y0090042D01*
X0097303Y0090027D01*
X0097376Y0090009D01*
X0097447Y0089986D01*
X0097517Y0089960D01*
X0097586Y0089930D01*
X0097653Y0089897D01*
X0097719Y0089860D01*
X0097782Y0089820D01*
X0097843Y0089776D01*
X0097901Y0089729D01*
X0097957Y0089680D01*
X0098011Y0089627D01*
X0098061Y0089572D01*
X0098109Y0089514D01*
X0098153Y0089453D01*
X0098194Y0089391D01*
X0098232Y0089326D01*
X0098266Y0089259D01*
X0098297Y0089191D01*
X0098324Y0089121D01*
X0098348Y0089050D01*
X0098367Y0088977D01*
X0098383Y0088904D01*
X0098395Y0088830D01*
X0098403Y0088755D01*
X0098407Y0088680D01*
X0098407Y0088606D01*
X0098403Y0088531D01*
X0098395Y0088456D01*
X0098383Y0088382D01*
X0098367Y0088309D01*
X0098348Y0088236D01*
X0098324Y0088165D01*
X0098297Y0088095D01*
X0098266Y0088027D01*
X0098232Y0087960D01*
X0098194Y0087895D01*
X0098153Y0087833D01*
X0098109Y0087772D01*
X0098061Y0087714D01*
X0098011Y0087659D01*
X0097957Y0087606D01*
X0097901Y0087557D01*
X0097843Y0087510D01*
X0097782Y0087466D01*
X0097719Y0087426D01*
X0097653Y0087389D01*
X0097586Y0087356D01*
X0097517Y0087326D01*
X0097447Y0087300D01*
X0097376Y0087277D01*
X0097303Y0087259D01*
X0097229Y0087244D01*
X0097155Y0087233D01*
X0097081Y0087226D01*
X0097006Y0087223D01*
X0096931Y0087224D01*
X0096856Y0087229D01*
X0096782Y0087238D01*
X0096708Y0087251D01*
X0096635Y0087267D01*
X0096562Y0087288D01*
X0096492Y0087312D01*
X0096422Y0087340D01*
X0096354Y0087372D01*
X0096288Y0087407D01*
X0096224Y0087446D01*
X0096161Y0087488D01*
X0096102Y0087533D01*
X0096044Y0087581D01*
X0095990Y0087632D01*
X0095938Y0087686D01*
X0095889Y0087743D01*
X0095843Y0087802D01*
X0095800Y0087864D01*
X0095760Y0087928D01*
X0095724Y0087993D01*
X0095692Y0088061D01*
X0095663Y0088130D01*
X0095638Y0088201D01*
X0095616Y0088272D01*
X0095599Y0088345D01*
X0095585Y0088419D01*
X0095575Y0088493D01*
X0095569Y0088568D01*
X0095567Y0088643D01*
X0101908Y0093604D02*
X0101908Y0101478D01*
X0086160Y0101478D01*
X0086160Y0093604D01*
X0101908Y0093604D01*
X0101908Y0103446D02*
X0101908Y0111321D01*
X0086160Y0111321D01*
X0086160Y0103446D01*
X0101908Y0103446D01*
X0101908Y0113289D02*
X0101908Y0121163D01*
X0086160Y0121163D01*
X0086160Y0113289D01*
X0101908Y0113289D01*
X0112538Y0131006D02*
X0112538Y0182187D01*
X0144034Y0182187D01*
X0144034Y0131006D01*
X0112538Y0131006D01*
X0124349Y0109352D02*
X0124349Y0069982D01*
X0132223Y0069982D01*
X0132223Y0109352D01*
X0124349Y0109352D01*
X0134192Y0085730D02*
X0134192Y0069982D01*
X0142066Y0069982D01*
X0142066Y0085730D01*
X0134192Y0085730D01*
X0144034Y0085730D02*
X0151908Y0085730D01*
X0151908Y0069982D01*
X0144034Y0069982D01*
X0144034Y0085730D01*
X0144034Y0089667D02*
X0144034Y0109352D01*
X0151908Y0109352D01*
X0151908Y0089667D01*
X0144034Y0089667D01*
X0148877Y0066439D02*
X0135176Y0066439D01*
X0135176Y0038565D01*
X0148877Y0038565D01*
X0148877Y0066439D01*
X0065294Y0131006D02*
X0033798Y0131006D01*
X0033798Y0182187D01*
X0065294Y0182187D01*
X0065294Y0131006D01*
X0037023Y0179234D02*
X0037025Y0179311D01*
X0037031Y0179388D01*
X0037041Y0179465D01*
X0037055Y0179541D01*
X0037072Y0179616D01*
X0037094Y0179690D01*
X0037119Y0179763D01*
X0037148Y0179834D01*
X0037181Y0179904D01*
X0037217Y0179972D01*
X0037257Y0180039D01*
X0037300Y0180103D01*
X0037347Y0180164D01*
X0037396Y0180224D01*
X0037448Y0180280D01*
X0037504Y0180334D01*
X0037562Y0180385D01*
X0037622Y0180433D01*
X0037685Y0180478D01*
X0037750Y0180519D01*
X0037818Y0180557D01*
X0037887Y0180592D01*
X0037957Y0180623D01*
X0038030Y0180650D01*
X0038103Y0180673D01*
X0038178Y0180693D01*
X0038253Y0180709D01*
X0038330Y0180721D01*
X0038406Y0180729D01*
X0038483Y0180733D01*
X0038561Y0180733D01*
X0038638Y0180729D01*
X0038714Y0180721D01*
X0038791Y0180709D01*
X0038866Y0180693D01*
X0038941Y0180673D01*
X0039014Y0180650D01*
X0039087Y0180623D01*
X0039157Y0180592D01*
X0039226Y0180557D01*
X0039294Y0180519D01*
X0039359Y0180478D01*
X0039422Y0180433D01*
X0039482Y0180385D01*
X0039540Y0180334D01*
X0039596Y0180280D01*
X0039648Y0180224D01*
X0039697Y0180164D01*
X0039744Y0180103D01*
X0039787Y0180039D01*
X0039827Y0179972D01*
X0039863Y0179904D01*
X0039896Y0179834D01*
X0039925Y0179763D01*
X0039950Y0179690D01*
X0039972Y0179616D01*
X0039989Y0179541D01*
X0040003Y0179465D01*
X0040013Y0179388D01*
X0040019Y0179311D01*
X0040021Y0179234D01*
X0040019Y0179157D01*
X0040013Y0179080D01*
X0040003Y0179003D01*
X0039989Y0178927D01*
X0039972Y0178852D01*
X0039950Y0178778D01*
X0039925Y0178705D01*
X0039896Y0178634D01*
X0039863Y0178564D01*
X0039827Y0178496D01*
X0039787Y0178429D01*
X0039744Y0178365D01*
X0039697Y0178304D01*
X0039648Y0178244D01*
X0039596Y0178188D01*
X0039540Y0178134D01*
X0039482Y0178083D01*
X0039422Y0178035D01*
X0039359Y0177990D01*
X0039294Y0177949D01*
X0039226Y0177911D01*
X0039157Y0177876D01*
X0039087Y0177845D01*
X0039014Y0177818D01*
X0038941Y0177795D01*
X0038866Y0177775D01*
X0038791Y0177759D01*
X0038714Y0177747D01*
X0038638Y0177739D01*
X0038561Y0177735D01*
X0038483Y0177735D01*
X0038406Y0177739D01*
X0038330Y0177747D01*
X0038253Y0177759D01*
X0038178Y0177775D01*
X0038103Y0177795D01*
X0038030Y0177818D01*
X0037957Y0177845D01*
X0037887Y0177876D01*
X0037818Y0177911D01*
X0037750Y0177949D01*
X0037685Y0177990D01*
X0037622Y0178035D01*
X0037562Y0178083D01*
X0037504Y0178134D01*
X0037448Y0178188D01*
X0037396Y0178244D01*
X0037347Y0178304D01*
X0037300Y0178365D01*
X0037257Y0178429D01*
X0037217Y0178496D01*
X0037181Y0178564D01*
X0037148Y0178634D01*
X0037119Y0178705D01*
X0037094Y0178778D01*
X0037072Y0178852D01*
X0037055Y0178927D01*
X0037041Y0179003D01*
X0037031Y0179080D01*
X0037025Y0179157D01*
X0037023Y0179234D01*
X0029861Y0193998D02*
X0069231Y0193998D01*
X0069231Y0201872D01*
X0029861Y0201872D01*
X0029861Y0193998D01*
X0108601Y0193998D02*
X0147971Y0193998D01*
X0147971Y0201872D01*
X0108601Y0201872D01*
X0108601Y0193998D01*
X0115764Y0179234D02*
X0115766Y0179311D01*
X0115772Y0179388D01*
X0115782Y0179465D01*
X0115796Y0179541D01*
X0115813Y0179616D01*
X0115835Y0179690D01*
X0115860Y0179763D01*
X0115889Y0179834D01*
X0115922Y0179904D01*
X0115958Y0179972D01*
X0115998Y0180039D01*
X0116041Y0180103D01*
X0116088Y0180164D01*
X0116137Y0180224D01*
X0116189Y0180280D01*
X0116245Y0180334D01*
X0116303Y0180385D01*
X0116363Y0180433D01*
X0116426Y0180478D01*
X0116491Y0180519D01*
X0116559Y0180557D01*
X0116628Y0180592D01*
X0116698Y0180623D01*
X0116771Y0180650D01*
X0116844Y0180673D01*
X0116919Y0180693D01*
X0116994Y0180709D01*
X0117071Y0180721D01*
X0117147Y0180729D01*
X0117224Y0180733D01*
X0117302Y0180733D01*
X0117379Y0180729D01*
X0117455Y0180721D01*
X0117532Y0180709D01*
X0117607Y0180693D01*
X0117682Y0180673D01*
X0117755Y0180650D01*
X0117828Y0180623D01*
X0117898Y0180592D01*
X0117967Y0180557D01*
X0118035Y0180519D01*
X0118100Y0180478D01*
X0118163Y0180433D01*
X0118223Y0180385D01*
X0118281Y0180334D01*
X0118337Y0180280D01*
X0118389Y0180224D01*
X0118438Y0180164D01*
X0118485Y0180103D01*
X0118528Y0180039D01*
X0118568Y0179972D01*
X0118604Y0179904D01*
X0118637Y0179834D01*
X0118666Y0179763D01*
X0118691Y0179690D01*
X0118713Y0179616D01*
X0118730Y0179541D01*
X0118744Y0179465D01*
X0118754Y0179388D01*
X0118760Y0179311D01*
X0118762Y0179234D01*
X0118760Y0179157D01*
X0118754Y0179080D01*
X0118744Y0179003D01*
X0118730Y0178927D01*
X0118713Y0178852D01*
X0118691Y0178778D01*
X0118666Y0178705D01*
X0118637Y0178634D01*
X0118604Y0178564D01*
X0118568Y0178496D01*
X0118528Y0178429D01*
X0118485Y0178365D01*
X0118438Y0178304D01*
X0118389Y0178244D01*
X0118337Y0178188D01*
X0118281Y0178134D01*
X0118223Y0178083D01*
X0118163Y0178035D01*
X0118100Y0177990D01*
X0118035Y0177949D01*
X0117967Y0177911D01*
X0117898Y0177876D01*
X0117828Y0177845D01*
X0117755Y0177818D01*
X0117682Y0177795D01*
X0117607Y0177775D01*
X0117532Y0177759D01*
X0117455Y0177747D01*
X0117379Y0177739D01*
X0117302Y0177735D01*
X0117224Y0177735D01*
X0117147Y0177739D01*
X0117071Y0177747D01*
X0116994Y0177759D01*
X0116919Y0177775D01*
X0116844Y0177795D01*
X0116771Y0177818D01*
X0116698Y0177845D01*
X0116628Y0177876D01*
X0116559Y0177911D01*
X0116491Y0177949D01*
X0116426Y0177990D01*
X0116363Y0178035D01*
X0116303Y0178083D01*
X0116245Y0178134D01*
X0116189Y0178188D01*
X0116137Y0178244D01*
X0116088Y0178304D01*
X0116041Y0178365D01*
X0115998Y0178429D01*
X0115958Y0178496D01*
X0115922Y0178564D01*
X0115889Y0178634D01*
X0115860Y0178705D01*
X0115835Y0178778D01*
X0115813Y0178852D01*
X0115796Y0178927D01*
X0115782Y0179003D01*
X0115772Y0179080D01*
X0115766Y0179157D01*
X0115764Y0179234D01*
D11*
X0083011Y0193998D02*
X0083013Y0194191D01*
X0083020Y0194384D01*
X0083032Y0194577D01*
X0083049Y0194770D01*
X0083070Y0194962D01*
X0083096Y0195153D01*
X0083127Y0195344D01*
X0083162Y0195534D01*
X0083202Y0195723D01*
X0083247Y0195911D01*
X0083296Y0196098D01*
X0083350Y0196284D01*
X0083408Y0196468D01*
X0083471Y0196651D01*
X0083539Y0196832D01*
X0083610Y0197011D01*
X0083687Y0197189D01*
X0083767Y0197365D01*
X0083852Y0197538D01*
X0083941Y0197710D01*
X0084034Y0197879D01*
X0084131Y0198046D01*
X0084233Y0198211D01*
X0084338Y0198373D01*
X0084447Y0198532D01*
X0084561Y0198689D01*
X0084678Y0198842D01*
X0084798Y0198993D01*
X0084923Y0199141D01*
X0085051Y0199286D01*
X0085182Y0199427D01*
X0085317Y0199566D01*
X0085456Y0199701D01*
X0085597Y0199832D01*
X0085742Y0199960D01*
X0085890Y0200085D01*
X0086041Y0200205D01*
X0086194Y0200322D01*
X0086351Y0200436D01*
X0086510Y0200545D01*
X0086672Y0200650D01*
X0086837Y0200752D01*
X0087004Y0200849D01*
X0087173Y0200942D01*
X0087345Y0201031D01*
X0087518Y0201116D01*
X0087694Y0201196D01*
X0087872Y0201273D01*
X0088051Y0201344D01*
X0088232Y0201412D01*
X0088415Y0201475D01*
X0088599Y0201533D01*
X0088785Y0201587D01*
X0088972Y0201636D01*
X0089160Y0201681D01*
X0089349Y0201721D01*
X0089539Y0201756D01*
X0089730Y0201787D01*
X0089921Y0201813D01*
X0090113Y0201834D01*
X0090306Y0201851D01*
X0090499Y0201863D01*
X0090692Y0201870D01*
X0090885Y0201872D01*
X0091078Y0201870D01*
X0091271Y0201863D01*
X0091464Y0201851D01*
X0091657Y0201834D01*
X0091849Y0201813D01*
X0092040Y0201787D01*
X0092231Y0201756D01*
X0092421Y0201721D01*
X0092610Y0201681D01*
X0092798Y0201636D01*
X0092985Y0201587D01*
X0093171Y0201533D01*
X0093355Y0201475D01*
X0093538Y0201412D01*
X0093719Y0201344D01*
X0093898Y0201273D01*
X0094076Y0201196D01*
X0094252Y0201116D01*
X0094425Y0201031D01*
X0094597Y0200942D01*
X0094766Y0200849D01*
X0094933Y0200752D01*
X0095098Y0200650D01*
X0095260Y0200545D01*
X0095419Y0200436D01*
X0095576Y0200322D01*
X0095729Y0200205D01*
X0095880Y0200085D01*
X0096028Y0199960D01*
X0096173Y0199832D01*
X0096314Y0199701D01*
X0096453Y0199566D01*
X0096588Y0199427D01*
X0096719Y0199286D01*
X0096847Y0199141D01*
X0096972Y0198993D01*
X0097092Y0198842D01*
X0097209Y0198689D01*
X0097323Y0198532D01*
X0097432Y0198373D01*
X0097537Y0198211D01*
X0097639Y0198046D01*
X0097736Y0197879D01*
X0097829Y0197710D01*
X0097918Y0197538D01*
X0098003Y0197365D01*
X0098083Y0197189D01*
X0098160Y0197011D01*
X0098231Y0196832D01*
X0098299Y0196651D01*
X0098362Y0196468D01*
X0098420Y0196284D01*
X0098474Y0196098D01*
X0098523Y0195911D01*
X0098568Y0195723D01*
X0098608Y0195534D01*
X0098643Y0195344D01*
X0098674Y0195153D01*
X0098700Y0194962D01*
X0098721Y0194770D01*
X0098738Y0194577D01*
X0098750Y0194384D01*
X0098757Y0194191D01*
X0098759Y0193998D01*
X0098757Y0193805D01*
X0098750Y0193612D01*
X0098738Y0193419D01*
X0098721Y0193226D01*
X0098700Y0193034D01*
X0098674Y0192843D01*
X0098643Y0192652D01*
X0098608Y0192462D01*
X0098568Y0192273D01*
X0098523Y0192085D01*
X0098474Y0191898D01*
X0098420Y0191712D01*
X0098362Y0191528D01*
X0098299Y0191345D01*
X0098231Y0191164D01*
X0098160Y0190985D01*
X0098083Y0190807D01*
X0098003Y0190631D01*
X0097918Y0190458D01*
X0097829Y0190286D01*
X0097736Y0190117D01*
X0097639Y0189950D01*
X0097537Y0189785D01*
X0097432Y0189623D01*
X0097323Y0189464D01*
X0097209Y0189307D01*
X0097092Y0189154D01*
X0096972Y0189003D01*
X0096847Y0188855D01*
X0096719Y0188710D01*
X0096588Y0188569D01*
X0096453Y0188430D01*
X0096314Y0188295D01*
X0096173Y0188164D01*
X0096028Y0188036D01*
X0095880Y0187911D01*
X0095729Y0187791D01*
X0095576Y0187674D01*
X0095419Y0187560D01*
X0095260Y0187451D01*
X0095098Y0187346D01*
X0094933Y0187244D01*
X0094766Y0187147D01*
X0094597Y0187054D01*
X0094425Y0186965D01*
X0094252Y0186880D01*
X0094076Y0186800D01*
X0093898Y0186723D01*
X0093719Y0186652D01*
X0093538Y0186584D01*
X0093355Y0186521D01*
X0093171Y0186463D01*
X0092985Y0186409D01*
X0092798Y0186360D01*
X0092610Y0186315D01*
X0092421Y0186275D01*
X0092231Y0186240D01*
X0092040Y0186209D01*
X0091849Y0186183D01*
X0091657Y0186162D01*
X0091464Y0186145D01*
X0091271Y0186133D01*
X0091078Y0186126D01*
X0090885Y0186124D01*
X0090692Y0186126D01*
X0090499Y0186133D01*
X0090306Y0186145D01*
X0090113Y0186162D01*
X0089921Y0186183D01*
X0089730Y0186209D01*
X0089539Y0186240D01*
X0089349Y0186275D01*
X0089160Y0186315D01*
X0088972Y0186360D01*
X0088785Y0186409D01*
X0088599Y0186463D01*
X0088415Y0186521D01*
X0088232Y0186584D01*
X0088051Y0186652D01*
X0087872Y0186723D01*
X0087694Y0186800D01*
X0087518Y0186880D01*
X0087345Y0186965D01*
X0087173Y0187054D01*
X0087004Y0187147D01*
X0086837Y0187244D01*
X0086672Y0187346D01*
X0086510Y0187451D01*
X0086351Y0187560D01*
X0086194Y0187674D01*
X0086041Y0187791D01*
X0085890Y0187911D01*
X0085742Y0188036D01*
X0085597Y0188164D01*
X0085456Y0188295D01*
X0085317Y0188430D01*
X0085182Y0188569D01*
X0085051Y0188710D01*
X0084923Y0188855D01*
X0084798Y0189003D01*
X0084678Y0189154D01*
X0084561Y0189307D01*
X0084447Y0189464D01*
X0084338Y0189623D01*
X0084233Y0189785D01*
X0084131Y0189950D01*
X0084034Y0190117D01*
X0083941Y0190286D01*
X0083852Y0190458D01*
X0083767Y0190631D01*
X0083687Y0190807D01*
X0083610Y0190985D01*
X0083539Y0191164D01*
X0083471Y0191345D01*
X0083408Y0191528D01*
X0083350Y0191712D01*
X0083296Y0191898D01*
X0083247Y0192085D01*
X0083202Y0192273D01*
X0083162Y0192462D01*
X0083127Y0192652D01*
X0083096Y0192843D01*
X0083070Y0193034D01*
X0083049Y0193226D01*
X0083032Y0193419D01*
X0083020Y0193612D01*
X0083013Y0193805D01*
X0083011Y0193998D01*
X0023956Y0120376D02*
X0023958Y0120569D01*
X0023965Y0120762D01*
X0023977Y0120955D01*
X0023994Y0121148D01*
X0024015Y0121340D01*
X0024041Y0121531D01*
X0024072Y0121722D01*
X0024107Y0121912D01*
X0024147Y0122101D01*
X0024192Y0122289D01*
X0024241Y0122476D01*
X0024295Y0122662D01*
X0024353Y0122846D01*
X0024416Y0123029D01*
X0024484Y0123210D01*
X0024555Y0123389D01*
X0024632Y0123567D01*
X0024712Y0123743D01*
X0024797Y0123916D01*
X0024886Y0124088D01*
X0024979Y0124257D01*
X0025076Y0124424D01*
X0025178Y0124589D01*
X0025283Y0124751D01*
X0025392Y0124910D01*
X0025506Y0125067D01*
X0025623Y0125220D01*
X0025743Y0125371D01*
X0025868Y0125519D01*
X0025996Y0125664D01*
X0026127Y0125805D01*
X0026262Y0125944D01*
X0026401Y0126079D01*
X0026542Y0126210D01*
X0026687Y0126338D01*
X0026835Y0126463D01*
X0026986Y0126583D01*
X0027139Y0126700D01*
X0027296Y0126814D01*
X0027455Y0126923D01*
X0027617Y0127028D01*
X0027782Y0127130D01*
X0027949Y0127227D01*
X0028118Y0127320D01*
X0028290Y0127409D01*
X0028463Y0127494D01*
X0028639Y0127574D01*
X0028817Y0127651D01*
X0028996Y0127722D01*
X0029177Y0127790D01*
X0029360Y0127853D01*
X0029544Y0127911D01*
X0029730Y0127965D01*
X0029917Y0128014D01*
X0030105Y0128059D01*
X0030294Y0128099D01*
X0030484Y0128134D01*
X0030675Y0128165D01*
X0030866Y0128191D01*
X0031058Y0128212D01*
X0031251Y0128229D01*
X0031444Y0128241D01*
X0031637Y0128248D01*
X0031830Y0128250D01*
X0032023Y0128248D01*
X0032216Y0128241D01*
X0032409Y0128229D01*
X0032602Y0128212D01*
X0032794Y0128191D01*
X0032985Y0128165D01*
X0033176Y0128134D01*
X0033366Y0128099D01*
X0033555Y0128059D01*
X0033743Y0128014D01*
X0033930Y0127965D01*
X0034116Y0127911D01*
X0034300Y0127853D01*
X0034483Y0127790D01*
X0034664Y0127722D01*
X0034843Y0127651D01*
X0035021Y0127574D01*
X0035197Y0127494D01*
X0035370Y0127409D01*
X0035542Y0127320D01*
X0035711Y0127227D01*
X0035878Y0127130D01*
X0036043Y0127028D01*
X0036205Y0126923D01*
X0036364Y0126814D01*
X0036521Y0126700D01*
X0036674Y0126583D01*
X0036825Y0126463D01*
X0036973Y0126338D01*
X0037118Y0126210D01*
X0037259Y0126079D01*
X0037398Y0125944D01*
X0037533Y0125805D01*
X0037664Y0125664D01*
X0037792Y0125519D01*
X0037917Y0125371D01*
X0038037Y0125220D01*
X0038154Y0125067D01*
X0038268Y0124910D01*
X0038377Y0124751D01*
X0038482Y0124589D01*
X0038584Y0124424D01*
X0038681Y0124257D01*
X0038774Y0124088D01*
X0038863Y0123916D01*
X0038948Y0123743D01*
X0039028Y0123567D01*
X0039105Y0123389D01*
X0039176Y0123210D01*
X0039244Y0123029D01*
X0039307Y0122846D01*
X0039365Y0122662D01*
X0039419Y0122476D01*
X0039468Y0122289D01*
X0039513Y0122101D01*
X0039553Y0121912D01*
X0039588Y0121722D01*
X0039619Y0121531D01*
X0039645Y0121340D01*
X0039666Y0121148D01*
X0039683Y0120955D01*
X0039695Y0120762D01*
X0039702Y0120569D01*
X0039704Y0120376D01*
X0039702Y0120183D01*
X0039695Y0119990D01*
X0039683Y0119797D01*
X0039666Y0119604D01*
X0039645Y0119412D01*
X0039619Y0119221D01*
X0039588Y0119030D01*
X0039553Y0118840D01*
X0039513Y0118651D01*
X0039468Y0118463D01*
X0039419Y0118276D01*
X0039365Y0118090D01*
X0039307Y0117906D01*
X0039244Y0117723D01*
X0039176Y0117542D01*
X0039105Y0117363D01*
X0039028Y0117185D01*
X0038948Y0117009D01*
X0038863Y0116836D01*
X0038774Y0116664D01*
X0038681Y0116495D01*
X0038584Y0116328D01*
X0038482Y0116163D01*
X0038377Y0116001D01*
X0038268Y0115842D01*
X0038154Y0115685D01*
X0038037Y0115532D01*
X0037917Y0115381D01*
X0037792Y0115233D01*
X0037664Y0115088D01*
X0037533Y0114947D01*
X0037398Y0114808D01*
X0037259Y0114673D01*
X0037118Y0114542D01*
X0036973Y0114414D01*
X0036825Y0114289D01*
X0036674Y0114169D01*
X0036521Y0114052D01*
X0036364Y0113938D01*
X0036205Y0113829D01*
X0036043Y0113724D01*
X0035878Y0113622D01*
X0035711Y0113525D01*
X0035542Y0113432D01*
X0035370Y0113343D01*
X0035197Y0113258D01*
X0035021Y0113178D01*
X0034843Y0113101D01*
X0034664Y0113030D01*
X0034483Y0112962D01*
X0034300Y0112899D01*
X0034116Y0112841D01*
X0033930Y0112787D01*
X0033743Y0112738D01*
X0033555Y0112693D01*
X0033366Y0112653D01*
X0033176Y0112618D01*
X0032985Y0112587D01*
X0032794Y0112561D01*
X0032602Y0112540D01*
X0032409Y0112523D01*
X0032216Y0112511D01*
X0032023Y0112504D01*
X0031830Y0112502D01*
X0031637Y0112504D01*
X0031444Y0112511D01*
X0031251Y0112523D01*
X0031058Y0112540D01*
X0030866Y0112561D01*
X0030675Y0112587D01*
X0030484Y0112618D01*
X0030294Y0112653D01*
X0030105Y0112693D01*
X0029917Y0112738D01*
X0029730Y0112787D01*
X0029544Y0112841D01*
X0029360Y0112899D01*
X0029177Y0112962D01*
X0028996Y0113030D01*
X0028817Y0113101D01*
X0028639Y0113178D01*
X0028463Y0113258D01*
X0028290Y0113343D01*
X0028118Y0113432D01*
X0027949Y0113525D01*
X0027782Y0113622D01*
X0027617Y0113724D01*
X0027455Y0113829D01*
X0027296Y0113938D01*
X0027139Y0114052D01*
X0026986Y0114169D01*
X0026835Y0114289D01*
X0026687Y0114414D01*
X0026542Y0114542D01*
X0026401Y0114673D01*
X0026262Y0114808D01*
X0026127Y0114947D01*
X0025996Y0115088D01*
X0025868Y0115233D01*
X0025743Y0115381D01*
X0025623Y0115532D01*
X0025506Y0115685D01*
X0025392Y0115842D01*
X0025283Y0116001D01*
X0025178Y0116163D01*
X0025076Y0116328D01*
X0024979Y0116495D01*
X0024886Y0116664D01*
X0024797Y0116836D01*
X0024712Y0117009D01*
X0024632Y0117185D01*
X0024555Y0117363D01*
X0024484Y0117542D01*
X0024416Y0117723D01*
X0024353Y0117906D01*
X0024295Y0118090D01*
X0024241Y0118276D01*
X0024192Y0118463D01*
X0024147Y0118651D01*
X0024107Y0118840D01*
X0024072Y0119030D01*
X0024041Y0119221D01*
X0024015Y0119412D01*
X0023994Y0119604D01*
X0023977Y0119797D01*
X0023965Y0119990D01*
X0023958Y0120183D01*
X0023956Y0120376D01*
X0055452Y0041635D02*
X0055454Y0041828D01*
X0055461Y0042021D01*
X0055473Y0042214D01*
X0055490Y0042407D01*
X0055511Y0042599D01*
X0055537Y0042790D01*
X0055568Y0042981D01*
X0055603Y0043171D01*
X0055643Y0043360D01*
X0055688Y0043548D01*
X0055737Y0043735D01*
X0055791Y0043921D01*
X0055849Y0044105D01*
X0055912Y0044288D01*
X0055980Y0044469D01*
X0056051Y0044648D01*
X0056128Y0044826D01*
X0056208Y0045002D01*
X0056293Y0045175D01*
X0056382Y0045347D01*
X0056475Y0045516D01*
X0056572Y0045683D01*
X0056674Y0045848D01*
X0056779Y0046010D01*
X0056888Y0046169D01*
X0057002Y0046326D01*
X0057119Y0046479D01*
X0057239Y0046630D01*
X0057364Y0046778D01*
X0057492Y0046923D01*
X0057623Y0047064D01*
X0057758Y0047203D01*
X0057897Y0047338D01*
X0058038Y0047469D01*
X0058183Y0047597D01*
X0058331Y0047722D01*
X0058482Y0047842D01*
X0058635Y0047959D01*
X0058792Y0048073D01*
X0058951Y0048182D01*
X0059113Y0048287D01*
X0059278Y0048389D01*
X0059445Y0048486D01*
X0059614Y0048579D01*
X0059786Y0048668D01*
X0059959Y0048753D01*
X0060135Y0048833D01*
X0060313Y0048910D01*
X0060492Y0048981D01*
X0060673Y0049049D01*
X0060856Y0049112D01*
X0061040Y0049170D01*
X0061226Y0049224D01*
X0061413Y0049273D01*
X0061601Y0049318D01*
X0061790Y0049358D01*
X0061980Y0049393D01*
X0062171Y0049424D01*
X0062362Y0049450D01*
X0062554Y0049471D01*
X0062747Y0049488D01*
X0062940Y0049500D01*
X0063133Y0049507D01*
X0063326Y0049509D01*
X0063519Y0049507D01*
X0063712Y0049500D01*
X0063905Y0049488D01*
X0064098Y0049471D01*
X0064290Y0049450D01*
X0064481Y0049424D01*
X0064672Y0049393D01*
X0064862Y0049358D01*
X0065051Y0049318D01*
X0065239Y0049273D01*
X0065426Y0049224D01*
X0065612Y0049170D01*
X0065796Y0049112D01*
X0065979Y0049049D01*
X0066160Y0048981D01*
X0066339Y0048910D01*
X0066517Y0048833D01*
X0066693Y0048753D01*
X0066866Y0048668D01*
X0067038Y0048579D01*
X0067207Y0048486D01*
X0067374Y0048389D01*
X0067539Y0048287D01*
X0067701Y0048182D01*
X0067860Y0048073D01*
X0068017Y0047959D01*
X0068170Y0047842D01*
X0068321Y0047722D01*
X0068469Y0047597D01*
X0068614Y0047469D01*
X0068755Y0047338D01*
X0068894Y0047203D01*
X0069029Y0047064D01*
X0069160Y0046923D01*
X0069288Y0046778D01*
X0069413Y0046630D01*
X0069533Y0046479D01*
X0069650Y0046326D01*
X0069764Y0046169D01*
X0069873Y0046010D01*
X0069978Y0045848D01*
X0070080Y0045683D01*
X0070177Y0045516D01*
X0070270Y0045347D01*
X0070359Y0045175D01*
X0070444Y0045002D01*
X0070524Y0044826D01*
X0070601Y0044648D01*
X0070672Y0044469D01*
X0070740Y0044288D01*
X0070803Y0044105D01*
X0070861Y0043921D01*
X0070915Y0043735D01*
X0070964Y0043548D01*
X0071009Y0043360D01*
X0071049Y0043171D01*
X0071084Y0042981D01*
X0071115Y0042790D01*
X0071141Y0042599D01*
X0071162Y0042407D01*
X0071179Y0042214D01*
X0071191Y0042021D01*
X0071198Y0041828D01*
X0071200Y0041635D01*
X0071198Y0041442D01*
X0071191Y0041249D01*
X0071179Y0041056D01*
X0071162Y0040863D01*
X0071141Y0040671D01*
X0071115Y0040480D01*
X0071084Y0040289D01*
X0071049Y0040099D01*
X0071009Y0039910D01*
X0070964Y0039722D01*
X0070915Y0039535D01*
X0070861Y0039349D01*
X0070803Y0039165D01*
X0070740Y0038982D01*
X0070672Y0038801D01*
X0070601Y0038622D01*
X0070524Y0038444D01*
X0070444Y0038268D01*
X0070359Y0038095D01*
X0070270Y0037923D01*
X0070177Y0037754D01*
X0070080Y0037587D01*
X0069978Y0037422D01*
X0069873Y0037260D01*
X0069764Y0037101D01*
X0069650Y0036944D01*
X0069533Y0036791D01*
X0069413Y0036640D01*
X0069288Y0036492D01*
X0069160Y0036347D01*
X0069029Y0036206D01*
X0068894Y0036067D01*
X0068755Y0035932D01*
X0068614Y0035801D01*
X0068469Y0035673D01*
X0068321Y0035548D01*
X0068170Y0035428D01*
X0068017Y0035311D01*
X0067860Y0035197D01*
X0067701Y0035088D01*
X0067539Y0034983D01*
X0067374Y0034881D01*
X0067207Y0034784D01*
X0067038Y0034691D01*
X0066866Y0034602D01*
X0066693Y0034517D01*
X0066517Y0034437D01*
X0066339Y0034360D01*
X0066160Y0034289D01*
X0065979Y0034221D01*
X0065796Y0034158D01*
X0065612Y0034100D01*
X0065426Y0034046D01*
X0065239Y0033997D01*
X0065051Y0033952D01*
X0064862Y0033912D01*
X0064672Y0033877D01*
X0064481Y0033846D01*
X0064290Y0033820D01*
X0064098Y0033799D01*
X0063905Y0033782D01*
X0063712Y0033770D01*
X0063519Y0033763D01*
X0063326Y0033761D01*
X0063133Y0033763D01*
X0062940Y0033770D01*
X0062747Y0033782D01*
X0062554Y0033799D01*
X0062362Y0033820D01*
X0062171Y0033846D01*
X0061980Y0033877D01*
X0061790Y0033912D01*
X0061601Y0033952D01*
X0061413Y0033997D01*
X0061226Y0034046D01*
X0061040Y0034100D01*
X0060856Y0034158D01*
X0060673Y0034221D01*
X0060492Y0034289D01*
X0060313Y0034360D01*
X0060135Y0034437D01*
X0059959Y0034517D01*
X0059786Y0034602D01*
X0059614Y0034691D01*
X0059445Y0034784D01*
X0059278Y0034881D01*
X0059113Y0034983D01*
X0058951Y0035088D01*
X0058792Y0035197D01*
X0058635Y0035311D01*
X0058482Y0035428D01*
X0058331Y0035548D01*
X0058183Y0035673D01*
X0058038Y0035801D01*
X0057897Y0035932D01*
X0057758Y0036067D01*
X0057623Y0036206D01*
X0057492Y0036347D01*
X0057364Y0036492D01*
X0057239Y0036640D01*
X0057119Y0036791D01*
X0057002Y0036944D01*
X0056888Y0037101D01*
X0056779Y0037260D01*
X0056674Y0037422D01*
X0056572Y0037587D01*
X0056475Y0037754D01*
X0056382Y0037923D01*
X0056293Y0038095D01*
X0056208Y0038268D01*
X0056128Y0038444D01*
X0056051Y0038622D01*
X0055980Y0038801D01*
X0055912Y0038982D01*
X0055849Y0039165D01*
X0055791Y0039349D01*
X0055737Y0039535D01*
X0055688Y0039722D01*
X0055643Y0039910D01*
X0055603Y0040099D01*
X0055568Y0040289D01*
X0055537Y0040480D01*
X0055511Y0040671D01*
X0055490Y0040863D01*
X0055473Y0041056D01*
X0055461Y0041249D01*
X0055454Y0041442D01*
X0055452Y0041635D01*
X0146003Y0119982D02*
X0146005Y0120175D01*
X0146012Y0120368D01*
X0146024Y0120561D01*
X0146041Y0120754D01*
X0146062Y0120946D01*
X0146088Y0121137D01*
X0146119Y0121328D01*
X0146154Y0121518D01*
X0146194Y0121707D01*
X0146239Y0121895D01*
X0146288Y0122082D01*
X0146342Y0122268D01*
X0146400Y0122452D01*
X0146463Y0122635D01*
X0146531Y0122816D01*
X0146602Y0122995D01*
X0146679Y0123173D01*
X0146759Y0123349D01*
X0146844Y0123522D01*
X0146933Y0123694D01*
X0147026Y0123863D01*
X0147123Y0124030D01*
X0147225Y0124195D01*
X0147330Y0124357D01*
X0147439Y0124516D01*
X0147553Y0124673D01*
X0147670Y0124826D01*
X0147790Y0124977D01*
X0147915Y0125125D01*
X0148043Y0125270D01*
X0148174Y0125411D01*
X0148309Y0125550D01*
X0148448Y0125685D01*
X0148589Y0125816D01*
X0148734Y0125944D01*
X0148882Y0126069D01*
X0149033Y0126189D01*
X0149186Y0126306D01*
X0149343Y0126420D01*
X0149502Y0126529D01*
X0149664Y0126634D01*
X0149829Y0126736D01*
X0149996Y0126833D01*
X0150165Y0126926D01*
X0150337Y0127015D01*
X0150510Y0127100D01*
X0150686Y0127180D01*
X0150864Y0127257D01*
X0151043Y0127328D01*
X0151224Y0127396D01*
X0151407Y0127459D01*
X0151591Y0127517D01*
X0151777Y0127571D01*
X0151964Y0127620D01*
X0152152Y0127665D01*
X0152341Y0127705D01*
X0152531Y0127740D01*
X0152722Y0127771D01*
X0152913Y0127797D01*
X0153105Y0127818D01*
X0153298Y0127835D01*
X0153491Y0127847D01*
X0153684Y0127854D01*
X0153877Y0127856D01*
X0154070Y0127854D01*
X0154263Y0127847D01*
X0154456Y0127835D01*
X0154649Y0127818D01*
X0154841Y0127797D01*
X0155032Y0127771D01*
X0155223Y0127740D01*
X0155413Y0127705D01*
X0155602Y0127665D01*
X0155790Y0127620D01*
X0155977Y0127571D01*
X0156163Y0127517D01*
X0156347Y0127459D01*
X0156530Y0127396D01*
X0156711Y0127328D01*
X0156890Y0127257D01*
X0157068Y0127180D01*
X0157244Y0127100D01*
X0157417Y0127015D01*
X0157589Y0126926D01*
X0157758Y0126833D01*
X0157925Y0126736D01*
X0158090Y0126634D01*
X0158252Y0126529D01*
X0158411Y0126420D01*
X0158568Y0126306D01*
X0158721Y0126189D01*
X0158872Y0126069D01*
X0159020Y0125944D01*
X0159165Y0125816D01*
X0159306Y0125685D01*
X0159445Y0125550D01*
X0159580Y0125411D01*
X0159711Y0125270D01*
X0159839Y0125125D01*
X0159964Y0124977D01*
X0160084Y0124826D01*
X0160201Y0124673D01*
X0160315Y0124516D01*
X0160424Y0124357D01*
X0160529Y0124195D01*
X0160631Y0124030D01*
X0160728Y0123863D01*
X0160821Y0123694D01*
X0160910Y0123522D01*
X0160995Y0123349D01*
X0161075Y0123173D01*
X0161152Y0122995D01*
X0161223Y0122816D01*
X0161291Y0122635D01*
X0161354Y0122452D01*
X0161412Y0122268D01*
X0161466Y0122082D01*
X0161515Y0121895D01*
X0161560Y0121707D01*
X0161600Y0121518D01*
X0161635Y0121328D01*
X0161666Y0121137D01*
X0161692Y0120946D01*
X0161713Y0120754D01*
X0161730Y0120561D01*
X0161742Y0120368D01*
X0161749Y0120175D01*
X0161751Y0119982D01*
X0161749Y0119789D01*
X0161742Y0119596D01*
X0161730Y0119403D01*
X0161713Y0119210D01*
X0161692Y0119018D01*
X0161666Y0118827D01*
X0161635Y0118636D01*
X0161600Y0118446D01*
X0161560Y0118257D01*
X0161515Y0118069D01*
X0161466Y0117882D01*
X0161412Y0117696D01*
X0161354Y0117512D01*
X0161291Y0117329D01*
X0161223Y0117148D01*
X0161152Y0116969D01*
X0161075Y0116791D01*
X0160995Y0116615D01*
X0160910Y0116442D01*
X0160821Y0116270D01*
X0160728Y0116101D01*
X0160631Y0115934D01*
X0160529Y0115769D01*
X0160424Y0115607D01*
X0160315Y0115448D01*
X0160201Y0115291D01*
X0160084Y0115138D01*
X0159964Y0114987D01*
X0159839Y0114839D01*
X0159711Y0114694D01*
X0159580Y0114553D01*
X0159445Y0114414D01*
X0159306Y0114279D01*
X0159165Y0114148D01*
X0159020Y0114020D01*
X0158872Y0113895D01*
X0158721Y0113775D01*
X0158568Y0113658D01*
X0158411Y0113544D01*
X0158252Y0113435D01*
X0158090Y0113330D01*
X0157925Y0113228D01*
X0157758Y0113131D01*
X0157589Y0113038D01*
X0157417Y0112949D01*
X0157244Y0112864D01*
X0157068Y0112784D01*
X0156890Y0112707D01*
X0156711Y0112636D01*
X0156530Y0112568D01*
X0156347Y0112505D01*
X0156163Y0112447D01*
X0155977Y0112393D01*
X0155790Y0112344D01*
X0155602Y0112299D01*
X0155413Y0112259D01*
X0155223Y0112224D01*
X0155032Y0112193D01*
X0154841Y0112167D01*
X0154649Y0112146D01*
X0154456Y0112129D01*
X0154263Y0112117D01*
X0154070Y0112110D01*
X0153877Y0112108D01*
X0153684Y0112110D01*
X0153491Y0112117D01*
X0153298Y0112129D01*
X0153105Y0112146D01*
X0152913Y0112167D01*
X0152722Y0112193D01*
X0152531Y0112224D01*
X0152341Y0112259D01*
X0152152Y0112299D01*
X0151964Y0112344D01*
X0151777Y0112393D01*
X0151591Y0112447D01*
X0151407Y0112505D01*
X0151224Y0112568D01*
X0151043Y0112636D01*
X0150864Y0112707D01*
X0150686Y0112784D01*
X0150510Y0112864D01*
X0150337Y0112949D01*
X0150165Y0113038D01*
X0149996Y0113131D01*
X0149829Y0113228D01*
X0149664Y0113330D01*
X0149502Y0113435D01*
X0149343Y0113544D01*
X0149186Y0113658D01*
X0149033Y0113775D01*
X0148882Y0113895D01*
X0148734Y0114020D01*
X0148589Y0114148D01*
X0148448Y0114279D01*
X0148309Y0114414D01*
X0148174Y0114553D01*
X0148043Y0114694D01*
X0147915Y0114839D01*
X0147790Y0114987D01*
X0147670Y0115138D01*
X0147553Y0115291D01*
X0147439Y0115448D01*
X0147330Y0115607D01*
X0147225Y0115769D01*
X0147123Y0115934D01*
X0147026Y0116101D01*
X0146933Y0116270D01*
X0146844Y0116442D01*
X0146759Y0116615D01*
X0146679Y0116791D01*
X0146602Y0116969D01*
X0146531Y0117148D01*
X0146463Y0117329D01*
X0146400Y0117512D01*
X0146342Y0117696D01*
X0146288Y0117882D01*
X0146239Y0118069D01*
X0146194Y0118257D01*
X0146154Y0118446D01*
X0146119Y0118636D01*
X0146088Y0118827D01*
X0146062Y0119018D01*
X0146041Y0119210D01*
X0146024Y0119403D01*
X0146012Y0119596D01*
X0146005Y0119789D01*
X0146003Y0119982D01*
D12*
X0138946Y0120254D02*
X0138946Y0120738D01*
X0138462Y0121221D01*
X0136044Y0121221D01*
X0136044Y0119770D01*
X0136527Y0119286D01*
X0137495Y0119286D01*
X0137979Y0119770D01*
X0137979Y0121221D01*
X0137979Y0118275D02*
X0136527Y0118275D01*
X0136044Y0117791D01*
X0136044Y0116340D01*
X0137979Y0116340D01*
X0137979Y0115343D02*
X0137979Y0114375D01*
X0137979Y0114859D02*
X0136044Y0114859D01*
X0136044Y0114375D01*
X0135076Y0114859D02*
X0134592Y0114859D01*
X0136527Y0113364D02*
X0137979Y0113364D01*
X0137979Y0112396D02*
X0136527Y0112396D01*
X0136044Y0112880D01*
X0136527Y0113364D01*
X0136527Y0112396D02*
X0136044Y0111913D01*
X0136044Y0111429D01*
X0137979Y0111429D01*
X0137979Y0110417D02*
X0136527Y0110417D01*
X0136044Y0109934D01*
X0136527Y0109450D01*
X0137979Y0109450D01*
X0137979Y0108482D02*
X0136044Y0108482D01*
X0136044Y0108966D01*
X0136527Y0109450D01*
X0135273Y0108490D02*
X0135273Y0106555D01*
X0136044Y0106987D02*
X0136527Y0107471D01*
X0137979Y0107471D01*
X0137979Y0106020D01*
X0137495Y0105536D01*
X0137011Y0106020D01*
X0137011Y0107471D01*
X0136044Y0106987D02*
X0136044Y0106020D01*
X0136044Y0104532D02*
X0136044Y0104048D01*
X0137011Y0103080D01*
X0136044Y0103080D02*
X0137979Y0103080D01*
X0137979Y0102069D02*
X0137979Y0100618D01*
X0137495Y0100134D01*
X0136527Y0100134D01*
X0136044Y0100618D01*
X0136044Y0102069D01*
X0138462Y0102069D01*
X0138946Y0101585D01*
X0138946Y0101101D01*
X0137495Y0099122D02*
X0136527Y0099122D01*
X0136044Y0098639D01*
X0136044Y0097671D01*
X0136527Y0097187D01*
X0137495Y0097187D01*
X0137979Y0097671D01*
X0137979Y0098639D01*
X0137495Y0099122D01*
X0136044Y0096183D02*
X0136044Y0095699D01*
X0137011Y0094732D01*
X0136044Y0094732D02*
X0137979Y0094732D01*
X0137495Y0093720D02*
X0137979Y0093237D01*
X0137979Y0091785D01*
X0138946Y0091785D02*
X0136044Y0091785D01*
X0136044Y0093237D01*
X0136527Y0093720D01*
X0137495Y0093720D01*
X0137979Y0090761D02*
X0137979Y0088826D01*
X0137979Y0089794D02*
X0135076Y0089794D01*
X0136044Y0088826D01*
X0135560Y0087815D02*
X0135076Y0087331D01*
X0135076Y0086364D01*
X0135560Y0085880D01*
X0137495Y0085880D01*
X0137979Y0086364D01*
X0137979Y0087331D01*
X0137495Y0087815D01*
X0124453Y0093754D02*
X0123002Y0093754D01*
X0122518Y0094238D01*
X0122518Y0095205D01*
X0123002Y0095689D01*
X0124453Y0095689D01*
X0124453Y0096656D02*
X0124453Y0093754D01*
X0121507Y0093754D02*
X0121507Y0095205D01*
X0121023Y0095689D01*
X0119572Y0095689D01*
X0119572Y0093754D01*
X0118560Y0093754D02*
X0117109Y0093754D01*
X0116625Y0094238D01*
X0116625Y0095205D01*
X0117109Y0095689D01*
X0118560Y0095689D01*
X0118560Y0093270D01*
X0118076Y0092786D01*
X0117593Y0092786D01*
X0121046Y0086330D02*
X0121046Y0084395D01*
X0121530Y0083911D01*
X0121530Y0085846D02*
X0120562Y0085846D01*
X0120562Y0076004D02*
X0120562Y0074069D01*
X0120562Y0075036D02*
X0121530Y0076004D01*
X0122013Y0076004D01*
X0106730Y0075296D02*
X0106730Y0074329D01*
X0106246Y0073845D01*
X0103827Y0073845D01*
X0103827Y0075780D02*
X0106246Y0075780D01*
X0106730Y0075296D01*
X0106730Y0076792D02*
X0106730Y0078727D01*
X0106730Y0077759D02*
X0103827Y0077759D01*
X0104795Y0076792D01*
X0105005Y0097691D02*
X0106940Y0099626D01*
X0106940Y0100110D01*
X0106456Y0100593D01*
X0105488Y0100593D01*
X0105005Y0100110D01*
X0103993Y0100110D02*
X0103509Y0100593D01*
X0102542Y0100593D01*
X0102058Y0100110D01*
X0102058Y0098175D01*
X0102542Y0097691D01*
X0103509Y0097691D01*
X0103993Y0098175D01*
X0105005Y0097691D02*
X0106940Y0097691D01*
X0106456Y0107534D02*
X0105488Y0107534D01*
X0105005Y0108017D01*
X0103993Y0108017D02*
X0103509Y0107534D01*
X0102542Y0107534D01*
X0102058Y0108017D01*
X0102058Y0109952D01*
X0102542Y0110436D01*
X0103509Y0110436D01*
X0103993Y0109952D01*
X0105005Y0109952D02*
X0105488Y0110436D01*
X0106456Y0110436D01*
X0106940Y0109952D01*
X0106940Y0109468D01*
X0106456Y0108985D01*
X0106940Y0108501D01*
X0106940Y0108017D01*
X0106456Y0107534D01*
X0106456Y0108985D02*
X0105972Y0108985D01*
X0106456Y0117376D02*
X0106456Y0120278D01*
X0105005Y0118827D01*
X0106940Y0118827D01*
X0103993Y0117860D02*
X0103509Y0117376D01*
X0102542Y0117376D01*
X0102058Y0117860D01*
X0102058Y0119795D01*
X0102542Y0120278D01*
X0103509Y0120278D01*
X0103993Y0119795D01*
X0117109Y0106499D02*
X0118076Y0106499D01*
X0118560Y0106015D01*
X0118560Y0105531D01*
X0118076Y0105048D01*
X0118560Y0104564D01*
X0118560Y0104080D01*
X0118076Y0103596D01*
X0117109Y0103596D01*
X0116625Y0104080D01*
X0117593Y0105048D02*
X0118076Y0105048D01*
X0116625Y0106015D02*
X0117109Y0106499D01*
X0119572Y0104080D02*
X0120055Y0104080D01*
X0120055Y0103596D01*
X0119572Y0103596D01*
X0119572Y0104080D01*
X0121045Y0104080D02*
X0121529Y0103596D01*
X0122496Y0103596D01*
X0122980Y0104080D01*
X0122980Y0104564D01*
X0122496Y0105048D01*
X0122012Y0105048D01*
X0122496Y0105048D02*
X0122980Y0105531D01*
X0122980Y0106015D01*
X0122496Y0106499D01*
X0121529Y0106499D01*
X0121045Y0106015D01*
X0123991Y0105531D02*
X0124959Y0103596D01*
X0125926Y0105531D01*
X0132371Y0105544D02*
X0132371Y0104576D01*
X0132371Y0105060D02*
X0134789Y0105060D01*
X0135273Y0104576D01*
X0135273Y0104093D01*
X0134789Y0103609D01*
X0133338Y0106555D02*
X0132371Y0107523D01*
X0135273Y0107523D01*
X0152056Y0108490D02*
X0152540Y0107523D01*
X0153507Y0106555D01*
X0153507Y0108007D01*
X0153991Y0108490D01*
X0154475Y0108490D01*
X0154958Y0108007D01*
X0154958Y0107039D01*
X0154475Y0106555D01*
X0153507Y0106555D01*
X0153509Y0106499D02*
X0153993Y0106015D01*
X0153993Y0105531D01*
X0153509Y0105048D01*
X0153993Y0104564D01*
X0153993Y0104080D01*
X0153509Y0103596D01*
X0152542Y0103596D01*
X0152058Y0104080D01*
X0152056Y0104576D02*
X0152056Y0105544D01*
X0152058Y0106015D02*
X0152542Y0106499D01*
X0153509Y0106499D01*
X0153509Y0105048D02*
X0153026Y0105048D01*
X0152056Y0105060D02*
X0154475Y0105060D01*
X0154958Y0104576D01*
X0154958Y0104093D01*
X0154475Y0103609D01*
X0155005Y0103596D02*
X0155488Y0103596D01*
X0155488Y0104080D01*
X0155005Y0104080D01*
X0155005Y0103596D01*
X0156478Y0104080D02*
X0156962Y0103596D01*
X0157929Y0103596D01*
X0158413Y0104080D01*
X0158413Y0104564D01*
X0157929Y0105048D01*
X0157445Y0105048D01*
X0157929Y0105048D02*
X0158413Y0105531D01*
X0158413Y0106015D01*
X0157929Y0106499D01*
X0156962Y0106499D01*
X0156478Y0106015D01*
X0159425Y0105531D02*
X0160392Y0103596D01*
X0161360Y0105531D01*
X0159886Y0096656D02*
X0159886Y0093754D01*
X0158435Y0093754D01*
X0157951Y0094238D01*
X0157951Y0095205D01*
X0158435Y0095689D01*
X0159886Y0095689D01*
X0156940Y0095205D02*
X0156940Y0093754D01*
X0156940Y0095205D02*
X0156456Y0095689D01*
X0155005Y0095689D01*
X0155005Y0093754D01*
X0153993Y0093754D02*
X0152542Y0093754D01*
X0152058Y0094238D01*
X0152058Y0095205D01*
X0152542Y0095689D01*
X0153993Y0095689D01*
X0153993Y0093270D01*
X0153509Y0092786D01*
X0153026Y0092786D01*
X0151021Y0069120D02*
X0151021Y0067185D01*
X0151021Y0068153D02*
X0148119Y0068153D01*
X0149086Y0067185D01*
X0148603Y0066174D02*
X0148119Y0065690D01*
X0148119Y0064239D01*
X0151021Y0064239D01*
X0150054Y0064239D02*
X0150054Y0065690D01*
X0149570Y0066174D01*
X0148603Y0066174D01*
X0150054Y0065206D02*
X0151021Y0066174D01*
X0153760Y0052867D02*
X0153760Y0051899D01*
X0153277Y0052383D02*
X0155212Y0052383D01*
X0155695Y0052867D01*
X0154728Y0050888D02*
X0154728Y0048953D01*
X0155212Y0048953D02*
X0154244Y0048953D01*
X0153760Y0049437D01*
X0153760Y0050404D01*
X0154244Y0050888D01*
X0154728Y0050888D01*
X0155695Y0050404D02*
X0155695Y0049437D01*
X0155212Y0048953D01*
X0155212Y0047941D02*
X0154728Y0047458D01*
X0154728Y0046490D01*
X0154244Y0046006D01*
X0153760Y0046490D01*
X0153760Y0047941D01*
X0155212Y0047941D02*
X0155695Y0047458D01*
X0155695Y0046006D01*
X0154728Y0044995D02*
X0154728Y0043060D01*
X0155212Y0043060D02*
X0154244Y0043060D01*
X0153760Y0043544D01*
X0153760Y0044511D01*
X0154244Y0044995D01*
X0154728Y0044995D01*
X0155695Y0044511D02*
X0155695Y0043544D01*
X0155212Y0043060D01*
X0153760Y0042056D02*
X0153760Y0041572D01*
X0154728Y0040604D01*
X0155695Y0040604D02*
X0153760Y0040604D01*
X0134002Y0040323D02*
X0134002Y0039356D01*
X0133519Y0038872D01*
X0132551Y0039356D02*
X0132551Y0040323D01*
X0133035Y0040807D01*
X0133519Y0040807D01*
X0134002Y0040323D01*
X0134002Y0041819D02*
X0133035Y0042786D01*
X0134002Y0043754D01*
X0131100Y0043754D01*
X0132067Y0044765D02*
X0131100Y0045733D01*
X0134002Y0045733D01*
X0134002Y0046700D02*
X0134002Y0044765D01*
X0134002Y0041819D02*
X0131100Y0041819D01*
X0131584Y0040807D02*
X0131100Y0040323D01*
X0131100Y0039356D01*
X0131584Y0038872D01*
X0132067Y0038872D01*
X0132551Y0039356D01*
X0129146Y0037512D02*
X0129146Y0034609D01*
X0129629Y0036060D02*
X0127694Y0036060D01*
X0129146Y0037512D01*
X0126683Y0037512D02*
X0125715Y0037512D01*
X0126199Y0037512D02*
X0126199Y0035093D01*
X0125715Y0034609D01*
X0125232Y0034609D01*
X0124748Y0035093D01*
X0124487Y0046510D02*
X0125938Y0046510D01*
X0126422Y0046994D01*
X0125938Y0047477D01*
X0124970Y0047477D01*
X0124487Y0047961D01*
X0124970Y0048445D01*
X0126422Y0048445D01*
X0127433Y0048445D02*
X0127917Y0048445D01*
X0127917Y0046510D01*
X0127433Y0046510D02*
X0128401Y0046510D01*
X0127917Y0049412D02*
X0127917Y0049896D01*
X0123475Y0047961D02*
X0123475Y0046994D01*
X0122991Y0046510D01*
X0122024Y0046510D01*
X0121540Y0046994D01*
X0121540Y0047961D01*
X0122024Y0048445D01*
X0122991Y0048445D01*
X0123475Y0047961D01*
X0120529Y0047961D02*
X0120529Y0046510D01*
X0119561Y0046510D02*
X0119561Y0047961D01*
X0120045Y0048445D01*
X0120529Y0047961D01*
X0119561Y0047961D02*
X0119077Y0048445D01*
X0118594Y0048445D01*
X0118594Y0046510D01*
X0118544Y0046994D02*
X0118544Y0047961D01*
X0118060Y0048445D01*
X0117092Y0048445D01*
X0116609Y0047961D01*
X0116609Y0046994D01*
X0117092Y0046510D01*
X0118060Y0046510D01*
X0118544Y0046994D01*
X0115597Y0046994D02*
X0115113Y0047477D01*
X0114146Y0047477D01*
X0113662Y0047961D01*
X0114146Y0048445D01*
X0115597Y0048445D01*
X0115597Y0046994D02*
X0115113Y0046510D01*
X0113662Y0046510D01*
X0112665Y0046510D02*
X0111698Y0046510D01*
X0112181Y0046510D02*
X0112181Y0048445D01*
X0111698Y0048445D01*
X0112181Y0049412D02*
X0112181Y0049896D01*
X0110686Y0047961D02*
X0110686Y0046510D01*
X0109719Y0046510D02*
X0109719Y0047961D01*
X0110202Y0048445D01*
X0110686Y0047961D01*
X0109719Y0047961D02*
X0109235Y0048445D01*
X0108751Y0048445D01*
X0108751Y0046510D01*
X0107723Y0047477D02*
X0105788Y0047477D01*
X0105788Y0046994D02*
X0105788Y0047961D01*
X0106272Y0048445D01*
X0107239Y0048445D01*
X0107723Y0047961D01*
X0107723Y0047477D01*
X0107239Y0046510D02*
X0106272Y0046510D01*
X0105788Y0046994D01*
X0104791Y0046510D02*
X0104307Y0046994D01*
X0104307Y0048929D01*
X0103824Y0048445D02*
X0104791Y0048445D01*
X0102812Y0048445D02*
X0101361Y0048445D01*
X0100877Y0047961D01*
X0101361Y0047477D01*
X0102328Y0047477D01*
X0102812Y0046994D01*
X0102328Y0046510D01*
X0100877Y0046510D01*
X0097397Y0046510D02*
X0095945Y0047477D01*
X0097397Y0048445D01*
X0095945Y0049412D02*
X0095945Y0046510D01*
X0094949Y0046510D02*
X0093981Y0046510D01*
X0094465Y0046510D02*
X0094465Y0049412D01*
X0093981Y0049412D01*
X0092970Y0048445D02*
X0091518Y0048445D01*
X0091035Y0047961D01*
X0091035Y0046994D01*
X0091518Y0046510D01*
X0092970Y0046510D01*
X0087052Y0046510D02*
X0085600Y0046510D01*
X0085117Y0046994D01*
X0085117Y0047961D01*
X0085600Y0048445D01*
X0087052Y0048445D01*
X0087052Y0049412D02*
X0087052Y0046510D01*
X0084105Y0046510D02*
X0084105Y0047961D01*
X0083621Y0048445D01*
X0082170Y0048445D01*
X0082170Y0046510D01*
X0081159Y0046510D02*
X0079707Y0046510D01*
X0079224Y0046994D01*
X0079224Y0047961D01*
X0079707Y0048445D01*
X0081159Y0048445D01*
X0081159Y0046026D01*
X0080675Y0045542D01*
X0080191Y0045542D01*
X0083632Y0038085D02*
X0083632Y0037601D01*
X0083632Y0036634D02*
X0083632Y0034699D01*
X0083148Y0034699D02*
X0084116Y0034699D01*
X0083632Y0036634D02*
X0083148Y0036634D01*
X0082137Y0036150D02*
X0082137Y0035183D01*
X0081653Y0034699D01*
X0080202Y0034699D01*
X0080202Y0033731D02*
X0080202Y0036634D01*
X0081653Y0036634D01*
X0082137Y0036150D01*
X0079190Y0036634D02*
X0077739Y0036634D01*
X0077255Y0036150D01*
X0077739Y0035666D01*
X0078706Y0035666D01*
X0079190Y0035183D01*
X0078706Y0034699D01*
X0077255Y0034699D01*
X0065905Y0057140D02*
X0064937Y0057140D01*
X0064454Y0057624D01*
X0064454Y0058591D02*
X0065421Y0059075D01*
X0065905Y0059075D01*
X0066389Y0058591D01*
X0066389Y0057624D01*
X0065905Y0057140D01*
X0064454Y0058591D02*
X0064454Y0060042D01*
X0066389Y0060042D01*
X0063442Y0059559D02*
X0062958Y0060042D01*
X0061991Y0060042D01*
X0061507Y0059559D01*
X0061507Y0057624D01*
X0061991Y0057140D01*
X0062958Y0057140D01*
X0063442Y0057624D01*
X0047682Y0053349D02*
X0047682Y0050447D01*
X0046230Y0050447D01*
X0045747Y0050931D01*
X0045747Y0051898D01*
X0046230Y0052382D01*
X0047682Y0052382D01*
X0044735Y0051898D02*
X0044735Y0050447D01*
X0044735Y0051898D02*
X0044251Y0052382D01*
X0042800Y0052382D01*
X0042800Y0050447D01*
X0041788Y0050447D02*
X0040337Y0050447D01*
X0039854Y0050931D01*
X0039854Y0051898D01*
X0040337Y0052382D01*
X0041788Y0052382D01*
X0041788Y0049963D01*
X0041305Y0049479D01*
X0040821Y0049479D01*
X0027996Y0051414D02*
X0027996Y0053349D01*
X0026062Y0053349D02*
X0026062Y0051414D01*
X0027029Y0050447D01*
X0027996Y0051414D01*
X0025050Y0050447D02*
X0023115Y0050447D01*
X0025050Y0052382D01*
X0025050Y0052866D01*
X0024566Y0053349D01*
X0023599Y0053349D01*
X0023115Y0052866D01*
X0022103Y0050447D02*
X0020168Y0050447D01*
X0021136Y0050447D02*
X0021136Y0053349D01*
X0020168Y0052382D01*
X0020629Y0052415D02*
X0019662Y0052415D01*
X0019178Y0052899D01*
X0019178Y0053867D02*
X0020145Y0054350D01*
X0020629Y0054350D01*
X0021113Y0053867D01*
X0021113Y0052899D01*
X0020629Y0052415D01*
X0019178Y0053867D02*
X0019178Y0055318D01*
X0021113Y0055318D01*
X0018166Y0055318D02*
X0017199Y0055318D01*
X0017683Y0055318D02*
X0017683Y0052899D01*
X0017199Y0052415D01*
X0016715Y0052415D01*
X0016231Y0052899D01*
X0031992Y0067416D02*
X0032476Y0066932D01*
X0033443Y0066932D01*
X0033927Y0067416D01*
X0033927Y0069834D01*
X0034938Y0068383D02*
X0036873Y0068383D01*
X0036390Y0066932D02*
X0036390Y0069834D01*
X0034938Y0068383D01*
X0031992Y0067416D02*
X0031992Y0069834D01*
X0046494Y0078490D02*
X0046977Y0078006D01*
X0048912Y0078006D01*
X0049396Y0078490D01*
X0049396Y0079457D01*
X0048912Y0079941D01*
X0048912Y0080952D02*
X0048429Y0080952D01*
X0047945Y0081436D01*
X0047945Y0082404D01*
X0048429Y0082887D01*
X0048912Y0082887D01*
X0049396Y0082404D01*
X0049396Y0081436D01*
X0048912Y0080952D01*
X0047945Y0081436D02*
X0047461Y0080952D01*
X0046977Y0080952D01*
X0046494Y0081436D01*
X0046494Y0082404D01*
X0046977Y0082887D01*
X0047461Y0082887D01*
X0047945Y0082404D01*
X0046977Y0079941D02*
X0046494Y0079457D01*
X0046494Y0078490D01*
X0056336Y0078490D02*
X0056820Y0078006D01*
X0058755Y0078006D01*
X0059239Y0078490D01*
X0059239Y0079457D01*
X0058755Y0079941D01*
X0058755Y0080952D02*
X0059239Y0081436D01*
X0059239Y0082404D01*
X0058755Y0082887D01*
X0058271Y0082887D01*
X0057787Y0082404D01*
X0057787Y0080952D01*
X0058755Y0080952D01*
X0057787Y0080952D02*
X0056820Y0081920D01*
X0056336Y0082887D01*
X0056820Y0079941D02*
X0056336Y0079457D01*
X0056336Y0078490D01*
X0056049Y0158727D02*
X0053631Y0158727D01*
X0053631Y0160662D02*
X0056049Y0160662D01*
X0056533Y0160178D01*
X0056533Y0159211D01*
X0056049Y0158727D01*
X0056533Y0161674D02*
X0054598Y0163609D01*
X0054114Y0163609D01*
X0053631Y0163125D01*
X0053631Y0162157D01*
X0054114Y0161674D01*
X0056533Y0161674D02*
X0056533Y0163609D01*
X0055048Y0185790D02*
X0053113Y0185790D01*
X0052109Y0188209D02*
X0051625Y0188209D01*
X0050657Y0187241D01*
X0050657Y0186274D02*
X0050657Y0188209D01*
X0049646Y0187725D02*
X0049162Y0188209D01*
X0048195Y0188209D01*
X0047711Y0187725D01*
X0047711Y0186757D01*
X0048195Y0186274D01*
X0049162Y0186274D01*
X0049646Y0186757D01*
X0049646Y0187725D01*
X0046714Y0188209D02*
X0045747Y0188209D01*
X0046230Y0188692D02*
X0046230Y0186757D01*
X0046714Y0186274D01*
X0044735Y0186757D02*
X0044735Y0187725D01*
X0044251Y0188209D01*
X0043284Y0188209D01*
X0042800Y0187725D01*
X0042800Y0186757D01*
X0043284Y0186274D01*
X0044251Y0186274D01*
X0044735Y0186757D01*
X0041788Y0186274D02*
X0041788Y0189176D01*
X0040821Y0188209D01*
X0039854Y0189176D01*
X0039854Y0186274D01*
X0034892Y0202022D02*
X0032958Y0202022D01*
X0034892Y0203957D01*
X0034892Y0204440D01*
X0034409Y0204924D01*
X0033441Y0204924D01*
X0032958Y0204440D01*
X0031946Y0204924D02*
X0030978Y0204924D01*
X0031462Y0204924D02*
X0031462Y0202505D01*
X0030978Y0202022D01*
X0030495Y0202022D01*
X0030011Y0202505D01*
X0056059Y0189176D02*
X0056059Y0186274D01*
X0057994Y0186274D01*
X0059006Y0186757D02*
X0059006Y0187725D01*
X0059490Y0188209D01*
X0060457Y0188209D01*
X0060941Y0187725D01*
X0060941Y0187241D01*
X0059006Y0187241D01*
X0059006Y0186757D02*
X0059490Y0186274D01*
X0060457Y0186274D01*
X0062436Y0186274D02*
X0062436Y0188692D01*
X0062920Y0189176D01*
X0063917Y0188209D02*
X0064884Y0188209D01*
X0064400Y0188692D02*
X0064400Y0186757D01*
X0064884Y0186274D01*
X0062920Y0187725D02*
X0061952Y0187725D01*
X0108751Y0202505D02*
X0109235Y0202022D01*
X0109719Y0202022D01*
X0110202Y0202505D01*
X0110202Y0204924D01*
X0109719Y0204924D02*
X0110686Y0204924D01*
X0111698Y0204440D02*
X0112181Y0204924D01*
X0113149Y0204924D01*
X0113633Y0204440D01*
X0113633Y0203957D01*
X0113149Y0203473D01*
X0113633Y0202989D01*
X0113633Y0202505D01*
X0113149Y0202022D01*
X0112181Y0202022D01*
X0111698Y0202505D01*
X0112665Y0203473D02*
X0113149Y0203473D01*
X0116625Y0189176D02*
X0117593Y0188209D01*
X0118560Y0189176D01*
X0118560Y0186274D01*
X0119572Y0186757D02*
X0120055Y0186274D01*
X0121023Y0186274D01*
X0121507Y0186757D01*
X0121507Y0187725D01*
X0121023Y0188209D01*
X0120055Y0188209D01*
X0119572Y0187725D01*
X0119572Y0186757D01*
X0116625Y0186274D02*
X0116625Y0189176D01*
X0122518Y0188209D02*
X0123486Y0188209D01*
X0123002Y0188692D02*
X0123002Y0186757D01*
X0123486Y0186274D01*
X0124483Y0186757D02*
X0124966Y0186274D01*
X0125934Y0186274D01*
X0126418Y0186757D01*
X0126418Y0187725D01*
X0125934Y0188209D01*
X0124966Y0188209D01*
X0124483Y0187725D01*
X0124483Y0186757D01*
X0127429Y0186274D02*
X0127429Y0188209D01*
X0128397Y0188209D02*
X0128880Y0188209D01*
X0128397Y0188209D02*
X0127429Y0187241D01*
X0129884Y0185790D02*
X0131819Y0185790D01*
X0132831Y0186274D02*
X0132831Y0189176D01*
X0134282Y0189176D01*
X0134766Y0188692D01*
X0134766Y0187725D01*
X0134282Y0187241D01*
X0132831Y0187241D01*
X0133798Y0187241D02*
X0134766Y0186274D01*
X0135778Y0186274D02*
X0136745Y0186274D01*
X0136261Y0186274D02*
X0136261Y0188209D01*
X0135778Y0188209D01*
X0136261Y0189176D02*
X0136261Y0189660D01*
X0137742Y0187725D02*
X0137742Y0186757D01*
X0138226Y0186274D01*
X0139677Y0186274D01*
X0139677Y0185790D02*
X0139677Y0188209D01*
X0138226Y0188209D01*
X0137742Y0187725D01*
X0138709Y0185306D02*
X0139193Y0185306D01*
X0139677Y0185790D01*
X0140688Y0186274D02*
X0140688Y0189176D01*
X0141172Y0188209D02*
X0142140Y0188209D01*
X0142623Y0187725D01*
X0142623Y0186274D01*
X0144119Y0186757D02*
X0144602Y0186274D01*
X0144119Y0186757D02*
X0144119Y0188692D01*
X0143635Y0188209D02*
X0144602Y0188209D01*
X0141172Y0188209D02*
X0140688Y0187725D01*
X0134789Y0163609D02*
X0135273Y0163125D01*
X0135273Y0162157D01*
X0134789Y0161674D01*
X0134789Y0160662D02*
X0132371Y0160662D01*
X0132854Y0161674D02*
X0132371Y0162157D01*
X0132371Y0163125D01*
X0132854Y0163609D01*
X0133338Y0163609D01*
X0133822Y0163125D01*
X0134306Y0163609D01*
X0134789Y0163609D01*
X0133822Y0163125D02*
X0133822Y0162641D01*
X0134789Y0160662D02*
X0135273Y0160178D01*
X0135273Y0159211D01*
X0134789Y0158727D01*
X0132371Y0158727D01*
D13*
X0038915Y0117699D02*
X0038915Y0116932D01*
X0035846Y0113863D01*
X0035846Y0113095D01*
X0034311Y0113863D02*
X0033544Y0113095D01*
X0032009Y0113095D01*
X0031242Y0113863D01*
X0031242Y0116932D01*
X0032009Y0117699D01*
X0033544Y0117699D01*
X0034311Y0116932D01*
X0035846Y0117699D02*
X0038915Y0117699D01*
D14*
X0029074Y0107384D02*
X0025924Y0107384D01*
X0025924Y0104234D01*
X0025924Y0107384D02*
X0025924Y0110533D01*
X0025924Y0107384D02*
X0022774Y0107384D01*
M02*
