G75*
%MOIN*%
%OFA0B0*%
%FSLAX25Y25*%
%IPPOS*%
%LPD*%
%AMOC8*
5,1,8,0,0,1.08239X$1,22.5*
%
%ADD10R,0.05906X0.05512*%
%ADD11R,0.05512X0.05906*%
%ADD12R,0.15748X0.03937*%
%ADD13R,0.05937X0.05937*%
%ADD14OC8,0.05937*%
%ADD15R,0.10748X0.10748*%
%ADD16OC8,0.10748*%
%ADD17R,0.03937X0.01378*%
%ADD18R,0.08858X0.02953*%
%ADD19R,0.12795X0.08465*%
%ADD20R,0.03740X0.08465*%
%ADD21C,0.01000*%
%ADD22C,0.02000*%
%ADD23C,0.03569*%
%ADD24C,0.00500*%
%ADD25C,0.04356*%
D10*
X0049546Y0065946D03*
X0049546Y0074017D03*
X0059389Y0074017D03*
X0059389Y0065946D03*
X0138129Y0073821D03*
X0138129Y0081891D03*
X0147971Y0081891D03*
X0147971Y0073821D03*
D11*
X0098070Y0097541D03*
X0098070Y0107384D03*
X0089999Y0107384D03*
X0089999Y0097541D03*
X0089999Y0117226D03*
X0098070Y0117226D03*
X0057518Y0056990D03*
X0049448Y0056990D03*
D12*
X0057420Y0099509D03*
X0029861Y0099509D03*
D13*
X0034546Y0197935D03*
X0113286Y0197935D03*
X0128286Y0104667D03*
X0147971Y0104509D03*
X0142026Y0043210D03*
X0122932Y0041596D03*
D14*
X0112932Y0041596D03*
X0102932Y0041596D03*
X0092932Y0041596D03*
X0082932Y0041596D03*
X0128286Y0074667D03*
X0128286Y0084667D03*
X0128286Y0094667D03*
X0147971Y0094509D03*
X0142026Y0061793D03*
X0143286Y0197935D03*
X0133286Y0197935D03*
X0123286Y0197935D03*
X0064546Y0197935D03*
X0054546Y0197935D03*
X0044546Y0197935D03*
D15*
X0024782Y0042423D03*
D16*
X0042814Y0042423D03*
D17*
X0091869Y0055080D03*
X0091869Y0057639D03*
X0091869Y0060198D03*
X0091869Y0062758D03*
X0091869Y0065317D03*
X0091869Y0067876D03*
X0091869Y0070435D03*
X0091869Y0072994D03*
X0091869Y0075553D03*
X0091869Y0078112D03*
X0091869Y0080671D03*
X0091869Y0083230D03*
X0091869Y0085789D03*
X0091869Y0088348D03*
X0115491Y0088348D03*
X0115491Y0085789D03*
X0115491Y0083230D03*
X0115491Y0080671D03*
X0115491Y0078112D03*
X0115491Y0075553D03*
X0115491Y0072994D03*
X0115491Y0070435D03*
X0115491Y0067876D03*
X0115491Y0065317D03*
X0115491Y0062758D03*
X0115491Y0060198D03*
X0115491Y0057639D03*
X0115491Y0055080D03*
D18*
X0108857Y0134096D03*
X0108857Y0139096D03*
X0108857Y0144096D03*
X0108857Y0149096D03*
X0108857Y0154096D03*
X0108857Y0159096D03*
X0108857Y0164096D03*
X0108857Y0169096D03*
X0108857Y0174096D03*
X0108857Y0179096D03*
X0147715Y0179096D03*
X0147715Y0174096D03*
X0147715Y0169096D03*
X0147715Y0164096D03*
X0147715Y0159096D03*
X0147715Y0154096D03*
X0147715Y0149096D03*
X0147715Y0144096D03*
X0147715Y0139096D03*
X0147715Y0134096D03*
X0068975Y0134096D03*
X0068975Y0139096D03*
X0068975Y0144096D03*
X0068975Y0149096D03*
X0068975Y0154096D03*
X0068975Y0159096D03*
X0068975Y0164096D03*
X0068975Y0169096D03*
X0068975Y0174096D03*
X0068975Y0179096D03*
X0030117Y0179096D03*
X0030117Y0174096D03*
X0030117Y0169096D03*
X0030117Y0164096D03*
X0030117Y0159096D03*
X0030117Y0154096D03*
X0030117Y0149096D03*
X0030117Y0144096D03*
X0030117Y0139096D03*
X0030117Y0134096D03*
D19*
X0029861Y0058565D03*
D20*
X0029861Y0081399D03*
X0038916Y0081399D03*
X0020806Y0081399D03*
D21*
X0059389Y0065946D02*
X0065727Y0065946D01*
X0088129Y0088348D01*
X0089999Y0090218D01*
X0089999Y0097541D01*
X0089999Y0107384D01*
X0089999Y0117226D01*
X0089999Y0125100D01*
X0089999Y0167521D01*
X0101574Y0179096D01*
X0108857Y0179096D01*
X0108857Y0174096D02*
X0102479Y0174096D01*
X0098759Y0170376D01*
X0098759Y0131006D01*
X0104664Y0125100D01*
X0104664Y0058171D01*
X0107755Y0055080D01*
X0115491Y0055080D01*
X0120412Y0049076D02*
X0120412Y0071950D01*
X0119369Y0072994D01*
X0115491Y0072994D01*
X0115491Y0075553D02*
X0120747Y0075553D01*
X0122932Y0073368D01*
X0122932Y0041596D01*
X0120412Y0049076D02*
X0112932Y0041596D01*
X0102932Y0041596D02*
X0102696Y0041832D01*
X0102696Y0073919D01*
X0101062Y0075553D01*
X0091869Y0075553D01*
X0091869Y0072994D02*
X0099684Y0072994D01*
X0100727Y0071950D01*
X0100727Y0049391D01*
X0092932Y0041596D01*
X0088916Y0054234D02*
X0089763Y0055080D01*
X0091869Y0055080D01*
X0091869Y0057639D02*
X0079605Y0057639D01*
X0079074Y0058171D01*
X0077105Y0054234D02*
X0088916Y0054234D01*
X0091869Y0067876D02*
X0073306Y0067876D01*
X0071200Y0066045D01*
X0075137Y0056202D02*
X0077105Y0054234D01*
X0086495Y0070435D02*
X0084979Y0071950D01*
X0086495Y0070435D02*
X0091869Y0070435D01*
X0091869Y0088348D02*
X0088129Y0088348D01*
X0083011Y0089667D02*
X0083011Y0109352D01*
X0053267Y0139096D01*
X0030117Y0139096D01*
X0023955Y0138880D02*
X0023955Y0172344D01*
X0025707Y0174096D01*
X0030117Y0174096D01*
X0030117Y0179096D02*
X0034644Y0179096D01*
X0037735Y0182187D01*
X0061357Y0174313D02*
X0068759Y0174313D01*
X0068975Y0174096D01*
X0068975Y0139096D02*
X0069192Y0138880D01*
X0077105Y0138880D01*
X0068975Y0134096D02*
X0085845Y0117226D01*
X0089999Y0117226D01*
X0106633Y0117226D02*
X0106633Y0066045D01*
X0107361Y0065317D01*
X0115491Y0065317D01*
X0115491Y0067876D02*
X0108739Y0067876D01*
X0108601Y0068013D01*
X0108601Y0115258D01*
X0132440Y0139096D01*
X0147715Y0139096D01*
X0147715Y0134096D02*
X0141219Y0134096D01*
X0140097Y0132974D01*
X0130255Y0131006D02*
X0128286Y0131006D01*
X0110570Y0113289D01*
X0110570Y0071950D01*
X0112085Y0070435D01*
X0115491Y0070435D01*
X0115491Y0078112D02*
X0124841Y0078112D01*
X0128286Y0074667D01*
X0129133Y0073821D01*
X0138129Y0073821D01*
X0142066Y0073821D01*
X0142026Y0073781D01*
X0142026Y0061793D01*
X0142066Y0073821D02*
X0147971Y0073821D01*
X0147971Y0081891D02*
X0153877Y0087797D01*
X0153877Y0101478D01*
X0150845Y0104509D01*
X0147971Y0104509D01*
X0147814Y0104667D01*
X0128286Y0104667D01*
X0128286Y0084667D02*
X0124290Y0080671D01*
X0115491Y0080671D01*
X0106633Y0117226D02*
X0116475Y0127069D01*
X0116475Y0136911D01*
X0114290Y0139096D01*
X0108857Y0139096D01*
X0138129Y0174313D02*
X0139881Y0174096D01*
X0147715Y0174096D01*
D22*
X0147715Y0179096D02*
X0140944Y0179096D01*
X0140097Y0180218D01*
X0134192Y0188840D02*
X0134192Y0170376D01*
X0135471Y0169096D01*
X0147715Y0169096D01*
X0134192Y0188840D02*
X0143286Y0197935D01*
X0133286Y0197935D02*
X0130255Y0194903D01*
X0130255Y0144785D01*
X0130944Y0144096D01*
X0147715Y0144096D01*
X0126318Y0144785D02*
X0125629Y0144096D01*
X0108857Y0144096D01*
X0108857Y0134096D02*
X0108857Y0129293D01*
X0108601Y0129037D01*
X0126318Y0144785D02*
X0126318Y0194903D01*
X0123286Y0197935D01*
X0122381Y0188840D02*
X0122381Y0170376D01*
X0121101Y0169096D01*
X0108857Y0169096D01*
X0122381Y0188840D02*
X0113286Y0197935D01*
X0068975Y0179096D02*
X0062479Y0179096D01*
X0061357Y0180218D01*
X0055452Y0188840D02*
X0055452Y0170376D01*
X0056731Y0169096D01*
X0068975Y0169096D01*
X0055452Y0188840D02*
X0064546Y0197935D01*
X0054546Y0197935D02*
X0051515Y0194903D01*
X0051515Y0144785D01*
X0052204Y0144096D01*
X0068975Y0144096D01*
X0047578Y0144785D02*
X0046889Y0144096D01*
X0030117Y0144096D01*
X0030117Y0134096D02*
X0023109Y0134096D01*
X0018050Y0129037D01*
X0018050Y0084155D01*
X0020806Y0081399D01*
X0020806Y0078643D01*
X0018050Y0075887D01*
X0018050Y0049155D01*
X0024782Y0042423D01*
X0024782Y0043250D01*
X0031830Y0050297D01*
X0043542Y0050297D01*
X0049448Y0056202D01*
X0049448Y0056990D01*
X0049546Y0065946D02*
X0049448Y0066045D01*
X0029861Y0066045D01*
X0029861Y0081399D01*
X0029861Y0099509D01*
X0030117Y0134096D02*
X0046731Y0134096D01*
X0047578Y0134943D01*
X0047578Y0144785D02*
X0047578Y0194903D01*
X0044546Y0197935D01*
X0043641Y0188840D02*
X0043641Y0170376D01*
X0042361Y0169096D01*
X0030117Y0169096D01*
X0043641Y0188840D02*
X0034546Y0197935D01*
X0029861Y0066045D02*
X0029861Y0058565D01*
X0049546Y0065946D02*
X0059389Y0065946D01*
D23*
X0071200Y0066045D03*
X0075137Y0056202D03*
X0079074Y0058171D03*
X0084979Y0071950D03*
X0083011Y0089667D03*
X0098759Y0089667D03*
X0118444Y0099509D03*
X0130255Y0131006D03*
X0140097Y0132974D03*
X0140097Y0156596D03*
X0138129Y0174313D03*
X0118444Y0156596D03*
X0089999Y0125100D03*
X0077105Y0138880D03*
X0075137Y0156596D03*
X0061357Y0174313D03*
X0075137Y0186124D03*
X0039704Y0156596D03*
X0023955Y0138880D03*
X0037735Y0182187D03*
D24*
X0031206Y0046775D02*
X0031206Y0037080D01*
X0038789Y0037080D01*
X0036190Y0039679D01*
X0036190Y0042173D01*
X0042564Y0042173D01*
X0042564Y0042673D01*
X0036190Y0042673D01*
X0036190Y0045167D01*
X0039270Y0048247D01*
X0032679Y0048247D01*
X0031206Y0046775D01*
X0031206Y0046539D02*
X0037562Y0046539D01*
X0038060Y0047037D02*
X0031469Y0047037D01*
X0031967Y0047536D02*
X0038559Y0047536D01*
X0039057Y0048034D02*
X0032466Y0048034D01*
X0031206Y0046040D02*
X0037063Y0046040D01*
X0036565Y0045542D02*
X0031206Y0045542D01*
X0031206Y0045043D02*
X0036190Y0045043D01*
X0036190Y0044545D02*
X0031206Y0044545D01*
X0031206Y0044046D02*
X0036190Y0044046D01*
X0036190Y0043548D02*
X0031206Y0043548D01*
X0031206Y0043049D02*
X0036190Y0043049D01*
X0036190Y0042052D02*
X0031206Y0042052D01*
X0031206Y0041554D02*
X0036190Y0041554D01*
X0036190Y0041055D02*
X0031206Y0041055D01*
X0031206Y0040557D02*
X0036190Y0040557D01*
X0036190Y0040058D02*
X0031206Y0040058D01*
X0031206Y0039560D02*
X0036309Y0039560D01*
X0036808Y0039061D02*
X0031206Y0039061D01*
X0031206Y0038562D02*
X0037306Y0038562D01*
X0037805Y0038064D02*
X0031206Y0038064D01*
X0031206Y0037565D02*
X0038303Y0037565D01*
X0042564Y0042551D02*
X0031206Y0042551D01*
X0027480Y0048847D02*
X0021257Y0048847D01*
X0020100Y0050004D01*
X0020100Y0075038D01*
X0021179Y0076117D01*
X0023111Y0076117D01*
X0023726Y0076732D01*
X0023726Y0086066D01*
X0023111Y0086682D01*
X0020100Y0086682D01*
X0020100Y0117307D01*
X0020532Y0115696D01*
X0022128Y0112931D01*
X0024385Y0110674D01*
X0027150Y0109078D01*
X0030233Y0108252D01*
X0033426Y0108252D01*
X0036509Y0109078D01*
X0039274Y0110674D01*
X0041531Y0112931D01*
X0043127Y0115696D01*
X0043954Y0118779D01*
X0043954Y0121972D01*
X0043127Y0125055D01*
X0041531Y0127820D01*
X0039274Y0130077D01*
X0036509Y0131673D01*
X0035386Y0131974D01*
X0035457Y0132046D01*
X0046135Y0132046D01*
X0046935Y0131715D01*
X0048220Y0131715D01*
X0049406Y0132206D01*
X0050314Y0133114D01*
X0050805Y0134300D01*
X0050805Y0135585D01*
X0050314Y0136771D01*
X0049539Y0137546D01*
X0052624Y0137546D01*
X0081461Y0108710D01*
X0081461Y0092093D01*
X0081405Y0092070D01*
X0080608Y0091272D01*
X0080176Y0090231D01*
X0080176Y0089103D01*
X0080608Y0088061D01*
X0081405Y0087264D01*
X0082447Y0086833D01*
X0083574Y0086833D01*
X0084616Y0087264D01*
X0085413Y0088061D01*
X0085845Y0089103D01*
X0085845Y0090231D01*
X0085413Y0091272D01*
X0084616Y0092070D01*
X0084561Y0092093D01*
X0084561Y0109994D01*
X0083653Y0110902D01*
X0053909Y0140646D01*
X0035596Y0140646D01*
X0035596Y0141007D01*
X0035007Y0141596D01*
X0035457Y0142046D01*
X0047738Y0142046D01*
X0048939Y0143247D01*
X0049546Y0143854D01*
X0050154Y0143247D01*
X0051354Y0142046D01*
X0063635Y0142046D01*
X0064085Y0141596D01*
X0063496Y0141007D01*
X0063496Y0137185D01*
X0064085Y0136596D01*
X0063496Y0136007D01*
X0063496Y0132185D01*
X0064111Y0131570D01*
X0069310Y0131570D01*
X0084295Y0116584D01*
X0085203Y0115676D01*
X0086193Y0115676D01*
X0086193Y0113838D01*
X0086808Y0113223D01*
X0088449Y0113223D01*
X0088449Y0111386D01*
X0086808Y0111386D01*
X0086193Y0110771D01*
X0086193Y0103996D01*
X0086808Y0103381D01*
X0088449Y0103381D01*
X0088449Y0101544D01*
X0086808Y0101544D01*
X0086193Y0100929D01*
X0086193Y0094153D01*
X0086808Y0093538D01*
X0088449Y0093538D01*
X0088449Y0090860D01*
X0087487Y0089898D01*
X0065085Y0067496D01*
X0063391Y0067496D01*
X0063391Y0069137D01*
X0062776Y0069752D01*
X0056001Y0069752D01*
X0055386Y0069137D01*
X0055386Y0067996D01*
X0053549Y0067996D01*
X0053549Y0069137D01*
X0052934Y0069752D01*
X0046158Y0069752D01*
X0045543Y0069137D01*
X0045543Y0068095D01*
X0031911Y0068095D01*
X0031911Y0076117D01*
X0032166Y0076117D01*
X0032781Y0076732D01*
X0032781Y0086066D01*
X0032166Y0086682D01*
X0031911Y0086682D01*
X0031911Y0096491D01*
X0038170Y0096491D01*
X0038785Y0097106D01*
X0038785Y0101913D01*
X0038170Y0102528D01*
X0021552Y0102528D01*
X0020937Y0101913D01*
X0020937Y0097106D01*
X0021552Y0096491D01*
X0027811Y0096491D01*
X0027811Y0086682D01*
X0027556Y0086682D01*
X0026941Y0086066D01*
X0026941Y0076732D01*
X0027556Y0076117D01*
X0027811Y0076117D01*
X0027811Y0063847D01*
X0023028Y0063847D01*
X0022413Y0063232D01*
X0022413Y0053897D01*
X0023028Y0053282D01*
X0036694Y0053282D01*
X0037309Y0053897D01*
X0037309Y0063232D01*
X0036694Y0063847D01*
X0031911Y0063847D01*
X0031911Y0063995D01*
X0045543Y0063995D01*
X0045543Y0062756D01*
X0046158Y0062141D01*
X0052934Y0062141D01*
X0053549Y0062756D01*
X0053549Y0063896D01*
X0055386Y0063896D01*
X0055386Y0062756D01*
X0056001Y0062141D01*
X0062776Y0062141D01*
X0063391Y0062756D01*
X0063391Y0064396D01*
X0066369Y0064396D01*
X0067277Y0065304D01*
X0068365Y0066393D01*
X0068365Y0065481D01*
X0068797Y0064439D01*
X0069594Y0063642D01*
X0070636Y0063211D01*
X0071763Y0063211D01*
X0072805Y0063642D01*
X0073602Y0064439D01*
X0074034Y0065481D01*
X0074034Y0066326D01*
X0088850Y0066326D01*
X0088850Y0064193D01*
X0089006Y0064037D01*
X0088850Y0063881D01*
X0088850Y0061634D01*
X0089006Y0061478D01*
X0088850Y0061322D01*
X0088850Y0059189D01*
X0081719Y0059189D01*
X0081476Y0059776D01*
X0080679Y0060574D01*
X0079637Y0061005D01*
X0078510Y0061005D01*
X0077468Y0060574D01*
X0076671Y0059776D01*
X0076267Y0058802D01*
X0075700Y0059037D01*
X0074573Y0059037D01*
X0073531Y0058605D01*
X0072734Y0057808D01*
X0072302Y0056766D01*
X0072302Y0055639D01*
X0072734Y0054597D01*
X0073531Y0053800D01*
X0074573Y0053368D01*
X0075700Y0053368D01*
X0075756Y0053391D01*
X0076463Y0052684D01*
X0089558Y0052684D01*
X0090216Y0053341D01*
X0094272Y0053341D01*
X0094887Y0053956D01*
X0094887Y0056204D01*
X0094732Y0056360D01*
X0094887Y0056516D01*
X0094887Y0058763D01*
X0094732Y0058919D01*
X0094887Y0059075D01*
X0094887Y0061322D01*
X0094732Y0061478D01*
X0094887Y0061634D01*
X0094887Y0063881D01*
X0094732Y0064037D01*
X0094887Y0064193D01*
X0094887Y0066440D01*
X0094732Y0066596D01*
X0094887Y0066752D01*
X0094887Y0069000D01*
X0094732Y0069155D01*
X0094887Y0069311D01*
X0094887Y0071444D01*
X0099042Y0071444D01*
X0099177Y0071308D01*
X0099177Y0050033D01*
X0094677Y0045534D01*
X0094596Y0045615D01*
X0091267Y0045615D01*
X0088913Y0043261D01*
X0088913Y0039932D01*
X0091267Y0037578D01*
X0094596Y0037578D01*
X0096950Y0039932D01*
X0096950Y0043261D01*
X0096869Y0043342D01*
X0101146Y0047618D01*
X0101146Y0045493D01*
X0098913Y0043261D01*
X0098913Y0039932D01*
X0101267Y0037578D01*
X0104596Y0037578D01*
X0106950Y0039932D01*
X0106950Y0043261D01*
X0104596Y0045615D01*
X0104246Y0045615D01*
X0104246Y0056397D01*
X0106205Y0054438D01*
X0107113Y0053530D01*
X0112899Y0053530D01*
X0113087Y0053341D01*
X0117894Y0053341D01*
X0118509Y0053956D01*
X0118509Y0056204D01*
X0118354Y0056360D01*
X0118509Y0056516D01*
X0118509Y0058763D01*
X0118354Y0058919D01*
X0118509Y0059075D01*
X0118509Y0061322D01*
X0118354Y0061478D01*
X0118509Y0061634D01*
X0118509Y0063881D01*
X0118354Y0064037D01*
X0118509Y0064193D01*
X0118509Y0066440D01*
X0118354Y0066596D01*
X0118509Y0066752D01*
X0118509Y0069000D01*
X0118354Y0069155D01*
X0118509Y0069311D01*
X0118509Y0071444D01*
X0118727Y0071444D01*
X0118862Y0071308D01*
X0118862Y0049718D01*
X0114677Y0045534D01*
X0114596Y0045615D01*
X0111267Y0045615D01*
X0108913Y0043261D01*
X0108913Y0039932D01*
X0111267Y0037578D01*
X0114596Y0037578D01*
X0116950Y0039932D01*
X0116950Y0043261D01*
X0116869Y0043342D01*
X0121054Y0047526D01*
X0121382Y0047854D01*
X0121382Y0045615D01*
X0119528Y0045615D01*
X0118913Y0045000D01*
X0118913Y0038193D01*
X0119528Y0037578D01*
X0126335Y0037578D01*
X0126950Y0038193D01*
X0126950Y0045000D01*
X0126335Y0045615D01*
X0124482Y0045615D01*
X0124482Y0072788D01*
X0126622Y0070648D01*
X0129951Y0070648D01*
X0131573Y0072271D01*
X0134126Y0072271D01*
X0134126Y0070630D01*
X0134741Y0070015D01*
X0140476Y0070015D01*
X0140476Y0065811D01*
X0140362Y0065811D01*
X0138008Y0063457D01*
X0138008Y0060128D01*
X0140362Y0057774D01*
X0143691Y0057774D01*
X0146045Y0060128D01*
X0146045Y0063457D01*
X0143691Y0065811D01*
X0143576Y0065811D01*
X0143576Y0072271D01*
X0143968Y0072271D01*
X0143968Y0070630D01*
X0144584Y0070015D01*
X0151359Y0070015D01*
X0151974Y0070630D01*
X0151974Y0077011D01*
X0151359Y0077626D01*
X0144584Y0077626D01*
X0143968Y0077011D01*
X0143968Y0075370D01*
X0142131Y0075370D01*
X0142131Y0077011D01*
X0141516Y0077626D01*
X0134741Y0077626D01*
X0134126Y0077011D01*
X0134126Y0075370D01*
X0132305Y0075370D01*
X0132305Y0076331D01*
X0129951Y0078685D01*
X0126622Y0078685D01*
X0126541Y0078604D01*
X0125483Y0079662D01*
X0125473Y0079662D01*
X0125840Y0080029D01*
X0126541Y0080729D01*
X0126622Y0080648D01*
X0129951Y0080648D01*
X0132305Y0083002D01*
X0132305Y0086331D01*
X0129951Y0088685D01*
X0126622Y0088685D01*
X0124268Y0086331D01*
X0124268Y0083002D01*
X0124349Y0082921D01*
X0123648Y0082221D01*
X0118509Y0082221D01*
X0118509Y0084354D01*
X0118354Y0084509D01*
X0118509Y0084665D01*
X0118509Y0086913D01*
X0118486Y0086937D01*
X0118624Y0087177D01*
X0118709Y0087495D01*
X0118709Y0088254D01*
X0115585Y0088254D01*
X0115585Y0088443D01*
X0115396Y0088443D01*
X0115396Y0090287D01*
X0113358Y0090287D01*
X0113040Y0090202D01*
X0112755Y0090037D01*
X0112522Y0089805D01*
X0112358Y0089520D01*
X0112272Y0089202D01*
X0112272Y0088443D01*
X0115396Y0088443D01*
X0115396Y0088254D01*
X0112272Y0088254D01*
X0112272Y0087495D01*
X0112358Y0087177D01*
X0112496Y0086937D01*
X0112472Y0086913D01*
X0112472Y0084665D01*
X0112628Y0084509D01*
X0112472Y0084354D01*
X0112472Y0082106D01*
X0112628Y0081950D01*
X0112472Y0081795D01*
X0112472Y0079547D01*
X0112628Y0079391D01*
X0112472Y0079236D01*
X0112472Y0076988D01*
X0112628Y0076832D01*
X0112472Y0076677D01*
X0112472Y0074429D01*
X0112628Y0074273D01*
X0112472Y0074118D01*
X0112472Y0072240D01*
X0112120Y0072592D01*
X0112120Y0112647D01*
X0128362Y0128890D01*
X0128649Y0128603D01*
X0129691Y0128171D01*
X0130818Y0128171D01*
X0131860Y0128603D01*
X0132657Y0129400D01*
X0133089Y0130442D01*
X0133089Y0131569D01*
X0132657Y0132611D01*
X0131860Y0133408D01*
X0130818Y0133840D01*
X0129691Y0133840D01*
X0129152Y0133617D01*
X0133082Y0137546D01*
X0142236Y0137546D01*
X0142236Y0137185D01*
X0142825Y0136596D01*
X0142236Y0136007D01*
X0142236Y0135646D01*
X0141053Y0135646D01*
X0140661Y0135808D01*
X0139533Y0135808D01*
X0138492Y0135377D01*
X0137694Y0134580D01*
X0137263Y0133538D01*
X0137263Y0132410D01*
X0137694Y0131369D01*
X0138492Y0130571D01*
X0139533Y0130140D01*
X0140661Y0130140D01*
X0141703Y0130571D01*
X0142500Y0131369D01*
X0142662Y0131759D01*
X0142851Y0131570D01*
X0150279Y0131570D01*
X0149197Y0131280D01*
X0146432Y0129684D01*
X0144175Y0127426D01*
X0142579Y0124662D01*
X0141753Y0121578D01*
X0141753Y0118386D01*
X0142579Y0115302D01*
X0144175Y0112538D01*
X0146432Y0110280D01*
X0149197Y0108684D01*
X0149780Y0108528D01*
X0144568Y0108528D01*
X0143953Y0107913D01*
X0143953Y0106217D01*
X0132305Y0106217D01*
X0132305Y0108070D01*
X0131690Y0108685D01*
X0124883Y0108685D01*
X0124268Y0108070D01*
X0124268Y0101264D01*
X0124883Y0100648D01*
X0131690Y0100648D01*
X0132305Y0101264D01*
X0132305Y0103117D01*
X0143953Y0103117D01*
X0143953Y0101106D01*
X0144568Y0100491D01*
X0151375Y0100491D01*
X0151990Y0101106D01*
X0151990Y0101173D01*
X0152327Y0100836D01*
X0152327Y0088439D01*
X0149585Y0085697D01*
X0144584Y0085697D01*
X0143968Y0085082D01*
X0143968Y0078701D01*
X0144584Y0078085D01*
X0151359Y0078085D01*
X0151974Y0078701D01*
X0151974Y0083702D01*
X0154519Y0086247D01*
X0155427Y0087155D01*
X0155427Y0102120D01*
X0152395Y0105152D01*
X0151990Y0105557D01*
X0151990Y0107913D01*
X0151958Y0107944D01*
X0152281Y0107858D01*
X0155473Y0107858D01*
X0158556Y0108684D01*
X0159219Y0109067D01*
X0159219Y0037080D01*
X0074657Y0037080D01*
X0075450Y0040039D01*
X0075450Y0043232D01*
X0074623Y0046315D01*
X0073027Y0049080D01*
X0070770Y0051337D01*
X0068005Y0052933D01*
X0064922Y0053759D01*
X0061729Y0053759D01*
X0061476Y0053692D01*
X0061524Y0053872D01*
X0061524Y0056740D01*
X0057769Y0056740D01*
X0057769Y0057240D01*
X0061524Y0057240D01*
X0061524Y0060107D01*
X0061439Y0060425D01*
X0061275Y0060710D01*
X0061042Y0060943D01*
X0060757Y0061107D01*
X0060439Y0061193D01*
X0057768Y0061193D01*
X0057768Y0057240D01*
X0057268Y0057240D01*
X0057268Y0056740D01*
X0053513Y0056740D01*
X0053513Y0053872D01*
X0053598Y0053555D01*
X0053762Y0053270D01*
X0053995Y0053037D01*
X0054280Y0052872D01*
X0054598Y0052787D01*
X0057268Y0052787D01*
X0057268Y0056740D01*
X0057768Y0056740D01*
X0057768Y0052787D01*
X0058393Y0052787D01*
X0055881Y0051337D01*
X0053624Y0049080D01*
X0052028Y0046315D01*
X0051202Y0043232D01*
X0051202Y0040039D01*
X0051994Y0037080D01*
X0046839Y0037080D01*
X0049438Y0039679D01*
X0049438Y0042173D01*
X0043064Y0042173D01*
X0043064Y0042673D01*
X0049438Y0042673D01*
X0049438Y0045167D01*
X0045558Y0049047D01*
X0045191Y0049047D01*
X0045592Y0049448D01*
X0049131Y0052987D01*
X0052638Y0052987D01*
X0053254Y0053602D01*
X0053254Y0060377D01*
X0052638Y0060993D01*
X0046257Y0060993D01*
X0045642Y0060377D01*
X0045642Y0055296D01*
X0042693Y0052347D01*
X0030980Y0052347D01*
X0027480Y0048847D01*
X0027665Y0049031D02*
X0021073Y0049031D01*
X0020575Y0049530D02*
X0028163Y0049530D01*
X0028662Y0050028D02*
X0020100Y0050028D01*
X0020100Y0050527D02*
X0029160Y0050527D01*
X0029659Y0051025D02*
X0020100Y0051025D01*
X0020100Y0051524D02*
X0030157Y0051524D01*
X0030656Y0052022D02*
X0020100Y0052022D01*
X0020100Y0052521D02*
X0042867Y0052521D01*
X0043365Y0053019D02*
X0020100Y0053019D01*
X0020100Y0053518D02*
X0022793Y0053518D01*
X0022413Y0054016D02*
X0020100Y0054016D01*
X0020100Y0054515D02*
X0022413Y0054515D01*
X0022413Y0055013D02*
X0020100Y0055013D01*
X0020100Y0055512D02*
X0022413Y0055512D01*
X0022413Y0056010D02*
X0020100Y0056010D01*
X0020100Y0056509D02*
X0022413Y0056509D01*
X0022413Y0057007D02*
X0020100Y0057007D01*
X0020100Y0057506D02*
X0022413Y0057506D01*
X0022413Y0058004D02*
X0020100Y0058004D01*
X0020100Y0058503D02*
X0022413Y0058503D01*
X0022413Y0059001D02*
X0020100Y0059001D01*
X0020100Y0059500D02*
X0022413Y0059500D01*
X0022413Y0059998D02*
X0020100Y0059998D01*
X0020100Y0060497D02*
X0022413Y0060497D01*
X0022413Y0060995D02*
X0020100Y0060995D01*
X0020100Y0061494D02*
X0022413Y0061494D01*
X0022413Y0061993D02*
X0020100Y0061993D01*
X0020100Y0062491D02*
X0022413Y0062491D01*
X0022413Y0062990D02*
X0020100Y0062990D01*
X0020100Y0063488D02*
X0022670Y0063488D01*
X0020100Y0063987D02*
X0027811Y0063987D01*
X0027811Y0064485D02*
X0020100Y0064485D01*
X0020100Y0064984D02*
X0027811Y0064984D01*
X0027811Y0065482D02*
X0020100Y0065482D01*
X0020100Y0065981D02*
X0027811Y0065981D01*
X0027811Y0066479D02*
X0020100Y0066479D01*
X0020100Y0066978D02*
X0027811Y0066978D01*
X0027811Y0067476D02*
X0020100Y0067476D01*
X0020100Y0067975D02*
X0027811Y0067975D01*
X0027811Y0068473D02*
X0020100Y0068473D01*
X0020100Y0068972D02*
X0027811Y0068972D01*
X0027811Y0069470D02*
X0020100Y0069470D01*
X0020100Y0069969D02*
X0027811Y0069969D01*
X0027811Y0070467D02*
X0020100Y0070467D01*
X0020100Y0070966D02*
X0027811Y0070966D01*
X0027811Y0071464D02*
X0020100Y0071464D01*
X0020100Y0071963D02*
X0027811Y0071963D01*
X0027811Y0072461D02*
X0020100Y0072461D01*
X0020100Y0072960D02*
X0027811Y0072960D01*
X0027811Y0073458D02*
X0020100Y0073458D01*
X0020100Y0073957D02*
X0027811Y0073957D01*
X0027811Y0074455D02*
X0020100Y0074455D01*
X0020100Y0074954D02*
X0027811Y0074954D01*
X0027811Y0075452D02*
X0020514Y0075452D01*
X0021013Y0075951D02*
X0027811Y0075951D01*
X0027224Y0076449D02*
X0023443Y0076449D01*
X0023726Y0076948D02*
X0026941Y0076948D01*
X0026941Y0077446D02*
X0023726Y0077446D01*
X0023726Y0077945D02*
X0026941Y0077945D01*
X0026941Y0078443D02*
X0023726Y0078443D01*
X0023726Y0078942D02*
X0026941Y0078942D01*
X0026941Y0079440D02*
X0023726Y0079440D01*
X0023726Y0079939D02*
X0026941Y0079939D01*
X0026941Y0080437D02*
X0023726Y0080437D01*
X0023726Y0080936D02*
X0026941Y0080936D01*
X0026941Y0081434D02*
X0023726Y0081434D01*
X0023726Y0081933D02*
X0026941Y0081933D01*
X0026941Y0082431D02*
X0023726Y0082431D01*
X0023726Y0082930D02*
X0026941Y0082930D01*
X0026941Y0083429D02*
X0023726Y0083429D01*
X0023726Y0083927D02*
X0026941Y0083927D01*
X0026941Y0084426D02*
X0023726Y0084426D01*
X0023726Y0084924D02*
X0026941Y0084924D01*
X0026941Y0085423D02*
X0023726Y0085423D01*
X0023726Y0085921D02*
X0026941Y0085921D01*
X0027294Y0086420D02*
X0023373Y0086420D01*
X0020100Y0086918D02*
X0027811Y0086918D01*
X0027811Y0087417D02*
X0020100Y0087417D01*
X0020100Y0087915D02*
X0027811Y0087915D01*
X0027811Y0088414D02*
X0020100Y0088414D01*
X0020100Y0088912D02*
X0027811Y0088912D01*
X0027811Y0089411D02*
X0020100Y0089411D01*
X0020100Y0089909D02*
X0027811Y0089909D01*
X0027811Y0090408D02*
X0020100Y0090408D01*
X0020100Y0090906D02*
X0027811Y0090906D01*
X0027811Y0091405D02*
X0020100Y0091405D01*
X0020100Y0091903D02*
X0027811Y0091903D01*
X0027811Y0092402D02*
X0020100Y0092402D01*
X0020100Y0092900D02*
X0027811Y0092900D01*
X0027811Y0093399D02*
X0020100Y0093399D01*
X0020100Y0093897D02*
X0027811Y0093897D01*
X0027811Y0094396D02*
X0020100Y0094396D01*
X0020100Y0094894D02*
X0027811Y0094894D01*
X0027811Y0095393D02*
X0020100Y0095393D01*
X0020100Y0095891D02*
X0027811Y0095891D01*
X0027811Y0096390D02*
X0020100Y0096390D01*
X0020100Y0096888D02*
X0021155Y0096888D01*
X0020937Y0097387D02*
X0020100Y0097387D01*
X0020100Y0097885D02*
X0020937Y0097885D01*
X0020937Y0098384D02*
X0020100Y0098384D01*
X0020100Y0098882D02*
X0020937Y0098882D01*
X0020937Y0099381D02*
X0020100Y0099381D01*
X0020100Y0099879D02*
X0020937Y0099879D01*
X0020937Y0100378D02*
X0020100Y0100378D01*
X0020100Y0100876D02*
X0020937Y0100876D01*
X0020937Y0101375D02*
X0020100Y0101375D01*
X0020100Y0101873D02*
X0020937Y0101873D01*
X0021396Y0102372D02*
X0020100Y0102372D01*
X0020100Y0102870D02*
X0081461Y0102870D01*
X0081461Y0102372D02*
X0066168Y0102372D01*
X0066062Y0102478D02*
X0065777Y0102643D01*
X0065459Y0102728D01*
X0057670Y0102728D01*
X0057670Y0099760D01*
X0057170Y0099760D01*
X0057170Y0102728D01*
X0049381Y0102728D01*
X0049064Y0102643D01*
X0048779Y0102478D01*
X0048546Y0102245D01*
X0048381Y0101960D01*
X0048296Y0101643D01*
X0048296Y0099759D01*
X0057170Y0099759D01*
X0057170Y0099259D01*
X0057670Y0099259D01*
X0057670Y0096291D01*
X0065459Y0096291D01*
X0065777Y0096376D01*
X0066062Y0096541D01*
X0066294Y0096773D01*
X0066459Y0097058D01*
X0066544Y0097376D01*
X0066544Y0099259D01*
X0057670Y0099259D01*
X0057670Y0099759D01*
X0066544Y0099759D01*
X0066544Y0101643D01*
X0066459Y0101960D01*
X0066294Y0102245D01*
X0066062Y0102478D01*
X0066482Y0101873D02*
X0081461Y0101873D01*
X0081461Y0101375D02*
X0066544Y0101375D01*
X0066544Y0100876D02*
X0081461Y0100876D01*
X0081461Y0100378D02*
X0066544Y0100378D01*
X0066544Y0099879D02*
X0081461Y0099879D01*
X0081461Y0099381D02*
X0057670Y0099381D01*
X0057670Y0099879D02*
X0057170Y0099879D01*
X0057170Y0099381D02*
X0038785Y0099381D01*
X0038785Y0099879D02*
X0048296Y0099879D01*
X0048296Y0100378D02*
X0038785Y0100378D01*
X0038785Y0100876D02*
X0048296Y0100876D01*
X0048296Y0101375D02*
X0038785Y0101375D01*
X0038785Y0101873D02*
X0048358Y0101873D01*
X0048672Y0102372D02*
X0038326Y0102372D01*
X0038785Y0098882D02*
X0048296Y0098882D01*
X0048296Y0099259D02*
X0048296Y0097376D01*
X0048381Y0097058D01*
X0048546Y0096773D01*
X0048779Y0096541D01*
X0049064Y0096376D01*
X0049381Y0096291D01*
X0057170Y0096291D01*
X0057170Y0099259D01*
X0048296Y0099259D01*
X0048296Y0098384D02*
X0038785Y0098384D01*
X0038785Y0097885D02*
X0048296Y0097885D01*
X0048296Y0097387D02*
X0038785Y0097387D01*
X0038567Y0096888D02*
X0048479Y0096888D01*
X0049040Y0096390D02*
X0031911Y0096390D01*
X0031911Y0095891D02*
X0081461Y0095891D01*
X0081461Y0095393D02*
X0031911Y0095393D01*
X0031911Y0094894D02*
X0081461Y0094894D01*
X0081461Y0094396D02*
X0031911Y0094396D01*
X0031911Y0093897D02*
X0081461Y0093897D01*
X0081461Y0093399D02*
X0031911Y0093399D01*
X0031911Y0092900D02*
X0081461Y0092900D01*
X0081461Y0092402D02*
X0031911Y0092402D01*
X0031911Y0091903D02*
X0081239Y0091903D01*
X0080740Y0091405D02*
X0031911Y0091405D01*
X0031911Y0090906D02*
X0080456Y0090906D01*
X0080250Y0090408D02*
X0031911Y0090408D01*
X0031911Y0089909D02*
X0080176Y0089909D01*
X0080176Y0089411D02*
X0031911Y0089411D01*
X0031911Y0088912D02*
X0080255Y0088912D01*
X0080462Y0088414D02*
X0031911Y0088414D01*
X0031911Y0087915D02*
X0080754Y0087915D01*
X0081253Y0087417D02*
X0031911Y0087417D01*
X0031911Y0086918D02*
X0082241Y0086918D01*
X0083780Y0086918D02*
X0084507Y0086918D01*
X0084768Y0087417D02*
X0085005Y0087417D01*
X0085267Y0087915D02*
X0085504Y0087915D01*
X0085559Y0088414D02*
X0086002Y0088414D01*
X0085766Y0088912D02*
X0086501Y0088912D01*
X0086999Y0089411D02*
X0085845Y0089411D01*
X0085845Y0089909D02*
X0087498Y0089909D01*
X0087996Y0090408D02*
X0085772Y0090408D01*
X0085565Y0090906D02*
X0088449Y0090906D01*
X0088449Y0091405D02*
X0085281Y0091405D01*
X0084783Y0091903D02*
X0088449Y0091903D01*
X0088449Y0092402D02*
X0084561Y0092402D01*
X0084561Y0092900D02*
X0088449Y0092900D01*
X0088449Y0093399D02*
X0084561Y0093399D01*
X0084561Y0093897D02*
X0086449Y0093897D01*
X0086193Y0094396D02*
X0084561Y0094396D01*
X0084561Y0094894D02*
X0086193Y0094894D01*
X0086193Y0095393D02*
X0084561Y0095393D01*
X0084561Y0095891D02*
X0086193Y0095891D01*
X0086193Y0096390D02*
X0084561Y0096390D01*
X0084561Y0096888D02*
X0086193Y0096888D01*
X0086193Y0097387D02*
X0084561Y0097387D01*
X0084561Y0097885D02*
X0086193Y0097885D01*
X0086193Y0098384D02*
X0084561Y0098384D01*
X0084561Y0098882D02*
X0086193Y0098882D01*
X0086193Y0099381D02*
X0084561Y0099381D01*
X0084561Y0099879D02*
X0086193Y0099879D01*
X0086193Y0100378D02*
X0084561Y0100378D01*
X0084561Y0100876D02*
X0086193Y0100876D01*
X0086639Y0101375D02*
X0084561Y0101375D01*
X0084561Y0101873D02*
X0088449Y0101873D01*
X0088449Y0102372D02*
X0084561Y0102372D01*
X0084561Y0102870D02*
X0088449Y0102870D01*
X0088449Y0103369D02*
X0084561Y0103369D01*
X0084561Y0103867D02*
X0086321Y0103867D01*
X0086193Y0104366D02*
X0084561Y0104366D01*
X0084561Y0104864D02*
X0086193Y0104864D01*
X0086193Y0105363D02*
X0084561Y0105363D01*
X0084561Y0105862D02*
X0086193Y0105862D01*
X0086193Y0106360D02*
X0084561Y0106360D01*
X0084561Y0106859D02*
X0086193Y0106859D01*
X0086193Y0107357D02*
X0084561Y0107357D01*
X0084561Y0107856D02*
X0086193Y0107856D01*
X0086193Y0108354D02*
X0084561Y0108354D01*
X0084561Y0108853D02*
X0086193Y0108853D01*
X0086193Y0109351D02*
X0084561Y0109351D01*
X0084561Y0109850D02*
X0086193Y0109850D01*
X0086193Y0110348D02*
X0084207Y0110348D01*
X0083708Y0110847D02*
X0086268Y0110847D01*
X0086767Y0111345D02*
X0083209Y0111345D01*
X0082711Y0111844D02*
X0088449Y0111844D01*
X0088449Y0112342D02*
X0082212Y0112342D01*
X0081714Y0112841D02*
X0088449Y0112841D01*
X0086692Y0113339D02*
X0081215Y0113339D01*
X0080717Y0113838D02*
X0086194Y0113838D01*
X0086193Y0114336D02*
X0080218Y0114336D01*
X0079720Y0114835D02*
X0086193Y0114835D01*
X0086193Y0115333D02*
X0079221Y0115333D01*
X0078723Y0115832D02*
X0085047Y0115832D01*
X0084549Y0116330D02*
X0078224Y0116330D01*
X0077726Y0116829D02*
X0084050Y0116829D01*
X0083552Y0117327D02*
X0077227Y0117327D01*
X0076729Y0117826D02*
X0083053Y0117826D01*
X0082555Y0118324D02*
X0076230Y0118324D01*
X0075732Y0118823D02*
X0082056Y0118823D01*
X0081558Y0119321D02*
X0075233Y0119321D01*
X0074735Y0119820D02*
X0081059Y0119820D01*
X0080561Y0120318D02*
X0074236Y0120318D01*
X0073738Y0120817D02*
X0080062Y0120817D01*
X0079564Y0121315D02*
X0073239Y0121315D01*
X0072741Y0121814D02*
X0079065Y0121814D01*
X0078567Y0122312D02*
X0072242Y0122312D01*
X0071744Y0122811D02*
X0078068Y0122811D01*
X0077570Y0123309D02*
X0071245Y0123309D01*
X0070747Y0123808D02*
X0077071Y0123808D01*
X0076573Y0124306D02*
X0070248Y0124306D01*
X0069750Y0124805D02*
X0076074Y0124805D01*
X0075576Y0125303D02*
X0069251Y0125303D01*
X0068753Y0125802D02*
X0075077Y0125802D01*
X0074579Y0126300D02*
X0068254Y0126300D01*
X0067756Y0126799D02*
X0074080Y0126799D01*
X0073582Y0127298D02*
X0067257Y0127298D01*
X0066759Y0127796D02*
X0073083Y0127796D01*
X0072585Y0128295D02*
X0066260Y0128295D01*
X0065762Y0128793D02*
X0072086Y0128793D01*
X0071588Y0129292D02*
X0065263Y0129292D01*
X0064765Y0129790D02*
X0071089Y0129790D01*
X0070591Y0130289D02*
X0064266Y0130289D01*
X0063768Y0130787D02*
X0070092Y0130787D01*
X0069594Y0131286D02*
X0063269Y0131286D01*
X0062771Y0131784D02*
X0063897Y0131784D01*
X0063496Y0132283D02*
X0062272Y0132283D01*
X0061773Y0132781D02*
X0063496Y0132781D01*
X0063496Y0133280D02*
X0061275Y0133280D01*
X0060776Y0133778D02*
X0063496Y0133778D01*
X0063496Y0134277D02*
X0060278Y0134277D01*
X0059779Y0134775D02*
X0063496Y0134775D01*
X0063496Y0135274D02*
X0059281Y0135274D01*
X0058782Y0135772D02*
X0063496Y0135772D01*
X0063759Y0136271D02*
X0058284Y0136271D01*
X0057785Y0136769D02*
X0063912Y0136769D01*
X0063496Y0137268D02*
X0057287Y0137268D01*
X0056788Y0137766D02*
X0063496Y0137766D01*
X0063496Y0138265D02*
X0056290Y0138265D01*
X0055791Y0138763D02*
X0063496Y0138763D01*
X0063496Y0139262D02*
X0055293Y0139262D01*
X0054794Y0139760D02*
X0063496Y0139760D01*
X0063496Y0140259D02*
X0054296Y0140259D01*
X0052903Y0137268D02*
X0049817Y0137268D01*
X0050315Y0136769D02*
X0053401Y0136769D01*
X0053900Y0136271D02*
X0050521Y0136271D01*
X0050728Y0135772D02*
X0054398Y0135772D01*
X0054897Y0135274D02*
X0050805Y0135274D01*
X0050805Y0134775D02*
X0055395Y0134775D01*
X0055894Y0134277D02*
X0050796Y0134277D01*
X0050589Y0133778D02*
X0056392Y0133778D01*
X0056891Y0133280D02*
X0050383Y0133280D01*
X0049981Y0132781D02*
X0057389Y0132781D01*
X0057888Y0132283D02*
X0049483Y0132283D01*
X0048387Y0131784D02*
X0058386Y0131784D01*
X0058885Y0131286D02*
X0037181Y0131286D01*
X0038044Y0130787D02*
X0059383Y0130787D01*
X0059882Y0130289D02*
X0038908Y0130289D01*
X0039561Y0129790D02*
X0060381Y0129790D01*
X0060879Y0129292D02*
X0040060Y0129292D01*
X0040558Y0128793D02*
X0061378Y0128793D01*
X0061876Y0128295D02*
X0041057Y0128295D01*
X0041545Y0127796D02*
X0062375Y0127796D01*
X0062873Y0127298D02*
X0041833Y0127298D01*
X0042121Y0126799D02*
X0063372Y0126799D01*
X0063870Y0126300D02*
X0042408Y0126300D01*
X0042696Y0125802D02*
X0064369Y0125802D01*
X0064867Y0125303D02*
X0042984Y0125303D01*
X0043194Y0124805D02*
X0065366Y0124805D01*
X0065864Y0124306D02*
X0043328Y0124306D01*
X0043462Y0123808D02*
X0066363Y0123808D01*
X0066861Y0123309D02*
X0043595Y0123309D01*
X0043729Y0122811D02*
X0067360Y0122811D01*
X0067858Y0122312D02*
X0043862Y0122312D01*
X0043954Y0121814D02*
X0068357Y0121814D01*
X0068855Y0121315D02*
X0043954Y0121315D01*
X0043954Y0120817D02*
X0069354Y0120817D01*
X0069852Y0120318D02*
X0043954Y0120318D01*
X0043954Y0119820D02*
X0070351Y0119820D01*
X0070849Y0119321D02*
X0043954Y0119321D01*
X0043954Y0118823D02*
X0071348Y0118823D01*
X0071846Y0118324D02*
X0043832Y0118324D01*
X0043698Y0117826D02*
X0072345Y0117826D01*
X0072843Y0117327D02*
X0043564Y0117327D01*
X0043431Y0116829D02*
X0073342Y0116829D01*
X0073840Y0116330D02*
X0043297Y0116330D01*
X0043164Y0115832D02*
X0074339Y0115832D01*
X0074837Y0115333D02*
X0042918Y0115333D01*
X0042630Y0114835D02*
X0075336Y0114835D01*
X0075834Y0114336D02*
X0042342Y0114336D01*
X0042054Y0113838D02*
X0076333Y0113838D01*
X0076831Y0113339D02*
X0041767Y0113339D01*
X0041440Y0112841D02*
X0077330Y0112841D01*
X0077828Y0112342D02*
X0040942Y0112342D01*
X0040443Y0111844D02*
X0078327Y0111844D01*
X0078825Y0111345D02*
X0039945Y0111345D01*
X0039446Y0110847D02*
X0079324Y0110847D01*
X0079822Y0110348D02*
X0038709Y0110348D01*
X0037846Y0109850D02*
X0080321Y0109850D01*
X0080819Y0109351D02*
X0036982Y0109351D01*
X0035669Y0108853D02*
X0081318Y0108853D01*
X0081461Y0108354D02*
X0033808Y0108354D01*
X0029851Y0108354D02*
X0020100Y0108354D01*
X0020100Y0107856D02*
X0081461Y0107856D01*
X0081461Y0107357D02*
X0020100Y0107357D01*
X0020100Y0106859D02*
X0081461Y0106859D01*
X0081461Y0106360D02*
X0020100Y0106360D01*
X0020100Y0105862D02*
X0081461Y0105862D01*
X0081461Y0105363D02*
X0020100Y0105363D01*
X0020100Y0104864D02*
X0081461Y0104864D01*
X0081461Y0104366D02*
X0020100Y0104366D01*
X0020100Y0103867D02*
X0081461Y0103867D01*
X0081461Y0103369D02*
X0020100Y0103369D01*
X0020100Y0108853D02*
X0027990Y0108853D01*
X0026677Y0109351D02*
X0020100Y0109351D01*
X0020100Y0109850D02*
X0025813Y0109850D01*
X0024950Y0110348D02*
X0020100Y0110348D01*
X0020100Y0110847D02*
X0024213Y0110847D01*
X0023714Y0111345D02*
X0020100Y0111345D01*
X0020100Y0111844D02*
X0023216Y0111844D01*
X0022717Y0112342D02*
X0020100Y0112342D01*
X0020100Y0112841D02*
X0022219Y0112841D01*
X0021892Y0113339D02*
X0020100Y0113339D01*
X0020100Y0113838D02*
X0021605Y0113838D01*
X0021317Y0114336D02*
X0020100Y0114336D01*
X0020100Y0114835D02*
X0021029Y0114835D01*
X0020741Y0115333D02*
X0020100Y0115333D01*
X0020100Y0115832D02*
X0020495Y0115832D01*
X0020362Y0116330D02*
X0020100Y0116330D01*
X0020100Y0116829D02*
X0020228Y0116829D01*
X0036096Y0131784D02*
X0046768Y0131784D01*
X0047944Y0142253D02*
X0051148Y0142253D01*
X0050649Y0142751D02*
X0048443Y0142751D01*
X0048941Y0143250D02*
X0050151Y0143250D01*
X0049652Y0143748D02*
X0049440Y0143748D01*
X0045528Y0146146D02*
X0035457Y0146146D01*
X0035105Y0146499D01*
X0035314Y0146619D01*
X0035546Y0146852D01*
X0035711Y0147137D01*
X0035796Y0147455D01*
X0035796Y0148846D01*
X0030367Y0148846D01*
X0030367Y0149346D01*
X0035796Y0149346D01*
X0035796Y0150737D01*
X0035711Y0151055D01*
X0035546Y0151340D01*
X0035314Y0151573D01*
X0035273Y0151596D01*
X0035314Y0151619D01*
X0035546Y0151852D01*
X0035711Y0152137D01*
X0035796Y0152455D01*
X0035796Y0153846D01*
X0030367Y0153846D01*
X0030367Y0154346D01*
X0035796Y0154346D01*
X0035796Y0155737D01*
X0035711Y0156055D01*
X0035546Y0156340D01*
X0035314Y0156573D01*
X0035273Y0156596D01*
X0035314Y0156619D01*
X0035546Y0156852D01*
X0035711Y0157137D01*
X0035796Y0157455D01*
X0035796Y0158846D01*
X0030367Y0158846D01*
X0030367Y0159346D01*
X0035796Y0159346D01*
X0035796Y0160737D01*
X0035711Y0161055D01*
X0035546Y0161340D01*
X0035314Y0161573D01*
X0035273Y0161596D01*
X0035314Y0161619D01*
X0035546Y0161852D01*
X0035711Y0162137D01*
X0035796Y0162455D01*
X0035796Y0163846D01*
X0030367Y0163846D01*
X0030367Y0164346D01*
X0035796Y0164346D01*
X0035796Y0165737D01*
X0035711Y0166055D01*
X0035546Y0166340D01*
X0035314Y0166573D01*
X0035105Y0166693D01*
X0035457Y0167046D01*
X0043210Y0167046D01*
X0045528Y0169364D01*
X0045528Y0146146D01*
X0045528Y0146241D02*
X0035362Y0146241D01*
X0035434Y0146739D02*
X0045528Y0146739D01*
X0045528Y0147238D02*
X0035738Y0147238D01*
X0035796Y0147736D02*
X0045528Y0147736D01*
X0045528Y0148235D02*
X0035796Y0148235D01*
X0035796Y0148733D02*
X0045528Y0148733D01*
X0045528Y0149232D02*
X0030367Y0149232D01*
X0030367Y0149346D02*
X0029867Y0149346D01*
X0029867Y0151822D01*
X0029867Y0153846D01*
X0030367Y0153846D01*
X0030367Y0149346D01*
X0030367Y0149731D02*
X0029867Y0149731D01*
X0029867Y0150229D02*
X0030367Y0150229D01*
X0030367Y0150728D02*
X0029867Y0150728D01*
X0029867Y0151226D02*
X0030367Y0151226D01*
X0030367Y0151725D02*
X0029867Y0151725D01*
X0029867Y0152223D02*
X0030367Y0152223D01*
X0030367Y0152722D02*
X0029867Y0152722D01*
X0029867Y0153220D02*
X0030367Y0153220D01*
X0030367Y0153719D02*
X0029867Y0153719D01*
X0029867Y0154346D02*
X0029867Y0156370D01*
X0029867Y0158846D01*
X0030367Y0158846D01*
X0030367Y0154346D01*
X0029867Y0154346D01*
X0029867Y0154716D02*
X0030367Y0154716D01*
X0030367Y0155214D02*
X0029867Y0155214D01*
X0029867Y0155713D02*
X0030367Y0155713D01*
X0030367Y0156211D02*
X0029867Y0156211D01*
X0029867Y0156710D02*
X0030367Y0156710D01*
X0030367Y0157208D02*
X0029867Y0157208D01*
X0029867Y0157707D02*
X0030367Y0157707D01*
X0030367Y0158205D02*
X0029867Y0158205D01*
X0029867Y0158704D02*
X0030367Y0158704D01*
X0030367Y0159202D02*
X0045528Y0159202D01*
X0045528Y0158704D02*
X0035796Y0158704D01*
X0035796Y0158205D02*
X0045528Y0158205D01*
X0045528Y0157707D02*
X0035796Y0157707D01*
X0035730Y0157208D02*
X0045528Y0157208D01*
X0045528Y0156710D02*
X0035404Y0156710D01*
X0035621Y0156211D02*
X0045528Y0156211D01*
X0045528Y0155713D02*
X0035796Y0155713D01*
X0035796Y0155214D02*
X0045528Y0155214D01*
X0045528Y0154716D02*
X0035796Y0154716D01*
X0035796Y0153719D02*
X0045528Y0153719D01*
X0045528Y0154217D02*
X0030367Y0154217D01*
X0030367Y0159346D02*
X0029867Y0159346D01*
X0029867Y0161822D01*
X0029867Y0163846D01*
X0030367Y0163846D01*
X0030367Y0159346D01*
X0030367Y0159701D02*
X0029867Y0159701D01*
X0029867Y0160199D02*
X0030367Y0160199D01*
X0030367Y0160698D02*
X0029867Y0160698D01*
X0029867Y0161196D02*
X0030367Y0161196D01*
X0030367Y0161695D02*
X0029867Y0161695D01*
X0029867Y0162193D02*
X0030367Y0162193D01*
X0030367Y0162692D02*
X0029867Y0162692D01*
X0029867Y0163190D02*
X0030367Y0163190D01*
X0030367Y0163689D02*
X0029867Y0163689D01*
X0030367Y0164187D02*
X0045528Y0164187D01*
X0045528Y0163689D02*
X0035796Y0163689D01*
X0035796Y0163190D02*
X0045528Y0163190D01*
X0045528Y0162692D02*
X0035796Y0162692D01*
X0035726Y0162193D02*
X0045528Y0162193D01*
X0045528Y0161695D02*
X0035389Y0161695D01*
X0035629Y0161196D02*
X0045528Y0161196D01*
X0045528Y0160698D02*
X0035796Y0160698D01*
X0035796Y0160199D02*
X0045528Y0160199D01*
X0045528Y0159701D02*
X0035796Y0159701D01*
X0035796Y0164686D02*
X0045528Y0164686D01*
X0045528Y0165184D02*
X0035796Y0165184D01*
X0035796Y0165683D02*
X0045528Y0165683D01*
X0045528Y0166181D02*
X0035638Y0166181D01*
X0035128Y0166680D02*
X0045528Y0166680D01*
X0045528Y0167178D02*
X0043342Y0167178D01*
X0043841Y0167677D02*
X0045528Y0167677D01*
X0045528Y0168175D02*
X0044339Y0168175D01*
X0044838Y0168674D02*
X0045528Y0168674D01*
X0045528Y0169172D02*
X0045336Y0169172D01*
X0053565Y0169172D02*
X0053756Y0169172D01*
X0053565Y0169364D02*
X0053565Y0146146D01*
X0063635Y0146146D01*
X0063987Y0146499D01*
X0063779Y0146619D01*
X0063546Y0146852D01*
X0063381Y0147137D01*
X0063296Y0147455D01*
X0063296Y0148846D01*
X0068725Y0148846D01*
X0068725Y0149346D01*
X0063296Y0149346D01*
X0063296Y0150737D01*
X0063381Y0151055D01*
X0063546Y0151340D01*
X0063779Y0151573D01*
X0063819Y0151596D01*
X0063779Y0151619D01*
X0063546Y0151852D01*
X0063381Y0152137D01*
X0063296Y0152455D01*
X0063296Y0153846D01*
X0068725Y0153846D01*
X0068725Y0154346D01*
X0063296Y0154346D01*
X0063296Y0155737D01*
X0063381Y0156055D01*
X0063546Y0156340D01*
X0063779Y0156573D01*
X0063819Y0156596D01*
X0063779Y0156619D01*
X0063546Y0156852D01*
X0063381Y0157137D01*
X0063296Y0157455D01*
X0063296Y0158846D01*
X0068725Y0158846D01*
X0068725Y0159346D01*
X0063296Y0159346D01*
X0063296Y0160737D01*
X0063381Y0161055D01*
X0063546Y0161340D01*
X0063779Y0161573D01*
X0063819Y0161596D01*
X0063779Y0161619D01*
X0063546Y0161852D01*
X0063381Y0162137D01*
X0063296Y0162455D01*
X0063296Y0163846D01*
X0068725Y0163846D01*
X0068725Y0164346D01*
X0063296Y0164346D01*
X0063296Y0165737D01*
X0063381Y0166055D01*
X0063546Y0166340D01*
X0063779Y0166573D01*
X0063987Y0166693D01*
X0063635Y0167046D01*
X0055882Y0167046D01*
X0054681Y0168247D01*
X0053565Y0169364D01*
X0053565Y0168674D02*
X0054254Y0168674D01*
X0054753Y0168175D02*
X0053565Y0168175D01*
X0053565Y0167677D02*
X0055251Y0167677D01*
X0055750Y0167178D02*
X0053565Y0167178D01*
X0053565Y0166680D02*
X0063964Y0166680D01*
X0063454Y0166181D02*
X0053565Y0166181D01*
X0053565Y0165683D02*
X0063296Y0165683D01*
X0063296Y0165184D02*
X0053565Y0165184D01*
X0053565Y0164686D02*
X0063296Y0164686D01*
X0063296Y0163689D02*
X0053565Y0163689D01*
X0053565Y0164187D02*
X0068725Y0164187D01*
X0068725Y0163846D02*
X0069225Y0163846D01*
X0069225Y0159346D01*
X0068725Y0159346D01*
X0068725Y0161822D01*
X0068725Y0163846D01*
X0068725Y0163689D02*
X0069225Y0163689D01*
X0069225Y0163846D02*
X0069225Y0164346D01*
X0074654Y0164346D01*
X0074654Y0165737D01*
X0074569Y0166055D01*
X0074405Y0166340D01*
X0074172Y0166573D01*
X0073963Y0166693D01*
X0074454Y0167185D01*
X0074454Y0171007D01*
X0073866Y0171596D01*
X0074454Y0172185D01*
X0074454Y0176007D01*
X0073866Y0176596D01*
X0074454Y0177185D01*
X0074454Y0181007D01*
X0073839Y0181622D01*
X0064269Y0181622D01*
X0064094Y0182047D01*
X0063186Y0182955D01*
X0061999Y0183446D01*
X0060715Y0183446D01*
X0059529Y0182955D01*
X0058621Y0182047D01*
X0058129Y0180860D01*
X0058129Y0179576D01*
X0058621Y0178390D01*
X0059529Y0177482D01*
X0060565Y0177052D01*
X0059752Y0176715D01*
X0058954Y0175918D01*
X0058523Y0174876D01*
X0058523Y0173749D01*
X0058954Y0172707D01*
X0059752Y0171910D01*
X0060793Y0171478D01*
X0061921Y0171478D01*
X0062963Y0171910D01*
X0063496Y0172443D01*
X0063496Y0172185D01*
X0064085Y0171596D01*
X0063635Y0171146D01*
X0057580Y0171146D01*
X0057502Y0171225D01*
X0057502Y0187991D01*
X0063427Y0193916D01*
X0066211Y0193916D01*
X0068565Y0196270D01*
X0068565Y0199340D01*
X0079970Y0199340D01*
X0079587Y0198677D01*
X0078761Y0195594D01*
X0078761Y0192402D01*
X0079587Y0189318D01*
X0081183Y0186553D01*
X0083440Y0184296D01*
X0086205Y0182700D01*
X0089288Y0181874D01*
X0092481Y0181874D01*
X0095564Y0182700D01*
X0098329Y0184296D01*
X0100586Y0186553D01*
X0102182Y0189318D01*
X0103009Y0192402D01*
X0103009Y0195594D01*
X0102182Y0198677D01*
X0101800Y0199340D01*
X0109268Y0199340D01*
X0109268Y0194531D01*
X0109883Y0193916D01*
X0114406Y0193916D01*
X0120331Y0187991D01*
X0120331Y0171225D01*
X0120252Y0171146D01*
X0114197Y0171146D01*
X0113747Y0171596D01*
X0114336Y0172185D01*
X0114336Y0176007D01*
X0113747Y0176596D01*
X0114336Y0177185D01*
X0114336Y0181007D01*
X0113721Y0181622D01*
X0103993Y0181622D01*
X0103378Y0181007D01*
X0103378Y0180646D01*
X0100932Y0180646D01*
X0100024Y0179738D01*
X0088449Y0168163D01*
X0088449Y0127526D01*
X0088393Y0127503D01*
X0087596Y0126705D01*
X0087165Y0125664D01*
X0087165Y0124536D01*
X0087596Y0123495D01*
X0088393Y0122697D01*
X0088449Y0122674D01*
X0088449Y0121229D01*
X0086808Y0121229D01*
X0086193Y0120614D01*
X0086193Y0119070D01*
X0073694Y0131570D01*
X0073839Y0131570D01*
X0074454Y0132185D01*
X0074454Y0136007D01*
X0073866Y0136596D01*
X0074454Y0137185D01*
X0074454Y0137330D01*
X0074679Y0137330D01*
X0074702Y0137274D01*
X0075500Y0136477D01*
X0076541Y0136045D01*
X0077669Y0136045D01*
X0078711Y0136477D01*
X0079508Y0137274D01*
X0079939Y0138316D01*
X0079939Y0139443D01*
X0079508Y0140485D01*
X0078711Y0141282D01*
X0077669Y0141714D01*
X0076541Y0141714D01*
X0075500Y0141282D01*
X0074702Y0140485D01*
X0074679Y0140430D01*
X0074454Y0140430D01*
X0074454Y0141007D01*
X0073866Y0141596D01*
X0074454Y0142185D01*
X0074454Y0146007D01*
X0073963Y0146499D01*
X0074172Y0146619D01*
X0074405Y0146852D01*
X0074569Y0147137D01*
X0074654Y0147455D01*
X0074654Y0148846D01*
X0069225Y0148846D01*
X0069225Y0149346D01*
X0068725Y0149346D01*
X0068725Y0151822D01*
X0068725Y0153846D01*
X0069225Y0153846D01*
X0069225Y0149346D01*
X0074654Y0149346D01*
X0074654Y0150737D01*
X0074569Y0151055D01*
X0074405Y0151340D01*
X0074172Y0151573D01*
X0074131Y0151596D01*
X0074172Y0151619D01*
X0074405Y0151852D01*
X0074569Y0152137D01*
X0074654Y0152455D01*
X0074654Y0153846D01*
X0069225Y0153846D01*
X0069225Y0154346D01*
X0068725Y0154346D01*
X0068725Y0156822D01*
X0068725Y0158846D01*
X0069225Y0158846D01*
X0069225Y0154346D01*
X0074654Y0154346D01*
X0074654Y0155737D01*
X0074569Y0156055D01*
X0074405Y0156340D01*
X0074172Y0156573D01*
X0074131Y0156596D01*
X0074172Y0156619D01*
X0074405Y0156852D01*
X0074569Y0157137D01*
X0074654Y0157455D01*
X0074654Y0158846D01*
X0069225Y0158846D01*
X0069225Y0159346D01*
X0074654Y0159346D01*
X0074654Y0160737D01*
X0074569Y0161055D01*
X0074405Y0161340D01*
X0074172Y0161573D01*
X0074131Y0161596D01*
X0074172Y0161619D01*
X0074405Y0161852D01*
X0074569Y0162137D01*
X0074654Y0162455D01*
X0074654Y0163846D01*
X0069225Y0163846D01*
X0069225Y0164187D02*
X0088449Y0164187D01*
X0088449Y0163689D02*
X0074654Y0163689D01*
X0074654Y0163190D02*
X0088449Y0163190D01*
X0088449Y0162692D02*
X0074654Y0162692D01*
X0074584Y0162193D02*
X0088449Y0162193D01*
X0088449Y0161695D02*
X0074247Y0161695D01*
X0074488Y0161196D02*
X0088449Y0161196D01*
X0088449Y0160698D02*
X0074654Y0160698D01*
X0074654Y0160199D02*
X0088449Y0160199D01*
X0088449Y0159701D02*
X0074654Y0159701D01*
X0074654Y0158704D02*
X0088449Y0158704D01*
X0088449Y0159202D02*
X0069225Y0159202D01*
X0069225Y0158704D02*
X0068725Y0158704D01*
X0068725Y0159202D02*
X0053565Y0159202D01*
X0053565Y0158704D02*
X0063296Y0158704D01*
X0063296Y0158205D02*
X0053565Y0158205D01*
X0053565Y0157707D02*
X0063296Y0157707D01*
X0063362Y0157208D02*
X0053565Y0157208D01*
X0053565Y0156710D02*
X0063688Y0156710D01*
X0063471Y0156211D02*
X0053565Y0156211D01*
X0053565Y0155713D02*
X0063296Y0155713D01*
X0063296Y0155214D02*
X0053565Y0155214D01*
X0053565Y0154716D02*
X0063296Y0154716D01*
X0063296Y0153719D02*
X0053565Y0153719D01*
X0053565Y0154217D02*
X0068725Y0154217D01*
X0068725Y0153719D02*
X0069225Y0153719D01*
X0069225Y0154217D02*
X0088449Y0154217D01*
X0088449Y0153719D02*
X0074654Y0153719D01*
X0074654Y0153220D02*
X0088449Y0153220D01*
X0088449Y0152722D02*
X0074654Y0152722D01*
X0074592Y0152223D02*
X0088449Y0152223D01*
X0088449Y0151725D02*
X0074277Y0151725D01*
X0074470Y0151226D02*
X0088449Y0151226D01*
X0088449Y0150728D02*
X0074654Y0150728D01*
X0074654Y0150229D02*
X0088449Y0150229D01*
X0088449Y0149731D02*
X0074654Y0149731D01*
X0074654Y0148733D02*
X0088449Y0148733D01*
X0088449Y0148235D02*
X0074654Y0148235D01*
X0074654Y0147736D02*
X0088449Y0147736D01*
X0088449Y0147238D02*
X0074596Y0147238D01*
X0074292Y0146739D02*
X0088449Y0146739D01*
X0088449Y0146241D02*
X0074221Y0146241D01*
X0074454Y0145742D02*
X0088449Y0145742D01*
X0088449Y0145244D02*
X0074454Y0145244D01*
X0074454Y0144745D02*
X0088449Y0144745D01*
X0088449Y0144247D02*
X0074454Y0144247D01*
X0074454Y0143748D02*
X0088449Y0143748D01*
X0088449Y0143250D02*
X0074454Y0143250D01*
X0074454Y0142751D02*
X0088449Y0142751D01*
X0088449Y0142253D02*
X0074454Y0142253D01*
X0074024Y0141754D02*
X0088449Y0141754D01*
X0088449Y0141256D02*
X0078737Y0141256D01*
X0079236Y0140757D02*
X0088449Y0140757D01*
X0088449Y0140259D02*
X0079602Y0140259D01*
X0079808Y0139760D02*
X0088449Y0139760D01*
X0088449Y0139262D02*
X0079939Y0139262D01*
X0079939Y0138763D02*
X0088449Y0138763D01*
X0088449Y0138265D02*
X0079918Y0138265D01*
X0079712Y0137766D02*
X0088449Y0137766D01*
X0088449Y0137268D02*
X0079501Y0137268D01*
X0079003Y0136769D02*
X0088449Y0136769D01*
X0088449Y0136271D02*
X0078213Y0136271D01*
X0075997Y0136271D02*
X0074191Y0136271D01*
X0074039Y0136769D02*
X0075207Y0136769D01*
X0074709Y0137268D02*
X0074454Y0137268D01*
X0074454Y0135772D02*
X0088449Y0135772D01*
X0088449Y0135274D02*
X0074454Y0135274D01*
X0074454Y0134775D02*
X0088449Y0134775D01*
X0088449Y0134277D02*
X0074454Y0134277D01*
X0074454Y0133778D02*
X0088449Y0133778D01*
X0088449Y0133280D02*
X0074454Y0133280D01*
X0074454Y0132781D02*
X0088449Y0132781D01*
X0088449Y0132283D02*
X0074454Y0132283D01*
X0074054Y0131784D02*
X0088449Y0131784D01*
X0088449Y0131286D02*
X0073978Y0131286D01*
X0074476Y0130787D02*
X0088449Y0130787D01*
X0088449Y0130289D02*
X0074975Y0130289D01*
X0075473Y0129790D02*
X0088449Y0129790D01*
X0088449Y0129292D02*
X0075972Y0129292D01*
X0076470Y0128793D02*
X0088449Y0128793D01*
X0088449Y0128295D02*
X0076969Y0128295D01*
X0077467Y0127796D02*
X0088449Y0127796D01*
X0088188Y0127298D02*
X0077966Y0127298D01*
X0078464Y0126799D02*
X0087690Y0126799D01*
X0087428Y0126300D02*
X0078963Y0126300D01*
X0079461Y0125802D02*
X0087222Y0125802D01*
X0087165Y0125303D02*
X0079960Y0125303D01*
X0080458Y0124805D02*
X0087165Y0124805D01*
X0087260Y0124306D02*
X0080957Y0124306D01*
X0081455Y0123808D02*
X0087466Y0123808D01*
X0087781Y0123309D02*
X0081954Y0123309D01*
X0082452Y0122811D02*
X0088280Y0122811D01*
X0088449Y0122312D02*
X0082951Y0122312D01*
X0083449Y0121814D02*
X0088449Y0121814D01*
X0088449Y0121315D02*
X0083948Y0121315D01*
X0084446Y0120817D02*
X0086396Y0120817D01*
X0086193Y0120318D02*
X0084945Y0120318D01*
X0085443Y0119820D02*
X0086193Y0119820D01*
X0086193Y0119321D02*
X0085942Y0119321D01*
X0091549Y0121229D02*
X0091549Y0122674D01*
X0091604Y0122697D01*
X0092402Y0123495D01*
X0092833Y0124536D01*
X0092833Y0125664D01*
X0092402Y0126705D01*
X0091604Y0127503D01*
X0091549Y0127526D01*
X0091549Y0166879D01*
X0102216Y0177546D01*
X0103378Y0177546D01*
X0103378Y0177185D01*
X0103967Y0176596D01*
X0103378Y0176007D01*
X0103378Y0175646D01*
X0101837Y0175646D01*
X0098117Y0171926D01*
X0097209Y0171018D01*
X0097209Y0130364D01*
X0103114Y0124458D01*
X0103114Y0075692D01*
X0101704Y0077103D01*
X0094887Y0077103D01*
X0094887Y0079236D01*
X0094732Y0079391D01*
X0094887Y0079547D01*
X0094887Y0081795D01*
X0094732Y0081950D01*
X0094887Y0082106D01*
X0094887Y0084354D01*
X0094732Y0084509D01*
X0094887Y0084665D01*
X0094887Y0086913D01*
X0094732Y0087069D01*
X0094887Y0087224D01*
X0094887Y0089472D01*
X0094272Y0090087D01*
X0091549Y0090087D01*
X0091549Y0093538D01*
X0093190Y0093538D01*
X0093805Y0094153D01*
X0093805Y0100929D01*
X0093190Y0101544D01*
X0091549Y0101544D01*
X0091549Y0103381D01*
X0093190Y0103381D01*
X0093805Y0103996D01*
X0093805Y0110771D01*
X0093190Y0111386D01*
X0091549Y0111386D01*
X0091549Y0113223D01*
X0093190Y0113223D01*
X0093805Y0113838D01*
X0093805Y0120614D01*
X0093190Y0121229D01*
X0091549Y0121229D01*
X0091549Y0121315D02*
X0094782Y0121315D01*
X0094831Y0121344D02*
X0094546Y0121179D01*
X0094314Y0120946D01*
X0094149Y0120661D01*
X0094064Y0120343D01*
X0094064Y0117476D01*
X0097820Y0117476D01*
X0097820Y0121429D01*
X0095149Y0121429D01*
X0094831Y0121344D01*
X0094239Y0120817D02*
X0093602Y0120817D01*
X0093805Y0120318D02*
X0094064Y0120318D01*
X0094064Y0119820D02*
X0093805Y0119820D01*
X0093805Y0119321D02*
X0094064Y0119321D01*
X0094064Y0118823D02*
X0093805Y0118823D01*
X0093805Y0118324D02*
X0094064Y0118324D01*
X0094064Y0117826D02*
X0093805Y0117826D01*
X0093805Y0117327D02*
X0097820Y0117327D01*
X0097820Y0117476D02*
X0097820Y0116976D01*
X0098320Y0116976D01*
X0098320Y0117476D01*
X0102076Y0117476D01*
X0102076Y0120343D01*
X0101990Y0120661D01*
X0101826Y0120946D01*
X0101593Y0121179D01*
X0101308Y0121344D01*
X0100990Y0121429D01*
X0098320Y0121429D01*
X0098320Y0117476D01*
X0097820Y0117476D01*
X0097820Y0117826D02*
X0098320Y0117826D01*
X0098320Y0118324D02*
X0097820Y0118324D01*
X0097820Y0118823D02*
X0098320Y0118823D01*
X0098320Y0119321D02*
X0097820Y0119321D01*
X0097820Y0119820D02*
X0098320Y0119820D01*
X0098320Y0120318D02*
X0097820Y0120318D01*
X0097820Y0120817D02*
X0098320Y0120817D01*
X0098320Y0121315D02*
X0097820Y0121315D01*
X0101357Y0121315D02*
X0103114Y0121315D01*
X0103114Y0120817D02*
X0101901Y0120817D01*
X0102076Y0120318D02*
X0103114Y0120318D01*
X0103114Y0119820D02*
X0102076Y0119820D01*
X0102076Y0119321D02*
X0103114Y0119321D01*
X0103114Y0118823D02*
X0102076Y0118823D01*
X0102076Y0118324D02*
X0103114Y0118324D01*
X0103114Y0117826D02*
X0102076Y0117826D01*
X0102076Y0116976D02*
X0098320Y0116976D01*
X0098320Y0113023D01*
X0100990Y0113023D01*
X0101308Y0113108D01*
X0101593Y0113273D01*
X0101826Y0113506D01*
X0101990Y0113791D01*
X0102076Y0114109D01*
X0102076Y0116976D01*
X0102076Y0116829D02*
X0103114Y0116829D01*
X0103114Y0117327D02*
X0098320Y0117327D01*
X0098320Y0116829D02*
X0097820Y0116829D01*
X0097820Y0116976D02*
X0097820Y0113023D01*
X0095149Y0113023D01*
X0094831Y0113108D01*
X0094546Y0113273D01*
X0094314Y0113506D01*
X0094149Y0113791D01*
X0094064Y0114109D01*
X0094064Y0116976D01*
X0097820Y0116976D01*
X0097820Y0116330D02*
X0098320Y0116330D01*
X0098320Y0115832D02*
X0097820Y0115832D01*
X0097820Y0115333D02*
X0098320Y0115333D01*
X0098320Y0114835D02*
X0097820Y0114835D01*
X0097820Y0114336D02*
X0098320Y0114336D01*
X0098320Y0113838D02*
X0097820Y0113838D01*
X0097820Y0113339D02*
X0098320Y0113339D01*
X0098320Y0111586D02*
X0100990Y0111586D01*
X0101308Y0111501D01*
X0101593Y0111336D01*
X0101826Y0111104D01*
X0101990Y0110819D01*
X0102076Y0110501D01*
X0102076Y0107633D01*
X0098320Y0107633D01*
X0098320Y0107134D01*
X0102076Y0107134D01*
X0102076Y0104266D01*
X0101990Y0103948D01*
X0101826Y0103663D01*
X0101593Y0103430D01*
X0101308Y0103266D01*
X0100990Y0103181D01*
X0098320Y0103181D01*
X0098320Y0107133D01*
X0097820Y0107133D01*
X0097820Y0103181D01*
X0095149Y0103181D01*
X0094831Y0103266D01*
X0094546Y0103430D01*
X0094314Y0103663D01*
X0094149Y0103948D01*
X0094064Y0104266D01*
X0094064Y0107134D01*
X0097820Y0107134D01*
X0097820Y0107633D01*
X0094064Y0107633D01*
X0094064Y0110501D01*
X0094149Y0110819D01*
X0094314Y0111104D01*
X0094546Y0111336D01*
X0094831Y0111501D01*
X0095149Y0111586D01*
X0097820Y0111586D01*
X0097820Y0107634D01*
X0098320Y0107634D01*
X0098320Y0111586D01*
X0098320Y0111345D02*
X0097820Y0111345D01*
X0097820Y0110847D02*
X0098320Y0110847D01*
X0098320Y0110348D02*
X0097820Y0110348D01*
X0097820Y0109850D02*
X0098320Y0109850D01*
X0098320Y0109351D02*
X0097820Y0109351D01*
X0097820Y0108853D02*
X0098320Y0108853D01*
X0098320Y0108354D02*
X0097820Y0108354D01*
X0097820Y0107856D02*
X0098320Y0107856D01*
X0098320Y0107357D02*
X0103114Y0107357D01*
X0103114Y0106859D02*
X0102076Y0106859D01*
X0102076Y0106360D02*
X0103114Y0106360D01*
X0103114Y0105862D02*
X0102076Y0105862D01*
X0102076Y0105363D02*
X0103114Y0105363D01*
X0103114Y0104864D02*
X0102076Y0104864D01*
X0102076Y0104366D02*
X0103114Y0104366D01*
X0103114Y0103867D02*
X0101944Y0103867D01*
X0101486Y0103369D02*
X0103114Y0103369D01*
X0103114Y0102870D02*
X0091549Y0102870D01*
X0091549Y0102372D02*
X0103114Y0102372D01*
X0103114Y0101873D02*
X0091549Y0101873D01*
X0091549Y0103369D02*
X0094653Y0103369D01*
X0094196Y0103867D02*
X0093676Y0103867D01*
X0093805Y0104366D02*
X0094064Y0104366D01*
X0094064Y0104864D02*
X0093805Y0104864D01*
X0093805Y0105363D02*
X0094064Y0105363D01*
X0094064Y0105862D02*
X0093805Y0105862D01*
X0093805Y0106360D02*
X0094064Y0106360D01*
X0094064Y0106859D02*
X0093805Y0106859D01*
X0093805Y0107357D02*
X0097820Y0107357D01*
X0097820Y0106859D02*
X0098320Y0106859D01*
X0098320Y0106360D02*
X0097820Y0106360D01*
X0097820Y0105862D02*
X0098320Y0105862D01*
X0098320Y0105363D02*
X0097820Y0105363D01*
X0097820Y0104864D02*
X0098320Y0104864D01*
X0098320Y0104366D02*
X0097820Y0104366D01*
X0097820Y0103867D02*
X0098320Y0103867D01*
X0098320Y0103369D02*
X0097820Y0103369D01*
X0097820Y0101744D02*
X0095149Y0101744D01*
X0094831Y0101659D01*
X0094546Y0101494D01*
X0094314Y0101261D01*
X0094149Y0100976D01*
X0094064Y0100658D01*
X0094064Y0097791D01*
X0097820Y0097791D01*
X0097820Y0101744D01*
X0097820Y0101375D02*
X0098320Y0101375D01*
X0098320Y0101744D02*
X0098320Y0097791D01*
X0102076Y0097791D01*
X0102076Y0100658D01*
X0101990Y0100976D01*
X0101826Y0101261D01*
X0101593Y0101494D01*
X0101308Y0101659D01*
X0100990Y0101744D01*
X0098320Y0101744D01*
X0098320Y0100876D02*
X0097820Y0100876D01*
X0097820Y0100378D02*
X0098320Y0100378D01*
X0098320Y0099879D02*
X0097820Y0099879D01*
X0097820Y0099381D02*
X0098320Y0099381D01*
X0098320Y0098882D02*
X0097820Y0098882D01*
X0097820Y0098384D02*
X0098320Y0098384D01*
X0098320Y0097885D02*
X0097820Y0097885D01*
X0097820Y0097791D02*
X0098320Y0097791D01*
X0098320Y0097291D01*
X0102076Y0097291D01*
X0102076Y0094424D01*
X0101990Y0094106D01*
X0101826Y0093821D01*
X0101593Y0093588D01*
X0101308Y0093423D01*
X0100990Y0093338D01*
X0098320Y0093338D01*
X0098320Y0097291D01*
X0097820Y0097291D01*
X0097820Y0093338D01*
X0095149Y0093338D01*
X0094831Y0093423D01*
X0094546Y0093588D01*
X0094314Y0093821D01*
X0094149Y0094106D01*
X0094064Y0094424D01*
X0094064Y0097291D01*
X0097820Y0097291D01*
X0097820Y0097791D01*
X0097820Y0097387D02*
X0093805Y0097387D01*
X0093805Y0097885D02*
X0094064Y0097885D01*
X0094064Y0098384D02*
X0093805Y0098384D01*
X0093805Y0098882D02*
X0094064Y0098882D01*
X0094064Y0099381D02*
X0093805Y0099381D01*
X0093805Y0099879D02*
X0094064Y0099879D01*
X0094064Y0100378D02*
X0093805Y0100378D01*
X0093805Y0100876D02*
X0094122Y0100876D01*
X0094427Y0101375D02*
X0093358Y0101375D01*
X0093805Y0096888D02*
X0094064Y0096888D01*
X0094064Y0096390D02*
X0093805Y0096390D01*
X0093805Y0095891D02*
X0094064Y0095891D01*
X0094064Y0095393D02*
X0093805Y0095393D01*
X0093805Y0094894D02*
X0094064Y0094894D01*
X0094071Y0094396D02*
X0093805Y0094396D01*
X0093549Y0093897D02*
X0094269Y0093897D01*
X0094923Y0093399D02*
X0091549Y0093399D01*
X0091549Y0092900D02*
X0103114Y0092900D01*
X0103114Y0092402D02*
X0091549Y0092402D01*
X0091549Y0091903D02*
X0103114Y0091903D01*
X0103114Y0091405D02*
X0091549Y0091405D01*
X0091549Y0090906D02*
X0103114Y0090906D01*
X0103114Y0090408D02*
X0091549Y0090408D01*
X0094450Y0089909D02*
X0103114Y0089909D01*
X0103114Y0089411D02*
X0094887Y0089411D01*
X0094887Y0088912D02*
X0103114Y0088912D01*
X0103114Y0088414D02*
X0094887Y0088414D01*
X0094887Y0087915D02*
X0103114Y0087915D01*
X0103114Y0087417D02*
X0094887Y0087417D01*
X0094882Y0086918D02*
X0103114Y0086918D01*
X0103114Y0086420D02*
X0094887Y0086420D01*
X0094887Y0085921D02*
X0103114Y0085921D01*
X0103114Y0085423D02*
X0094887Y0085423D01*
X0094887Y0084924D02*
X0103114Y0084924D01*
X0103114Y0084426D02*
X0094816Y0084426D01*
X0094887Y0083927D02*
X0103114Y0083927D01*
X0103114Y0083429D02*
X0094887Y0083429D01*
X0094887Y0082930D02*
X0103114Y0082930D01*
X0103114Y0082431D02*
X0094887Y0082431D01*
X0094749Y0081933D02*
X0103114Y0081933D01*
X0103114Y0081434D02*
X0094887Y0081434D01*
X0094887Y0080936D02*
X0103114Y0080936D01*
X0103114Y0080437D02*
X0094887Y0080437D01*
X0094887Y0079939D02*
X0103114Y0079939D01*
X0103114Y0079440D02*
X0094781Y0079440D01*
X0094887Y0078942D02*
X0103114Y0078942D01*
X0103114Y0078443D02*
X0094887Y0078443D01*
X0094887Y0077945D02*
X0103114Y0077945D01*
X0103114Y0077446D02*
X0094887Y0077446D01*
X0094887Y0070966D02*
X0099177Y0070966D01*
X0099177Y0070467D02*
X0094887Y0070467D01*
X0094887Y0069969D02*
X0099177Y0069969D01*
X0099177Y0069470D02*
X0094887Y0069470D01*
X0094887Y0068972D02*
X0099177Y0068972D01*
X0099177Y0068473D02*
X0094887Y0068473D01*
X0094887Y0067975D02*
X0099177Y0067975D01*
X0099177Y0067476D02*
X0094887Y0067476D01*
X0094887Y0066978D02*
X0099177Y0066978D01*
X0099177Y0066479D02*
X0094849Y0066479D01*
X0094887Y0065981D02*
X0099177Y0065981D01*
X0099177Y0065482D02*
X0094887Y0065482D01*
X0094887Y0064984D02*
X0099177Y0064984D01*
X0099177Y0064485D02*
X0094887Y0064485D01*
X0094782Y0063987D02*
X0099177Y0063987D01*
X0099177Y0063488D02*
X0094887Y0063488D01*
X0094887Y0062990D02*
X0099177Y0062990D01*
X0099177Y0062491D02*
X0094887Y0062491D01*
X0094887Y0061993D02*
X0099177Y0061993D01*
X0099177Y0061494D02*
X0094748Y0061494D01*
X0094887Y0060995D02*
X0099177Y0060995D01*
X0099177Y0060497D02*
X0094887Y0060497D01*
X0094887Y0059998D02*
X0099177Y0059998D01*
X0099177Y0059500D02*
X0094887Y0059500D01*
X0094814Y0059001D02*
X0099177Y0059001D01*
X0099177Y0058503D02*
X0094887Y0058503D01*
X0094887Y0058004D02*
X0099177Y0058004D01*
X0099177Y0057506D02*
X0094887Y0057506D01*
X0094887Y0057007D02*
X0099177Y0057007D01*
X0099177Y0056509D02*
X0094881Y0056509D01*
X0094887Y0056010D02*
X0099177Y0056010D01*
X0099177Y0055512D02*
X0094887Y0055512D01*
X0094887Y0055013D02*
X0099177Y0055013D01*
X0099177Y0054515D02*
X0094887Y0054515D01*
X0094887Y0054016D02*
X0099177Y0054016D01*
X0099177Y0053518D02*
X0094449Y0053518D01*
X0098673Y0049530D02*
X0072577Y0049530D01*
X0073055Y0049031D02*
X0098175Y0049031D01*
X0097676Y0048533D02*
X0073343Y0048533D01*
X0073631Y0048034D02*
X0097178Y0048034D01*
X0096679Y0047536D02*
X0073919Y0047536D01*
X0074206Y0047037D02*
X0096181Y0047037D01*
X0095682Y0046539D02*
X0074494Y0046539D01*
X0074697Y0046040D02*
X0095184Y0046040D01*
X0094685Y0045542D02*
X0094669Y0045542D01*
X0097075Y0043548D02*
X0099200Y0043548D01*
X0098913Y0043049D02*
X0096950Y0043049D01*
X0096950Y0042551D02*
X0098913Y0042551D01*
X0098913Y0042052D02*
X0096950Y0042052D01*
X0096950Y0041554D02*
X0098913Y0041554D01*
X0098913Y0041055D02*
X0096950Y0041055D01*
X0096950Y0040557D02*
X0098913Y0040557D01*
X0098913Y0040058D02*
X0096950Y0040058D01*
X0096578Y0039560D02*
X0099285Y0039560D01*
X0099784Y0039061D02*
X0096080Y0039061D01*
X0095581Y0038562D02*
X0100282Y0038562D01*
X0100781Y0038064D02*
X0095083Y0038064D01*
X0090781Y0038064D02*
X0085366Y0038064D01*
X0085864Y0038562D02*
X0090282Y0038562D01*
X0089784Y0039061D02*
X0086363Y0039061D01*
X0086861Y0039560D02*
X0089285Y0039560D01*
X0088913Y0040058D02*
X0087150Y0040058D01*
X0087150Y0039849D02*
X0087150Y0041346D01*
X0083182Y0041346D01*
X0083182Y0041846D01*
X0087150Y0041846D01*
X0087150Y0043343D01*
X0084679Y0045815D01*
X0083182Y0045815D01*
X0083182Y0041846D01*
X0082682Y0041846D01*
X0082682Y0045815D01*
X0081184Y0045815D01*
X0078713Y0043343D01*
X0078713Y0041846D01*
X0082682Y0041846D01*
X0082682Y0041346D01*
X0083182Y0041346D01*
X0083182Y0037378D01*
X0084679Y0037378D01*
X0087150Y0039849D01*
X0087150Y0040557D02*
X0088913Y0040557D01*
X0088913Y0041055D02*
X0087150Y0041055D01*
X0087150Y0042052D02*
X0088913Y0042052D01*
X0088913Y0041554D02*
X0083182Y0041554D01*
X0083182Y0042052D02*
X0082682Y0042052D01*
X0082682Y0041554D02*
X0075450Y0041554D01*
X0075450Y0042052D02*
X0078713Y0042052D01*
X0078713Y0042551D02*
X0075450Y0042551D01*
X0075450Y0043049D02*
X0078713Y0043049D01*
X0078918Y0043548D02*
X0075365Y0043548D01*
X0075231Y0044046D02*
X0079416Y0044046D01*
X0079915Y0044545D02*
X0075098Y0044545D01*
X0074964Y0045043D02*
X0080413Y0045043D01*
X0080912Y0045542D02*
X0074831Y0045542D01*
X0075450Y0041055D02*
X0078713Y0041055D01*
X0078713Y0041346D02*
X0078713Y0039849D01*
X0081184Y0037378D01*
X0082682Y0037378D01*
X0082682Y0041346D01*
X0078713Y0041346D01*
X0078713Y0040557D02*
X0075450Y0040557D01*
X0075450Y0040058D02*
X0078713Y0040058D01*
X0079003Y0039560D02*
X0075321Y0039560D01*
X0075187Y0039061D02*
X0079501Y0039061D01*
X0080000Y0038562D02*
X0075054Y0038562D01*
X0074920Y0038064D02*
X0080498Y0038064D01*
X0080997Y0037565D02*
X0074787Y0037565D01*
X0082682Y0037565D02*
X0083182Y0037565D01*
X0083182Y0038064D02*
X0082682Y0038064D01*
X0082682Y0038562D02*
X0083182Y0038562D01*
X0083182Y0039061D02*
X0082682Y0039061D01*
X0082682Y0039560D02*
X0083182Y0039560D01*
X0083182Y0040058D02*
X0082682Y0040058D01*
X0082682Y0040557D02*
X0083182Y0040557D01*
X0083182Y0041055D02*
X0082682Y0041055D01*
X0082682Y0042551D02*
X0083182Y0042551D01*
X0083182Y0043049D02*
X0082682Y0043049D01*
X0082682Y0043548D02*
X0083182Y0043548D01*
X0083182Y0044046D02*
X0082682Y0044046D01*
X0082682Y0044545D02*
X0083182Y0044545D01*
X0083182Y0045043D02*
X0082682Y0045043D01*
X0082682Y0045542D02*
X0083182Y0045542D01*
X0084952Y0045542D02*
X0091194Y0045542D01*
X0090696Y0045043D02*
X0085451Y0045043D01*
X0085949Y0044545D02*
X0090197Y0044545D01*
X0089699Y0044046D02*
X0086448Y0044046D01*
X0086946Y0043548D02*
X0089200Y0043548D01*
X0088913Y0043049D02*
X0087150Y0043049D01*
X0087150Y0042551D02*
X0088913Y0042551D01*
X0084867Y0037565D02*
X0159219Y0037565D01*
X0159219Y0038064D02*
X0126822Y0038064D01*
X0126950Y0038562D02*
X0159219Y0038562D01*
X0159219Y0039061D02*
X0145418Y0039061D01*
X0145477Y0039077D02*
X0145762Y0039242D01*
X0145995Y0039474D01*
X0146160Y0039759D01*
X0146245Y0040077D01*
X0146245Y0042960D01*
X0142276Y0042960D01*
X0142276Y0038992D01*
X0145159Y0038992D01*
X0145477Y0039077D01*
X0146044Y0039560D02*
X0159219Y0039560D01*
X0159219Y0040058D02*
X0146240Y0040058D01*
X0146245Y0040557D02*
X0159219Y0040557D01*
X0159219Y0041055D02*
X0146245Y0041055D01*
X0146245Y0041554D02*
X0159219Y0041554D01*
X0159219Y0042052D02*
X0146245Y0042052D01*
X0146245Y0042551D02*
X0159219Y0042551D01*
X0159219Y0043049D02*
X0142276Y0043049D01*
X0142276Y0042960D02*
X0142276Y0043460D01*
X0141776Y0043460D01*
X0141776Y0042960D01*
X0137808Y0042960D01*
X0137808Y0040077D01*
X0137893Y0039759D01*
X0138058Y0039474D01*
X0138290Y0039242D01*
X0138575Y0039077D01*
X0138893Y0038992D01*
X0141776Y0038992D01*
X0141776Y0042960D01*
X0142276Y0042960D01*
X0142276Y0042551D02*
X0141776Y0042551D01*
X0141776Y0043049D02*
X0126950Y0043049D01*
X0126950Y0042551D02*
X0137808Y0042551D01*
X0137808Y0042052D02*
X0126950Y0042052D01*
X0126950Y0041554D02*
X0137808Y0041554D01*
X0137808Y0041055D02*
X0126950Y0041055D01*
X0126950Y0040557D02*
X0137808Y0040557D01*
X0137813Y0040058D02*
X0126950Y0040058D01*
X0126950Y0039560D02*
X0138008Y0039560D01*
X0138635Y0039061D02*
X0126950Y0039061D01*
X0126950Y0043548D02*
X0137808Y0043548D01*
X0137808Y0043460D02*
X0137808Y0046343D01*
X0137893Y0046661D01*
X0138058Y0046946D01*
X0138290Y0047179D01*
X0138575Y0047344D01*
X0138893Y0047429D01*
X0141776Y0047429D01*
X0141776Y0043460D01*
X0137808Y0043460D01*
X0137808Y0044046D02*
X0126950Y0044046D01*
X0126950Y0044545D02*
X0137808Y0044545D01*
X0137808Y0045043D02*
X0126907Y0045043D01*
X0126408Y0045542D02*
X0137808Y0045542D01*
X0137808Y0046040D02*
X0124482Y0046040D01*
X0124482Y0046539D02*
X0137860Y0046539D01*
X0138148Y0047037D02*
X0124482Y0047037D01*
X0124482Y0047536D02*
X0159219Y0047536D01*
X0159219Y0048034D02*
X0124482Y0048034D01*
X0124482Y0048533D02*
X0159219Y0048533D01*
X0159219Y0049031D02*
X0124482Y0049031D01*
X0124482Y0049530D02*
X0159219Y0049530D01*
X0159219Y0050028D02*
X0124482Y0050028D01*
X0124482Y0050527D02*
X0159219Y0050527D01*
X0159219Y0051025D02*
X0124482Y0051025D01*
X0124482Y0051524D02*
X0159219Y0051524D01*
X0159219Y0052022D02*
X0124482Y0052022D01*
X0124482Y0052521D02*
X0159219Y0052521D01*
X0159219Y0053019D02*
X0124482Y0053019D01*
X0124482Y0053518D02*
X0159219Y0053518D01*
X0159219Y0054016D02*
X0124482Y0054016D01*
X0124482Y0054515D02*
X0159219Y0054515D01*
X0159219Y0055013D02*
X0124482Y0055013D01*
X0124482Y0055512D02*
X0159219Y0055512D01*
X0159219Y0056010D02*
X0124482Y0056010D01*
X0124482Y0056509D02*
X0159219Y0056509D01*
X0159219Y0057007D02*
X0124482Y0057007D01*
X0124482Y0057506D02*
X0159219Y0057506D01*
X0159219Y0058004D02*
X0143921Y0058004D01*
X0144419Y0058503D02*
X0159219Y0058503D01*
X0159219Y0059001D02*
X0144918Y0059001D01*
X0145416Y0059500D02*
X0159219Y0059500D01*
X0159219Y0059998D02*
X0145915Y0059998D01*
X0146045Y0060497D02*
X0159219Y0060497D01*
X0159219Y0060995D02*
X0146045Y0060995D01*
X0146045Y0061494D02*
X0159219Y0061494D01*
X0159219Y0061993D02*
X0146045Y0061993D01*
X0146045Y0062491D02*
X0159219Y0062491D01*
X0159219Y0062990D02*
X0146045Y0062990D01*
X0146014Y0063488D02*
X0159219Y0063488D01*
X0159219Y0063987D02*
X0145516Y0063987D01*
X0145017Y0064485D02*
X0159219Y0064485D01*
X0159219Y0064984D02*
X0144519Y0064984D01*
X0144020Y0065482D02*
X0159219Y0065482D01*
X0159219Y0065981D02*
X0143576Y0065981D01*
X0143576Y0066479D02*
X0159219Y0066479D01*
X0159219Y0066978D02*
X0143576Y0066978D01*
X0143576Y0067476D02*
X0159219Y0067476D01*
X0159219Y0067975D02*
X0143576Y0067975D01*
X0143576Y0068473D02*
X0159219Y0068473D01*
X0159219Y0068972D02*
X0143576Y0068972D01*
X0143576Y0069470D02*
X0159219Y0069470D01*
X0159219Y0069969D02*
X0143576Y0069969D01*
X0143576Y0070467D02*
X0144131Y0070467D01*
X0143968Y0070966D02*
X0143576Y0070966D01*
X0143576Y0071464D02*
X0143968Y0071464D01*
X0143968Y0071963D02*
X0143576Y0071963D01*
X0143968Y0075452D02*
X0142131Y0075452D01*
X0142131Y0075951D02*
X0143968Y0075951D01*
X0143968Y0076449D02*
X0142131Y0076449D01*
X0142131Y0076948D02*
X0143968Y0076948D01*
X0144404Y0077446D02*
X0141696Y0077446D01*
X0141564Y0077971D02*
X0141849Y0078135D01*
X0142082Y0078368D01*
X0142246Y0078653D01*
X0142331Y0078971D01*
X0142331Y0081641D01*
X0138379Y0081641D01*
X0138379Y0082141D01*
X0142331Y0082141D01*
X0142331Y0084812D01*
X0142246Y0085130D01*
X0142082Y0085415D01*
X0141849Y0085648D01*
X0141564Y0085812D01*
X0141246Y0085897D01*
X0138379Y0085897D01*
X0138379Y0082141D01*
X0137879Y0082141D01*
X0137879Y0081641D01*
X0138379Y0081641D01*
X0138379Y0077885D01*
X0141246Y0077885D01*
X0141564Y0077971D01*
X0141468Y0077945D02*
X0159219Y0077945D01*
X0159219Y0078443D02*
X0151717Y0078443D01*
X0151974Y0078942D02*
X0159219Y0078942D01*
X0159219Y0079440D02*
X0151974Y0079440D01*
X0151974Y0079939D02*
X0159219Y0079939D01*
X0159219Y0080437D02*
X0151974Y0080437D01*
X0151974Y0080936D02*
X0159219Y0080936D01*
X0159219Y0081434D02*
X0151974Y0081434D01*
X0151974Y0081933D02*
X0159219Y0081933D01*
X0159219Y0082431D02*
X0151974Y0082431D01*
X0151974Y0082930D02*
X0159219Y0082930D01*
X0159219Y0083429D02*
X0151974Y0083429D01*
X0152199Y0083927D02*
X0159219Y0083927D01*
X0159219Y0084426D02*
X0152697Y0084426D01*
X0153196Y0084924D02*
X0159219Y0084924D01*
X0159219Y0085423D02*
X0153694Y0085423D01*
X0154193Y0085921D02*
X0159219Y0085921D01*
X0159219Y0086420D02*
X0154691Y0086420D01*
X0155190Y0086918D02*
X0159219Y0086918D01*
X0159219Y0087417D02*
X0155427Y0087417D01*
X0155427Y0087915D02*
X0159219Y0087915D01*
X0159219Y0088414D02*
X0155427Y0088414D01*
X0155427Y0088912D02*
X0159219Y0088912D01*
X0159219Y0089411D02*
X0155427Y0089411D01*
X0155427Y0089909D02*
X0159219Y0089909D01*
X0159219Y0090408D02*
X0155427Y0090408D01*
X0155427Y0090906D02*
X0159219Y0090906D01*
X0159219Y0091405D02*
X0155427Y0091405D01*
X0155427Y0091903D02*
X0159219Y0091903D01*
X0159219Y0092402D02*
X0155427Y0092402D01*
X0155427Y0092900D02*
X0159219Y0092900D01*
X0159219Y0093399D02*
X0155427Y0093399D01*
X0155427Y0093897D02*
X0159219Y0093897D01*
X0159219Y0094396D02*
X0155427Y0094396D01*
X0155427Y0094894D02*
X0159219Y0094894D01*
X0159219Y0095393D02*
X0155427Y0095393D01*
X0155427Y0095891D02*
X0159219Y0095891D01*
X0159219Y0096390D02*
X0155427Y0096390D01*
X0155427Y0096888D02*
X0159219Y0096888D01*
X0159219Y0097387D02*
X0155427Y0097387D01*
X0155427Y0097885D02*
X0159219Y0097885D01*
X0159219Y0098384D02*
X0155427Y0098384D01*
X0155427Y0098882D02*
X0159219Y0098882D01*
X0159219Y0099381D02*
X0155427Y0099381D01*
X0155427Y0099879D02*
X0159219Y0099879D01*
X0159219Y0100378D02*
X0155427Y0100378D01*
X0155427Y0100876D02*
X0159219Y0100876D01*
X0159219Y0101375D02*
X0155427Y0101375D01*
X0155427Y0101873D02*
X0159219Y0101873D01*
X0159219Y0102372D02*
X0155175Y0102372D01*
X0154676Y0102870D02*
X0159219Y0102870D01*
X0159219Y0103369D02*
X0154178Y0103369D01*
X0153679Y0103867D02*
X0159219Y0103867D01*
X0159219Y0104366D02*
X0153181Y0104366D01*
X0152682Y0104864D02*
X0159219Y0104864D01*
X0159219Y0105363D02*
X0152184Y0105363D01*
X0151990Y0105862D02*
X0159219Y0105862D01*
X0159219Y0106360D02*
X0151990Y0106360D01*
X0151990Y0106859D02*
X0159219Y0106859D01*
X0159219Y0107357D02*
X0151990Y0107357D01*
X0151990Y0107856D02*
X0159219Y0107856D01*
X0159219Y0108354D02*
X0157325Y0108354D01*
X0158848Y0108853D02*
X0159219Y0108853D01*
X0152286Y0100876D02*
X0151760Y0100876D01*
X0152327Y0100378D02*
X0112120Y0100378D01*
X0112120Y0100876D02*
X0124655Y0100876D01*
X0124268Y0101375D02*
X0112120Y0101375D01*
X0112120Y0101873D02*
X0124268Y0101873D01*
X0124268Y0102372D02*
X0112120Y0102372D01*
X0112120Y0102870D02*
X0124268Y0102870D01*
X0124268Y0103369D02*
X0112120Y0103369D01*
X0112120Y0103867D02*
X0124268Y0103867D01*
X0124268Y0104366D02*
X0112120Y0104366D01*
X0112120Y0104864D02*
X0124268Y0104864D01*
X0124268Y0105363D02*
X0112120Y0105363D01*
X0112120Y0105862D02*
X0124268Y0105862D01*
X0124268Y0106360D02*
X0112120Y0106360D01*
X0112120Y0106859D02*
X0124268Y0106859D01*
X0124268Y0107357D02*
X0112120Y0107357D01*
X0112120Y0107856D02*
X0124268Y0107856D01*
X0124551Y0108354D02*
X0112120Y0108354D01*
X0112120Y0108853D02*
X0148905Y0108853D01*
X0148042Y0109351D02*
X0112120Y0109351D01*
X0112120Y0109850D02*
X0147178Y0109850D01*
X0146365Y0110348D02*
X0112120Y0110348D01*
X0112120Y0110847D02*
X0145866Y0110847D01*
X0145368Y0111345D02*
X0112120Y0111345D01*
X0112120Y0111844D02*
X0144869Y0111844D01*
X0144371Y0112342D02*
X0112120Y0112342D01*
X0112313Y0112841D02*
X0144000Y0112841D01*
X0143712Y0113339D02*
X0112812Y0113339D01*
X0113310Y0113838D02*
X0143425Y0113838D01*
X0143137Y0114336D02*
X0113809Y0114336D01*
X0114307Y0114835D02*
X0142849Y0114835D01*
X0142571Y0115333D02*
X0114806Y0115333D01*
X0115304Y0115832D02*
X0142437Y0115832D01*
X0142303Y0116330D02*
X0115803Y0116330D01*
X0116301Y0116829D02*
X0142170Y0116829D01*
X0142036Y0117327D02*
X0116800Y0117327D01*
X0117298Y0117826D02*
X0141903Y0117826D01*
X0141769Y0118324D02*
X0117797Y0118324D01*
X0118295Y0118823D02*
X0141753Y0118823D01*
X0141753Y0119321D02*
X0118794Y0119321D01*
X0119292Y0119820D02*
X0141753Y0119820D01*
X0141753Y0120318D02*
X0119791Y0120318D01*
X0120290Y0120817D02*
X0141753Y0120817D01*
X0141753Y0121315D02*
X0120788Y0121315D01*
X0121287Y0121814D02*
X0141816Y0121814D01*
X0141949Y0122312D02*
X0121785Y0122312D01*
X0122284Y0122811D02*
X0142083Y0122811D01*
X0142217Y0123309D02*
X0122782Y0123309D01*
X0123281Y0123808D02*
X0142350Y0123808D01*
X0142484Y0124306D02*
X0123779Y0124306D01*
X0124278Y0124805D02*
X0142662Y0124805D01*
X0142950Y0125303D02*
X0124776Y0125303D01*
X0125275Y0125802D02*
X0143237Y0125802D01*
X0143525Y0126300D02*
X0125773Y0126300D01*
X0126272Y0126799D02*
X0143813Y0126799D01*
X0144101Y0127298D02*
X0126770Y0127298D01*
X0127269Y0127796D02*
X0144545Y0127796D01*
X0145043Y0128295D02*
X0131116Y0128295D01*
X0132050Y0128793D02*
X0145542Y0128793D01*
X0146040Y0129292D02*
X0132549Y0129292D01*
X0132819Y0129790D02*
X0146617Y0129790D01*
X0147480Y0130289D02*
X0141020Y0130289D01*
X0141918Y0130787D02*
X0148344Y0130787D01*
X0149219Y0131286D02*
X0142417Y0131286D01*
X0139174Y0130289D02*
X0133025Y0130289D01*
X0133089Y0130787D02*
X0138276Y0130787D01*
X0137777Y0131286D02*
X0133089Y0131286D01*
X0133000Y0131784D02*
X0137522Y0131784D01*
X0137316Y0132283D02*
X0132793Y0132283D01*
X0132487Y0132781D02*
X0137263Y0132781D01*
X0137263Y0133280D02*
X0131989Y0133280D01*
X0130967Y0133778D02*
X0137363Y0133778D01*
X0137569Y0134277D02*
X0129812Y0134277D01*
X0129542Y0133778D02*
X0129314Y0133778D01*
X0130311Y0134775D02*
X0137890Y0134775D01*
X0138389Y0135274D02*
X0130809Y0135274D01*
X0131308Y0135772D02*
X0139446Y0135772D01*
X0140748Y0135772D02*
X0142236Y0135772D01*
X0142500Y0136271D02*
X0131806Y0136271D01*
X0132305Y0136769D02*
X0142652Y0136769D01*
X0142236Y0137268D02*
X0132803Y0137268D01*
X0132305Y0146146D02*
X0132305Y0169364D01*
X0133421Y0168247D01*
X0134622Y0167046D01*
X0142375Y0167046D01*
X0142728Y0166693D01*
X0142519Y0166573D01*
X0142286Y0166340D01*
X0142121Y0166055D01*
X0142036Y0165737D01*
X0142036Y0164346D01*
X0147465Y0164346D01*
X0147465Y0163846D01*
X0142036Y0163846D01*
X0142036Y0162455D01*
X0142121Y0162137D01*
X0142286Y0161852D01*
X0142519Y0161619D01*
X0142559Y0161596D01*
X0142519Y0161573D01*
X0142286Y0161340D01*
X0142121Y0161055D01*
X0142036Y0160737D01*
X0142036Y0159346D01*
X0147465Y0159346D01*
X0147465Y0158846D01*
X0142036Y0158846D01*
X0142036Y0157455D01*
X0142121Y0157137D01*
X0142286Y0156852D01*
X0142519Y0156619D01*
X0142559Y0156596D01*
X0142519Y0156573D01*
X0142286Y0156340D01*
X0142121Y0156055D01*
X0142036Y0155737D01*
X0142036Y0154346D01*
X0147465Y0154346D01*
X0147465Y0153846D01*
X0142036Y0153846D01*
X0142036Y0152455D01*
X0142121Y0152137D01*
X0142286Y0151852D01*
X0142519Y0151619D01*
X0142559Y0151596D01*
X0142519Y0151573D01*
X0142286Y0151340D01*
X0142121Y0151055D01*
X0142036Y0150737D01*
X0142036Y0149346D01*
X0147465Y0149346D01*
X0147465Y0148846D01*
X0142036Y0148846D01*
X0142036Y0147455D01*
X0142121Y0147137D01*
X0142286Y0146852D01*
X0142519Y0146619D01*
X0142728Y0146499D01*
X0142375Y0146146D01*
X0132305Y0146146D01*
X0132305Y0146241D02*
X0142470Y0146241D01*
X0142399Y0146739D02*
X0132305Y0146739D01*
X0132305Y0147238D02*
X0142094Y0147238D01*
X0142036Y0147736D02*
X0132305Y0147736D01*
X0132305Y0148235D02*
X0142036Y0148235D01*
X0142036Y0148733D02*
X0132305Y0148733D01*
X0132305Y0149232D02*
X0147465Y0149232D01*
X0147465Y0149346D02*
X0147465Y0151822D01*
X0147465Y0153846D01*
X0147965Y0153846D01*
X0147965Y0149346D01*
X0147465Y0149346D01*
X0147465Y0149731D02*
X0147965Y0149731D01*
X0147965Y0149346D02*
X0153394Y0149346D01*
X0153394Y0150737D01*
X0153309Y0151055D01*
X0153145Y0151340D01*
X0152912Y0151573D01*
X0152871Y0151596D01*
X0152912Y0151619D01*
X0153145Y0151852D01*
X0153309Y0152137D01*
X0153394Y0152455D01*
X0153394Y0153846D01*
X0147965Y0153846D01*
X0147965Y0154346D01*
X0147465Y0154346D01*
X0147465Y0156822D01*
X0147465Y0158846D01*
X0147965Y0158846D01*
X0147965Y0154346D01*
X0153394Y0154346D01*
X0153394Y0155737D01*
X0153309Y0156055D01*
X0153145Y0156340D01*
X0152912Y0156573D01*
X0152871Y0156596D01*
X0152912Y0156619D01*
X0153145Y0156852D01*
X0153309Y0157137D01*
X0153394Y0157455D01*
X0153394Y0158846D01*
X0147965Y0158846D01*
X0147965Y0159346D01*
X0147465Y0159346D01*
X0147465Y0161370D01*
X0147465Y0163846D01*
X0147965Y0163846D01*
X0147965Y0159346D01*
X0153394Y0159346D01*
X0153394Y0160737D01*
X0153309Y0161055D01*
X0153145Y0161340D01*
X0152912Y0161573D01*
X0152871Y0161596D01*
X0152912Y0161619D01*
X0153145Y0161852D01*
X0153309Y0162137D01*
X0153394Y0162455D01*
X0153394Y0163846D01*
X0147965Y0163846D01*
X0147965Y0164346D01*
X0153394Y0164346D01*
X0153394Y0165737D01*
X0153309Y0166055D01*
X0153145Y0166340D01*
X0152912Y0166573D01*
X0152703Y0166693D01*
X0153194Y0167185D01*
X0153194Y0171007D01*
X0152606Y0171596D01*
X0153194Y0172185D01*
X0153194Y0176007D01*
X0152606Y0176596D01*
X0153194Y0177185D01*
X0153194Y0181007D01*
X0152579Y0181622D01*
X0143009Y0181622D01*
X0142834Y0182047D01*
X0141926Y0182955D01*
X0140739Y0183446D01*
X0139455Y0183446D01*
X0138269Y0182955D01*
X0137361Y0182047D01*
X0136869Y0180860D01*
X0136869Y0179576D01*
X0137361Y0178390D01*
X0138269Y0177482D01*
X0139455Y0176990D01*
X0140739Y0176990D01*
X0140856Y0177038D01*
X0141500Y0176948D01*
X0141630Y0177046D01*
X0142375Y0177046D01*
X0142825Y0176596D01*
X0142236Y0176007D01*
X0142236Y0175646D01*
X0140644Y0175646D01*
X0140531Y0175918D01*
X0139734Y0176715D01*
X0138692Y0177147D01*
X0137565Y0177147D01*
X0136523Y0176715D01*
X0136242Y0176434D01*
X0136242Y0187991D01*
X0142167Y0193916D01*
X0144951Y0193916D01*
X0147305Y0196270D01*
X0147305Y0199340D01*
X0159219Y0199340D01*
X0159219Y0130897D01*
X0158556Y0131280D01*
X0155473Y0132106D01*
X0153116Y0132106D01*
X0153194Y0132185D01*
X0153194Y0136007D01*
X0152606Y0136596D01*
X0153194Y0137185D01*
X0153194Y0141007D01*
X0152606Y0141596D01*
X0153194Y0142185D01*
X0153194Y0146007D01*
X0152703Y0146499D01*
X0152912Y0146619D01*
X0153145Y0146852D01*
X0153309Y0147137D01*
X0153394Y0147455D01*
X0153394Y0148846D01*
X0147965Y0148846D01*
X0147965Y0149346D01*
X0147965Y0149232D02*
X0159219Y0149232D01*
X0159219Y0149731D02*
X0153394Y0149731D01*
X0153394Y0150229D02*
X0159219Y0150229D01*
X0159219Y0150728D02*
X0153394Y0150728D01*
X0153210Y0151226D02*
X0159219Y0151226D01*
X0159219Y0151725D02*
X0153017Y0151725D01*
X0153332Y0152223D02*
X0159219Y0152223D01*
X0159219Y0152722D02*
X0153394Y0152722D01*
X0153394Y0153220D02*
X0159219Y0153220D01*
X0159219Y0153719D02*
X0153394Y0153719D01*
X0153394Y0154716D02*
X0159219Y0154716D01*
X0159219Y0155214D02*
X0153394Y0155214D01*
X0153394Y0155713D02*
X0159219Y0155713D01*
X0159219Y0156211D02*
X0153219Y0156211D01*
X0153002Y0156710D02*
X0159219Y0156710D01*
X0159219Y0157208D02*
X0153328Y0157208D01*
X0153394Y0157707D02*
X0159219Y0157707D01*
X0159219Y0158205D02*
X0153394Y0158205D01*
X0153394Y0158704D02*
X0159219Y0158704D01*
X0159219Y0159202D02*
X0147965Y0159202D01*
X0147965Y0158704D02*
X0147465Y0158704D01*
X0147465Y0159202D02*
X0132305Y0159202D01*
X0132305Y0158704D02*
X0142036Y0158704D01*
X0142036Y0158205D02*
X0132305Y0158205D01*
X0132305Y0157707D02*
X0142036Y0157707D01*
X0142102Y0157208D02*
X0132305Y0157208D01*
X0132305Y0156710D02*
X0142428Y0156710D01*
X0142212Y0156211D02*
X0132305Y0156211D01*
X0132305Y0155713D02*
X0142036Y0155713D01*
X0142036Y0155214D02*
X0132305Y0155214D01*
X0132305Y0154716D02*
X0142036Y0154716D01*
X0142036Y0153719D02*
X0132305Y0153719D01*
X0132305Y0154217D02*
X0147465Y0154217D01*
X0147465Y0153719D02*
X0147965Y0153719D01*
X0147965Y0154217D02*
X0159219Y0154217D01*
X0159219Y0148733D02*
X0153394Y0148733D01*
X0153394Y0148235D02*
X0159219Y0148235D01*
X0159219Y0147736D02*
X0153394Y0147736D01*
X0153336Y0147238D02*
X0159219Y0147238D01*
X0159219Y0146739D02*
X0153032Y0146739D01*
X0152961Y0146241D02*
X0159219Y0146241D01*
X0159219Y0145742D02*
X0153194Y0145742D01*
X0153194Y0145244D02*
X0159219Y0145244D01*
X0159219Y0144745D02*
X0153194Y0144745D01*
X0153194Y0144247D02*
X0159219Y0144247D01*
X0159219Y0143748D02*
X0153194Y0143748D01*
X0153194Y0143250D02*
X0159219Y0143250D01*
X0159219Y0142751D02*
X0153194Y0142751D01*
X0153194Y0142253D02*
X0159219Y0142253D01*
X0159219Y0141754D02*
X0152764Y0141754D01*
X0152946Y0141256D02*
X0159219Y0141256D01*
X0159219Y0140757D02*
X0153194Y0140757D01*
X0153194Y0140259D02*
X0159219Y0140259D01*
X0159219Y0139760D02*
X0153194Y0139760D01*
X0153194Y0139262D02*
X0159219Y0139262D01*
X0159219Y0138763D02*
X0153194Y0138763D01*
X0153194Y0138265D02*
X0159219Y0138265D01*
X0159219Y0137766D02*
X0153194Y0137766D01*
X0153194Y0137268D02*
X0159219Y0137268D01*
X0159219Y0136769D02*
X0152779Y0136769D01*
X0152931Y0136271D02*
X0159219Y0136271D01*
X0159219Y0135772D02*
X0153194Y0135772D01*
X0153194Y0135274D02*
X0159219Y0135274D01*
X0159219Y0134775D02*
X0153194Y0134775D01*
X0153194Y0134277D02*
X0159219Y0134277D01*
X0159219Y0133778D02*
X0153194Y0133778D01*
X0153194Y0133280D02*
X0159219Y0133280D01*
X0159219Y0132781D02*
X0153194Y0132781D01*
X0153194Y0132283D02*
X0159219Y0132283D01*
X0159219Y0131784D02*
X0156674Y0131784D01*
X0158534Y0131286D02*
X0159219Y0131286D01*
X0147965Y0150229D02*
X0147465Y0150229D01*
X0147465Y0150728D02*
X0147965Y0150728D01*
X0147965Y0151226D02*
X0147465Y0151226D01*
X0147465Y0151725D02*
X0147965Y0151725D01*
X0147965Y0152223D02*
X0147465Y0152223D01*
X0147465Y0152722D02*
X0147965Y0152722D01*
X0147965Y0153220D02*
X0147465Y0153220D01*
X0147465Y0154716D02*
X0147965Y0154716D01*
X0147965Y0155214D02*
X0147465Y0155214D01*
X0147465Y0155713D02*
X0147965Y0155713D01*
X0147965Y0156211D02*
X0147465Y0156211D01*
X0147465Y0156710D02*
X0147965Y0156710D01*
X0147965Y0157208D02*
X0147465Y0157208D01*
X0147465Y0157707D02*
X0147965Y0157707D01*
X0147965Y0158205D02*
X0147465Y0158205D01*
X0147465Y0159701D02*
X0147965Y0159701D01*
X0147965Y0160199D02*
X0147465Y0160199D01*
X0147465Y0160698D02*
X0147965Y0160698D01*
X0147965Y0161196D02*
X0147465Y0161196D01*
X0147465Y0161695D02*
X0147965Y0161695D01*
X0147965Y0162193D02*
X0147465Y0162193D01*
X0147465Y0162692D02*
X0147965Y0162692D01*
X0147965Y0163190D02*
X0147465Y0163190D01*
X0147465Y0163689D02*
X0147965Y0163689D01*
X0147965Y0164187D02*
X0159219Y0164187D01*
X0159219Y0163689D02*
X0153394Y0163689D01*
X0153394Y0163190D02*
X0159219Y0163190D01*
X0159219Y0162692D02*
X0153394Y0162692D01*
X0153324Y0162193D02*
X0159219Y0162193D01*
X0159219Y0161695D02*
X0152987Y0161695D01*
X0153228Y0161196D02*
X0159219Y0161196D01*
X0159219Y0160698D02*
X0153394Y0160698D01*
X0153394Y0160199D02*
X0159219Y0160199D01*
X0159219Y0159701D02*
X0153394Y0159701D01*
X0153394Y0164686D02*
X0159219Y0164686D01*
X0159219Y0165184D02*
X0153394Y0165184D01*
X0153394Y0165683D02*
X0159219Y0165683D01*
X0159219Y0166181D02*
X0153236Y0166181D01*
X0152726Y0166680D02*
X0159219Y0166680D01*
X0159219Y0167178D02*
X0153188Y0167178D01*
X0153194Y0167677D02*
X0159219Y0167677D01*
X0159219Y0168175D02*
X0153194Y0168175D01*
X0153194Y0168674D02*
X0159219Y0168674D01*
X0159219Y0169172D02*
X0153194Y0169172D01*
X0153194Y0169671D02*
X0159219Y0169671D01*
X0159219Y0170169D02*
X0153194Y0170169D01*
X0153194Y0170668D02*
X0159219Y0170668D01*
X0159219Y0171166D02*
X0153035Y0171166D01*
X0152675Y0171665D02*
X0159219Y0171665D01*
X0159219Y0172164D02*
X0153173Y0172164D01*
X0153194Y0172662D02*
X0159219Y0172662D01*
X0159219Y0173161D02*
X0153194Y0173161D01*
X0153194Y0173659D02*
X0159219Y0173659D01*
X0159219Y0174158D02*
X0153194Y0174158D01*
X0153194Y0174656D02*
X0159219Y0174656D01*
X0159219Y0175155D02*
X0153194Y0175155D01*
X0153194Y0175653D02*
X0159219Y0175653D01*
X0159219Y0176152D02*
X0153050Y0176152D01*
X0152660Y0176650D02*
X0159219Y0176650D01*
X0159219Y0177149D02*
X0153158Y0177149D01*
X0153194Y0177647D02*
X0159219Y0177647D01*
X0159219Y0178146D02*
X0153194Y0178146D01*
X0153194Y0178644D02*
X0159219Y0178644D01*
X0159219Y0179143D02*
X0153194Y0179143D01*
X0153194Y0179641D02*
X0159219Y0179641D01*
X0159219Y0180140D02*
X0153194Y0180140D01*
X0153194Y0180638D02*
X0159219Y0180638D01*
X0159219Y0181137D02*
X0153065Y0181137D01*
X0159219Y0181635D02*
X0143004Y0181635D01*
X0142747Y0182134D02*
X0159219Y0182134D01*
X0159219Y0182632D02*
X0142248Y0182632D01*
X0141501Y0183131D02*
X0159219Y0183131D01*
X0159219Y0183629D02*
X0136242Y0183629D01*
X0136242Y0183131D02*
X0138694Y0183131D01*
X0137946Y0182632D02*
X0136242Y0182632D01*
X0136242Y0182134D02*
X0137448Y0182134D01*
X0137190Y0181635D02*
X0136242Y0181635D01*
X0136242Y0181137D02*
X0136984Y0181137D01*
X0136869Y0180638D02*
X0136242Y0180638D01*
X0136242Y0180140D02*
X0136869Y0180140D01*
X0136869Y0179641D02*
X0136242Y0179641D01*
X0136242Y0179143D02*
X0137049Y0179143D01*
X0137255Y0178644D02*
X0136242Y0178644D01*
X0136242Y0178146D02*
X0137605Y0178146D01*
X0138103Y0177647D02*
X0136242Y0177647D01*
X0136242Y0177149D02*
X0139073Y0177149D01*
X0139799Y0176650D02*
X0142771Y0176650D01*
X0142380Y0176152D02*
X0140298Y0176152D01*
X0140641Y0175653D02*
X0142236Y0175653D01*
X0136458Y0176650D02*
X0136242Y0176650D01*
X0136242Y0184128D02*
X0159219Y0184128D01*
X0159219Y0184626D02*
X0136242Y0184626D01*
X0136242Y0185125D02*
X0159219Y0185125D01*
X0159219Y0185623D02*
X0136242Y0185623D01*
X0136242Y0186122D02*
X0159219Y0186122D01*
X0159219Y0186620D02*
X0136242Y0186620D01*
X0136242Y0187119D02*
X0159219Y0187119D01*
X0159219Y0187617D02*
X0136242Y0187617D01*
X0136367Y0188116D02*
X0159219Y0188116D01*
X0159219Y0188614D02*
X0136865Y0188614D01*
X0137364Y0189113D02*
X0159219Y0189113D01*
X0159219Y0189611D02*
X0137862Y0189611D01*
X0138361Y0190110D02*
X0159219Y0190110D01*
X0159219Y0190608D02*
X0138859Y0190608D01*
X0139358Y0191107D02*
X0159219Y0191107D01*
X0159219Y0191605D02*
X0139856Y0191605D01*
X0140355Y0192104D02*
X0159219Y0192104D01*
X0159219Y0192602D02*
X0140853Y0192602D01*
X0141352Y0193101D02*
X0159219Y0193101D01*
X0159219Y0193600D02*
X0141850Y0193600D01*
X0145133Y0194098D02*
X0159219Y0194098D01*
X0159219Y0194597D02*
X0145631Y0194597D01*
X0146130Y0195095D02*
X0159219Y0195095D01*
X0159219Y0195594D02*
X0146628Y0195594D01*
X0147127Y0196092D02*
X0159219Y0196092D01*
X0159219Y0196591D02*
X0147305Y0196591D01*
X0147305Y0197089D02*
X0159219Y0197089D01*
X0159219Y0197588D02*
X0147305Y0197588D01*
X0147305Y0198086D02*
X0159219Y0198086D01*
X0159219Y0198585D02*
X0147305Y0198585D01*
X0147305Y0199083D02*
X0159219Y0199083D01*
X0142704Y0166680D02*
X0132305Y0166680D01*
X0132305Y0167178D02*
X0134490Y0167178D01*
X0133991Y0167677D02*
X0132305Y0167677D01*
X0132305Y0168175D02*
X0133493Y0168175D01*
X0132994Y0168674D02*
X0132305Y0168674D01*
X0132305Y0169172D02*
X0132496Y0169172D01*
X0132305Y0166181D02*
X0142194Y0166181D01*
X0142036Y0165683D02*
X0132305Y0165683D01*
X0132305Y0165184D02*
X0142036Y0165184D01*
X0142036Y0164686D02*
X0132305Y0164686D01*
X0132305Y0164187D02*
X0147465Y0164187D01*
X0142036Y0163689D02*
X0132305Y0163689D01*
X0132305Y0163190D02*
X0142036Y0163190D01*
X0142036Y0162692D02*
X0132305Y0162692D01*
X0132305Y0162193D02*
X0142106Y0162193D01*
X0142443Y0161695D02*
X0132305Y0161695D01*
X0132305Y0161196D02*
X0142203Y0161196D01*
X0142036Y0160698D02*
X0132305Y0160698D01*
X0132305Y0160199D02*
X0142036Y0160199D01*
X0142036Y0159701D02*
X0132305Y0159701D01*
X0132305Y0153220D02*
X0142036Y0153220D01*
X0142036Y0152722D02*
X0132305Y0152722D01*
X0132305Y0152223D02*
X0142098Y0152223D01*
X0142414Y0151725D02*
X0132305Y0151725D01*
X0132305Y0151226D02*
X0142220Y0151226D01*
X0142036Y0150728D02*
X0132305Y0150728D01*
X0132305Y0150229D02*
X0142036Y0150229D01*
X0142036Y0149731D02*
X0132305Y0149731D01*
X0124268Y0149731D02*
X0114536Y0149731D01*
X0114536Y0149346D02*
X0114536Y0150737D01*
X0114451Y0151055D01*
X0114286Y0151340D01*
X0114054Y0151573D01*
X0114013Y0151596D01*
X0114054Y0151619D01*
X0114286Y0151852D01*
X0114451Y0152137D01*
X0114536Y0152455D01*
X0114536Y0153846D01*
X0109107Y0153846D01*
X0109107Y0149346D01*
X0114536Y0149346D01*
X0114536Y0148846D02*
X0109107Y0148846D01*
X0109107Y0149346D01*
X0108607Y0149346D01*
X0108607Y0148846D01*
X0103178Y0148846D01*
X0103178Y0147455D01*
X0103263Y0147137D01*
X0103428Y0146852D01*
X0103660Y0146619D01*
X0103869Y0146499D01*
X0103378Y0146007D01*
X0103378Y0142185D01*
X0103967Y0141596D01*
X0103378Y0141007D01*
X0103378Y0137185D01*
X0103967Y0136596D01*
X0103378Y0136007D01*
X0103378Y0132185D01*
X0103993Y0131570D01*
X0106569Y0131570D01*
X0105865Y0130866D01*
X0105373Y0129679D01*
X0105373Y0128395D01*
X0105865Y0127209D01*
X0106773Y0126301D01*
X0106773Y0126300D02*
X0105656Y0126300D01*
X0105306Y0126650D02*
X0106214Y0125742D01*
X0106214Y0119000D01*
X0114925Y0127711D01*
X0114925Y0136269D01*
X0114173Y0137021D01*
X0113747Y0136596D01*
X0114336Y0136007D01*
X0114336Y0132185D01*
X0113721Y0131570D01*
X0110907Y0131570D01*
X0110907Y0131296D01*
X0111338Y0130866D01*
X0111829Y0129679D01*
X0111829Y0128395D01*
X0111338Y0127209D01*
X0110430Y0126301D01*
X0109243Y0125809D01*
X0107959Y0125809D01*
X0106773Y0126301D01*
X0106274Y0126799D02*
X0105157Y0126799D01*
X0105306Y0126650D02*
X0100309Y0131648D01*
X0100309Y0169734D01*
X0103121Y0172546D01*
X0103378Y0172546D01*
X0103378Y0172185D01*
X0103967Y0171596D01*
X0103378Y0171007D01*
X0103378Y0167185D01*
X0103869Y0166693D01*
X0103660Y0166573D01*
X0103428Y0166340D01*
X0103263Y0166055D01*
X0103178Y0165737D01*
X0103178Y0164346D01*
X0108607Y0164346D01*
X0108607Y0163846D01*
X0109107Y0163846D01*
X0109107Y0159346D01*
X0114536Y0159346D01*
X0114536Y0160737D01*
X0114451Y0161055D01*
X0114286Y0161340D01*
X0114054Y0161573D01*
X0114013Y0161596D01*
X0114054Y0161619D01*
X0114286Y0161852D01*
X0114451Y0162137D01*
X0114536Y0162455D01*
X0114536Y0163846D01*
X0109107Y0163846D01*
X0109107Y0164346D01*
X0114536Y0164346D01*
X0114536Y0165737D01*
X0114451Y0166055D01*
X0114286Y0166340D01*
X0114054Y0166573D01*
X0113845Y0166693D01*
X0114197Y0167046D01*
X0121950Y0167046D01*
X0123151Y0168247D01*
X0124268Y0169364D01*
X0124268Y0146146D01*
X0114197Y0146146D01*
X0113845Y0146499D01*
X0114054Y0146619D01*
X0114286Y0146852D01*
X0114451Y0147137D01*
X0114536Y0147455D01*
X0114536Y0148846D01*
X0114536Y0148733D02*
X0124268Y0148733D01*
X0124268Y0148235D02*
X0114536Y0148235D01*
X0114536Y0147736D02*
X0124268Y0147736D01*
X0124268Y0147238D02*
X0114478Y0147238D01*
X0114174Y0146739D02*
X0124268Y0146739D01*
X0124268Y0146241D02*
X0114103Y0146241D01*
X0114536Y0150229D02*
X0124268Y0150229D01*
X0124268Y0150728D02*
X0114536Y0150728D01*
X0114352Y0151226D02*
X0124268Y0151226D01*
X0124268Y0151725D02*
X0114159Y0151725D01*
X0114474Y0152223D02*
X0124268Y0152223D01*
X0124268Y0152722D02*
X0114536Y0152722D01*
X0114536Y0153220D02*
X0124268Y0153220D01*
X0124268Y0153719D02*
X0114536Y0153719D01*
X0114536Y0154346D02*
X0114536Y0155737D01*
X0114451Y0156055D01*
X0114286Y0156340D01*
X0114054Y0156573D01*
X0114013Y0156596D01*
X0114054Y0156619D01*
X0114286Y0156852D01*
X0114451Y0157137D01*
X0114536Y0157455D01*
X0114536Y0158846D01*
X0109107Y0158846D01*
X0109107Y0154346D01*
X0114536Y0154346D01*
X0114536Y0154716D02*
X0124268Y0154716D01*
X0124268Y0155214D02*
X0114536Y0155214D01*
X0114536Y0155713D02*
X0124268Y0155713D01*
X0124268Y0156211D02*
X0114361Y0156211D01*
X0114144Y0156710D02*
X0124268Y0156710D01*
X0124268Y0157208D02*
X0114470Y0157208D01*
X0114536Y0157707D02*
X0124268Y0157707D01*
X0124268Y0158205D02*
X0114536Y0158205D01*
X0114536Y0158704D02*
X0124268Y0158704D01*
X0124268Y0159202D02*
X0109107Y0159202D01*
X0109107Y0159346D02*
X0109107Y0158846D01*
X0108607Y0158846D01*
X0108607Y0156822D01*
X0108607Y0154346D01*
X0108607Y0153846D01*
X0109107Y0153846D01*
X0109107Y0154346D01*
X0108607Y0154346D01*
X0103178Y0154346D01*
X0103178Y0155737D01*
X0103263Y0156055D01*
X0103428Y0156340D01*
X0103660Y0156573D01*
X0103701Y0156596D01*
X0103660Y0156619D01*
X0103428Y0156852D01*
X0103263Y0157137D01*
X0103178Y0157455D01*
X0103178Y0158846D01*
X0108607Y0158846D01*
X0108607Y0159346D01*
X0103178Y0159346D01*
X0103178Y0160737D01*
X0103263Y0161055D01*
X0103428Y0161340D01*
X0103660Y0161573D01*
X0103701Y0161596D01*
X0103660Y0161619D01*
X0103428Y0161852D01*
X0103263Y0162137D01*
X0103178Y0162455D01*
X0103178Y0163846D01*
X0108607Y0163846D01*
X0108607Y0161822D01*
X0108607Y0159346D01*
X0109107Y0159346D01*
X0109107Y0159701D02*
X0108607Y0159701D01*
X0108607Y0160199D02*
X0109107Y0160199D01*
X0109107Y0160698D02*
X0108607Y0160698D01*
X0108607Y0161196D02*
X0109107Y0161196D01*
X0109107Y0161695D02*
X0108607Y0161695D01*
X0108607Y0162193D02*
X0109107Y0162193D01*
X0109107Y0162692D02*
X0108607Y0162692D01*
X0108607Y0163190D02*
X0109107Y0163190D01*
X0109107Y0163689D02*
X0108607Y0163689D01*
X0108607Y0164187D02*
X0100309Y0164187D01*
X0100309Y0163689D02*
X0103178Y0163689D01*
X0103178Y0163190D02*
X0100309Y0163190D01*
X0100309Y0162692D02*
X0103178Y0162692D01*
X0103248Y0162193D02*
X0100309Y0162193D01*
X0100309Y0161695D02*
X0103585Y0161695D01*
X0103345Y0161196D02*
X0100309Y0161196D01*
X0100309Y0160698D02*
X0103178Y0160698D01*
X0103178Y0160199D02*
X0100309Y0160199D01*
X0100309Y0159701D02*
X0103178Y0159701D01*
X0103178Y0158704D02*
X0100309Y0158704D01*
X0100309Y0159202D02*
X0108607Y0159202D01*
X0108607Y0158704D02*
X0109107Y0158704D01*
X0109107Y0158205D02*
X0108607Y0158205D01*
X0108607Y0157707D02*
X0109107Y0157707D01*
X0109107Y0157208D02*
X0108607Y0157208D01*
X0108607Y0156710D02*
X0109107Y0156710D01*
X0109107Y0156211D02*
X0108607Y0156211D01*
X0108607Y0155713D02*
X0109107Y0155713D01*
X0109107Y0155214D02*
X0108607Y0155214D01*
X0108607Y0154716D02*
X0109107Y0154716D01*
X0109107Y0154217D02*
X0124268Y0154217D01*
X0124268Y0149232D02*
X0109107Y0149232D01*
X0109107Y0149731D02*
X0108607Y0149731D01*
X0108607Y0149346D02*
X0108607Y0151822D01*
X0108607Y0153846D01*
X0103178Y0153846D01*
X0103178Y0152455D01*
X0103263Y0152137D01*
X0103428Y0151852D01*
X0103660Y0151619D01*
X0103701Y0151596D01*
X0103660Y0151573D01*
X0103428Y0151340D01*
X0103263Y0151055D01*
X0103178Y0150737D01*
X0103178Y0149346D01*
X0108607Y0149346D01*
X0108607Y0149232D02*
X0100309Y0149232D01*
X0100309Y0149731D02*
X0103178Y0149731D01*
X0103178Y0150229D02*
X0100309Y0150229D01*
X0100309Y0150728D02*
X0103178Y0150728D01*
X0103362Y0151226D02*
X0100309Y0151226D01*
X0100309Y0151725D02*
X0103555Y0151725D01*
X0103240Y0152223D02*
X0100309Y0152223D01*
X0100309Y0152722D02*
X0103178Y0152722D01*
X0103178Y0153220D02*
X0100309Y0153220D01*
X0100309Y0153719D02*
X0103178Y0153719D01*
X0103178Y0154716D02*
X0100309Y0154716D01*
X0100309Y0155214D02*
X0103178Y0155214D01*
X0103178Y0155713D02*
X0100309Y0155713D01*
X0100309Y0156211D02*
X0103353Y0156211D01*
X0103570Y0156710D02*
X0100309Y0156710D01*
X0100309Y0157208D02*
X0103244Y0157208D01*
X0103178Y0157707D02*
X0100309Y0157707D01*
X0100309Y0158205D02*
X0103178Y0158205D01*
X0100309Y0154217D02*
X0108607Y0154217D01*
X0108607Y0153719D02*
X0109107Y0153719D01*
X0109107Y0153220D02*
X0108607Y0153220D01*
X0108607Y0152722D02*
X0109107Y0152722D01*
X0109107Y0152223D02*
X0108607Y0152223D01*
X0108607Y0151725D02*
X0109107Y0151725D01*
X0109107Y0151226D02*
X0108607Y0151226D01*
X0108607Y0150728D02*
X0109107Y0150728D01*
X0109107Y0150229D02*
X0108607Y0150229D01*
X0103178Y0148733D02*
X0100309Y0148733D01*
X0100309Y0148235D02*
X0103178Y0148235D01*
X0103178Y0147736D02*
X0100309Y0147736D01*
X0100309Y0147238D02*
X0103236Y0147238D01*
X0103540Y0146739D02*
X0100309Y0146739D01*
X0100309Y0146241D02*
X0103611Y0146241D01*
X0103378Y0145742D02*
X0100309Y0145742D01*
X0100309Y0145244D02*
X0103378Y0145244D01*
X0103378Y0144745D02*
X0100309Y0144745D01*
X0100309Y0144247D02*
X0103378Y0144247D01*
X0103378Y0143748D02*
X0100309Y0143748D01*
X0100309Y0143250D02*
X0103378Y0143250D01*
X0103378Y0142751D02*
X0100309Y0142751D01*
X0100309Y0142253D02*
X0103378Y0142253D01*
X0103808Y0141754D02*
X0100309Y0141754D01*
X0100309Y0141256D02*
X0103626Y0141256D01*
X0103378Y0140757D02*
X0100309Y0140757D01*
X0100309Y0140259D02*
X0103378Y0140259D01*
X0103378Y0139760D02*
X0100309Y0139760D01*
X0100309Y0139262D02*
X0103378Y0139262D01*
X0103378Y0138763D02*
X0100309Y0138763D01*
X0100309Y0138265D02*
X0103378Y0138265D01*
X0103378Y0137766D02*
X0100309Y0137766D01*
X0100309Y0137268D02*
X0103378Y0137268D01*
X0103794Y0136769D02*
X0100309Y0136769D01*
X0100309Y0136271D02*
X0103641Y0136271D01*
X0103378Y0135772D02*
X0100309Y0135772D01*
X0100309Y0135274D02*
X0103378Y0135274D01*
X0103378Y0134775D02*
X0100309Y0134775D01*
X0100309Y0134277D02*
X0103378Y0134277D01*
X0103378Y0133778D02*
X0100309Y0133778D01*
X0100309Y0133280D02*
X0103378Y0133280D01*
X0103378Y0132781D02*
X0100309Y0132781D01*
X0100309Y0132283D02*
X0103378Y0132283D01*
X0103779Y0131784D02*
X0100309Y0131784D01*
X0100671Y0131286D02*
X0106285Y0131286D01*
X0105832Y0130787D02*
X0101169Y0130787D01*
X0101668Y0130289D02*
X0105626Y0130289D01*
X0105419Y0129790D02*
X0102166Y0129790D01*
X0102665Y0129292D02*
X0105373Y0129292D01*
X0105373Y0128793D02*
X0103163Y0128793D01*
X0103662Y0128295D02*
X0105415Y0128295D01*
X0105621Y0127796D02*
X0104160Y0127796D01*
X0104659Y0127298D02*
X0105828Y0127298D01*
X0106154Y0125802D02*
X0113017Y0125802D01*
X0113515Y0126300D02*
X0110430Y0126300D01*
X0110928Y0126799D02*
X0114014Y0126799D01*
X0114512Y0127298D02*
X0111375Y0127298D01*
X0111581Y0127796D02*
X0114925Y0127796D01*
X0114925Y0128295D02*
X0111787Y0128295D01*
X0111829Y0128793D02*
X0114925Y0128793D01*
X0114925Y0129292D02*
X0111829Y0129292D01*
X0111783Y0129790D02*
X0114925Y0129790D01*
X0114925Y0130289D02*
X0111577Y0130289D01*
X0111370Y0130787D02*
X0114925Y0130787D01*
X0114925Y0131286D02*
X0110918Y0131286D01*
X0113935Y0131784D02*
X0114925Y0131784D01*
X0114925Y0132283D02*
X0114336Y0132283D01*
X0114336Y0132781D02*
X0114925Y0132781D01*
X0114925Y0133280D02*
X0114336Y0133280D01*
X0114336Y0133778D02*
X0114925Y0133778D01*
X0114925Y0134277D02*
X0114336Y0134277D01*
X0114336Y0134775D02*
X0114925Y0134775D01*
X0114925Y0135274D02*
X0114336Y0135274D01*
X0114336Y0135772D02*
X0114925Y0135772D01*
X0114923Y0136271D02*
X0114073Y0136271D01*
X0113921Y0136769D02*
X0114425Y0136769D01*
X0112518Y0125303D02*
X0106214Y0125303D01*
X0106214Y0124805D02*
X0112020Y0124805D01*
X0111521Y0124306D02*
X0106214Y0124306D01*
X0106214Y0123808D02*
X0111023Y0123808D01*
X0110524Y0123309D02*
X0106214Y0123309D01*
X0106214Y0122811D02*
X0110026Y0122811D01*
X0109527Y0122312D02*
X0106214Y0122312D01*
X0106214Y0121814D02*
X0109028Y0121814D01*
X0108530Y0121315D02*
X0106214Y0121315D01*
X0106214Y0120817D02*
X0108031Y0120817D01*
X0107533Y0120318D02*
X0106214Y0120318D01*
X0106214Y0119820D02*
X0107034Y0119820D01*
X0106536Y0119321D02*
X0106214Y0119321D01*
X0103114Y0121814D02*
X0091549Y0121814D01*
X0091549Y0122312D02*
X0103114Y0122312D01*
X0103114Y0122811D02*
X0091718Y0122811D01*
X0092216Y0123309D02*
X0103114Y0123309D01*
X0103114Y0123808D02*
X0092531Y0123808D01*
X0092738Y0124306D02*
X0103114Y0124306D01*
X0102767Y0124805D02*
X0092833Y0124805D01*
X0092833Y0125303D02*
X0102269Y0125303D01*
X0101770Y0125802D02*
X0092776Y0125802D01*
X0092569Y0126300D02*
X0101272Y0126300D01*
X0100773Y0126799D02*
X0092308Y0126799D01*
X0091810Y0127298D02*
X0100275Y0127298D01*
X0099776Y0127796D02*
X0091549Y0127796D01*
X0091549Y0128295D02*
X0099278Y0128295D01*
X0098779Y0128793D02*
X0091549Y0128793D01*
X0091549Y0129292D02*
X0098281Y0129292D01*
X0097782Y0129790D02*
X0091549Y0129790D01*
X0091549Y0130289D02*
X0097284Y0130289D01*
X0097209Y0130787D02*
X0091549Y0130787D01*
X0091549Y0131286D02*
X0097209Y0131286D01*
X0097209Y0131784D02*
X0091549Y0131784D01*
X0091549Y0132283D02*
X0097209Y0132283D01*
X0097209Y0132781D02*
X0091549Y0132781D01*
X0091549Y0133280D02*
X0097209Y0133280D01*
X0097209Y0133778D02*
X0091549Y0133778D01*
X0091549Y0134277D02*
X0097209Y0134277D01*
X0097209Y0134775D02*
X0091549Y0134775D01*
X0091549Y0135274D02*
X0097209Y0135274D01*
X0097209Y0135772D02*
X0091549Y0135772D01*
X0091549Y0136271D02*
X0097209Y0136271D01*
X0097209Y0136769D02*
X0091549Y0136769D01*
X0091549Y0137268D02*
X0097209Y0137268D01*
X0097209Y0137766D02*
X0091549Y0137766D01*
X0091549Y0138265D02*
X0097209Y0138265D01*
X0097209Y0138763D02*
X0091549Y0138763D01*
X0091549Y0139262D02*
X0097209Y0139262D01*
X0097209Y0139760D02*
X0091549Y0139760D01*
X0091549Y0140259D02*
X0097209Y0140259D01*
X0097209Y0140757D02*
X0091549Y0140757D01*
X0091549Y0141256D02*
X0097209Y0141256D01*
X0097209Y0141754D02*
X0091549Y0141754D01*
X0091549Y0142253D02*
X0097209Y0142253D01*
X0097209Y0142751D02*
X0091549Y0142751D01*
X0091549Y0143250D02*
X0097209Y0143250D01*
X0097209Y0143748D02*
X0091549Y0143748D01*
X0091549Y0144247D02*
X0097209Y0144247D01*
X0097209Y0144745D02*
X0091549Y0144745D01*
X0091549Y0145244D02*
X0097209Y0145244D01*
X0097209Y0145742D02*
X0091549Y0145742D01*
X0091549Y0146241D02*
X0097209Y0146241D01*
X0097209Y0146739D02*
X0091549Y0146739D01*
X0091549Y0147238D02*
X0097209Y0147238D01*
X0097209Y0147736D02*
X0091549Y0147736D01*
X0091549Y0148235D02*
X0097209Y0148235D01*
X0097209Y0148733D02*
X0091549Y0148733D01*
X0091549Y0149232D02*
X0097209Y0149232D01*
X0097209Y0149731D02*
X0091549Y0149731D01*
X0091549Y0150229D02*
X0097209Y0150229D01*
X0097209Y0150728D02*
X0091549Y0150728D01*
X0091549Y0151226D02*
X0097209Y0151226D01*
X0097209Y0151725D02*
X0091549Y0151725D01*
X0091549Y0152223D02*
X0097209Y0152223D01*
X0097209Y0152722D02*
X0091549Y0152722D01*
X0091549Y0153220D02*
X0097209Y0153220D01*
X0097209Y0153719D02*
X0091549Y0153719D01*
X0091549Y0154217D02*
X0097209Y0154217D01*
X0097209Y0154716D02*
X0091549Y0154716D01*
X0091549Y0155214D02*
X0097209Y0155214D01*
X0097209Y0155713D02*
X0091549Y0155713D01*
X0091549Y0156211D02*
X0097209Y0156211D01*
X0097209Y0156710D02*
X0091549Y0156710D01*
X0091549Y0157208D02*
X0097209Y0157208D01*
X0097209Y0157707D02*
X0091549Y0157707D01*
X0091549Y0158205D02*
X0097209Y0158205D01*
X0097209Y0158704D02*
X0091549Y0158704D01*
X0091549Y0159202D02*
X0097209Y0159202D01*
X0097209Y0159701D02*
X0091549Y0159701D01*
X0091549Y0160199D02*
X0097209Y0160199D01*
X0097209Y0160698D02*
X0091549Y0160698D01*
X0091549Y0161196D02*
X0097209Y0161196D01*
X0097209Y0161695D02*
X0091549Y0161695D01*
X0091549Y0162193D02*
X0097209Y0162193D01*
X0097209Y0162692D02*
X0091549Y0162692D01*
X0091549Y0163190D02*
X0097209Y0163190D01*
X0097209Y0163689D02*
X0091549Y0163689D01*
X0091549Y0164187D02*
X0097209Y0164187D01*
X0097209Y0164686D02*
X0091549Y0164686D01*
X0091549Y0165184D02*
X0097209Y0165184D01*
X0097209Y0165683D02*
X0091549Y0165683D01*
X0091549Y0166181D02*
X0097209Y0166181D01*
X0097209Y0166680D02*
X0091549Y0166680D01*
X0091848Y0167178D02*
X0097209Y0167178D01*
X0097209Y0167677D02*
X0092346Y0167677D01*
X0092845Y0168175D02*
X0097209Y0168175D01*
X0097209Y0168674D02*
X0093343Y0168674D01*
X0093842Y0169172D02*
X0097209Y0169172D01*
X0097209Y0169671D02*
X0094340Y0169671D01*
X0094839Y0170169D02*
X0097209Y0170169D01*
X0097209Y0170668D02*
X0095338Y0170668D01*
X0095836Y0171166D02*
X0097357Y0171166D01*
X0097856Y0171665D02*
X0096335Y0171665D01*
X0096833Y0172164D02*
X0098355Y0172164D01*
X0098853Y0172662D02*
X0097332Y0172662D01*
X0097830Y0173161D02*
X0099352Y0173161D01*
X0099850Y0173659D02*
X0098329Y0173659D01*
X0098827Y0174158D02*
X0100349Y0174158D01*
X0100847Y0174656D02*
X0099326Y0174656D01*
X0099824Y0175155D02*
X0101346Y0175155D01*
X0100821Y0176152D02*
X0103522Y0176152D01*
X0103378Y0175653D02*
X0100323Y0175653D01*
X0101320Y0176650D02*
X0103913Y0176650D01*
X0103414Y0177149D02*
X0101818Y0177149D01*
X0099428Y0179143D02*
X0074454Y0179143D01*
X0074454Y0179641D02*
X0099927Y0179641D01*
X0100425Y0180140D02*
X0074454Y0180140D01*
X0074454Y0180638D02*
X0100924Y0180638D01*
X0103507Y0181137D02*
X0074325Y0181137D01*
X0074454Y0178644D02*
X0098930Y0178644D01*
X0098431Y0178146D02*
X0074454Y0178146D01*
X0074454Y0177647D02*
X0097933Y0177647D01*
X0097434Y0177149D02*
X0074418Y0177149D01*
X0073920Y0176650D02*
X0096936Y0176650D01*
X0096437Y0176152D02*
X0074310Y0176152D01*
X0074454Y0175653D02*
X0095939Y0175653D01*
X0095440Y0175155D02*
X0074454Y0175155D01*
X0074454Y0174656D02*
X0094942Y0174656D01*
X0094443Y0174158D02*
X0074454Y0174158D01*
X0074454Y0173659D02*
X0093945Y0173659D01*
X0093446Y0173161D02*
X0074454Y0173161D01*
X0074454Y0172662D02*
X0092948Y0172662D01*
X0092449Y0172164D02*
X0074433Y0172164D01*
X0073934Y0171665D02*
X0091950Y0171665D01*
X0091452Y0171166D02*
X0074295Y0171166D01*
X0074454Y0170668D02*
X0090953Y0170668D01*
X0090455Y0170169D02*
X0074454Y0170169D01*
X0074454Y0169671D02*
X0089956Y0169671D01*
X0089458Y0169172D02*
X0074454Y0169172D01*
X0074454Y0168674D02*
X0088959Y0168674D01*
X0088461Y0168175D02*
X0074454Y0168175D01*
X0074454Y0167677D02*
X0088449Y0167677D01*
X0088449Y0167178D02*
X0074448Y0167178D01*
X0073986Y0166680D02*
X0088449Y0166680D01*
X0088449Y0166181D02*
X0074496Y0166181D01*
X0074654Y0165683D02*
X0088449Y0165683D01*
X0088449Y0165184D02*
X0074654Y0165184D01*
X0074654Y0164686D02*
X0088449Y0164686D01*
X0088449Y0158205D02*
X0074654Y0158205D01*
X0074654Y0157707D02*
X0088449Y0157707D01*
X0088449Y0157208D02*
X0074588Y0157208D01*
X0074262Y0156710D02*
X0088449Y0156710D01*
X0088449Y0156211D02*
X0074479Y0156211D01*
X0074654Y0155713D02*
X0088449Y0155713D01*
X0088449Y0155214D02*
X0074654Y0155214D01*
X0074654Y0154716D02*
X0088449Y0154716D01*
X0088449Y0149232D02*
X0069225Y0149232D01*
X0069225Y0149731D02*
X0068725Y0149731D01*
X0068725Y0150229D02*
X0069225Y0150229D01*
X0069225Y0150728D02*
X0068725Y0150728D01*
X0068725Y0151226D02*
X0069225Y0151226D01*
X0069225Y0151725D02*
X0068725Y0151725D01*
X0068725Y0152223D02*
X0069225Y0152223D01*
X0069225Y0152722D02*
X0068725Y0152722D01*
X0068725Y0153220D02*
X0069225Y0153220D01*
X0069225Y0154716D02*
X0068725Y0154716D01*
X0068725Y0155214D02*
X0069225Y0155214D01*
X0069225Y0155713D02*
X0068725Y0155713D01*
X0068725Y0156211D02*
X0069225Y0156211D01*
X0069225Y0156710D02*
X0068725Y0156710D01*
X0068725Y0157208D02*
X0069225Y0157208D01*
X0069225Y0157707D02*
X0068725Y0157707D01*
X0068725Y0158205D02*
X0069225Y0158205D01*
X0069225Y0159701D02*
X0068725Y0159701D01*
X0068725Y0160199D02*
X0069225Y0160199D01*
X0069225Y0160698D02*
X0068725Y0160698D01*
X0068725Y0161196D02*
X0069225Y0161196D01*
X0069225Y0161695D02*
X0068725Y0161695D01*
X0068725Y0162193D02*
X0069225Y0162193D01*
X0069225Y0162692D02*
X0068725Y0162692D01*
X0068725Y0163190D02*
X0069225Y0163190D01*
X0063703Y0161695D02*
X0053565Y0161695D01*
X0053565Y0162193D02*
X0063366Y0162193D01*
X0063296Y0162692D02*
X0053565Y0162692D01*
X0053565Y0163190D02*
X0063296Y0163190D01*
X0063463Y0161196D02*
X0053565Y0161196D01*
X0053565Y0160698D02*
X0063296Y0160698D01*
X0063296Y0160199D02*
X0053565Y0160199D01*
X0053565Y0159701D02*
X0063296Y0159701D01*
X0063296Y0153220D02*
X0053565Y0153220D01*
X0053565Y0152722D02*
X0063296Y0152722D01*
X0063358Y0152223D02*
X0053565Y0152223D01*
X0053565Y0151725D02*
X0063673Y0151725D01*
X0063480Y0151226D02*
X0053565Y0151226D01*
X0053565Y0150728D02*
X0063296Y0150728D01*
X0063296Y0150229D02*
X0053565Y0150229D01*
X0053565Y0149731D02*
X0063296Y0149731D01*
X0063296Y0148733D02*
X0053565Y0148733D01*
X0053565Y0148235D02*
X0063296Y0148235D01*
X0063296Y0147736D02*
X0053565Y0147736D01*
X0053565Y0147238D02*
X0063354Y0147238D01*
X0063659Y0146739D02*
X0053565Y0146739D01*
X0053565Y0146241D02*
X0063730Y0146241D01*
X0063927Y0141754D02*
X0035166Y0141754D01*
X0035348Y0141256D02*
X0063744Y0141256D01*
X0063496Y0140757D02*
X0035596Y0140757D01*
X0035796Y0149731D02*
X0045528Y0149731D01*
X0045528Y0150229D02*
X0035796Y0150229D01*
X0035796Y0150728D02*
X0045528Y0150728D01*
X0045528Y0151226D02*
X0035612Y0151226D01*
X0035419Y0151725D02*
X0045528Y0151725D01*
X0045528Y0152223D02*
X0035734Y0152223D01*
X0035796Y0152722D02*
X0045528Y0152722D01*
X0045528Y0153220D02*
X0035796Y0153220D01*
X0053565Y0149232D02*
X0068725Y0149232D01*
X0074206Y0141256D02*
X0075473Y0141256D01*
X0074975Y0140757D02*
X0074454Y0140757D01*
X0093805Y0116829D02*
X0094064Y0116829D01*
X0094064Y0116330D02*
X0093805Y0116330D01*
X0093805Y0115832D02*
X0094064Y0115832D01*
X0094064Y0115333D02*
X0093805Y0115333D01*
X0093805Y0114835D02*
X0094064Y0114835D01*
X0094064Y0114336D02*
X0093805Y0114336D01*
X0093804Y0113838D02*
X0094136Y0113838D01*
X0094480Y0113339D02*
X0093306Y0113339D01*
X0091549Y0112841D02*
X0103114Y0112841D01*
X0103114Y0113339D02*
X0101659Y0113339D01*
X0102003Y0113838D02*
X0103114Y0113838D01*
X0103114Y0114336D02*
X0102076Y0114336D01*
X0102076Y0114835D02*
X0103114Y0114835D01*
X0103114Y0115333D02*
X0102076Y0115333D01*
X0102076Y0115832D02*
X0103114Y0115832D01*
X0103114Y0116330D02*
X0102076Y0116330D01*
X0103114Y0112342D02*
X0091549Y0112342D01*
X0091549Y0111844D02*
X0103114Y0111844D01*
X0103114Y0111345D02*
X0101578Y0111345D01*
X0101974Y0110847D02*
X0103114Y0110847D01*
X0103114Y0110348D02*
X0102076Y0110348D01*
X0102076Y0109850D02*
X0103114Y0109850D01*
X0103114Y0109351D02*
X0102076Y0109351D01*
X0102076Y0108853D02*
X0103114Y0108853D01*
X0103114Y0108354D02*
X0102076Y0108354D01*
X0102076Y0107856D02*
X0103114Y0107856D01*
X0103114Y0101375D02*
X0101712Y0101375D01*
X0102017Y0100876D02*
X0103114Y0100876D01*
X0103114Y0100378D02*
X0102076Y0100378D01*
X0102076Y0099879D02*
X0103114Y0099879D01*
X0103114Y0099381D02*
X0102076Y0099381D01*
X0102076Y0098882D02*
X0103114Y0098882D01*
X0103114Y0098384D02*
X0102076Y0098384D01*
X0102076Y0097885D02*
X0103114Y0097885D01*
X0103114Y0097387D02*
X0098320Y0097387D01*
X0098320Y0096888D02*
X0097820Y0096888D01*
X0097820Y0096390D02*
X0098320Y0096390D01*
X0098320Y0095891D02*
X0097820Y0095891D01*
X0097820Y0095393D02*
X0098320Y0095393D01*
X0098320Y0094894D02*
X0097820Y0094894D01*
X0097820Y0094396D02*
X0098320Y0094396D01*
X0098320Y0093897D02*
X0097820Y0093897D01*
X0097820Y0093399D02*
X0098320Y0093399D01*
X0101216Y0093399D02*
X0103114Y0093399D01*
X0103114Y0093897D02*
X0101870Y0093897D01*
X0102068Y0094396D02*
X0103114Y0094396D01*
X0103114Y0094894D02*
X0102076Y0094894D01*
X0102076Y0095393D02*
X0103114Y0095393D01*
X0103114Y0095891D02*
X0102076Y0095891D01*
X0102076Y0096390D02*
X0103114Y0096390D01*
X0103114Y0096888D02*
X0102076Y0096888D01*
X0112120Y0096888D02*
X0124542Y0096888D01*
X0124068Y0096414D02*
X0124068Y0094917D01*
X0128036Y0094917D01*
X0128036Y0094417D01*
X0124068Y0094417D01*
X0124068Y0092920D01*
X0126539Y0090448D01*
X0128036Y0090448D01*
X0128036Y0094417D01*
X0128536Y0094417D01*
X0128536Y0090448D01*
X0130034Y0090448D01*
X0132505Y0092920D01*
X0132505Y0094417D01*
X0128536Y0094417D01*
X0128536Y0094917D01*
X0128036Y0094917D01*
X0128036Y0098885D01*
X0126539Y0098885D01*
X0124068Y0096414D01*
X0124068Y0096390D02*
X0112120Y0096390D01*
X0112120Y0095891D02*
X0124068Y0095891D01*
X0124068Y0095393D02*
X0112120Y0095393D01*
X0112120Y0094894D02*
X0128036Y0094894D01*
X0128036Y0094396D02*
X0128536Y0094396D01*
X0128536Y0094894D02*
X0143753Y0094894D01*
X0143753Y0094759D02*
X0147721Y0094759D01*
X0147721Y0094259D01*
X0148221Y0094259D01*
X0148221Y0090291D01*
X0149719Y0090291D01*
X0152190Y0092762D01*
X0152190Y0094259D01*
X0148221Y0094259D01*
X0148221Y0094759D01*
X0152190Y0094759D01*
X0152190Y0096257D01*
X0149719Y0098728D01*
X0148221Y0098728D01*
X0148221Y0094760D01*
X0147721Y0094760D01*
X0147721Y0098728D01*
X0146224Y0098728D01*
X0143753Y0096257D01*
X0143753Y0094759D01*
X0143753Y0094259D02*
X0143753Y0092762D01*
X0146224Y0090291D01*
X0147721Y0090291D01*
X0147721Y0094259D01*
X0143753Y0094259D01*
X0143753Y0093897D02*
X0132505Y0093897D01*
X0132505Y0093399D02*
X0143753Y0093399D01*
X0143753Y0092900D02*
X0132485Y0092900D01*
X0131987Y0092402D02*
X0144113Y0092402D01*
X0144612Y0091903D02*
X0131488Y0091903D01*
X0130990Y0091405D02*
X0145110Y0091405D01*
X0145609Y0090906D02*
X0130491Y0090906D01*
X0130223Y0088414D02*
X0152301Y0088414D01*
X0152327Y0088912D02*
X0118709Y0088912D01*
X0118709Y0089202D02*
X0118709Y0088443D01*
X0115585Y0088443D01*
X0115585Y0090287D01*
X0117624Y0090287D01*
X0117942Y0090202D01*
X0118227Y0090037D01*
X0118460Y0089805D01*
X0118624Y0089520D01*
X0118709Y0089202D01*
X0118653Y0089411D02*
X0152327Y0089411D01*
X0152327Y0089909D02*
X0118355Y0089909D01*
X0118709Y0087915D02*
X0125851Y0087915D01*
X0125353Y0087417D02*
X0118689Y0087417D01*
X0118504Y0086918D02*
X0124854Y0086918D01*
X0124356Y0086420D02*
X0118509Y0086420D01*
X0118509Y0085921D02*
X0124268Y0085921D01*
X0124268Y0085423D02*
X0118509Y0085423D01*
X0118509Y0084924D02*
X0124268Y0084924D01*
X0124268Y0084426D02*
X0118438Y0084426D01*
X0118509Y0083927D02*
X0124268Y0083927D01*
X0124268Y0083429D02*
X0118509Y0083429D01*
X0118509Y0082930D02*
X0124340Y0082930D01*
X0123859Y0082431D02*
X0118509Y0082431D01*
X0112611Y0081933D02*
X0112120Y0081933D01*
X0112120Y0082431D02*
X0112472Y0082431D01*
X0112472Y0082930D02*
X0112120Y0082930D01*
X0112120Y0083429D02*
X0112472Y0083429D01*
X0112472Y0083927D02*
X0112120Y0083927D01*
X0112120Y0084426D02*
X0112544Y0084426D01*
X0112472Y0084924D02*
X0112120Y0084924D01*
X0112120Y0085423D02*
X0112472Y0085423D01*
X0112472Y0085921D02*
X0112120Y0085921D01*
X0112120Y0086420D02*
X0112472Y0086420D01*
X0112478Y0086918D02*
X0112120Y0086918D01*
X0112120Y0087417D02*
X0112293Y0087417D01*
X0112272Y0087915D02*
X0112120Y0087915D01*
X0112120Y0088414D02*
X0115396Y0088414D01*
X0115585Y0088414D02*
X0126350Y0088414D01*
X0126081Y0090906D02*
X0112120Y0090906D01*
X0112120Y0090408D02*
X0146107Y0090408D01*
X0147721Y0090408D02*
X0148221Y0090408D01*
X0148221Y0090906D02*
X0147721Y0090906D01*
X0147721Y0091405D02*
X0148221Y0091405D01*
X0148221Y0091903D02*
X0147721Y0091903D01*
X0147721Y0092402D02*
X0148221Y0092402D01*
X0148221Y0092900D02*
X0147721Y0092900D01*
X0147721Y0093399D02*
X0148221Y0093399D01*
X0148221Y0093897D02*
X0147721Y0093897D01*
X0147721Y0094396D02*
X0132505Y0094396D01*
X0132505Y0094917D02*
X0132505Y0096414D01*
X0130034Y0098885D01*
X0128536Y0098885D01*
X0128536Y0094917D01*
X0132505Y0094917D01*
X0132505Y0095393D02*
X0143753Y0095393D01*
X0143753Y0095891D02*
X0132505Y0095891D01*
X0132505Y0096390D02*
X0143886Y0096390D01*
X0144384Y0096888D02*
X0132031Y0096888D01*
X0131532Y0097387D02*
X0144883Y0097387D01*
X0145381Y0097885D02*
X0131034Y0097885D01*
X0130535Y0098384D02*
X0145880Y0098384D01*
X0147721Y0098384D02*
X0148221Y0098384D01*
X0148221Y0097885D02*
X0147721Y0097885D01*
X0147721Y0097387D02*
X0148221Y0097387D01*
X0148221Y0096888D02*
X0147721Y0096888D01*
X0147721Y0096390D02*
X0148221Y0096390D01*
X0148221Y0095891D02*
X0147721Y0095891D01*
X0147721Y0095393D02*
X0148221Y0095393D01*
X0148221Y0094894D02*
X0147721Y0094894D01*
X0148221Y0094396D02*
X0152327Y0094396D01*
X0152327Y0094894D02*
X0152190Y0094894D01*
X0152190Y0095393D02*
X0152327Y0095393D01*
X0152327Y0095891D02*
X0152190Y0095891D01*
X0152057Y0096390D02*
X0152327Y0096390D01*
X0152327Y0096888D02*
X0151558Y0096888D01*
X0151060Y0097387D02*
X0152327Y0097387D01*
X0152327Y0097885D02*
X0150561Y0097885D01*
X0150063Y0098384D02*
X0152327Y0098384D01*
X0152327Y0098882D02*
X0130037Y0098882D01*
X0128536Y0098882D02*
X0128036Y0098882D01*
X0128036Y0098384D02*
X0128536Y0098384D01*
X0128536Y0097885D02*
X0128036Y0097885D01*
X0128036Y0097387D02*
X0128536Y0097387D01*
X0128536Y0096888D02*
X0128036Y0096888D01*
X0128036Y0096390D02*
X0128536Y0096390D01*
X0128536Y0095891D02*
X0128036Y0095891D01*
X0128036Y0095393D02*
X0128536Y0095393D01*
X0128536Y0093897D02*
X0128036Y0093897D01*
X0128036Y0093399D02*
X0128536Y0093399D01*
X0128536Y0092900D02*
X0128036Y0092900D01*
X0128036Y0092402D02*
X0128536Y0092402D01*
X0128536Y0091903D02*
X0128036Y0091903D01*
X0128036Y0091405D02*
X0128536Y0091405D01*
X0128536Y0090906D02*
X0128036Y0090906D01*
X0125583Y0091405D02*
X0112120Y0091405D01*
X0112120Y0091903D02*
X0125084Y0091903D01*
X0124586Y0092402D02*
X0112120Y0092402D01*
X0112120Y0092900D02*
X0124087Y0092900D01*
X0124068Y0093399D02*
X0112120Y0093399D01*
X0112120Y0093897D02*
X0124068Y0093897D01*
X0124068Y0094396D02*
X0112120Y0094396D01*
X0112120Y0097387D02*
X0125040Y0097387D01*
X0125539Y0097885D02*
X0112120Y0097885D01*
X0112120Y0098384D02*
X0126037Y0098384D01*
X0126536Y0098882D02*
X0112120Y0098882D01*
X0112120Y0099381D02*
X0152327Y0099381D01*
X0152327Y0099879D02*
X0112120Y0099879D01*
X0112120Y0089909D02*
X0112627Y0089909D01*
X0112328Y0089411D02*
X0112120Y0089411D01*
X0112120Y0088912D02*
X0112272Y0088912D01*
X0115396Y0088912D02*
X0115585Y0088912D01*
X0115585Y0089411D02*
X0115396Y0089411D01*
X0115396Y0089909D02*
X0115585Y0089909D01*
X0112472Y0081434D02*
X0112120Y0081434D01*
X0112120Y0080936D02*
X0112472Y0080936D01*
X0112472Y0080437D02*
X0112120Y0080437D01*
X0112120Y0079939D02*
X0112472Y0079939D01*
X0112579Y0079440D02*
X0112120Y0079440D01*
X0112120Y0078942D02*
X0112472Y0078942D01*
X0112472Y0078443D02*
X0112120Y0078443D01*
X0112120Y0077945D02*
X0112472Y0077945D01*
X0112472Y0077446D02*
X0112120Y0077446D01*
X0112120Y0076948D02*
X0112512Y0076948D01*
X0112472Y0076449D02*
X0112120Y0076449D01*
X0112120Y0075951D02*
X0112472Y0075951D01*
X0112472Y0075452D02*
X0112120Y0075452D01*
X0112120Y0074954D02*
X0112472Y0074954D01*
X0112472Y0074455D02*
X0112120Y0074455D01*
X0112120Y0073957D02*
X0112472Y0073957D01*
X0112472Y0073458D02*
X0112120Y0073458D01*
X0112120Y0072960D02*
X0112472Y0072960D01*
X0112472Y0072461D02*
X0112251Y0072461D01*
X0118509Y0070966D02*
X0118862Y0070966D01*
X0118862Y0070467D02*
X0118509Y0070467D01*
X0118509Y0069969D02*
X0118862Y0069969D01*
X0118862Y0069470D02*
X0118509Y0069470D01*
X0118509Y0068972D02*
X0118862Y0068972D01*
X0118862Y0068473D02*
X0118509Y0068473D01*
X0118509Y0067975D02*
X0118862Y0067975D01*
X0118862Y0067476D02*
X0118509Y0067476D01*
X0118509Y0066978D02*
X0118862Y0066978D01*
X0118862Y0066479D02*
X0118471Y0066479D01*
X0118509Y0065981D02*
X0118862Y0065981D01*
X0118862Y0065482D02*
X0118509Y0065482D01*
X0118509Y0064984D02*
X0118862Y0064984D01*
X0118862Y0064485D02*
X0118509Y0064485D01*
X0118404Y0063987D02*
X0118862Y0063987D01*
X0118862Y0063488D02*
X0118509Y0063488D01*
X0118509Y0062990D02*
X0118862Y0062990D01*
X0118862Y0062491D02*
X0118509Y0062491D01*
X0118509Y0061993D02*
X0118862Y0061993D01*
X0118862Y0061494D02*
X0118370Y0061494D01*
X0118509Y0060995D02*
X0118862Y0060995D01*
X0118862Y0060497D02*
X0118509Y0060497D01*
X0118509Y0059998D02*
X0118862Y0059998D01*
X0118862Y0059500D02*
X0118509Y0059500D01*
X0118436Y0059001D02*
X0118862Y0059001D01*
X0118862Y0058503D02*
X0118509Y0058503D01*
X0118509Y0058004D02*
X0118862Y0058004D01*
X0118862Y0057506D02*
X0118509Y0057506D01*
X0118509Y0057007D02*
X0118862Y0057007D01*
X0118862Y0056509D02*
X0118503Y0056509D01*
X0118509Y0056010D02*
X0118862Y0056010D01*
X0118862Y0055512D02*
X0118509Y0055512D01*
X0118509Y0055013D02*
X0118862Y0055013D01*
X0118862Y0054515D02*
X0118509Y0054515D01*
X0118509Y0054016D02*
X0118862Y0054016D01*
X0118862Y0053518D02*
X0118071Y0053518D01*
X0118862Y0053019D02*
X0104246Y0053019D01*
X0104246Y0052521D02*
X0118862Y0052521D01*
X0118862Y0052022D02*
X0104246Y0052022D01*
X0104246Y0051524D02*
X0118862Y0051524D01*
X0118862Y0051025D02*
X0104246Y0051025D01*
X0104246Y0050527D02*
X0118862Y0050527D01*
X0118862Y0050028D02*
X0104246Y0050028D01*
X0104246Y0049530D02*
X0118673Y0049530D01*
X0118175Y0049031D02*
X0104246Y0049031D01*
X0104246Y0048533D02*
X0117676Y0048533D01*
X0117178Y0048034D02*
X0104246Y0048034D01*
X0104246Y0047536D02*
X0116679Y0047536D01*
X0116181Y0047037D02*
X0104246Y0047037D01*
X0104246Y0046539D02*
X0115682Y0046539D01*
X0115184Y0046040D02*
X0104246Y0046040D01*
X0104669Y0045542D02*
X0111194Y0045542D01*
X0110696Y0045043D02*
X0105168Y0045043D01*
X0105666Y0044545D02*
X0110197Y0044545D01*
X0109699Y0044046D02*
X0106165Y0044046D01*
X0106663Y0043548D02*
X0109200Y0043548D01*
X0108913Y0043049D02*
X0106950Y0043049D01*
X0106950Y0042551D02*
X0108913Y0042551D01*
X0108913Y0042052D02*
X0106950Y0042052D01*
X0106950Y0041554D02*
X0108913Y0041554D01*
X0108913Y0041055D02*
X0106950Y0041055D01*
X0106950Y0040557D02*
X0108913Y0040557D01*
X0108913Y0040058D02*
X0106950Y0040058D01*
X0106578Y0039560D02*
X0109285Y0039560D01*
X0109784Y0039061D02*
X0106080Y0039061D01*
X0105581Y0038562D02*
X0110282Y0038562D01*
X0110781Y0038064D02*
X0105083Y0038064D01*
X0099699Y0044046D02*
X0097574Y0044046D01*
X0098072Y0044545D02*
X0100197Y0044545D01*
X0100696Y0045043D02*
X0098571Y0045043D01*
X0099069Y0045542D02*
X0101146Y0045542D01*
X0101146Y0046040D02*
X0099568Y0046040D01*
X0100066Y0046539D02*
X0101146Y0046539D01*
X0101146Y0047037D02*
X0100565Y0047037D01*
X0101063Y0047536D02*
X0101146Y0047536D01*
X0099172Y0050028D02*
X0072079Y0050028D01*
X0071580Y0050527D02*
X0099177Y0050527D01*
X0099177Y0051025D02*
X0071082Y0051025D01*
X0070447Y0051524D02*
X0099177Y0051524D01*
X0099177Y0052022D02*
X0069583Y0052022D01*
X0068720Y0052521D02*
X0099177Y0052521D01*
X0099177Y0053019D02*
X0089894Y0053019D01*
X0088850Y0059500D02*
X0081591Y0059500D01*
X0081254Y0059998D02*
X0088850Y0059998D01*
X0088850Y0060497D02*
X0080756Y0060497D01*
X0079661Y0060995D02*
X0088850Y0060995D01*
X0088990Y0061494D02*
X0037309Y0061494D01*
X0037309Y0060995D02*
X0054086Y0060995D01*
X0053995Y0060943D02*
X0053762Y0060710D01*
X0053598Y0060425D01*
X0053513Y0060107D01*
X0053513Y0057240D01*
X0057268Y0057240D01*
X0057268Y0061193D01*
X0054598Y0061193D01*
X0054280Y0061107D01*
X0053995Y0060943D01*
X0053639Y0060497D02*
X0053134Y0060497D01*
X0053254Y0059998D02*
X0053513Y0059998D01*
X0053513Y0059500D02*
X0053254Y0059500D01*
X0053254Y0059001D02*
X0053513Y0059001D01*
X0053513Y0058503D02*
X0053254Y0058503D01*
X0053254Y0058004D02*
X0053513Y0058004D01*
X0053513Y0057506D02*
X0053254Y0057506D01*
X0053254Y0057007D02*
X0057268Y0057007D01*
X0057268Y0056509D02*
X0057768Y0056509D01*
X0057769Y0057007D02*
X0072402Y0057007D01*
X0072302Y0056509D02*
X0061524Y0056509D01*
X0061524Y0056010D02*
X0072302Y0056010D01*
X0072355Y0055512D02*
X0061524Y0055512D01*
X0061524Y0055013D02*
X0072561Y0055013D01*
X0072816Y0054515D02*
X0061524Y0054515D01*
X0061524Y0054016D02*
X0073314Y0054016D01*
X0074211Y0053518D02*
X0065824Y0053518D01*
X0067684Y0053019D02*
X0076128Y0053019D01*
X0072609Y0057506D02*
X0061524Y0057506D01*
X0061524Y0058004D02*
X0072930Y0058004D01*
X0073429Y0058503D02*
X0061524Y0058503D01*
X0061524Y0059001D02*
X0074488Y0059001D01*
X0075785Y0059001D02*
X0076350Y0059001D01*
X0076556Y0059500D02*
X0061524Y0059500D01*
X0061524Y0059998D02*
X0076893Y0059998D01*
X0077391Y0060497D02*
X0061398Y0060497D01*
X0060951Y0060995D02*
X0078487Y0060995D01*
X0073621Y0064485D02*
X0088850Y0064485D01*
X0088850Y0064984D02*
X0073828Y0064984D01*
X0074034Y0065482D02*
X0088850Y0065482D01*
X0088850Y0065981D02*
X0074034Y0065981D01*
X0073149Y0063987D02*
X0088956Y0063987D01*
X0088850Y0063488D02*
X0072433Y0063488D01*
X0069966Y0063488D02*
X0063391Y0063488D01*
X0063391Y0062990D02*
X0088850Y0062990D01*
X0088850Y0062491D02*
X0063127Y0062491D01*
X0063391Y0063987D02*
X0069250Y0063987D01*
X0068778Y0064485D02*
X0066458Y0064485D01*
X0066956Y0064984D02*
X0068571Y0064984D01*
X0068365Y0065482D02*
X0067455Y0065482D01*
X0067953Y0065981D02*
X0068365Y0065981D01*
X0066062Y0068473D02*
X0063391Y0068473D01*
X0063391Y0067975D02*
X0065563Y0067975D01*
X0066560Y0068972D02*
X0063391Y0068972D01*
X0063058Y0069470D02*
X0067059Y0069470D01*
X0067557Y0069969D02*
X0031911Y0069969D01*
X0031911Y0070467D02*
X0045620Y0070467D01*
X0045593Y0070494D02*
X0045826Y0070261D01*
X0046111Y0070097D01*
X0046429Y0070011D01*
X0049296Y0070011D01*
X0049296Y0073767D01*
X0049796Y0073767D01*
X0049796Y0070011D01*
X0052663Y0070011D01*
X0052981Y0070097D01*
X0053266Y0070261D01*
X0053499Y0070494D01*
X0053664Y0070779D01*
X0053749Y0071097D01*
X0053749Y0073767D01*
X0049796Y0073767D01*
X0049796Y0074267D01*
X0053749Y0074267D01*
X0053749Y0076938D01*
X0053664Y0077256D01*
X0053499Y0077541D01*
X0053266Y0077773D01*
X0052981Y0077938D01*
X0052663Y0078023D01*
X0049796Y0078023D01*
X0049796Y0074267D01*
X0049296Y0074267D01*
X0049296Y0073767D01*
X0045343Y0073767D01*
X0045343Y0071097D01*
X0045428Y0070779D01*
X0045593Y0070494D01*
X0045378Y0070966D02*
X0031911Y0070966D01*
X0031911Y0071464D02*
X0045343Y0071464D01*
X0045343Y0071963D02*
X0031911Y0071963D01*
X0031911Y0072461D02*
X0045343Y0072461D01*
X0045343Y0072960D02*
X0031911Y0072960D01*
X0031911Y0073458D02*
X0045343Y0073458D01*
X0045343Y0074267D02*
X0045343Y0076938D01*
X0045428Y0077256D01*
X0045593Y0077541D01*
X0045826Y0077773D01*
X0046111Y0077938D01*
X0046429Y0078023D01*
X0049296Y0078023D01*
X0049296Y0074267D01*
X0045343Y0074267D01*
X0045343Y0074455D02*
X0031911Y0074455D01*
X0031911Y0073957D02*
X0049296Y0073957D01*
X0049296Y0074455D02*
X0049796Y0074455D01*
X0049796Y0073957D02*
X0059139Y0073957D01*
X0059139Y0073767D02*
X0055186Y0073767D01*
X0055186Y0071097D01*
X0055271Y0070779D01*
X0055436Y0070494D01*
X0055668Y0070261D01*
X0055953Y0070097D01*
X0056271Y0070011D01*
X0059139Y0070011D01*
X0059139Y0073767D01*
X0059639Y0073767D01*
X0059639Y0074267D01*
X0063591Y0074267D01*
X0063591Y0076938D01*
X0063506Y0077256D01*
X0063342Y0077541D01*
X0063109Y0077773D01*
X0062824Y0077938D01*
X0062506Y0078023D01*
X0059639Y0078023D01*
X0059639Y0074267D01*
X0059139Y0074267D01*
X0059139Y0078023D01*
X0056271Y0078023D01*
X0055953Y0077938D01*
X0055668Y0077773D01*
X0055436Y0077541D01*
X0055271Y0077256D01*
X0055186Y0076938D01*
X0055186Y0074267D01*
X0059139Y0074267D01*
X0059139Y0073767D01*
X0059139Y0073458D02*
X0059639Y0073458D01*
X0059639Y0073767D02*
X0059639Y0070011D01*
X0062506Y0070011D01*
X0062824Y0070097D01*
X0063109Y0070261D01*
X0063342Y0070494D01*
X0063506Y0070779D01*
X0063591Y0071097D01*
X0063591Y0073767D01*
X0059639Y0073767D01*
X0059639Y0073957D02*
X0071545Y0073957D01*
X0071047Y0073458D02*
X0063591Y0073458D01*
X0063591Y0072960D02*
X0070548Y0072960D01*
X0070050Y0072461D02*
X0063591Y0072461D01*
X0063591Y0071963D02*
X0069551Y0071963D01*
X0069053Y0071464D02*
X0063591Y0071464D01*
X0063556Y0070966D02*
X0068554Y0070966D01*
X0068056Y0070467D02*
X0063315Y0070467D01*
X0063591Y0074455D02*
X0072044Y0074455D01*
X0072542Y0074954D02*
X0063591Y0074954D01*
X0063591Y0075452D02*
X0073041Y0075452D01*
X0073539Y0075951D02*
X0063591Y0075951D01*
X0063591Y0076449D02*
X0074038Y0076449D01*
X0074536Y0076948D02*
X0063589Y0076948D01*
X0063396Y0077446D02*
X0075035Y0077446D01*
X0075534Y0077945D02*
X0062798Y0077945D01*
X0059639Y0077945D02*
X0059139Y0077945D01*
X0059139Y0077446D02*
X0059639Y0077446D01*
X0059639Y0076948D02*
X0059139Y0076948D01*
X0059139Y0076449D02*
X0059639Y0076449D01*
X0059639Y0075951D02*
X0059139Y0075951D01*
X0059139Y0075452D02*
X0059639Y0075452D01*
X0059639Y0074954D02*
X0059139Y0074954D01*
X0059139Y0074455D02*
X0059639Y0074455D01*
X0059639Y0072960D02*
X0059139Y0072960D01*
X0059139Y0072461D02*
X0059639Y0072461D01*
X0059639Y0071963D02*
X0059139Y0071963D01*
X0059139Y0071464D02*
X0059639Y0071464D01*
X0059639Y0070966D02*
X0059139Y0070966D01*
X0059139Y0070467D02*
X0059639Y0070467D01*
X0055719Y0069470D02*
X0053216Y0069470D01*
X0053549Y0068972D02*
X0055386Y0068972D01*
X0055386Y0068473D02*
X0053549Y0068473D01*
X0053472Y0070467D02*
X0055462Y0070467D01*
X0055221Y0070966D02*
X0053714Y0070966D01*
X0053749Y0071464D02*
X0055186Y0071464D01*
X0055186Y0071963D02*
X0053749Y0071963D01*
X0053749Y0072461D02*
X0055186Y0072461D01*
X0055186Y0072960D02*
X0053749Y0072960D01*
X0053749Y0073458D02*
X0055186Y0073458D01*
X0055186Y0074455D02*
X0053749Y0074455D01*
X0053749Y0074954D02*
X0055186Y0074954D01*
X0055186Y0075452D02*
X0053749Y0075452D01*
X0053749Y0075951D02*
X0055186Y0075951D01*
X0055186Y0076449D02*
X0053749Y0076449D01*
X0053746Y0076948D02*
X0055188Y0076948D01*
X0055381Y0077446D02*
X0053554Y0077446D01*
X0052956Y0077945D02*
X0055979Y0077945D01*
X0049796Y0077945D02*
X0049296Y0077945D01*
X0049296Y0077446D02*
X0049796Y0077446D01*
X0049796Y0076948D02*
X0049296Y0076948D01*
X0049296Y0076449D02*
X0049796Y0076449D01*
X0049796Y0075951D02*
X0049296Y0075951D01*
X0049296Y0075452D02*
X0049796Y0075452D01*
X0049796Y0074954D02*
X0049296Y0074954D01*
X0049296Y0073458D02*
X0049796Y0073458D01*
X0049796Y0072960D02*
X0049296Y0072960D01*
X0049296Y0072461D02*
X0049796Y0072461D01*
X0049796Y0071963D02*
X0049296Y0071963D01*
X0049296Y0071464D02*
X0049796Y0071464D01*
X0049796Y0070966D02*
X0049296Y0070966D01*
X0049296Y0070467D02*
X0049796Y0070467D01*
X0045876Y0069470D02*
X0031911Y0069470D01*
X0031911Y0068972D02*
X0045543Y0068972D01*
X0045543Y0068473D02*
X0031911Y0068473D01*
X0031911Y0063987D02*
X0045543Y0063987D01*
X0045543Y0063488D02*
X0037052Y0063488D01*
X0037309Y0062990D02*
X0045543Y0062990D01*
X0045808Y0062491D02*
X0037309Y0062491D01*
X0037309Y0061993D02*
X0088850Y0061993D01*
X0101859Y0076948D02*
X0103114Y0076948D01*
X0103114Y0076449D02*
X0102357Y0076449D01*
X0102856Y0075951D02*
X0103114Y0075951D01*
X0104246Y0056010D02*
X0104633Y0056010D01*
X0104246Y0055512D02*
X0105131Y0055512D01*
X0105630Y0055013D02*
X0104246Y0055013D01*
X0104246Y0054515D02*
X0106128Y0054515D01*
X0106627Y0054016D02*
X0104246Y0054016D01*
X0104246Y0053518D02*
X0112911Y0053518D01*
X0114669Y0045542D02*
X0114685Y0045542D01*
X0117075Y0043548D02*
X0118913Y0043548D01*
X0118913Y0044046D02*
X0117574Y0044046D01*
X0118072Y0044545D02*
X0118913Y0044545D01*
X0118957Y0045043D02*
X0118571Y0045043D01*
X0119069Y0045542D02*
X0119455Y0045542D01*
X0119568Y0046040D02*
X0121382Y0046040D01*
X0121382Y0046539D02*
X0120066Y0046539D01*
X0120565Y0047037D02*
X0121382Y0047037D01*
X0121382Y0047536D02*
X0121063Y0047536D01*
X0118913Y0043049D02*
X0116950Y0043049D01*
X0116950Y0042551D02*
X0118913Y0042551D01*
X0118913Y0042052D02*
X0116950Y0042052D01*
X0116950Y0041554D02*
X0118913Y0041554D01*
X0118913Y0041055D02*
X0116950Y0041055D01*
X0116950Y0040557D02*
X0118913Y0040557D01*
X0118913Y0040058D02*
X0116950Y0040058D01*
X0116578Y0039560D02*
X0118913Y0039560D01*
X0118913Y0039061D02*
X0116080Y0039061D01*
X0115581Y0038562D02*
X0118913Y0038562D01*
X0119042Y0038064D02*
X0115083Y0038064D01*
X0124482Y0058004D02*
X0140132Y0058004D01*
X0139633Y0058503D02*
X0124482Y0058503D01*
X0124482Y0059001D02*
X0139135Y0059001D01*
X0138636Y0059500D02*
X0124482Y0059500D01*
X0124482Y0059998D02*
X0138138Y0059998D01*
X0138008Y0060497D02*
X0124482Y0060497D01*
X0124482Y0060995D02*
X0138008Y0060995D01*
X0138008Y0061494D02*
X0124482Y0061494D01*
X0124482Y0061993D02*
X0138008Y0061993D01*
X0138008Y0062491D02*
X0124482Y0062491D01*
X0124482Y0062990D02*
X0138008Y0062990D01*
X0138038Y0063488D02*
X0124482Y0063488D01*
X0124482Y0063987D02*
X0138537Y0063987D01*
X0139035Y0064485D02*
X0124482Y0064485D01*
X0124482Y0064984D02*
X0139534Y0064984D01*
X0140032Y0065482D02*
X0124482Y0065482D01*
X0124482Y0065981D02*
X0140476Y0065981D01*
X0140476Y0066479D02*
X0124482Y0066479D01*
X0124482Y0066978D02*
X0140476Y0066978D01*
X0140476Y0067476D02*
X0124482Y0067476D01*
X0124482Y0067975D02*
X0140476Y0067975D01*
X0140476Y0068473D02*
X0124482Y0068473D01*
X0124482Y0068972D02*
X0140476Y0068972D01*
X0140476Y0069470D02*
X0124482Y0069470D01*
X0124482Y0069969D02*
X0140476Y0069969D01*
X0134288Y0070467D02*
X0124482Y0070467D01*
X0124482Y0070966D02*
X0126304Y0070966D01*
X0125806Y0071464D02*
X0124482Y0071464D01*
X0124482Y0071963D02*
X0125307Y0071963D01*
X0124809Y0072461D02*
X0124482Y0072461D01*
X0130268Y0070966D02*
X0134126Y0070966D01*
X0134126Y0071464D02*
X0130766Y0071464D01*
X0131265Y0071963D02*
X0134126Y0071963D01*
X0134126Y0075452D02*
X0132305Y0075452D01*
X0132305Y0075951D02*
X0134126Y0075951D01*
X0134126Y0076449D02*
X0132187Y0076449D01*
X0131688Y0076948D02*
X0134126Y0076948D01*
X0134561Y0077446D02*
X0131190Y0077446D01*
X0130691Y0077945D02*
X0134790Y0077945D01*
X0134693Y0077971D02*
X0135011Y0077885D01*
X0137879Y0077885D01*
X0137879Y0081641D01*
X0133926Y0081641D01*
X0133926Y0078971D01*
X0134011Y0078653D01*
X0134176Y0078368D01*
X0134408Y0078135D01*
X0134693Y0077971D01*
X0134132Y0078443D02*
X0130193Y0078443D01*
X0130238Y0080936D02*
X0133926Y0080936D01*
X0133926Y0081434D02*
X0130737Y0081434D01*
X0131235Y0081933D02*
X0137879Y0081933D01*
X0137879Y0082141D02*
X0133926Y0082141D01*
X0133926Y0084812D01*
X0134011Y0085130D01*
X0134176Y0085415D01*
X0134408Y0085648D01*
X0134693Y0085812D01*
X0135011Y0085897D01*
X0137879Y0085897D01*
X0137879Y0082141D01*
X0137879Y0082431D02*
X0138379Y0082431D01*
X0138379Y0081933D02*
X0143968Y0081933D01*
X0143968Y0082431D02*
X0142331Y0082431D01*
X0142331Y0082930D02*
X0143968Y0082930D01*
X0143968Y0083429D02*
X0142331Y0083429D01*
X0142331Y0083927D02*
X0143968Y0083927D01*
X0143968Y0084426D02*
X0142331Y0084426D01*
X0142301Y0084924D02*
X0143968Y0084924D01*
X0144309Y0085423D02*
X0142074Y0085423D01*
X0142331Y0081434D02*
X0143968Y0081434D01*
X0143968Y0080936D02*
X0142331Y0080936D01*
X0142331Y0080437D02*
X0143968Y0080437D01*
X0143968Y0079939D02*
X0142331Y0079939D01*
X0142331Y0079440D02*
X0143968Y0079440D01*
X0143968Y0078942D02*
X0142324Y0078942D01*
X0142125Y0078443D02*
X0144226Y0078443D01*
X0138379Y0078443D02*
X0137879Y0078443D01*
X0137879Y0077945D02*
X0138379Y0077945D01*
X0138379Y0078942D02*
X0137879Y0078942D01*
X0137879Y0079440D02*
X0138379Y0079440D01*
X0138379Y0079939D02*
X0137879Y0079939D01*
X0137879Y0080437D02*
X0138379Y0080437D01*
X0138379Y0080936D02*
X0137879Y0080936D01*
X0137879Y0081434D02*
X0138379Y0081434D01*
X0138379Y0082930D02*
X0137879Y0082930D01*
X0137879Y0083429D02*
X0138379Y0083429D01*
X0138379Y0083927D02*
X0137879Y0083927D01*
X0137879Y0084426D02*
X0138379Y0084426D01*
X0138379Y0084924D02*
X0137879Y0084924D01*
X0137879Y0085423D02*
X0138379Y0085423D01*
X0134183Y0085423D02*
X0132305Y0085423D01*
X0132305Y0085921D02*
X0149809Y0085921D01*
X0150307Y0086420D02*
X0132217Y0086420D01*
X0131718Y0086918D02*
X0150806Y0086918D01*
X0151304Y0087417D02*
X0131220Y0087417D01*
X0130721Y0087915D02*
X0151803Y0087915D01*
X0152327Y0090408D02*
X0149835Y0090408D01*
X0150334Y0090906D02*
X0152327Y0090906D01*
X0152327Y0091405D02*
X0150832Y0091405D01*
X0151331Y0091903D02*
X0152327Y0091903D01*
X0152327Y0092402D02*
X0151829Y0092402D01*
X0152190Y0092900D02*
X0152327Y0092900D01*
X0152327Y0093399D02*
X0152190Y0093399D01*
X0152190Y0093897D02*
X0152327Y0093897D01*
X0144182Y0100876D02*
X0131918Y0100876D01*
X0132305Y0101375D02*
X0143953Y0101375D01*
X0143953Y0101873D02*
X0132305Y0101873D01*
X0132305Y0102372D02*
X0143953Y0102372D01*
X0143953Y0102870D02*
X0132305Y0102870D01*
X0132305Y0106360D02*
X0143953Y0106360D01*
X0143953Y0106859D02*
X0132305Y0106859D01*
X0132305Y0107357D02*
X0143953Y0107357D01*
X0143953Y0107856D02*
X0132305Y0107856D01*
X0132021Y0108354D02*
X0144394Y0108354D01*
X0129393Y0128295D02*
X0127767Y0128295D01*
X0128266Y0128793D02*
X0128459Y0128793D01*
X0124268Y0159701D02*
X0114536Y0159701D01*
X0114536Y0160199D02*
X0124268Y0160199D01*
X0124268Y0160698D02*
X0114536Y0160698D01*
X0114369Y0161196D02*
X0124268Y0161196D01*
X0124268Y0161695D02*
X0114129Y0161695D01*
X0114466Y0162193D02*
X0124268Y0162193D01*
X0124268Y0162692D02*
X0114536Y0162692D01*
X0114536Y0163190D02*
X0124268Y0163190D01*
X0124268Y0163689D02*
X0114536Y0163689D01*
X0114536Y0164686D02*
X0124268Y0164686D01*
X0124268Y0165184D02*
X0114536Y0165184D01*
X0114536Y0165683D02*
X0124268Y0165683D01*
X0124268Y0166181D02*
X0114378Y0166181D01*
X0113868Y0166680D02*
X0124268Y0166680D01*
X0124268Y0167178D02*
X0122083Y0167178D01*
X0122581Y0167677D02*
X0124268Y0167677D01*
X0124268Y0168175D02*
X0123080Y0168175D01*
X0123578Y0168674D02*
X0124268Y0168674D01*
X0124268Y0169172D02*
X0124077Y0169172D01*
X0124268Y0164187D02*
X0109107Y0164187D01*
X0114177Y0171166D02*
X0120272Y0171166D01*
X0120331Y0171665D02*
X0113816Y0171665D01*
X0114315Y0172164D02*
X0120331Y0172164D01*
X0120331Y0172662D02*
X0114336Y0172662D01*
X0114336Y0173161D02*
X0120331Y0173161D01*
X0120331Y0173659D02*
X0114336Y0173659D01*
X0114336Y0174158D02*
X0120331Y0174158D01*
X0120331Y0174656D02*
X0114336Y0174656D01*
X0114336Y0175155D02*
X0120331Y0175155D01*
X0120331Y0175653D02*
X0114336Y0175653D01*
X0114192Y0176152D02*
X0120331Y0176152D01*
X0120331Y0176650D02*
X0113802Y0176650D01*
X0114300Y0177149D02*
X0120331Y0177149D01*
X0120331Y0177647D02*
X0114336Y0177647D01*
X0114336Y0178146D02*
X0120331Y0178146D01*
X0120331Y0178644D02*
X0114336Y0178644D01*
X0114336Y0179143D02*
X0120331Y0179143D01*
X0120331Y0179641D02*
X0114336Y0179641D01*
X0114336Y0180140D02*
X0120331Y0180140D01*
X0120331Y0180638D02*
X0114336Y0180638D01*
X0114207Y0181137D02*
X0120331Y0181137D01*
X0120331Y0181635D02*
X0064264Y0181635D01*
X0064006Y0182134D02*
X0088318Y0182134D01*
X0086457Y0182632D02*
X0063508Y0182632D01*
X0062760Y0183131D02*
X0085459Y0183131D01*
X0084595Y0183629D02*
X0057502Y0183629D01*
X0057502Y0183131D02*
X0059954Y0183131D01*
X0059206Y0182632D02*
X0057502Y0182632D01*
X0057502Y0182134D02*
X0058708Y0182134D01*
X0058450Y0181635D02*
X0057502Y0181635D01*
X0057502Y0181137D02*
X0058244Y0181137D01*
X0058129Y0180638D02*
X0057502Y0180638D01*
X0057502Y0180140D02*
X0058129Y0180140D01*
X0058129Y0179641D02*
X0057502Y0179641D01*
X0057502Y0179143D02*
X0058309Y0179143D01*
X0058515Y0178644D02*
X0057502Y0178644D01*
X0057502Y0178146D02*
X0058865Y0178146D01*
X0059363Y0177647D02*
X0057502Y0177647D01*
X0057502Y0177149D02*
X0060332Y0177149D01*
X0059686Y0176650D02*
X0057502Y0176650D01*
X0057502Y0176152D02*
X0059188Y0176152D01*
X0058845Y0175653D02*
X0057502Y0175653D01*
X0057502Y0175155D02*
X0058638Y0175155D01*
X0058523Y0174656D02*
X0057502Y0174656D01*
X0057502Y0174158D02*
X0058523Y0174158D01*
X0058560Y0173659D02*
X0057502Y0173659D01*
X0057502Y0173161D02*
X0058766Y0173161D01*
X0058999Y0172662D02*
X0057502Y0172662D01*
X0057502Y0172164D02*
X0059498Y0172164D01*
X0060343Y0171665D02*
X0057502Y0171665D01*
X0057560Y0171166D02*
X0063655Y0171166D01*
X0064016Y0171665D02*
X0062371Y0171665D01*
X0063216Y0172164D02*
X0063517Y0172164D01*
X0057502Y0184128D02*
X0083732Y0184128D01*
X0083110Y0184626D02*
X0057502Y0184626D01*
X0057502Y0185125D02*
X0082612Y0185125D01*
X0082113Y0185623D02*
X0057502Y0185623D01*
X0057502Y0186122D02*
X0081615Y0186122D01*
X0081144Y0186620D02*
X0057502Y0186620D01*
X0057502Y0187119D02*
X0080856Y0187119D01*
X0080569Y0187617D02*
X0057502Y0187617D01*
X0057626Y0188116D02*
X0080281Y0188116D01*
X0079993Y0188614D02*
X0058125Y0188614D01*
X0058623Y0189113D02*
X0079705Y0189113D01*
X0079508Y0189611D02*
X0059122Y0189611D01*
X0059620Y0190110D02*
X0079375Y0190110D01*
X0079241Y0190608D02*
X0060119Y0190608D01*
X0060617Y0191107D02*
X0079107Y0191107D01*
X0078974Y0191605D02*
X0061116Y0191605D01*
X0061614Y0192104D02*
X0078840Y0192104D01*
X0078761Y0192602D02*
X0062113Y0192602D01*
X0062611Y0193101D02*
X0078761Y0193101D01*
X0078761Y0193600D02*
X0063110Y0193600D01*
X0066392Y0194098D02*
X0078761Y0194098D01*
X0078761Y0194597D02*
X0066891Y0194597D01*
X0067389Y0195095D02*
X0078761Y0195095D01*
X0078761Y0195594D02*
X0067888Y0195594D01*
X0068386Y0196092D02*
X0078894Y0196092D01*
X0079028Y0196591D02*
X0068565Y0196591D01*
X0068565Y0197089D02*
X0079161Y0197089D01*
X0079295Y0197588D02*
X0068565Y0197588D01*
X0068565Y0198086D02*
X0079428Y0198086D01*
X0079562Y0198585D02*
X0068565Y0198585D01*
X0068565Y0199083D02*
X0079821Y0199083D01*
X0093451Y0182134D02*
X0120331Y0182134D01*
X0120331Y0182632D02*
X0095312Y0182632D01*
X0096311Y0183131D02*
X0120331Y0183131D01*
X0120331Y0183629D02*
X0097174Y0183629D01*
X0098037Y0184128D02*
X0120331Y0184128D01*
X0120331Y0184626D02*
X0098659Y0184626D01*
X0099158Y0185125D02*
X0120331Y0185125D01*
X0120331Y0185623D02*
X0099656Y0185623D01*
X0100155Y0186122D02*
X0120331Y0186122D01*
X0120331Y0186620D02*
X0100625Y0186620D01*
X0100913Y0187119D02*
X0120331Y0187119D01*
X0120331Y0187617D02*
X0101201Y0187617D01*
X0101488Y0188116D02*
X0120206Y0188116D01*
X0119707Y0188614D02*
X0101776Y0188614D01*
X0102064Y0189113D02*
X0119209Y0189113D01*
X0118710Y0189611D02*
X0102261Y0189611D01*
X0102395Y0190110D02*
X0118212Y0190110D01*
X0117713Y0190608D02*
X0102528Y0190608D01*
X0102662Y0191107D02*
X0117215Y0191107D01*
X0116716Y0191605D02*
X0102795Y0191605D01*
X0102929Y0192104D02*
X0116218Y0192104D01*
X0115719Y0192602D02*
X0103009Y0192602D01*
X0103009Y0193101D02*
X0115221Y0193101D01*
X0114722Y0193600D02*
X0103009Y0193600D01*
X0103009Y0194098D02*
X0109701Y0194098D01*
X0109268Y0194597D02*
X0103009Y0194597D01*
X0103009Y0195095D02*
X0109268Y0195095D01*
X0109268Y0195594D02*
X0103009Y0195594D01*
X0102875Y0196092D02*
X0109268Y0196092D01*
X0109268Y0196591D02*
X0102742Y0196591D01*
X0102608Y0197089D02*
X0109268Y0197089D01*
X0109268Y0197588D02*
X0102474Y0197588D01*
X0102341Y0198086D02*
X0109268Y0198086D01*
X0109268Y0198585D02*
X0102207Y0198585D01*
X0101948Y0199083D02*
X0109268Y0199083D01*
X0103399Y0172164D02*
X0102739Y0172164D01*
X0102240Y0171665D02*
X0103898Y0171665D01*
X0103537Y0171166D02*
X0101742Y0171166D01*
X0101243Y0170668D02*
X0103378Y0170668D01*
X0103378Y0170169D02*
X0100745Y0170169D01*
X0100309Y0169671D02*
X0103378Y0169671D01*
X0103378Y0169172D02*
X0100309Y0169172D01*
X0100309Y0168674D02*
X0103378Y0168674D01*
X0103378Y0168175D02*
X0100309Y0168175D01*
X0100309Y0167677D02*
X0103378Y0167677D01*
X0103384Y0167178D02*
X0100309Y0167178D01*
X0100309Y0166680D02*
X0103846Y0166680D01*
X0103336Y0166181D02*
X0100309Y0166181D01*
X0100309Y0165683D02*
X0103178Y0165683D01*
X0103178Y0165184D02*
X0100309Y0165184D01*
X0100309Y0164686D02*
X0103178Y0164686D01*
X0094561Y0111345D02*
X0093231Y0111345D01*
X0093729Y0110847D02*
X0094165Y0110847D01*
X0094064Y0110348D02*
X0093805Y0110348D01*
X0093805Y0109850D02*
X0094064Y0109850D01*
X0094064Y0109351D02*
X0093805Y0109351D01*
X0093805Y0108853D02*
X0094064Y0108853D01*
X0094064Y0108354D02*
X0093805Y0108354D01*
X0093805Y0107856D02*
X0094064Y0107856D01*
X0081461Y0098882D02*
X0066544Y0098882D01*
X0066544Y0098384D02*
X0081461Y0098384D01*
X0081461Y0097885D02*
X0066544Y0097885D01*
X0066544Y0097387D02*
X0081461Y0097387D01*
X0081461Y0096888D02*
X0066361Y0096888D01*
X0065800Y0096390D02*
X0081461Y0096390D01*
X0084008Y0086420D02*
X0041766Y0086420D01*
X0041786Y0086399D02*
X0041554Y0086632D01*
X0041269Y0086796D01*
X0040951Y0086882D01*
X0039166Y0086882D01*
X0039166Y0081649D01*
X0042036Y0081649D01*
X0042036Y0085796D01*
X0041951Y0086114D01*
X0041786Y0086399D01*
X0042003Y0085921D02*
X0083510Y0085921D01*
X0083011Y0085423D02*
X0042036Y0085423D01*
X0042036Y0084924D02*
X0082513Y0084924D01*
X0082014Y0084426D02*
X0042036Y0084426D01*
X0042036Y0083927D02*
X0081516Y0083927D01*
X0081017Y0083429D02*
X0042036Y0083429D01*
X0042036Y0082930D02*
X0080519Y0082930D01*
X0080020Y0082431D02*
X0042036Y0082431D01*
X0042036Y0081933D02*
X0079522Y0081933D01*
X0079023Y0081434D02*
X0039166Y0081434D01*
X0039166Y0081649D02*
X0039166Y0081149D01*
X0039166Y0075917D01*
X0040951Y0075917D01*
X0041269Y0076002D01*
X0041554Y0076167D01*
X0041786Y0076399D01*
X0041951Y0076684D01*
X0042036Y0077002D01*
X0042036Y0081149D01*
X0039166Y0081149D01*
X0038666Y0081149D01*
X0038666Y0075917D01*
X0036881Y0075917D01*
X0036564Y0076002D01*
X0036279Y0076167D01*
X0036046Y0076399D01*
X0035881Y0076684D01*
X0035796Y0077002D01*
X0035796Y0081149D01*
X0038666Y0081149D01*
X0038666Y0081649D01*
X0035796Y0081649D01*
X0035796Y0085796D01*
X0035881Y0086114D01*
X0036046Y0086399D01*
X0036279Y0086632D01*
X0036564Y0086796D01*
X0036881Y0086882D01*
X0038666Y0086882D01*
X0038666Y0081649D01*
X0039166Y0081649D01*
X0039166Y0081933D02*
X0038666Y0081933D01*
X0038666Y0082431D02*
X0039166Y0082431D01*
X0039166Y0082930D02*
X0038666Y0082930D01*
X0038666Y0083429D02*
X0039166Y0083429D01*
X0039166Y0083927D02*
X0038666Y0083927D01*
X0038666Y0084426D02*
X0039166Y0084426D01*
X0039166Y0084924D02*
X0038666Y0084924D01*
X0038666Y0085423D02*
X0039166Y0085423D01*
X0039166Y0085921D02*
X0038666Y0085921D01*
X0038666Y0086420D02*
X0039166Y0086420D01*
X0036066Y0086420D02*
X0032428Y0086420D01*
X0032781Y0085921D02*
X0035830Y0085921D01*
X0035796Y0085423D02*
X0032781Y0085423D01*
X0032781Y0084924D02*
X0035796Y0084924D01*
X0035796Y0084426D02*
X0032781Y0084426D01*
X0032781Y0083927D02*
X0035796Y0083927D01*
X0035796Y0083429D02*
X0032781Y0083429D01*
X0032781Y0082930D02*
X0035796Y0082930D01*
X0035796Y0082431D02*
X0032781Y0082431D01*
X0032781Y0081933D02*
X0035796Y0081933D01*
X0035796Y0080936D02*
X0032781Y0080936D01*
X0032781Y0081434D02*
X0038666Y0081434D01*
X0038666Y0080936D02*
X0039166Y0080936D01*
X0039166Y0080437D02*
X0038666Y0080437D01*
X0038666Y0079939D02*
X0039166Y0079939D01*
X0039166Y0079440D02*
X0038666Y0079440D01*
X0038666Y0078942D02*
X0039166Y0078942D01*
X0039166Y0078443D02*
X0038666Y0078443D01*
X0038666Y0077945D02*
X0039166Y0077945D01*
X0039166Y0077446D02*
X0038666Y0077446D01*
X0038666Y0076948D02*
X0039166Y0076948D01*
X0039166Y0076449D02*
X0038666Y0076449D01*
X0038666Y0075951D02*
X0039166Y0075951D01*
X0041077Y0075951D02*
X0045343Y0075951D01*
X0045343Y0076449D02*
X0041815Y0076449D01*
X0042022Y0076948D02*
X0045346Y0076948D01*
X0045539Y0077446D02*
X0042036Y0077446D01*
X0042036Y0077945D02*
X0046136Y0077945D01*
X0045343Y0075452D02*
X0031911Y0075452D01*
X0031911Y0074954D02*
X0045343Y0074954D01*
X0042036Y0078443D02*
X0076032Y0078443D01*
X0076531Y0078942D02*
X0042036Y0078942D01*
X0042036Y0079440D02*
X0077029Y0079440D01*
X0077528Y0079939D02*
X0042036Y0079939D01*
X0042036Y0080437D02*
X0078026Y0080437D01*
X0078525Y0080936D02*
X0042036Y0080936D01*
X0036755Y0075951D02*
X0031911Y0075951D01*
X0032498Y0076449D02*
X0036017Y0076449D01*
X0035811Y0076948D02*
X0032781Y0076948D01*
X0032781Y0077446D02*
X0035796Y0077446D01*
X0035796Y0077945D02*
X0032781Y0077945D01*
X0032781Y0078443D02*
X0035796Y0078443D01*
X0035796Y0078942D02*
X0032781Y0078942D01*
X0032781Y0079440D02*
X0035796Y0079440D01*
X0035796Y0079939D02*
X0032781Y0079939D01*
X0032781Y0080437D02*
X0035796Y0080437D01*
X0037309Y0060497D02*
X0045761Y0060497D01*
X0045642Y0059998D02*
X0037309Y0059998D01*
X0037309Y0059500D02*
X0045642Y0059500D01*
X0045642Y0059001D02*
X0037309Y0059001D01*
X0037309Y0058503D02*
X0045642Y0058503D01*
X0045642Y0058004D02*
X0037309Y0058004D01*
X0037309Y0057506D02*
X0045642Y0057506D01*
X0045642Y0057007D02*
X0037309Y0057007D01*
X0037309Y0056509D02*
X0045642Y0056509D01*
X0045642Y0056010D02*
X0037309Y0056010D01*
X0037309Y0055512D02*
X0045642Y0055512D01*
X0045359Y0055013D02*
X0037309Y0055013D01*
X0037309Y0054515D02*
X0044861Y0054515D01*
X0044362Y0054016D02*
X0037309Y0054016D01*
X0036929Y0053518D02*
X0043864Y0053518D01*
X0046173Y0050028D02*
X0054572Y0050028D01*
X0054074Y0049530D02*
X0045674Y0049530D01*
X0045592Y0049448D02*
X0045592Y0049448D01*
X0045573Y0049031D02*
X0053596Y0049031D01*
X0053308Y0048533D02*
X0046072Y0048533D01*
X0046570Y0048034D02*
X0053020Y0048034D01*
X0052732Y0047536D02*
X0047069Y0047536D01*
X0047567Y0047037D02*
X0052445Y0047037D01*
X0052157Y0046539D02*
X0048066Y0046539D01*
X0048564Y0046040D02*
X0051954Y0046040D01*
X0051821Y0045542D02*
X0049063Y0045542D01*
X0049438Y0045043D02*
X0051687Y0045043D01*
X0051553Y0044545D02*
X0049438Y0044545D01*
X0049438Y0044046D02*
X0051420Y0044046D01*
X0051286Y0043548D02*
X0049438Y0043548D01*
X0049438Y0043049D02*
X0051202Y0043049D01*
X0051202Y0042551D02*
X0043064Y0042551D01*
X0047823Y0038064D02*
X0051731Y0038064D01*
X0051864Y0037565D02*
X0047324Y0037565D01*
X0048321Y0038562D02*
X0051597Y0038562D01*
X0051464Y0039061D02*
X0048820Y0039061D01*
X0049318Y0039560D02*
X0051330Y0039560D01*
X0051202Y0040058D02*
X0049438Y0040058D01*
X0049438Y0040557D02*
X0051202Y0040557D01*
X0051202Y0041055D02*
X0049438Y0041055D01*
X0049438Y0041554D02*
X0051202Y0041554D01*
X0051202Y0042052D02*
X0049438Y0042052D01*
X0046671Y0050527D02*
X0055071Y0050527D01*
X0055569Y0051025D02*
X0047170Y0051025D01*
X0047668Y0051524D02*
X0056205Y0051524D01*
X0057068Y0052022D02*
X0048167Y0052022D01*
X0048665Y0052521D02*
X0057932Y0052521D01*
X0057768Y0053019D02*
X0057268Y0053019D01*
X0057268Y0053518D02*
X0057768Y0053518D01*
X0057768Y0054016D02*
X0057268Y0054016D01*
X0057268Y0054515D02*
X0057768Y0054515D01*
X0057768Y0055013D02*
X0057268Y0055013D01*
X0057268Y0055512D02*
X0057768Y0055512D01*
X0057768Y0056010D02*
X0057268Y0056010D01*
X0057268Y0057506D02*
X0057768Y0057506D01*
X0057768Y0058004D02*
X0057268Y0058004D01*
X0057268Y0058503D02*
X0057768Y0058503D01*
X0057768Y0059001D02*
X0057268Y0059001D01*
X0057268Y0059500D02*
X0057768Y0059500D01*
X0057768Y0059998D02*
X0057268Y0059998D01*
X0057268Y0060497D02*
X0057768Y0060497D01*
X0057768Y0060995D02*
X0057268Y0060995D01*
X0055650Y0062491D02*
X0053284Y0062491D01*
X0053549Y0062990D02*
X0055386Y0062990D01*
X0055386Y0063488D02*
X0053549Y0063488D01*
X0053513Y0056509D02*
X0053254Y0056509D01*
X0053254Y0056010D02*
X0053513Y0056010D01*
X0053513Y0055512D02*
X0053254Y0055512D01*
X0053254Y0055013D02*
X0053513Y0055013D01*
X0053513Y0054515D02*
X0053254Y0054515D01*
X0053254Y0054016D02*
X0053513Y0054016D01*
X0053619Y0053518D02*
X0053169Y0053518D01*
X0052671Y0053019D02*
X0054025Y0053019D01*
X0057170Y0096390D02*
X0057670Y0096390D01*
X0057670Y0096888D02*
X0057170Y0096888D01*
X0057170Y0097387D02*
X0057670Y0097387D01*
X0057670Y0097885D02*
X0057170Y0097885D01*
X0057170Y0098384D02*
X0057670Y0098384D01*
X0057670Y0098882D02*
X0057170Y0098882D01*
X0057170Y0100378D02*
X0057670Y0100378D01*
X0057670Y0100876D02*
X0057170Y0100876D01*
X0057170Y0101375D02*
X0057670Y0101375D01*
X0057670Y0101873D02*
X0057170Y0101873D01*
X0057170Y0102372D02*
X0057670Y0102372D01*
X0125750Y0079939D02*
X0133926Y0079939D01*
X0133926Y0080437D02*
X0126249Y0080437D01*
X0125705Y0079440D02*
X0133926Y0079440D01*
X0133934Y0078942D02*
X0126203Y0078942D01*
X0131734Y0082431D02*
X0133926Y0082431D01*
X0133926Y0082930D02*
X0132232Y0082930D01*
X0132305Y0083429D02*
X0133926Y0083429D01*
X0133926Y0083927D02*
X0132305Y0083927D01*
X0132305Y0084426D02*
X0133926Y0084426D01*
X0133956Y0084924D02*
X0132305Y0084924D01*
X0151539Y0077446D02*
X0159219Y0077446D01*
X0159219Y0076948D02*
X0151974Y0076948D01*
X0151974Y0076449D02*
X0159219Y0076449D01*
X0159219Y0075951D02*
X0151974Y0075951D01*
X0151974Y0075452D02*
X0159219Y0075452D01*
X0159219Y0074954D02*
X0151974Y0074954D01*
X0151974Y0074455D02*
X0159219Y0074455D01*
X0159219Y0073957D02*
X0151974Y0073957D01*
X0151974Y0073458D02*
X0159219Y0073458D01*
X0159219Y0072960D02*
X0151974Y0072960D01*
X0151974Y0072461D02*
X0159219Y0072461D01*
X0159219Y0071963D02*
X0151974Y0071963D01*
X0151974Y0071464D02*
X0159219Y0071464D01*
X0159219Y0070966D02*
X0151974Y0070966D01*
X0151812Y0070467D02*
X0159219Y0070467D01*
X0159219Y0047037D02*
X0145904Y0047037D01*
X0145995Y0046946D02*
X0145762Y0047179D01*
X0145477Y0047344D01*
X0145159Y0047429D01*
X0142276Y0047429D01*
X0142276Y0043460D01*
X0146245Y0043460D01*
X0146245Y0046343D01*
X0146160Y0046661D01*
X0145995Y0046946D01*
X0146193Y0046539D02*
X0159219Y0046539D01*
X0159219Y0046040D02*
X0146245Y0046040D01*
X0146245Y0045542D02*
X0159219Y0045542D01*
X0159219Y0045043D02*
X0146245Y0045043D01*
X0146245Y0044545D02*
X0159219Y0044545D01*
X0159219Y0044046D02*
X0146245Y0044046D01*
X0146245Y0043548D02*
X0159219Y0043548D01*
X0142276Y0043548D02*
X0141776Y0043548D01*
X0141776Y0044046D02*
X0142276Y0044046D01*
X0142276Y0044545D02*
X0141776Y0044545D01*
X0141776Y0045043D02*
X0142276Y0045043D01*
X0142276Y0045542D02*
X0141776Y0045542D01*
X0141776Y0046040D02*
X0142276Y0046040D01*
X0142276Y0046539D02*
X0141776Y0046539D01*
X0141776Y0047037D02*
X0142276Y0047037D01*
X0142276Y0042052D02*
X0141776Y0042052D01*
X0141776Y0041554D02*
X0142276Y0041554D01*
X0142276Y0041055D02*
X0141776Y0041055D01*
X0141776Y0040557D02*
X0142276Y0040557D01*
X0142276Y0040058D02*
X0141776Y0040058D01*
X0141776Y0039560D02*
X0142276Y0039560D01*
X0142276Y0039061D02*
X0141776Y0039061D01*
D25*
X0108601Y0129037D03*
X0140097Y0180218D03*
X0061357Y0180218D03*
X0047578Y0134943D03*
M02*
