G75*
%MOIN*%
%OFA0B0*%
%FSLAX25Y25*%
%IPPOS*%
%LPD*%
%AMOC8*
5,1,8,0,0,1.08239X$1,22.5*
%
%ADD10R,0.05937X0.05937*%
%ADD11OC8,0.05937*%
%ADD12R,0.10748X0.10748*%
%ADD13OC8,0.10748*%
%ADD14C,0.03569*%
%ADD15C,0.01000*%
%ADD16C,0.00500*%
%ADD17C,0.04356*%
%ADD18C,0.02000*%
D10*
X0122932Y0041596D03*
X0142026Y0043210D03*
X0147971Y0104509D03*
X0128286Y0104667D03*
X0113286Y0197935D03*
X0034546Y0197935D03*
D11*
X0044546Y0197935D03*
X0054546Y0197935D03*
X0064546Y0197935D03*
X0123286Y0197935D03*
X0133286Y0197935D03*
X0143286Y0197935D03*
X0147971Y0094509D03*
X0128286Y0094667D03*
X0128286Y0084667D03*
X0128286Y0074667D03*
X0142026Y0061793D03*
X0112932Y0041596D03*
X0102932Y0041596D03*
X0092932Y0041596D03*
X0082932Y0041596D03*
D12*
X0024782Y0042423D03*
D13*
X0042814Y0042423D03*
D14*
X0071200Y0066045D03*
X0075137Y0056202D03*
X0079074Y0058171D03*
X0084979Y0071950D03*
X0083011Y0089667D03*
X0098759Y0089667D03*
X0118444Y0099509D03*
X0130255Y0131006D03*
X0140097Y0132974D03*
X0140097Y0156596D03*
X0138129Y0174313D03*
X0118444Y0156596D03*
X0089999Y0125100D03*
X0077105Y0138880D03*
X0075137Y0156596D03*
X0061357Y0174313D03*
X0075137Y0186124D03*
X0039704Y0156596D03*
X0023955Y0138880D03*
X0037735Y0182187D03*
D15*
X0041672Y0186124D01*
X0063326Y0186124D01*
X0071200Y0178250D01*
X0096790Y0178250D01*
X0102696Y0184155D01*
X0151908Y0184155D01*
X0155845Y0180218D01*
X0155845Y0138880D01*
X0149940Y0132974D01*
X0140097Y0132974D01*
X0140097Y0112384D01*
X0147971Y0104509D01*
X0128286Y0104667D02*
X0107853Y0125100D01*
X0089999Y0125100D01*
X0079074Y0136911D02*
X0079074Y0058171D01*
X0075137Y0056202D02*
X0075137Y0115258D01*
X0061357Y0129037D01*
X0061357Y0174313D01*
X0077105Y0138880D02*
X0079074Y0136911D01*
X0071200Y0115258D02*
X0071200Y0066045D01*
X0083011Y0073919D02*
X0084979Y0071950D01*
X0083011Y0073919D02*
X0083011Y0089667D01*
X0071200Y0115258D02*
X0055452Y0131006D01*
X0043641Y0131006D01*
X0035767Y0138880D01*
X0023955Y0138880D01*
X0130255Y0131006D02*
X0130255Y0164470D01*
X0138129Y0174313D01*
D16*
X0031206Y0048232D02*
X0031206Y0037080D01*
X0038789Y0037080D01*
X0036190Y0039679D01*
X0036190Y0042173D01*
X0042564Y0042173D01*
X0042564Y0042673D01*
X0042564Y0049047D01*
X0040070Y0049047D01*
X0036190Y0045167D01*
X0036190Y0042673D01*
X0042564Y0042673D01*
X0043064Y0042673D01*
X0049438Y0042673D01*
X0049438Y0045167D01*
X0045558Y0049047D01*
X0043064Y0049047D01*
X0043064Y0042673D01*
X0043064Y0042173D01*
X0049438Y0042173D01*
X0049438Y0039679D01*
X0046839Y0037080D01*
X0051994Y0037080D01*
X0051202Y0040039D01*
X0051202Y0043232D01*
X0052028Y0046315D01*
X0053624Y0049080D01*
X0055881Y0051337D01*
X0058646Y0052933D01*
X0061729Y0053759D01*
X0064922Y0053759D01*
X0068005Y0052933D01*
X0070770Y0051337D01*
X0073027Y0049080D01*
X0074623Y0046315D01*
X0075450Y0043232D01*
X0075450Y0040039D01*
X0074657Y0037080D01*
X0159219Y0037080D01*
X0159219Y0109067D01*
X0158556Y0108684D01*
X0155473Y0107858D01*
X0152281Y0107858D01*
X0151958Y0107944D01*
X0151990Y0107913D01*
X0151990Y0101106D01*
X0151375Y0100491D01*
X0144568Y0100491D01*
X0143953Y0101106D01*
X0143953Y0106336D01*
X0138547Y0111741D01*
X0138547Y0130548D01*
X0138492Y0130571D01*
X0137694Y0131369D01*
X0137263Y0132410D01*
X0137263Y0133538D01*
X0137694Y0134580D01*
X0138492Y0135377D01*
X0139533Y0135808D01*
X0140661Y0135808D01*
X0141703Y0135377D01*
X0142500Y0134580D01*
X0142523Y0134524D01*
X0149298Y0134524D01*
X0154295Y0139522D01*
X0154295Y0179576D01*
X0151266Y0182605D01*
X0142275Y0182605D01*
X0142834Y0182047D01*
X0143325Y0180860D01*
X0143325Y0179576D01*
X0142834Y0178390D01*
X0141926Y0177482D01*
X0140739Y0176990D01*
X0139455Y0176990D01*
X0138269Y0177482D01*
X0137582Y0178168D01*
X0103545Y0178168D01*
X0084925Y0159549D01*
X0093702Y0150772D01*
X0094903Y0149571D01*
X0094903Y0141697D01*
X0105513Y0131087D01*
X0106086Y0131087D01*
X0106773Y0131774D01*
X0107959Y0132265D01*
X0109243Y0132265D01*
X0110430Y0131774D01*
X0111338Y0130866D01*
X0111829Y0129679D01*
X0111829Y0128395D01*
X0111338Y0127209D01*
X0110430Y0126301D01*
X0109309Y0125836D01*
X0109403Y0125742D01*
X0126460Y0108685D01*
X0131690Y0108685D01*
X0132305Y0108070D01*
X0132305Y0101264D01*
X0131690Y0100648D01*
X0124883Y0100648D01*
X0124268Y0101264D01*
X0124268Y0106493D01*
X0107211Y0123550D01*
X0092425Y0123550D01*
X0092402Y0123495D01*
X0091604Y0122697D01*
X0090563Y0122266D01*
X0089435Y0122266D01*
X0088393Y0122697D01*
X0087596Y0123495D01*
X0087165Y0124536D01*
X0087165Y0125664D01*
X0087596Y0126705D01*
X0088393Y0127503D01*
X0089435Y0127934D01*
X0090563Y0127934D01*
X0091604Y0127503D01*
X0092402Y0126705D01*
X0092425Y0126650D01*
X0106423Y0126650D01*
X0106086Y0126987D01*
X0103815Y0126987D01*
X0092004Y0138798D01*
X0090803Y0139999D01*
X0090803Y0147873D01*
X0081177Y0157499D01*
X0079976Y0158700D01*
X0064191Y0174485D01*
X0064191Y0173749D01*
X0063760Y0172707D01*
X0062963Y0171910D01*
X0062907Y0171887D01*
X0062907Y0129679D01*
X0075779Y0116808D01*
X0076687Y0115900D01*
X0076687Y0059792D01*
X0077468Y0060574D01*
X0077524Y0060597D01*
X0077524Y0136045D01*
X0076541Y0136045D01*
X0075500Y0136477D01*
X0074702Y0137274D01*
X0074271Y0138316D01*
X0074271Y0139443D01*
X0074702Y0140485D01*
X0075500Y0141282D01*
X0076541Y0141714D01*
X0077669Y0141714D01*
X0078711Y0141282D01*
X0079508Y0140485D01*
X0079939Y0139443D01*
X0079939Y0138316D01*
X0079916Y0138260D01*
X0080624Y0137553D01*
X0080624Y0091288D01*
X0081405Y0092070D01*
X0082447Y0092501D01*
X0083574Y0092501D01*
X0084616Y0092070D01*
X0085413Y0091272D01*
X0085845Y0090231D01*
X0085845Y0089103D01*
X0085413Y0088061D01*
X0084616Y0087264D01*
X0084561Y0087241D01*
X0084561Y0074785D01*
X0085543Y0074785D01*
X0086585Y0074353D01*
X0087382Y0073556D01*
X0087813Y0072514D01*
X0087813Y0071387D01*
X0087382Y0070345D01*
X0086585Y0069548D01*
X0085543Y0069116D01*
X0084415Y0069116D01*
X0083374Y0069548D01*
X0082576Y0070345D01*
X0082145Y0071387D01*
X0082145Y0072514D01*
X0082168Y0072570D01*
X0081461Y0073277D01*
X0081461Y0087241D01*
X0081405Y0087264D01*
X0080624Y0088046D01*
X0080624Y0060597D01*
X0080679Y0060574D01*
X0081476Y0059776D01*
X0081908Y0058735D01*
X0081908Y0057607D01*
X0081476Y0056565D01*
X0080679Y0055768D01*
X0079637Y0055337D01*
X0078510Y0055337D01*
X0077943Y0055571D01*
X0077539Y0054597D01*
X0076742Y0053800D01*
X0075700Y0053368D01*
X0074573Y0053368D01*
X0073531Y0053800D01*
X0072734Y0054597D01*
X0072302Y0055639D01*
X0072302Y0056766D01*
X0072734Y0057808D01*
X0073531Y0058605D01*
X0073587Y0058628D01*
X0073587Y0064424D01*
X0072805Y0063642D01*
X0071763Y0063211D01*
X0070636Y0063211D01*
X0069594Y0063642D01*
X0068797Y0064439D01*
X0068365Y0065481D01*
X0068365Y0066609D01*
X0068797Y0067650D01*
X0069594Y0068448D01*
X0069650Y0068471D01*
X0069650Y0114615D01*
X0054810Y0129456D01*
X0042998Y0129456D01*
X0042091Y0130364D01*
X0042091Y0130364D01*
X0035124Y0137330D01*
X0026381Y0137330D01*
X0026358Y0137274D01*
X0025561Y0136477D01*
X0024519Y0136045D01*
X0023392Y0136045D01*
X0022350Y0136477D01*
X0021553Y0137274D01*
X0021121Y0138316D01*
X0021121Y0139443D01*
X0021553Y0140485D01*
X0022350Y0141282D01*
X0023392Y0141714D01*
X0024519Y0141714D01*
X0025561Y0141282D01*
X0026358Y0140485D01*
X0026381Y0140430D01*
X0036409Y0140430D01*
X0037316Y0139522D01*
X0037316Y0139522D01*
X0044283Y0132556D01*
X0045400Y0132556D01*
X0044841Y0133114D01*
X0044350Y0134300D01*
X0044350Y0135585D01*
X0044841Y0136771D01*
X0045528Y0137458D01*
X0045528Y0167288D01*
X0046728Y0168489D01*
X0046728Y0168489D01*
X0058129Y0179889D01*
X0058129Y0180860D01*
X0058621Y0182047D01*
X0059529Y0182955D01*
X0060715Y0183446D01*
X0061999Y0183446D01*
X0063186Y0182955D01*
X0064094Y0182047D01*
X0064585Y0180860D01*
X0064585Y0179889D01*
X0082026Y0162448D01*
X0096278Y0176700D01*
X0070558Y0176700D01*
X0069650Y0177608D01*
X0062684Y0184574D01*
X0042314Y0184574D01*
X0040546Y0182806D01*
X0040569Y0182750D01*
X0040569Y0181623D01*
X0040138Y0180581D01*
X0039340Y0179784D01*
X0038299Y0179352D01*
X0037171Y0179352D01*
X0036130Y0179784D01*
X0035332Y0180581D01*
X0034901Y0181623D01*
X0034901Y0182750D01*
X0035332Y0183792D01*
X0036130Y0184589D01*
X0037171Y0185021D01*
X0038299Y0185021D01*
X0038354Y0184998D01*
X0040122Y0186766D01*
X0041030Y0187674D01*
X0063968Y0187674D01*
X0071842Y0179800D01*
X0096148Y0179800D01*
X0101146Y0184797D01*
X0102054Y0185705D01*
X0152550Y0185705D01*
X0157395Y0180860D01*
X0157395Y0138238D01*
X0151490Y0132332D01*
X0150891Y0131734D01*
X0152281Y0132106D01*
X0155473Y0132106D01*
X0158556Y0131280D01*
X0159219Y0130897D01*
X0159219Y0199340D01*
X0147305Y0199340D01*
X0147305Y0196270D01*
X0144951Y0193916D01*
X0141622Y0193916D01*
X0139268Y0196270D01*
X0139268Y0199340D01*
X0137305Y0199340D01*
X0137305Y0196270D01*
X0134951Y0193916D01*
X0131622Y0193916D01*
X0129268Y0196270D01*
X0129268Y0199340D01*
X0127305Y0199340D01*
X0127305Y0196270D01*
X0124951Y0193916D01*
X0121622Y0193916D01*
X0119268Y0196270D01*
X0119268Y0199340D01*
X0117305Y0199340D01*
X0117305Y0194531D01*
X0116690Y0193916D01*
X0109883Y0193916D01*
X0109268Y0194531D01*
X0109268Y0199340D01*
X0101800Y0199340D01*
X0102182Y0198677D01*
X0103009Y0195594D01*
X0103009Y0192402D01*
X0102182Y0189318D01*
X0100586Y0186553D01*
X0098329Y0184296D01*
X0095564Y0182700D01*
X0092481Y0181874D01*
X0089288Y0181874D01*
X0086205Y0182700D01*
X0083440Y0184296D01*
X0081183Y0186553D01*
X0079587Y0189318D01*
X0078761Y0192402D01*
X0078761Y0195594D01*
X0079587Y0198677D01*
X0079970Y0199340D01*
X0068565Y0199340D01*
X0068565Y0196270D01*
X0066211Y0193916D01*
X0062882Y0193916D01*
X0060528Y0196270D01*
X0060528Y0199340D01*
X0058565Y0199340D01*
X0058565Y0196270D01*
X0056211Y0193916D01*
X0052882Y0193916D01*
X0050528Y0196270D01*
X0050528Y0199340D01*
X0048565Y0199340D01*
X0048565Y0196270D01*
X0046211Y0193916D01*
X0042882Y0193916D01*
X0040528Y0196270D01*
X0040528Y0199340D01*
X0038565Y0199340D01*
X0038565Y0194531D01*
X0037949Y0193916D01*
X0031143Y0193916D01*
X0030528Y0194531D01*
X0030528Y0199340D01*
X0018613Y0199340D01*
X0018613Y0048487D01*
X0018973Y0048847D01*
X0030591Y0048847D01*
X0031206Y0048232D01*
X0031206Y0048034D02*
X0039057Y0048034D01*
X0038559Y0047536D02*
X0031206Y0047536D01*
X0031206Y0047037D02*
X0038060Y0047037D01*
X0037562Y0046539D02*
X0031206Y0046539D01*
X0031206Y0046040D02*
X0037063Y0046040D01*
X0036565Y0045542D02*
X0031206Y0045542D01*
X0031206Y0045043D02*
X0036190Y0045043D01*
X0036190Y0044545D02*
X0031206Y0044545D01*
X0031206Y0044046D02*
X0036190Y0044046D01*
X0036190Y0043548D02*
X0031206Y0043548D01*
X0031206Y0043049D02*
X0036190Y0043049D01*
X0036190Y0042052D02*
X0031206Y0042052D01*
X0031206Y0041554D02*
X0036190Y0041554D01*
X0036190Y0041055D02*
X0031206Y0041055D01*
X0031206Y0040557D02*
X0036190Y0040557D01*
X0036190Y0040058D02*
X0031206Y0040058D01*
X0031206Y0039560D02*
X0036309Y0039560D01*
X0036808Y0039061D02*
X0031206Y0039061D01*
X0031206Y0038562D02*
X0037306Y0038562D01*
X0037805Y0038064D02*
X0031206Y0038064D01*
X0031206Y0037565D02*
X0038303Y0037565D01*
X0042564Y0042551D02*
X0031206Y0042551D01*
X0030905Y0048533D02*
X0039556Y0048533D01*
X0040054Y0049031D02*
X0018613Y0049031D01*
X0018613Y0048533D02*
X0018659Y0048533D01*
X0018613Y0049530D02*
X0054074Y0049530D01*
X0053596Y0049031D02*
X0045573Y0049031D01*
X0046072Y0048533D02*
X0053308Y0048533D01*
X0053020Y0048034D02*
X0046570Y0048034D01*
X0047069Y0047536D02*
X0052732Y0047536D01*
X0052445Y0047037D02*
X0047567Y0047037D01*
X0048066Y0046539D02*
X0052157Y0046539D01*
X0051954Y0046040D02*
X0048564Y0046040D01*
X0049063Y0045542D02*
X0051821Y0045542D01*
X0051687Y0045043D02*
X0049438Y0045043D01*
X0049438Y0044545D02*
X0051553Y0044545D01*
X0051420Y0044046D02*
X0049438Y0044046D01*
X0049438Y0043548D02*
X0051286Y0043548D01*
X0051202Y0043049D02*
X0049438Y0043049D01*
X0049438Y0042052D02*
X0051202Y0042052D01*
X0051202Y0041554D02*
X0049438Y0041554D01*
X0049438Y0041055D02*
X0051202Y0041055D01*
X0051202Y0040557D02*
X0049438Y0040557D01*
X0049438Y0040058D02*
X0051202Y0040058D01*
X0051330Y0039560D02*
X0049318Y0039560D01*
X0048820Y0039061D02*
X0051464Y0039061D01*
X0051597Y0038562D02*
X0048321Y0038562D01*
X0047823Y0038064D02*
X0051731Y0038064D01*
X0051864Y0037565D02*
X0047324Y0037565D01*
X0051202Y0042551D02*
X0043064Y0042551D01*
X0043064Y0043049D02*
X0042564Y0043049D01*
X0042564Y0043548D02*
X0043064Y0043548D01*
X0043064Y0044046D02*
X0042564Y0044046D01*
X0042564Y0044545D02*
X0043064Y0044545D01*
X0043064Y0045043D02*
X0042564Y0045043D01*
X0042564Y0045542D02*
X0043064Y0045542D01*
X0043064Y0046040D02*
X0042564Y0046040D01*
X0042564Y0046539D02*
X0043064Y0046539D01*
X0043064Y0047037D02*
X0042564Y0047037D01*
X0042564Y0047536D02*
X0043064Y0047536D01*
X0043064Y0048034D02*
X0042564Y0048034D01*
X0042564Y0048533D02*
X0043064Y0048533D01*
X0043064Y0049031D02*
X0042564Y0049031D01*
X0054572Y0050028D02*
X0018613Y0050028D01*
X0018613Y0050527D02*
X0055071Y0050527D01*
X0055569Y0051025D02*
X0018613Y0051025D01*
X0018613Y0051524D02*
X0056205Y0051524D01*
X0057068Y0052022D02*
X0018613Y0052022D01*
X0018613Y0052521D02*
X0057932Y0052521D01*
X0058967Y0053019D02*
X0018613Y0053019D01*
X0018613Y0053518D02*
X0060828Y0053518D01*
X0065824Y0053518D02*
X0074211Y0053518D01*
X0073314Y0054016D02*
X0018613Y0054016D01*
X0018613Y0054515D02*
X0072816Y0054515D01*
X0072561Y0055013D02*
X0018613Y0055013D01*
X0018613Y0055512D02*
X0072355Y0055512D01*
X0072302Y0056010D02*
X0018613Y0056010D01*
X0018613Y0056509D02*
X0072302Y0056509D01*
X0072402Y0057007D02*
X0018613Y0057007D01*
X0018613Y0057506D02*
X0072609Y0057506D01*
X0072930Y0058004D02*
X0018613Y0058004D01*
X0018613Y0058503D02*
X0073429Y0058503D01*
X0073587Y0059001D02*
X0018613Y0059001D01*
X0018613Y0059500D02*
X0073587Y0059500D01*
X0073587Y0059998D02*
X0018613Y0059998D01*
X0018613Y0060497D02*
X0073587Y0060497D01*
X0073587Y0060995D02*
X0018613Y0060995D01*
X0018613Y0061494D02*
X0073587Y0061494D01*
X0073587Y0061993D02*
X0018613Y0061993D01*
X0018613Y0062491D02*
X0073587Y0062491D01*
X0073587Y0062990D02*
X0018613Y0062990D01*
X0018613Y0063488D02*
X0069966Y0063488D01*
X0069250Y0063987D02*
X0018613Y0063987D01*
X0018613Y0064485D02*
X0068778Y0064485D01*
X0068571Y0064984D02*
X0018613Y0064984D01*
X0018613Y0065482D02*
X0068365Y0065482D01*
X0068365Y0065981D02*
X0018613Y0065981D01*
X0018613Y0066479D02*
X0068365Y0066479D01*
X0068518Y0066978D02*
X0018613Y0066978D01*
X0018613Y0067476D02*
X0068725Y0067476D01*
X0069121Y0067975D02*
X0018613Y0067975D01*
X0018613Y0068473D02*
X0069650Y0068473D01*
X0069650Y0068972D02*
X0018613Y0068972D01*
X0018613Y0069470D02*
X0069650Y0069470D01*
X0069650Y0069969D02*
X0018613Y0069969D01*
X0018613Y0070467D02*
X0069650Y0070467D01*
X0069650Y0070966D02*
X0018613Y0070966D01*
X0018613Y0071464D02*
X0069650Y0071464D01*
X0069650Y0071963D02*
X0018613Y0071963D01*
X0018613Y0072461D02*
X0069650Y0072461D01*
X0069650Y0072960D02*
X0018613Y0072960D01*
X0018613Y0073458D02*
X0069650Y0073458D01*
X0069650Y0073957D02*
X0018613Y0073957D01*
X0018613Y0074455D02*
X0069650Y0074455D01*
X0069650Y0074954D02*
X0018613Y0074954D01*
X0018613Y0075452D02*
X0069650Y0075452D01*
X0069650Y0075951D02*
X0018613Y0075951D01*
X0018613Y0076449D02*
X0069650Y0076449D01*
X0069650Y0076948D02*
X0018613Y0076948D01*
X0018613Y0077446D02*
X0069650Y0077446D01*
X0069650Y0077945D02*
X0018613Y0077945D01*
X0018613Y0078443D02*
X0069650Y0078443D01*
X0069650Y0078942D02*
X0018613Y0078942D01*
X0018613Y0079440D02*
X0069650Y0079440D01*
X0069650Y0079939D02*
X0018613Y0079939D01*
X0018613Y0080437D02*
X0069650Y0080437D01*
X0069650Y0080936D02*
X0018613Y0080936D01*
X0018613Y0081434D02*
X0069650Y0081434D01*
X0069650Y0081933D02*
X0018613Y0081933D01*
X0018613Y0082431D02*
X0069650Y0082431D01*
X0069650Y0082930D02*
X0018613Y0082930D01*
X0018613Y0083429D02*
X0069650Y0083429D01*
X0069650Y0083927D02*
X0018613Y0083927D01*
X0018613Y0084426D02*
X0069650Y0084426D01*
X0069650Y0084924D02*
X0018613Y0084924D01*
X0018613Y0085423D02*
X0069650Y0085423D01*
X0069650Y0085921D02*
X0018613Y0085921D01*
X0018613Y0086420D02*
X0069650Y0086420D01*
X0069650Y0086918D02*
X0018613Y0086918D01*
X0018613Y0087417D02*
X0069650Y0087417D01*
X0069650Y0087915D02*
X0018613Y0087915D01*
X0018613Y0088414D02*
X0069650Y0088414D01*
X0069650Y0088912D02*
X0018613Y0088912D01*
X0018613Y0089411D02*
X0069650Y0089411D01*
X0069650Y0089909D02*
X0018613Y0089909D01*
X0018613Y0090408D02*
X0069650Y0090408D01*
X0069650Y0090906D02*
X0018613Y0090906D01*
X0018613Y0091405D02*
X0069650Y0091405D01*
X0069650Y0091903D02*
X0018613Y0091903D01*
X0018613Y0092402D02*
X0069650Y0092402D01*
X0069650Y0092900D02*
X0018613Y0092900D01*
X0018613Y0093399D02*
X0069650Y0093399D01*
X0069650Y0093897D02*
X0018613Y0093897D01*
X0018613Y0094396D02*
X0069650Y0094396D01*
X0069650Y0094894D02*
X0018613Y0094894D01*
X0018613Y0095393D02*
X0069650Y0095393D01*
X0069650Y0095891D02*
X0018613Y0095891D01*
X0018613Y0096390D02*
X0069650Y0096390D01*
X0069650Y0096888D02*
X0018613Y0096888D01*
X0018613Y0097387D02*
X0069650Y0097387D01*
X0069650Y0097885D02*
X0018613Y0097885D01*
X0018613Y0098384D02*
X0069650Y0098384D01*
X0069650Y0098882D02*
X0018613Y0098882D01*
X0018613Y0099381D02*
X0069650Y0099381D01*
X0069650Y0099879D02*
X0018613Y0099879D01*
X0018613Y0100378D02*
X0069650Y0100378D01*
X0069650Y0100876D02*
X0018613Y0100876D01*
X0018613Y0101375D02*
X0069650Y0101375D01*
X0069650Y0101873D02*
X0018613Y0101873D01*
X0018613Y0102372D02*
X0069650Y0102372D01*
X0069650Y0102870D02*
X0018613Y0102870D01*
X0018613Y0103369D02*
X0069650Y0103369D01*
X0069650Y0103867D02*
X0018613Y0103867D01*
X0018613Y0104366D02*
X0069650Y0104366D01*
X0069650Y0104864D02*
X0018613Y0104864D01*
X0018613Y0105363D02*
X0069650Y0105363D01*
X0069650Y0105862D02*
X0018613Y0105862D01*
X0018613Y0106360D02*
X0069650Y0106360D01*
X0069650Y0106859D02*
X0018613Y0106859D01*
X0018613Y0107357D02*
X0069650Y0107357D01*
X0069650Y0107856D02*
X0018613Y0107856D01*
X0018613Y0108354D02*
X0029851Y0108354D01*
X0030233Y0108252D02*
X0033426Y0108252D01*
X0036509Y0109078D01*
X0039274Y0110674D01*
X0041531Y0112931D01*
X0043127Y0115696D01*
X0043954Y0118779D01*
X0043954Y0121972D01*
X0043127Y0125055D01*
X0041531Y0127820D01*
X0039274Y0130077D01*
X0036509Y0131673D01*
X0033426Y0132500D01*
X0030233Y0132500D01*
X0027150Y0131673D01*
X0024385Y0130077D01*
X0022128Y0127820D01*
X0020532Y0125055D01*
X0019705Y0121972D01*
X0019705Y0118779D01*
X0020532Y0115696D01*
X0022128Y0112931D01*
X0024385Y0110674D01*
X0027150Y0109078D01*
X0030233Y0108252D01*
X0027990Y0108853D02*
X0018613Y0108853D01*
X0018613Y0109351D02*
X0026677Y0109351D01*
X0025813Y0109850D02*
X0018613Y0109850D01*
X0018613Y0110348D02*
X0024950Y0110348D01*
X0024213Y0110847D02*
X0018613Y0110847D01*
X0018613Y0111345D02*
X0023714Y0111345D01*
X0023216Y0111844D02*
X0018613Y0111844D01*
X0018613Y0112342D02*
X0022717Y0112342D01*
X0022219Y0112841D02*
X0018613Y0112841D01*
X0018613Y0113339D02*
X0021892Y0113339D01*
X0021605Y0113838D02*
X0018613Y0113838D01*
X0018613Y0114336D02*
X0021317Y0114336D01*
X0021029Y0114835D02*
X0018613Y0114835D01*
X0018613Y0115333D02*
X0020741Y0115333D01*
X0020495Y0115832D02*
X0018613Y0115832D01*
X0018613Y0116330D02*
X0020362Y0116330D01*
X0020228Y0116829D02*
X0018613Y0116829D01*
X0018613Y0117327D02*
X0020095Y0117327D01*
X0019961Y0117826D02*
X0018613Y0117826D01*
X0018613Y0118324D02*
X0019827Y0118324D01*
X0019705Y0118823D02*
X0018613Y0118823D01*
X0018613Y0119321D02*
X0019705Y0119321D01*
X0019705Y0119820D02*
X0018613Y0119820D01*
X0018613Y0120318D02*
X0019705Y0120318D01*
X0019705Y0120817D02*
X0018613Y0120817D01*
X0018613Y0121315D02*
X0019705Y0121315D01*
X0019705Y0121814D02*
X0018613Y0121814D01*
X0018613Y0122312D02*
X0019797Y0122312D01*
X0019930Y0122811D02*
X0018613Y0122811D01*
X0018613Y0123309D02*
X0020064Y0123309D01*
X0020197Y0123808D02*
X0018613Y0123808D01*
X0018613Y0124306D02*
X0020331Y0124306D01*
X0020465Y0124805D02*
X0018613Y0124805D01*
X0018613Y0125303D02*
X0020675Y0125303D01*
X0020963Y0125802D02*
X0018613Y0125802D01*
X0018613Y0126300D02*
X0021251Y0126300D01*
X0021538Y0126799D02*
X0018613Y0126799D01*
X0018613Y0127298D02*
X0021826Y0127298D01*
X0022114Y0127796D02*
X0018613Y0127796D01*
X0018613Y0128295D02*
X0022602Y0128295D01*
X0023101Y0128793D02*
X0018613Y0128793D01*
X0018613Y0129292D02*
X0023599Y0129292D01*
X0024098Y0129790D02*
X0018613Y0129790D01*
X0018613Y0130289D02*
X0024751Y0130289D01*
X0025615Y0130787D02*
X0018613Y0130787D01*
X0018613Y0131286D02*
X0026478Y0131286D01*
X0027563Y0131784D02*
X0018613Y0131784D01*
X0018613Y0132283D02*
X0029423Y0132283D01*
X0025063Y0136271D02*
X0036183Y0136271D01*
X0035685Y0136769D02*
X0025853Y0136769D01*
X0026352Y0137268D02*
X0035186Y0137268D01*
X0036682Y0135772D02*
X0018613Y0135772D01*
X0018613Y0135274D02*
X0037180Y0135274D01*
X0037679Y0134775D02*
X0018613Y0134775D01*
X0018613Y0134277D02*
X0038177Y0134277D01*
X0038676Y0133778D02*
X0018613Y0133778D01*
X0018613Y0133280D02*
X0039174Y0133280D01*
X0039673Y0132781D02*
X0018613Y0132781D01*
X0018613Y0136271D02*
X0022848Y0136271D01*
X0022058Y0136769D02*
X0018613Y0136769D01*
X0018613Y0137268D02*
X0021559Y0137268D01*
X0021349Y0137766D02*
X0018613Y0137766D01*
X0018613Y0138265D02*
X0021142Y0138265D01*
X0021121Y0138763D02*
X0018613Y0138763D01*
X0018613Y0139262D02*
X0021121Y0139262D01*
X0021253Y0139760D02*
X0018613Y0139760D01*
X0018613Y0140259D02*
X0021459Y0140259D01*
X0021825Y0140757D02*
X0018613Y0140757D01*
X0018613Y0141256D02*
X0022324Y0141256D01*
X0025587Y0141256D02*
X0045528Y0141256D01*
X0045528Y0141754D02*
X0018613Y0141754D01*
X0018613Y0142253D02*
X0045528Y0142253D01*
X0045528Y0142751D02*
X0018613Y0142751D01*
X0018613Y0143250D02*
X0045528Y0143250D01*
X0045528Y0143748D02*
X0018613Y0143748D01*
X0018613Y0144247D02*
X0045528Y0144247D01*
X0045528Y0144745D02*
X0018613Y0144745D01*
X0018613Y0145244D02*
X0045528Y0145244D01*
X0045528Y0145742D02*
X0018613Y0145742D01*
X0018613Y0146241D02*
X0045528Y0146241D01*
X0045528Y0146739D02*
X0018613Y0146739D01*
X0018613Y0147238D02*
X0045528Y0147238D01*
X0045528Y0147736D02*
X0018613Y0147736D01*
X0018613Y0148235D02*
X0045528Y0148235D01*
X0045528Y0148733D02*
X0018613Y0148733D01*
X0018613Y0149232D02*
X0045528Y0149232D01*
X0045528Y0149731D02*
X0018613Y0149731D01*
X0018613Y0150229D02*
X0045528Y0150229D01*
X0045528Y0150728D02*
X0018613Y0150728D01*
X0018613Y0151226D02*
X0045528Y0151226D01*
X0045528Y0151725D02*
X0018613Y0151725D01*
X0018613Y0152223D02*
X0045528Y0152223D01*
X0045528Y0152722D02*
X0018613Y0152722D01*
X0018613Y0153220D02*
X0045528Y0153220D01*
X0045528Y0153719D02*
X0018613Y0153719D01*
X0018613Y0154217D02*
X0045528Y0154217D01*
X0045528Y0154716D02*
X0018613Y0154716D01*
X0018613Y0155214D02*
X0045528Y0155214D01*
X0045528Y0155713D02*
X0018613Y0155713D01*
X0018613Y0156211D02*
X0045528Y0156211D01*
X0045528Y0156710D02*
X0018613Y0156710D01*
X0018613Y0157208D02*
X0045528Y0157208D01*
X0045528Y0157707D02*
X0018613Y0157707D01*
X0018613Y0158205D02*
X0045528Y0158205D01*
X0045528Y0158704D02*
X0018613Y0158704D01*
X0018613Y0159202D02*
X0045528Y0159202D01*
X0045528Y0159701D02*
X0018613Y0159701D01*
X0018613Y0160199D02*
X0045528Y0160199D01*
X0045528Y0160698D02*
X0018613Y0160698D01*
X0018613Y0161196D02*
X0045528Y0161196D01*
X0045528Y0161695D02*
X0018613Y0161695D01*
X0018613Y0162193D02*
X0045528Y0162193D01*
X0045528Y0162692D02*
X0018613Y0162692D01*
X0018613Y0163190D02*
X0045528Y0163190D01*
X0045528Y0163689D02*
X0018613Y0163689D01*
X0018613Y0164187D02*
X0045528Y0164187D01*
X0045528Y0164686D02*
X0018613Y0164686D01*
X0018613Y0165184D02*
X0045528Y0165184D01*
X0045528Y0165683D02*
X0018613Y0165683D01*
X0018613Y0166181D02*
X0045528Y0166181D01*
X0045528Y0166680D02*
X0018613Y0166680D01*
X0018613Y0167178D02*
X0045528Y0167178D01*
X0045917Y0167677D02*
X0018613Y0167677D01*
X0018613Y0168175D02*
X0046415Y0168175D01*
X0046914Y0168674D02*
X0018613Y0168674D01*
X0018613Y0169172D02*
X0047412Y0169172D01*
X0047911Y0169671D02*
X0018613Y0169671D01*
X0018613Y0170169D02*
X0048409Y0170169D01*
X0048908Y0170668D02*
X0018613Y0170668D01*
X0018613Y0171166D02*
X0049406Y0171166D01*
X0049905Y0171665D02*
X0018613Y0171665D01*
X0018613Y0172164D02*
X0050403Y0172164D01*
X0050902Y0172662D02*
X0018613Y0172662D01*
X0018613Y0173161D02*
X0051400Y0173161D01*
X0051899Y0173659D02*
X0018613Y0173659D01*
X0018613Y0174158D02*
X0052397Y0174158D01*
X0052896Y0174656D02*
X0018613Y0174656D01*
X0018613Y0175155D02*
X0053394Y0175155D01*
X0053893Y0175653D02*
X0018613Y0175653D01*
X0018613Y0176152D02*
X0054391Y0176152D01*
X0054890Y0176650D02*
X0018613Y0176650D01*
X0018613Y0177149D02*
X0055388Y0177149D01*
X0055887Y0177647D02*
X0018613Y0177647D01*
X0018613Y0178146D02*
X0056385Y0178146D01*
X0056884Y0178644D02*
X0018613Y0178644D01*
X0018613Y0179143D02*
X0057382Y0179143D01*
X0057881Y0179641D02*
X0038996Y0179641D01*
X0039696Y0180140D02*
X0058129Y0180140D01*
X0058129Y0180638D02*
X0040161Y0180638D01*
X0040368Y0181137D02*
X0058244Y0181137D01*
X0058450Y0181635D02*
X0040569Y0181635D01*
X0040569Y0182134D02*
X0058708Y0182134D01*
X0059206Y0182632D02*
X0040569Y0182632D01*
X0040871Y0183131D02*
X0059954Y0183131D01*
X0062760Y0183131D02*
X0064126Y0183131D01*
X0063628Y0183629D02*
X0041370Y0183629D01*
X0041868Y0184128D02*
X0063129Y0184128D01*
X0063508Y0182632D02*
X0064625Y0182632D01*
X0065123Y0182134D02*
X0064006Y0182134D01*
X0064264Y0181635D02*
X0065622Y0181635D01*
X0066120Y0181137D02*
X0064470Y0181137D01*
X0064585Y0180638D02*
X0066619Y0180638D01*
X0067117Y0180140D02*
X0064585Y0180140D01*
X0064833Y0179641D02*
X0067616Y0179641D01*
X0068115Y0179143D02*
X0065332Y0179143D01*
X0065830Y0178644D02*
X0068613Y0178644D01*
X0069112Y0178146D02*
X0066329Y0178146D01*
X0066827Y0177647D02*
X0069610Y0177647D01*
X0070109Y0177149D02*
X0067326Y0177149D01*
X0067824Y0176650D02*
X0096228Y0176650D01*
X0095730Y0176152D02*
X0068323Y0176152D01*
X0068821Y0175653D02*
X0095231Y0175653D01*
X0094733Y0175155D02*
X0069320Y0175155D01*
X0069818Y0174656D02*
X0094234Y0174656D01*
X0093736Y0174158D02*
X0070317Y0174158D01*
X0070815Y0173659D02*
X0093237Y0173659D01*
X0092739Y0173161D02*
X0071314Y0173161D01*
X0071812Y0172662D02*
X0092240Y0172662D01*
X0091742Y0172164D02*
X0072311Y0172164D01*
X0072809Y0171665D02*
X0091243Y0171665D01*
X0090745Y0171166D02*
X0073308Y0171166D01*
X0073806Y0170668D02*
X0090246Y0170668D01*
X0089748Y0170169D02*
X0074305Y0170169D01*
X0074803Y0169671D02*
X0089249Y0169671D01*
X0088751Y0169172D02*
X0075302Y0169172D01*
X0075800Y0168674D02*
X0088252Y0168674D01*
X0087754Y0168175D02*
X0076299Y0168175D01*
X0076797Y0167677D02*
X0087255Y0167677D01*
X0086757Y0167178D02*
X0077296Y0167178D01*
X0077794Y0166680D02*
X0086258Y0166680D01*
X0085760Y0166181D02*
X0078293Y0166181D01*
X0078791Y0165683D02*
X0085261Y0165683D01*
X0084763Y0165184D02*
X0079290Y0165184D01*
X0079788Y0164686D02*
X0084264Y0164686D01*
X0083766Y0164187D02*
X0080287Y0164187D01*
X0080786Y0163689D02*
X0083267Y0163689D01*
X0082769Y0163190D02*
X0081284Y0163190D01*
X0081783Y0162692D02*
X0082270Y0162692D01*
X0085077Y0159701D02*
X0128705Y0159701D01*
X0128705Y0160199D02*
X0085576Y0160199D01*
X0086074Y0160698D02*
X0128705Y0160698D01*
X0128705Y0161196D02*
X0086573Y0161196D01*
X0087071Y0161695D02*
X0128705Y0161695D01*
X0128705Y0162193D02*
X0087570Y0162193D01*
X0088068Y0162692D02*
X0128705Y0162692D01*
X0128705Y0163190D02*
X0088567Y0163190D01*
X0089065Y0163689D02*
X0128705Y0163689D01*
X0128705Y0164187D02*
X0089564Y0164187D01*
X0090062Y0164686D02*
X0128671Y0164686D01*
X0128643Y0164937D02*
X0128705Y0164384D01*
X0128705Y0133431D01*
X0128649Y0133408D01*
X0127852Y0132611D01*
X0127420Y0131569D01*
X0127420Y0130442D01*
X0127852Y0129400D01*
X0128649Y0128603D01*
X0129691Y0128171D01*
X0130818Y0128171D01*
X0131860Y0128603D01*
X0132657Y0129400D01*
X0133089Y0130442D01*
X0133089Y0131569D01*
X0132657Y0132611D01*
X0131860Y0133408D01*
X0131805Y0133431D01*
X0131805Y0163926D01*
X0137846Y0171478D01*
X0138692Y0171478D01*
X0139734Y0171910D01*
X0140531Y0172707D01*
X0140963Y0173749D01*
X0140963Y0174876D01*
X0140531Y0175918D01*
X0139734Y0176715D01*
X0138692Y0177147D01*
X0137565Y0177147D01*
X0136523Y0176715D01*
X0135726Y0175918D01*
X0135294Y0174876D01*
X0135294Y0173749D01*
X0135430Y0173421D01*
X0129098Y0165505D01*
X0128705Y0165112D01*
X0128705Y0165014D01*
X0128643Y0164937D01*
X0128777Y0165184D02*
X0090561Y0165184D01*
X0091060Y0165683D02*
X0129240Y0165683D01*
X0129639Y0166181D02*
X0091558Y0166181D01*
X0092057Y0166680D02*
X0130038Y0166680D01*
X0130436Y0167178D02*
X0092555Y0167178D01*
X0093054Y0167677D02*
X0130835Y0167677D01*
X0131234Y0168175D02*
X0093552Y0168175D01*
X0094051Y0168674D02*
X0131633Y0168674D01*
X0132032Y0169172D02*
X0094549Y0169172D01*
X0095048Y0169671D02*
X0132430Y0169671D01*
X0132829Y0170169D02*
X0095546Y0170169D01*
X0096045Y0170668D02*
X0133228Y0170668D01*
X0133627Y0171166D02*
X0096543Y0171166D01*
X0097042Y0171665D02*
X0134026Y0171665D01*
X0134424Y0172164D02*
X0097540Y0172164D01*
X0098039Y0172662D02*
X0134823Y0172662D01*
X0135222Y0173161D02*
X0098537Y0173161D01*
X0099036Y0173659D02*
X0135332Y0173659D01*
X0135294Y0174158D02*
X0099534Y0174158D01*
X0100033Y0174656D02*
X0135294Y0174656D01*
X0135410Y0175155D02*
X0100531Y0175155D01*
X0101030Y0175653D02*
X0135616Y0175653D01*
X0135959Y0176152D02*
X0101528Y0176152D01*
X0102027Y0176650D02*
X0136458Y0176650D01*
X0137605Y0178146D02*
X0103522Y0178146D01*
X0103024Y0177647D02*
X0138103Y0177647D01*
X0139073Y0177149D02*
X0102525Y0177149D01*
X0097984Y0181635D02*
X0070006Y0181635D01*
X0070505Y0181137D02*
X0097485Y0181137D01*
X0096987Y0180638D02*
X0071003Y0180638D01*
X0071502Y0180140D02*
X0096488Y0180140D01*
X0098482Y0182134D02*
X0093451Y0182134D01*
X0095312Y0182632D02*
X0098981Y0182632D01*
X0099479Y0183131D02*
X0096311Y0183131D01*
X0097174Y0183629D02*
X0099978Y0183629D01*
X0100476Y0184128D02*
X0098037Y0184128D01*
X0098659Y0184626D02*
X0100975Y0184626D01*
X0101473Y0185125D02*
X0099158Y0185125D01*
X0099656Y0185623D02*
X0101972Y0185623D01*
X0100625Y0186620D02*
X0159219Y0186620D01*
X0159219Y0186122D02*
X0100155Y0186122D01*
X0100913Y0187119D02*
X0159219Y0187119D01*
X0159219Y0187617D02*
X0101201Y0187617D01*
X0101488Y0188116D02*
X0159219Y0188116D01*
X0159219Y0188614D02*
X0101776Y0188614D01*
X0102064Y0189113D02*
X0159219Y0189113D01*
X0159219Y0189611D02*
X0102261Y0189611D01*
X0102395Y0190110D02*
X0159219Y0190110D01*
X0159219Y0190608D02*
X0102528Y0190608D01*
X0102662Y0191107D02*
X0159219Y0191107D01*
X0159219Y0191605D02*
X0102795Y0191605D01*
X0102929Y0192104D02*
X0159219Y0192104D01*
X0159219Y0192602D02*
X0103009Y0192602D01*
X0103009Y0193101D02*
X0159219Y0193101D01*
X0159219Y0193600D02*
X0103009Y0193600D01*
X0103009Y0194098D02*
X0109701Y0194098D01*
X0109268Y0194597D02*
X0103009Y0194597D01*
X0103009Y0195095D02*
X0109268Y0195095D01*
X0109268Y0195594D02*
X0103009Y0195594D01*
X0102875Y0196092D02*
X0109268Y0196092D01*
X0109268Y0196591D02*
X0102742Y0196591D01*
X0102608Y0197089D02*
X0109268Y0197089D01*
X0109268Y0197588D02*
X0102474Y0197588D01*
X0102341Y0198086D02*
X0109268Y0198086D01*
X0109268Y0198585D02*
X0102207Y0198585D01*
X0101948Y0199083D02*
X0109268Y0199083D01*
X0116871Y0194098D02*
X0121440Y0194098D01*
X0120941Y0194597D02*
X0117305Y0194597D01*
X0117305Y0195095D02*
X0120443Y0195095D01*
X0119944Y0195594D02*
X0117305Y0195594D01*
X0117305Y0196092D02*
X0119446Y0196092D01*
X0119268Y0196591D02*
X0117305Y0196591D01*
X0117305Y0197089D02*
X0119268Y0197089D01*
X0119268Y0197588D02*
X0117305Y0197588D01*
X0117305Y0198086D02*
X0119268Y0198086D01*
X0119268Y0198585D02*
X0117305Y0198585D01*
X0117305Y0199083D02*
X0119268Y0199083D01*
X0125133Y0194098D02*
X0131440Y0194098D01*
X0130941Y0194597D02*
X0125631Y0194597D01*
X0126130Y0195095D02*
X0130443Y0195095D01*
X0129944Y0195594D02*
X0126628Y0195594D01*
X0127127Y0196092D02*
X0129446Y0196092D01*
X0129268Y0196591D02*
X0127305Y0196591D01*
X0127305Y0197089D02*
X0129268Y0197089D01*
X0129268Y0197588D02*
X0127305Y0197588D01*
X0127305Y0198086D02*
X0129268Y0198086D01*
X0129268Y0198585D02*
X0127305Y0198585D01*
X0127305Y0199083D02*
X0129268Y0199083D01*
X0135133Y0194098D02*
X0141440Y0194098D01*
X0140941Y0194597D02*
X0135631Y0194597D01*
X0136130Y0195095D02*
X0140443Y0195095D01*
X0139944Y0195594D02*
X0136628Y0195594D01*
X0137127Y0196092D02*
X0139446Y0196092D01*
X0139268Y0196591D02*
X0137305Y0196591D01*
X0137305Y0197089D02*
X0139268Y0197089D01*
X0139268Y0197588D02*
X0137305Y0197588D01*
X0137305Y0198086D02*
X0139268Y0198086D01*
X0139268Y0198585D02*
X0137305Y0198585D01*
X0137305Y0199083D02*
X0139268Y0199083D01*
X0145133Y0194098D02*
X0159219Y0194098D01*
X0159219Y0194597D02*
X0145631Y0194597D01*
X0146130Y0195095D02*
X0159219Y0195095D01*
X0159219Y0195594D02*
X0146628Y0195594D01*
X0147127Y0196092D02*
X0159219Y0196092D01*
X0159219Y0196591D02*
X0147305Y0196591D01*
X0147305Y0197089D02*
X0159219Y0197089D01*
X0159219Y0197588D02*
X0147305Y0197588D01*
X0147305Y0198086D02*
X0159219Y0198086D01*
X0159219Y0198585D02*
X0147305Y0198585D01*
X0147305Y0199083D02*
X0159219Y0199083D01*
X0159219Y0185623D02*
X0152632Y0185623D01*
X0153131Y0185125D02*
X0159219Y0185125D01*
X0159219Y0184626D02*
X0153629Y0184626D01*
X0154128Y0184128D02*
X0159219Y0184128D01*
X0159219Y0183629D02*
X0154626Y0183629D01*
X0155125Y0183131D02*
X0159219Y0183131D01*
X0159219Y0182632D02*
X0155623Y0182632D01*
X0156122Y0182134D02*
X0159219Y0182134D01*
X0159219Y0181635D02*
X0156620Y0181635D01*
X0157119Y0181137D02*
X0159219Y0181137D01*
X0159219Y0180638D02*
X0157395Y0180638D01*
X0157395Y0180140D02*
X0159219Y0180140D01*
X0159219Y0179641D02*
X0157395Y0179641D01*
X0157395Y0179143D02*
X0159219Y0179143D01*
X0159219Y0178644D02*
X0157395Y0178644D01*
X0157395Y0178146D02*
X0159219Y0178146D01*
X0159219Y0177647D02*
X0157395Y0177647D01*
X0157395Y0177149D02*
X0159219Y0177149D01*
X0159219Y0176650D02*
X0157395Y0176650D01*
X0157395Y0176152D02*
X0159219Y0176152D01*
X0159219Y0175653D02*
X0157395Y0175653D01*
X0157395Y0175155D02*
X0159219Y0175155D01*
X0159219Y0174656D02*
X0157395Y0174656D01*
X0157395Y0174158D02*
X0159219Y0174158D01*
X0159219Y0173659D02*
X0157395Y0173659D01*
X0157395Y0173161D02*
X0159219Y0173161D01*
X0159219Y0172662D02*
X0157395Y0172662D01*
X0157395Y0172164D02*
X0159219Y0172164D01*
X0159219Y0171665D02*
X0157395Y0171665D01*
X0157395Y0171166D02*
X0159219Y0171166D01*
X0159219Y0170668D02*
X0157395Y0170668D01*
X0157395Y0170169D02*
X0159219Y0170169D01*
X0159219Y0169671D02*
X0157395Y0169671D01*
X0157395Y0169172D02*
X0159219Y0169172D01*
X0159219Y0168674D02*
X0157395Y0168674D01*
X0157395Y0168175D02*
X0159219Y0168175D01*
X0159219Y0167677D02*
X0157395Y0167677D01*
X0157395Y0167178D02*
X0159219Y0167178D01*
X0159219Y0166680D02*
X0157395Y0166680D01*
X0157395Y0166181D02*
X0159219Y0166181D01*
X0159219Y0165683D02*
X0157395Y0165683D01*
X0157395Y0165184D02*
X0159219Y0165184D01*
X0159219Y0164686D02*
X0157395Y0164686D01*
X0157395Y0164187D02*
X0159219Y0164187D01*
X0159219Y0163689D02*
X0157395Y0163689D01*
X0157395Y0163190D02*
X0159219Y0163190D01*
X0159219Y0162692D02*
X0157395Y0162692D01*
X0157395Y0162193D02*
X0159219Y0162193D01*
X0159219Y0161695D02*
X0157395Y0161695D01*
X0157395Y0161196D02*
X0159219Y0161196D01*
X0159219Y0160698D02*
X0157395Y0160698D01*
X0157395Y0160199D02*
X0159219Y0160199D01*
X0159219Y0159701D02*
X0157395Y0159701D01*
X0157395Y0159202D02*
X0159219Y0159202D01*
X0159219Y0158704D02*
X0157395Y0158704D01*
X0157395Y0158205D02*
X0159219Y0158205D01*
X0159219Y0157707D02*
X0157395Y0157707D01*
X0157395Y0157208D02*
X0159219Y0157208D01*
X0159219Y0156710D02*
X0157395Y0156710D01*
X0157395Y0156211D02*
X0159219Y0156211D01*
X0159219Y0155713D02*
X0157395Y0155713D01*
X0157395Y0155214D02*
X0159219Y0155214D01*
X0159219Y0154716D02*
X0157395Y0154716D01*
X0157395Y0154217D02*
X0159219Y0154217D01*
X0159219Y0153719D02*
X0157395Y0153719D01*
X0157395Y0153220D02*
X0159219Y0153220D01*
X0159219Y0152722D02*
X0157395Y0152722D01*
X0157395Y0152223D02*
X0159219Y0152223D01*
X0159219Y0151725D02*
X0157395Y0151725D01*
X0157395Y0151226D02*
X0159219Y0151226D01*
X0159219Y0150728D02*
X0157395Y0150728D01*
X0157395Y0150229D02*
X0159219Y0150229D01*
X0159219Y0149731D02*
X0157395Y0149731D01*
X0157395Y0149232D02*
X0159219Y0149232D01*
X0159219Y0148733D02*
X0157395Y0148733D01*
X0157395Y0148235D02*
X0159219Y0148235D01*
X0159219Y0147736D02*
X0157395Y0147736D01*
X0157395Y0147238D02*
X0159219Y0147238D01*
X0159219Y0146739D02*
X0157395Y0146739D01*
X0157395Y0146241D02*
X0159219Y0146241D01*
X0159219Y0145742D02*
X0157395Y0145742D01*
X0157395Y0145244D02*
X0159219Y0145244D01*
X0159219Y0144745D02*
X0157395Y0144745D01*
X0157395Y0144247D02*
X0159219Y0144247D01*
X0159219Y0143748D02*
X0157395Y0143748D01*
X0157395Y0143250D02*
X0159219Y0143250D01*
X0159219Y0142751D02*
X0157395Y0142751D01*
X0157395Y0142253D02*
X0159219Y0142253D01*
X0159219Y0141754D02*
X0157395Y0141754D01*
X0157395Y0141256D02*
X0159219Y0141256D01*
X0159219Y0140757D02*
X0157395Y0140757D01*
X0157395Y0140259D02*
X0159219Y0140259D01*
X0159219Y0139760D02*
X0157395Y0139760D01*
X0157395Y0139262D02*
X0159219Y0139262D01*
X0159219Y0138763D02*
X0157395Y0138763D01*
X0157395Y0138265D02*
X0159219Y0138265D01*
X0159219Y0137766D02*
X0156924Y0137766D01*
X0156425Y0137268D02*
X0159219Y0137268D01*
X0159219Y0136769D02*
X0155927Y0136769D01*
X0155428Y0136271D02*
X0159219Y0136271D01*
X0159219Y0135772D02*
X0154930Y0135772D01*
X0154431Y0135274D02*
X0159219Y0135274D01*
X0159219Y0134775D02*
X0153933Y0134775D01*
X0153434Y0134277D02*
X0159219Y0134277D01*
X0159219Y0133778D02*
X0152936Y0133778D01*
X0152437Y0133280D02*
X0159219Y0133280D01*
X0159219Y0132781D02*
X0151939Y0132781D01*
X0151440Y0132283D02*
X0159219Y0132283D01*
X0159219Y0131784D02*
X0156674Y0131784D01*
X0158534Y0131286D02*
X0159219Y0131286D01*
X0153537Y0138763D02*
X0131805Y0138763D01*
X0131805Y0138265D02*
X0153038Y0138265D01*
X0152540Y0137766D02*
X0131805Y0137766D01*
X0131805Y0137268D02*
X0152041Y0137268D01*
X0151543Y0136769D02*
X0131805Y0136769D01*
X0131805Y0136271D02*
X0151044Y0136271D01*
X0150546Y0135772D02*
X0140748Y0135772D01*
X0141806Y0135274D02*
X0150047Y0135274D01*
X0149549Y0134775D02*
X0142304Y0134775D01*
X0139446Y0135772D02*
X0131805Y0135772D01*
X0131805Y0135274D02*
X0138389Y0135274D01*
X0137890Y0134775D02*
X0131805Y0134775D01*
X0131805Y0134277D02*
X0137569Y0134277D01*
X0137363Y0133778D02*
X0131805Y0133778D01*
X0131989Y0133280D02*
X0137263Y0133280D01*
X0137263Y0132781D02*
X0132487Y0132781D01*
X0132793Y0132283D02*
X0137316Y0132283D01*
X0137522Y0131784D02*
X0133000Y0131784D01*
X0133089Y0131286D02*
X0137777Y0131286D01*
X0138276Y0130787D02*
X0133089Y0130787D01*
X0133025Y0130289D02*
X0138547Y0130289D01*
X0138547Y0129790D02*
X0132819Y0129790D01*
X0132549Y0129292D02*
X0138547Y0129292D01*
X0138547Y0128793D02*
X0132050Y0128793D01*
X0131116Y0128295D02*
X0138547Y0128295D01*
X0138547Y0127796D02*
X0111581Y0127796D01*
X0111375Y0127298D02*
X0138547Y0127298D01*
X0138547Y0126799D02*
X0110928Y0126799D01*
X0110430Y0126300D02*
X0138547Y0126300D01*
X0138547Y0125802D02*
X0109343Y0125802D01*
X0109842Y0125303D02*
X0138547Y0125303D01*
X0138547Y0124805D02*
X0110340Y0124805D01*
X0110839Y0124306D02*
X0138547Y0124306D01*
X0138547Y0123808D02*
X0111337Y0123808D01*
X0111836Y0123309D02*
X0138547Y0123309D01*
X0138547Y0122811D02*
X0112334Y0122811D01*
X0112833Y0122312D02*
X0138547Y0122312D01*
X0138547Y0121814D02*
X0113331Y0121814D01*
X0113830Y0121315D02*
X0138547Y0121315D01*
X0138547Y0120817D02*
X0114328Y0120817D01*
X0114827Y0120318D02*
X0138547Y0120318D01*
X0138547Y0119820D02*
X0115325Y0119820D01*
X0115824Y0119321D02*
X0138547Y0119321D01*
X0138547Y0118823D02*
X0116322Y0118823D01*
X0116821Y0118324D02*
X0138547Y0118324D01*
X0138547Y0117826D02*
X0117319Y0117826D01*
X0117818Y0117327D02*
X0138547Y0117327D01*
X0138547Y0116829D02*
X0118316Y0116829D01*
X0118815Y0116330D02*
X0138547Y0116330D01*
X0138547Y0115832D02*
X0119313Y0115832D01*
X0119812Y0115333D02*
X0138547Y0115333D01*
X0138547Y0114835D02*
X0120310Y0114835D01*
X0120809Y0114336D02*
X0138547Y0114336D01*
X0138547Y0113838D02*
X0121307Y0113838D01*
X0121806Y0113339D02*
X0138547Y0113339D01*
X0138547Y0112841D02*
X0122305Y0112841D01*
X0122803Y0112342D02*
X0138547Y0112342D01*
X0138547Y0111844D02*
X0123302Y0111844D01*
X0123800Y0111345D02*
X0138944Y0111345D01*
X0139442Y0110847D02*
X0124299Y0110847D01*
X0124797Y0110348D02*
X0139941Y0110348D01*
X0140439Y0109850D02*
X0125296Y0109850D01*
X0125794Y0109351D02*
X0140938Y0109351D01*
X0141436Y0108853D02*
X0126293Y0108853D01*
X0123903Y0106859D02*
X0080624Y0106859D01*
X0080624Y0107357D02*
X0123404Y0107357D01*
X0122906Y0107856D02*
X0080624Y0107856D01*
X0080624Y0108354D02*
X0122407Y0108354D01*
X0121909Y0108853D02*
X0080624Y0108853D01*
X0080624Y0109351D02*
X0121410Y0109351D01*
X0120912Y0109850D02*
X0080624Y0109850D01*
X0080624Y0110348D02*
X0120413Y0110348D01*
X0119914Y0110847D02*
X0080624Y0110847D01*
X0080624Y0111345D02*
X0119416Y0111345D01*
X0118917Y0111844D02*
X0080624Y0111844D01*
X0080624Y0112342D02*
X0118419Y0112342D01*
X0117920Y0112841D02*
X0080624Y0112841D01*
X0080624Y0113339D02*
X0117422Y0113339D01*
X0116923Y0113838D02*
X0080624Y0113838D01*
X0080624Y0114336D02*
X0116425Y0114336D01*
X0115926Y0114835D02*
X0080624Y0114835D01*
X0080624Y0115333D02*
X0115428Y0115333D01*
X0114929Y0115832D02*
X0080624Y0115832D01*
X0080624Y0116330D02*
X0114431Y0116330D01*
X0113932Y0116829D02*
X0080624Y0116829D01*
X0080624Y0117327D02*
X0113434Y0117327D01*
X0112935Y0117826D02*
X0080624Y0117826D01*
X0080624Y0118324D02*
X0112437Y0118324D01*
X0111938Y0118823D02*
X0080624Y0118823D01*
X0080624Y0119321D02*
X0111440Y0119321D01*
X0110941Y0119820D02*
X0080624Y0119820D01*
X0080624Y0120318D02*
X0110443Y0120318D01*
X0109944Y0120817D02*
X0080624Y0120817D01*
X0080624Y0121315D02*
X0109446Y0121315D01*
X0108947Y0121814D02*
X0080624Y0121814D01*
X0080624Y0122312D02*
X0089322Y0122312D01*
X0088280Y0122811D02*
X0080624Y0122811D01*
X0080624Y0123309D02*
X0087781Y0123309D01*
X0087466Y0123808D02*
X0080624Y0123808D01*
X0080624Y0124306D02*
X0087260Y0124306D01*
X0087165Y0124805D02*
X0080624Y0124805D01*
X0080624Y0125303D02*
X0087165Y0125303D01*
X0087222Y0125802D02*
X0080624Y0125802D01*
X0080624Y0126300D02*
X0087428Y0126300D01*
X0087690Y0126799D02*
X0080624Y0126799D01*
X0080624Y0127298D02*
X0088188Y0127298D01*
X0089101Y0127796D02*
X0080624Y0127796D01*
X0080624Y0128295D02*
X0102508Y0128295D01*
X0103006Y0127796D02*
X0090896Y0127796D01*
X0091810Y0127298D02*
X0103505Y0127298D01*
X0102009Y0128793D02*
X0080624Y0128793D01*
X0080624Y0129292D02*
X0101510Y0129292D01*
X0101012Y0129790D02*
X0080624Y0129790D01*
X0080624Y0130289D02*
X0100513Y0130289D01*
X0100015Y0130787D02*
X0080624Y0130787D01*
X0080624Y0131286D02*
X0099516Y0131286D01*
X0099018Y0131784D02*
X0080624Y0131784D01*
X0080624Y0132283D02*
X0098519Y0132283D01*
X0098021Y0132781D02*
X0080624Y0132781D01*
X0080624Y0133280D02*
X0097522Y0133280D01*
X0097024Y0133778D02*
X0080624Y0133778D01*
X0080624Y0134277D02*
X0096525Y0134277D01*
X0096027Y0134775D02*
X0080624Y0134775D01*
X0080624Y0135274D02*
X0095528Y0135274D01*
X0095030Y0135772D02*
X0080624Y0135772D01*
X0080624Y0136271D02*
X0094531Y0136271D01*
X0094033Y0136769D02*
X0080624Y0136769D01*
X0080624Y0137268D02*
X0093534Y0137268D01*
X0093036Y0137766D02*
X0080410Y0137766D01*
X0079918Y0138265D02*
X0092537Y0138265D01*
X0092039Y0138763D02*
X0079939Y0138763D01*
X0079939Y0139262D02*
X0091540Y0139262D01*
X0091042Y0139760D02*
X0079808Y0139760D01*
X0079602Y0140259D02*
X0090803Y0140259D01*
X0090803Y0140757D02*
X0079236Y0140757D01*
X0078737Y0141256D02*
X0090803Y0141256D01*
X0090803Y0141754D02*
X0062907Y0141754D01*
X0062907Y0141256D02*
X0075473Y0141256D01*
X0074975Y0140757D02*
X0062907Y0140757D01*
X0062907Y0140259D02*
X0074609Y0140259D01*
X0074402Y0139760D02*
X0062907Y0139760D01*
X0062907Y0139262D02*
X0074271Y0139262D01*
X0074271Y0138763D02*
X0062907Y0138763D01*
X0062907Y0138265D02*
X0074292Y0138265D01*
X0074498Y0137766D02*
X0062907Y0137766D01*
X0062907Y0137268D02*
X0074709Y0137268D01*
X0075207Y0136769D02*
X0062907Y0136769D01*
X0062907Y0136271D02*
X0075997Y0136271D01*
X0077524Y0135772D02*
X0062907Y0135772D01*
X0062907Y0135274D02*
X0077524Y0135274D01*
X0077524Y0134775D02*
X0062907Y0134775D01*
X0062907Y0134277D02*
X0077524Y0134277D01*
X0077524Y0133778D02*
X0062907Y0133778D01*
X0062907Y0133280D02*
X0077524Y0133280D01*
X0077524Y0132781D02*
X0062907Y0132781D01*
X0062907Y0132283D02*
X0077524Y0132283D01*
X0077524Y0131784D02*
X0062907Y0131784D01*
X0062907Y0131286D02*
X0077524Y0131286D01*
X0077524Y0130787D02*
X0062907Y0130787D01*
X0062907Y0130289D02*
X0077524Y0130289D01*
X0077524Y0129790D02*
X0062907Y0129790D01*
X0063295Y0129292D02*
X0077524Y0129292D01*
X0077524Y0128793D02*
X0063793Y0128793D01*
X0064292Y0128295D02*
X0077524Y0128295D01*
X0077524Y0127796D02*
X0064790Y0127796D01*
X0065289Y0127298D02*
X0077524Y0127298D01*
X0077524Y0126799D02*
X0065787Y0126799D01*
X0066286Y0126300D02*
X0077524Y0126300D01*
X0077524Y0125802D02*
X0066784Y0125802D01*
X0067283Y0125303D02*
X0077524Y0125303D01*
X0077524Y0124805D02*
X0067781Y0124805D01*
X0068280Y0124306D02*
X0077524Y0124306D01*
X0077524Y0123808D02*
X0068778Y0123808D01*
X0069277Y0123309D02*
X0077524Y0123309D01*
X0077524Y0122811D02*
X0069775Y0122811D01*
X0070274Y0122312D02*
X0077524Y0122312D01*
X0077524Y0121814D02*
X0070772Y0121814D01*
X0071271Y0121315D02*
X0077524Y0121315D01*
X0077524Y0120817D02*
X0071769Y0120817D01*
X0072268Y0120318D02*
X0077524Y0120318D01*
X0077524Y0119820D02*
X0072766Y0119820D01*
X0073265Y0119321D02*
X0077524Y0119321D01*
X0077524Y0118823D02*
X0073763Y0118823D01*
X0074262Y0118324D02*
X0077524Y0118324D01*
X0077524Y0117826D02*
X0074760Y0117826D01*
X0075259Y0117327D02*
X0077524Y0117327D01*
X0077524Y0116829D02*
X0075757Y0116829D01*
X0076256Y0116330D02*
X0077524Y0116330D01*
X0077524Y0115832D02*
X0076687Y0115832D01*
X0076687Y0115333D02*
X0077524Y0115333D01*
X0077524Y0114835D02*
X0076687Y0114835D01*
X0076687Y0114336D02*
X0077524Y0114336D01*
X0077524Y0113838D02*
X0076687Y0113838D01*
X0076687Y0113339D02*
X0077524Y0113339D01*
X0077524Y0112841D02*
X0076687Y0112841D01*
X0076687Y0112342D02*
X0077524Y0112342D01*
X0077524Y0111844D02*
X0076687Y0111844D01*
X0076687Y0111345D02*
X0077524Y0111345D01*
X0077524Y0110847D02*
X0076687Y0110847D01*
X0076687Y0110348D02*
X0077524Y0110348D01*
X0077524Y0109850D02*
X0076687Y0109850D01*
X0076687Y0109351D02*
X0077524Y0109351D01*
X0077524Y0108853D02*
X0076687Y0108853D01*
X0076687Y0108354D02*
X0077524Y0108354D01*
X0077524Y0107856D02*
X0076687Y0107856D01*
X0076687Y0107357D02*
X0077524Y0107357D01*
X0077524Y0106859D02*
X0076687Y0106859D01*
X0076687Y0106360D02*
X0077524Y0106360D01*
X0077524Y0105862D02*
X0076687Y0105862D01*
X0076687Y0105363D02*
X0077524Y0105363D01*
X0077524Y0104864D02*
X0076687Y0104864D01*
X0076687Y0104366D02*
X0077524Y0104366D01*
X0077524Y0103867D02*
X0076687Y0103867D01*
X0076687Y0103369D02*
X0077524Y0103369D01*
X0077524Y0102870D02*
X0076687Y0102870D01*
X0076687Y0102372D02*
X0077524Y0102372D01*
X0077524Y0101873D02*
X0076687Y0101873D01*
X0076687Y0101375D02*
X0077524Y0101375D01*
X0077524Y0100876D02*
X0076687Y0100876D01*
X0076687Y0100378D02*
X0077524Y0100378D01*
X0077524Y0099879D02*
X0076687Y0099879D01*
X0076687Y0099381D02*
X0077524Y0099381D01*
X0077524Y0098882D02*
X0076687Y0098882D01*
X0076687Y0098384D02*
X0077524Y0098384D01*
X0077524Y0097885D02*
X0076687Y0097885D01*
X0076687Y0097387D02*
X0077524Y0097387D01*
X0077524Y0096888D02*
X0076687Y0096888D01*
X0076687Y0096390D02*
X0077524Y0096390D01*
X0077524Y0095891D02*
X0076687Y0095891D01*
X0076687Y0095393D02*
X0077524Y0095393D01*
X0077524Y0094894D02*
X0076687Y0094894D01*
X0076687Y0094396D02*
X0077524Y0094396D01*
X0077524Y0093897D02*
X0076687Y0093897D01*
X0076687Y0093399D02*
X0077524Y0093399D01*
X0077524Y0092900D02*
X0076687Y0092900D01*
X0076687Y0092402D02*
X0077524Y0092402D01*
X0077524Y0091903D02*
X0076687Y0091903D01*
X0076687Y0091405D02*
X0077524Y0091405D01*
X0077524Y0090906D02*
X0076687Y0090906D01*
X0076687Y0090408D02*
X0077524Y0090408D01*
X0077524Y0089909D02*
X0076687Y0089909D01*
X0076687Y0089411D02*
X0077524Y0089411D01*
X0077524Y0088912D02*
X0076687Y0088912D01*
X0076687Y0088414D02*
X0077524Y0088414D01*
X0077524Y0087915D02*
X0076687Y0087915D01*
X0076687Y0087417D02*
X0077524Y0087417D01*
X0077524Y0086918D02*
X0076687Y0086918D01*
X0076687Y0086420D02*
X0077524Y0086420D01*
X0077524Y0085921D02*
X0076687Y0085921D01*
X0076687Y0085423D02*
X0077524Y0085423D01*
X0077524Y0084924D02*
X0076687Y0084924D01*
X0076687Y0084426D02*
X0077524Y0084426D01*
X0077524Y0083927D02*
X0076687Y0083927D01*
X0076687Y0083429D02*
X0077524Y0083429D01*
X0077524Y0082930D02*
X0076687Y0082930D01*
X0076687Y0082431D02*
X0077524Y0082431D01*
X0077524Y0081933D02*
X0076687Y0081933D01*
X0076687Y0081434D02*
X0077524Y0081434D01*
X0077524Y0080936D02*
X0076687Y0080936D01*
X0076687Y0080437D02*
X0077524Y0080437D01*
X0077524Y0079939D02*
X0076687Y0079939D01*
X0076687Y0079440D02*
X0077524Y0079440D01*
X0077524Y0078942D02*
X0076687Y0078942D01*
X0076687Y0078443D02*
X0077524Y0078443D01*
X0077524Y0077945D02*
X0076687Y0077945D01*
X0076687Y0077446D02*
X0077524Y0077446D01*
X0077524Y0076948D02*
X0076687Y0076948D01*
X0076687Y0076449D02*
X0077524Y0076449D01*
X0077524Y0075951D02*
X0076687Y0075951D01*
X0076687Y0075452D02*
X0077524Y0075452D01*
X0077524Y0074954D02*
X0076687Y0074954D01*
X0076687Y0074455D02*
X0077524Y0074455D01*
X0077524Y0073957D02*
X0076687Y0073957D01*
X0076687Y0073458D02*
X0077524Y0073458D01*
X0077524Y0072960D02*
X0076687Y0072960D01*
X0076687Y0072461D02*
X0077524Y0072461D01*
X0077524Y0071963D02*
X0076687Y0071963D01*
X0076687Y0071464D02*
X0077524Y0071464D01*
X0077524Y0070966D02*
X0076687Y0070966D01*
X0076687Y0070467D02*
X0077524Y0070467D01*
X0077524Y0069969D02*
X0076687Y0069969D01*
X0076687Y0069470D02*
X0077524Y0069470D01*
X0077524Y0068972D02*
X0076687Y0068972D01*
X0076687Y0068473D02*
X0077524Y0068473D01*
X0077524Y0067975D02*
X0076687Y0067975D01*
X0076687Y0067476D02*
X0077524Y0067476D01*
X0077524Y0066978D02*
X0076687Y0066978D01*
X0076687Y0066479D02*
X0077524Y0066479D01*
X0077524Y0065981D02*
X0076687Y0065981D01*
X0076687Y0065482D02*
X0077524Y0065482D01*
X0077524Y0064984D02*
X0076687Y0064984D01*
X0076687Y0064485D02*
X0077524Y0064485D01*
X0077524Y0063987D02*
X0076687Y0063987D01*
X0076687Y0063488D02*
X0077524Y0063488D01*
X0077524Y0062990D02*
X0076687Y0062990D01*
X0076687Y0062491D02*
X0077524Y0062491D01*
X0077524Y0061993D02*
X0076687Y0061993D01*
X0076687Y0061494D02*
X0077524Y0061494D01*
X0077524Y0060995D02*
X0076687Y0060995D01*
X0076687Y0060497D02*
X0077391Y0060497D01*
X0076893Y0059998D02*
X0076687Y0059998D01*
X0080624Y0060995D02*
X0138008Y0060995D01*
X0138008Y0060497D02*
X0080756Y0060497D01*
X0081254Y0059998D02*
X0138138Y0059998D01*
X0138008Y0060128D02*
X0140362Y0057774D01*
X0143691Y0057774D01*
X0146045Y0060128D01*
X0146045Y0063457D01*
X0143691Y0065811D01*
X0140362Y0065811D01*
X0138008Y0063457D01*
X0138008Y0060128D01*
X0138636Y0059500D02*
X0081591Y0059500D01*
X0081797Y0059001D02*
X0139135Y0059001D01*
X0139633Y0058503D02*
X0081908Y0058503D01*
X0081908Y0058004D02*
X0140132Y0058004D01*
X0138008Y0061494D02*
X0080624Y0061494D01*
X0080624Y0061993D02*
X0138008Y0061993D01*
X0138008Y0062491D02*
X0080624Y0062491D01*
X0080624Y0062990D02*
X0138008Y0062990D01*
X0138038Y0063488D02*
X0080624Y0063488D01*
X0080624Y0063987D02*
X0138537Y0063987D01*
X0139035Y0064485D02*
X0080624Y0064485D01*
X0080624Y0064984D02*
X0139534Y0064984D01*
X0140032Y0065482D02*
X0080624Y0065482D01*
X0080624Y0065981D02*
X0159219Y0065981D01*
X0159219Y0066479D02*
X0080624Y0066479D01*
X0080624Y0066978D02*
X0159219Y0066978D01*
X0159219Y0067476D02*
X0080624Y0067476D01*
X0080624Y0067975D02*
X0159219Y0067975D01*
X0159219Y0068473D02*
X0080624Y0068473D01*
X0080624Y0068972D02*
X0159219Y0068972D01*
X0159219Y0069470D02*
X0086398Y0069470D01*
X0087006Y0069969D02*
X0159219Y0069969D01*
X0159219Y0070467D02*
X0087433Y0070467D01*
X0087639Y0070966D02*
X0126304Y0070966D01*
X0126622Y0070648D02*
X0129951Y0070648D01*
X0132305Y0073002D01*
X0132305Y0076331D01*
X0129951Y0078685D01*
X0126622Y0078685D01*
X0124268Y0076331D01*
X0124268Y0073002D01*
X0126622Y0070648D01*
X0125806Y0071464D02*
X0087813Y0071464D01*
X0087813Y0071963D02*
X0125307Y0071963D01*
X0124809Y0072461D02*
X0087813Y0072461D01*
X0087629Y0072960D02*
X0124310Y0072960D01*
X0124268Y0073458D02*
X0087422Y0073458D01*
X0086981Y0073957D02*
X0124268Y0073957D01*
X0124268Y0074455D02*
X0086338Y0074455D01*
X0084561Y0074954D02*
X0124268Y0074954D01*
X0124268Y0075452D02*
X0084561Y0075452D01*
X0084561Y0075951D02*
X0124268Y0075951D01*
X0124386Y0076449D02*
X0084561Y0076449D01*
X0084561Y0076948D02*
X0124884Y0076948D01*
X0125383Y0077446D02*
X0084561Y0077446D01*
X0084561Y0077945D02*
X0125881Y0077945D01*
X0126380Y0078443D02*
X0084561Y0078443D01*
X0084561Y0078942D02*
X0159219Y0078942D01*
X0159219Y0079440D02*
X0084561Y0079440D01*
X0084561Y0079939D02*
X0159219Y0079939D01*
X0159219Y0080437D02*
X0084561Y0080437D01*
X0084561Y0080936D02*
X0126334Y0080936D01*
X0126622Y0080648D02*
X0124268Y0083002D01*
X0124268Y0086331D01*
X0126622Y0088685D01*
X0129951Y0088685D01*
X0132305Y0086331D01*
X0132305Y0083002D01*
X0129951Y0080648D01*
X0126622Y0080648D01*
X0125836Y0081434D02*
X0084561Y0081434D01*
X0084561Y0081933D02*
X0125337Y0081933D01*
X0124839Y0082431D02*
X0084561Y0082431D01*
X0084561Y0082930D02*
X0124340Y0082930D01*
X0124268Y0083429D02*
X0084561Y0083429D01*
X0084561Y0083927D02*
X0124268Y0083927D01*
X0124268Y0084426D02*
X0084561Y0084426D01*
X0084561Y0084924D02*
X0124268Y0084924D01*
X0124268Y0085423D02*
X0084561Y0085423D01*
X0084561Y0085921D02*
X0124268Y0085921D01*
X0124356Y0086420D02*
X0084561Y0086420D01*
X0084561Y0086918D02*
X0124854Y0086918D01*
X0125353Y0087417D02*
X0084768Y0087417D01*
X0085267Y0087915D02*
X0125851Y0087915D01*
X0126350Y0088414D02*
X0085559Y0088414D01*
X0085766Y0088912D02*
X0159219Y0088912D01*
X0159219Y0088414D02*
X0130223Y0088414D01*
X0130721Y0087915D02*
X0159219Y0087915D01*
X0159219Y0087417D02*
X0131220Y0087417D01*
X0131718Y0086918D02*
X0159219Y0086918D01*
X0159219Y0086420D02*
X0132217Y0086420D01*
X0132305Y0085921D02*
X0159219Y0085921D01*
X0159219Y0085423D02*
X0132305Y0085423D01*
X0132305Y0084924D02*
X0159219Y0084924D01*
X0159219Y0084426D02*
X0132305Y0084426D01*
X0132305Y0083927D02*
X0159219Y0083927D01*
X0159219Y0083429D02*
X0132305Y0083429D01*
X0132232Y0082930D02*
X0159219Y0082930D01*
X0159219Y0082431D02*
X0131734Y0082431D01*
X0131235Y0081933D02*
X0159219Y0081933D01*
X0159219Y0081434D02*
X0130737Y0081434D01*
X0130238Y0080936D02*
X0159219Y0080936D01*
X0159219Y0078443D02*
X0130193Y0078443D01*
X0130691Y0077945D02*
X0159219Y0077945D01*
X0159219Y0077446D02*
X0131190Y0077446D01*
X0131688Y0076948D02*
X0159219Y0076948D01*
X0159219Y0076449D02*
X0132187Y0076449D01*
X0132305Y0075951D02*
X0159219Y0075951D01*
X0159219Y0075452D02*
X0132305Y0075452D01*
X0132305Y0074954D02*
X0159219Y0074954D01*
X0159219Y0074455D02*
X0132305Y0074455D01*
X0132305Y0073957D02*
X0159219Y0073957D01*
X0159219Y0073458D02*
X0132305Y0073458D01*
X0132262Y0072960D02*
X0159219Y0072960D01*
X0159219Y0072461D02*
X0131763Y0072461D01*
X0131265Y0071963D02*
X0159219Y0071963D01*
X0159219Y0071464D02*
X0130766Y0071464D01*
X0130268Y0070966D02*
X0159219Y0070966D01*
X0159219Y0065482D02*
X0144020Y0065482D01*
X0144519Y0064984D02*
X0159219Y0064984D01*
X0159219Y0064485D02*
X0145017Y0064485D01*
X0145516Y0063987D02*
X0159219Y0063987D01*
X0159219Y0063488D02*
X0146014Y0063488D01*
X0146045Y0062990D02*
X0159219Y0062990D01*
X0159219Y0062491D02*
X0146045Y0062491D01*
X0146045Y0061993D02*
X0159219Y0061993D01*
X0159219Y0061494D02*
X0146045Y0061494D01*
X0146045Y0060995D02*
X0159219Y0060995D01*
X0159219Y0060497D02*
X0146045Y0060497D01*
X0145915Y0059998D02*
X0159219Y0059998D01*
X0159219Y0059500D02*
X0145416Y0059500D01*
X0144918Y0059001D02*
X0159219Y0059001D01*
X0159219Y0058503D02*
X0144419Y0058503D01*
X0143921Y0058004D02*
X0159219Y0058004D01*
X0159219Y0057506D02*
X0081866Y0057506D01*
X0081659Y0057007D02*
X0159219Y0057007D01*
X0159219Y0056509D02*
X0081420Y0056509D01*
X0080921Y0056010D02*
X0159219Y0056010D01*
X0159219Y0055512D02*
X0080060Y0055512D01*
X0078087Y0055512D02*
X0077918Y0055512D01*
X0077712Y0055013D02*
X0159219Y0055013D01*
X0159219Y0054515D02*
X0077457Y0054515D01*
X0076959Y0054016D02*
X0159219Y0054016D01*
X0159219Y0053518D02*
X0076062Y0053518D01*
X0073055Y0049031D02*
X0159219Y0049031D01*
X0159219Y0048533D02*
X0073343Y0048533D01*
X0073631Y0048034D02*
X0159219Y0048034D01*
X0159219Y0047536D02*
X0073919Y0047536D01*
X0074206Y0047037D02*
X0138148Y0047037D01*
X0138058Y0046946D02*
X0137893Y0046661D01*
X0137808Y0046343D01*
X0137808Y0043460D01*
X0141776Y0043460D01*
X0141776Y0042960D01*
X0137808Y0042960D01*
X0137808Y0040077D01*
X0137893Y0039759D01*
X0138058Y0039474D01*
X0138290Y0039242D01*
X0138575Y0039077D01*
X0138893Y0038992D01*
X0141776Y0038992D01*
X0141776Y0042960D01*
X0142276Y0042960D01*
X0142276Y0038992D01*
X0145159Y0038992D01*
X0145477Y0039077D01*
X0145762Y0039242D01*
X0145995Y0039474D01*
X0146160Y0039759D01*
X0146245Y0040077D01*
X0146245Y0042960D01*
X0142276Y0042960D01*
X0142276Y0043460D01*
X0141776Y0043460D01*
X0141776Y0047429D01*
X0138893Y0047429D01*
X0138575Y0047344D01*
X0138290Y0047179D01*
X0138058Y0046946D01*
X0137860Y0046539D02*
X0074494Y0046539D01*
X0074697Y0046040D02*
X0137808Y0046040D01*
X0137808Y0045542D02*
X0126408Y0045542D01*
X0126335Y0045615D02*
X0126950Y0045000D01*
X0126950Y0038193D01*
X0126335Y0037578D01*
X0119528Y0037578D01*
X0118913Y0038193D01*
X0118913Y0045000D01*
X0119528Y0045615D01*
X0126335Y0045615D01*
X0126907Y0045043D02*
X0137808Y0045043D01*
X0137808Y0044545D02*
X0126950Y0044545D01*
X0126950Y0044046D02*
X0137808Y0044046D01*
X0137808Y0043548D02*
X0126950Y0043548D01*
X0126950Y0043049D02*
X0141776Y0043049D01*
X0141776Y0042551D02*
X0142276Y0042551D01*
X0142276Y0043049D02*
X0159219Y0043049D01*
X0159219Y0042551D02*
X0146245Y0042551D01*
X0146245Y0042052D02*
X0159219Y0042052D01*
X0159219Y0041554D02*
X0146245Y0041554D01*
X0146245Y0041055D02*
X0159219Y0041055D01*
X0159219Y0040557D02*
X0146245Y0040557D01*
X0146240Y0040058D02*
X0159219Y0040058D01*
X0159219Y0039560D02*
X0146044Y0039560D01*
X0145418Y0039061D02*
X0159219Y0039061D01*
X0159219Y0038562D02*
X0126950Y0038562D01*
X0126950Y0039061D02*
X0138635Y0039061D01*
X0138008Y0039560D02*
X0126950Y0039560D01*
X0126950Y0040058D02*
X0137813Y0040058D01*
X0137808Y0040557D02*
X0126950Y0040557D01*
X0126950Y0041055D02*
X0137808Y0041055D01*
X0137808Y0041554D02*
X0126950Y0041554D01*
X0126950Y0042052D02*
X0137808Y0042052D01*
X0137808Y0042551D02*
X0126950Y0042551D01*
X0126822Y0038064D02*
X0159219Y0038064D01*
X0159219Y0037565D02*
X0084867Y0037565D01*
X0084679Y0037378D02*
X0087150Y0039849D01*
X0087150Y0041346D01*
X0083182Y0041346D01*
X0083182Y0041846D01*
X0087150Y0041846D01*
X0087150Y0043343D01*
X0084679Y0045815D01*
X0083182Y0045815D01*
X0083182Y0041846D01*
X0082682Y0041846D01*
X0082682Y0045815D01*
X0081184Y0045815D01*
X0078713Y0043343D01*
X0078713Y0041846D01*
X0082682Y0041846D01*
X0082682Y0041346D01*
X0083182Y0041346D01*
X0083182Y0037378D01*
X0084679Y0037378D01*
X0085366Y0038064D02*
X0090781Y0038064D01*
X0091267Y0037578D02*
X0094596Y0037578D01*
X0096950Y0039932D01*
X0096950Y0043261D01*
X0094596Y0045615D01*
X0091267Y0045615D01*
X0088913Y0043261D01*
X0088913Y0039932D01*
X0091267Y0037578D01*
X0090282Y0038562D02*
X0085864Y0038562D01*
X0086363Y0039061D02*
X0089784Y0039061D01*
X0089285Y0039560D02*
X0086861Y0039560D01*
X0087150Y0040058D02*
X0088913Y0040058D01*
X0088913Y0040557D02*
X0087150Y0040557D01*
X0087150Y0041055D02*
X0088913Y0041055D01*
X0088913Y0041554D02*
X0083182Y0041554D01*
X0083182Y0042052D02*
X0082682Y0042052D01*
X0082682Y0041554D02*
X0075450Y0041554D01*
X0075450Y0042052D02*
X0078713Y0042052D01*
X0078713Y0042551D02*
X0075450Y0042551D01*
X0075450Y0043049D02*
X0078713Y0043049D01*
X0078918Y0043548D02*
X0075365Y0043548D01*
X0075231Y0044046D02*
X0079416Y0044046D01*
X0079915Y0044545D02*
X0075098Y0044545D01*
X0074964Y0045043D02*
X0080413Y0045043D01*
X0080912Y0045542D02*
X0074831Y0045542D01*
X0075450Y0041055D02*
X0078713Y0041055D01*
X0078713Y0041346D02*
X0078713Y0039849D01*
X0081184Y0037378D01*
X0082682Y0037378D01*
X0082682Y0041346D01*
X0078713Y0041346D01*
X0078713Y0040557D02*
X0075450Y0040557D01*
X0075450Y0040058D02*
X0078713Y0040058D01*
X0079003Y0039560D02*
X0075321Y0039560D01*
X0075187Y0039061D02*
X0079501Y0039061D01*
X0080000Y0038562D02*
X0075054Y0038562D01*
X0074920Y0038064D02*
X0080498Y0038064D01*
X0080997Y0037565D02*
X0074787Y0037565D01*
X0082682Y0037565D02*
X0083182Y0037565D01*
X0083182Y0038064D02*
X0082682Y0038064D01*
X0082682Y0038562D02*
X0083182Y0038562D01*
X0083182Y0039061D02*
X0082682Y0039061D01*
X0082682Y0039560D02*
X0083182Y0039560D01*
X0083182Y0040058D02*
X0082682Y0040058D01*
X0082682Y0040557D02*
X0083182Y0040557D01*
X0083182Y0041055D02*
X0082682Y0041055D01*
X0082682Y0042551D02*
X0083182Y0042551D01*
X0083182Y0043049D02*
X0082682Y0043049D01*
X0082682Y0043548D02*
X0083182Y0043548D01*
X0083182Y0044046D02*
X0082682Y0044046D01*
X0082682Y0044545D02*
X0083182Y0044545D01*
X0083182Y0045043D02*
X0082682Y0045043D01*
X0082682Y0045542D02*
X0083182Y0045542D01*
X0084952Y0045542D02*
X0091194Y0045542D01*
X0090696Y0045043D02*
X0085451Y0045043D01*
X0085949Y0044545D02*
X0090197Y0044545D01*
X0089699Y0044046D02*
X0086448Y0044046D01*
X0086946Y0043548D02*
X0089200Y0043548D01*
X0088913Y0043049D02*
X0087150Y0043049D01*
X0087150Y0042551D02*
X0088913Y0042551D01*
X0088913Y0042052D02*
X0087150Y0042052D01*
X0094669Y0045542D02*
X0101194Y0045542D01*
X0101267Y0045615D02*
X0098913Y0043261D01*
X0098913Y0039932D01*
X0101267Y0037578D01*
X0104596Y0037578D01*
X0106950Y0039932D01*
X0106950Y0043261D01*
X0104596Y0045615D01*
X0101267Y0045615D01*
X0100696Y0045043D02*
X0095168Y0045043D01*
X0095666Y0044545D02*
X0100197Y0044545D01*
X0099699Y0044046D02*
X0096165Y0044046D01*
X0096663Y0043548D02*
X0099200Y0043548D01*
X0098913Y0043049D02*
X0096950Y0043049D01*
X0096950Y0042551D02*
X0098913Y0042551D01*
X0098913Y0042052D02*
X0096950Y0042052D01*
X0096950Y0041554D02*
X0098913Y0041554D01*
X0098913Y0041055D02*
X0096950Y0041055D01*
X0096950Y0040557D02*
X0098913Y0040557D01*
X0098913Y0040058D02*
X0096950Y0040058D01*
X0096578Y0039560D02*
X0099285Y0039560D01*
X0099784Y0039061D02*
X0096080Y0039061D01*
X0095581Y0038562D02*
X0100282Y0038562D01*
X0100781Y0038064D02*
X0095083Y0038064D01*
X0105083Y0038064D02*
X0110781Y0038064D01*
X0111267Y0037578D02*
X0114596Y0037578D01*
X0116950Y0039932D01*
X0116950Y0043261D01*
X0114596Y0045615D01*
X0111267Y0045615D01*
X0108913Y0043261D01*
X0108913Y0039932D01*
X0111267Y0037578D01*
X0110282Y0038562D02*
X0105581Y0038562D01*
X0106080Y0039061D02*
X0109784Y0039061D01*
X0109285Y0039560D02*
X0106578Y0039560D01*
X0106950Y0040058D02*
X0108913Y0040058D01*
X0108913Y0040557D02*
X0106950Y0040557D01*
X0106950Y0041055D02*
X0108913Y0041055D01*
X0108913Y0041554D02*
X0106950Y0041554D01*
X0106950Y0042052D02*
X0108913Y0042052D01*
X0108913Y0042551D02*
X0106950Y0042551D01*
X0106950Y0043049D02*
X0108913Y0043049D01*
X0109200Y0043548D02*
X0106663Y0043548D01*
X0106165Y0044046D02*
X0109699Y0044046D01*
X0110197Y0044545D02*
X0105666Y0044545D01*
X0105168Y0045043D02*
X0110696Y0045043D01*
X0111194Y0045542D02*
X0104669Y0045542D01*
X0114669Y0045542D02*
X0119455Y0045542D01*
X0118957Y0045043D02*
X0115168Y0045043D01*
X0115666Y0044545D02*
X0118913Y0044545D01*
X0118913Y0044046D02*
X0116165Y0044046D01*
X0116663Y0043548D02*
X0118913Y0043548D01*
X0118913Y0043049D02*
X0116950Y0043049D01*
X0116950Y0042551D02*
X0118913Y0042551D01*
X0118913Y0042052D02*
X0116950Y0042052D01*
X0116950Y0041554D02*
X0118913Y0041554D01*
X0118913Y0041055D02*
X0116950Y0041055D01*
X0116950Y0040557D02*
X0118913Y0040557D01*
X0118913Y0040058D02*
X0116950Y0040058D01*
X0116578Y0039560D02*
X0118913Y0039560D01*
X0118913Y0039061D02*
X0116080Y0039061D01*
X0115581Y0038562D02*
X0118913Y0038562D01*
X0119042Y0038064D02*
X0115083Y0038064D01*
X0141776Y0039061D02*
X0142276Y0039061D01*
X0142276Y0039560D02*
X0141776Y0039560D01*
X0141776Y0040058D02*
X0142276Y0040058D01*
X0142276Y0040557D02*
X0141776Y0040557D01*
X0141776Y0041055D02*
X0142276Y0041055D01*
X0142276Y0041554D02*
X0141776Y0041554D01*
X0141776Y0042052D02*
X0142276Y0042052D01*
X0142276Y0043460D02*
X0146245Y0043460D01*
X0146245Y0046343D01*
X0146160Y0046661D01*
X0145995Y0046946D01*
X0145762Y0047179D01*
X0145477Y0047344D01*
X0145159Y0047429D01*
X0142276Y0047429D01*
X0142276Y0043460D01*
X0142276Y0043548D02*
X0141776Y0043548D01*
X0141776Y0044046D02*
X0142276Y0044046D01*
X0142276Y0044545D02*
X0141776Y0044545D01*
X0141776Y0045043D02*
X0142276Y0045043D01*
X0142276Y0045542D02*
X0141776Y0045542D01*
X0141776Y0046040D02*
X0142276Y0046040D01*
X0142276Y0046539D02*
X0141776Y0046539D01*
X0141776Y0047037D02*
X0142276Y0047037D01*
X0145904Y0047037D02*
X0159219Y0047037D01*
X0159219Y0046539D02*
X0146193Y0046539D01*
X0146245Y0046040D02*
X0159219Y0046040D01*
X0159219Y0045542D02*
X0146245Y0045542D01*
X0146245Y0045043D02*
X0159219Y0045043D01*
X0159219Y0044545D02*
X0146245Y0044545D01*
X0146245Y0044046D02*
X0159219Y0044046D01*
X0159219Y0043548D02*
X0146245Y0043548D01*
X0159219Y0049530D02*
X0072577Y0049530D01*
X0072079Y0050028D02*
X0159219Y0050028D01*
X0159219Y0050527D02*
X0071580Y0050527D01*
X0071082Y0051025D02*
X0159219Y0051025D01*
X0159219Y0051524D02*
X0070447Y0051524D01*
X0069583Y0052022D02*
X0159219Y0052022D01*
X0159219Y0052521D02*
X0068720Y0052521D01*
X0067684Y0053019D02*
X0159219Y0053019D01*
X0159219Y0089411D02*
X0085845Y0089411D01*
X0085845Y0089909D02*
X0159219Y0089909D01*
X0159219Y0090408D02*
X0149835Y0090408D01*
X0149719Y0090291D02*
X0152190Y0092762D01*
X0152190Y0094259D01*
X0148221Y0094259D01*
X0148221Y0090291D01*
X0149719Y0090291D01*
X0150334Y0090906D02*
X0159219Y0090906D01*
X0159219Y0091405D02*
X0150832Y0091405D01*
X0151331Y0091903D02*
X0159219Y0091903D01*
X0159219Y0092402D02*
X0151829Y0092402D01*
X0152190Y0092900D02*
X0159219Y0092900D01*
X0159219Y0093399D02*
X0152190Y0093399D01*
X0152190Y0093897D02*
X0159219Y0093897D01*
X0159219Y0094396D02*
X0148221Y0094396D01*
X0148221Y0094259D02*
X0148221Y0094759D01*
X0152190Y0094759D01*
X0152190Y0096257D01*
X0149719Y0098728D01*
X0148221Y0098728D01*
X0148221Y0094760D01*
X0147721Y0094760D01*
X0147721Y0098728D01*
X0146224Y0098728D01*
X0143753Y0096257D01*
X0143753Y0094759D01*
X0147721Y0094759D01*
X0147721Y0094259D01*
X0148221Y0094259D01*
X0148221Y0093897D02*
X0147721Y0093897D01*
X0147721Y0094259D02*
X0147721Y0090291D01*
X0146224Y0090291D01*
X0143753Y0092762D01*
X0143753Y0094259D01*
X0147721Y0094259D01*
X0147721Y0094396D02*
X0132505Y0094396D01*
X0132505Y0094417D02*
X0128536Y0094417D01*
X0128536Y0090448D01*
X0130034Y0090448D01*
X0132505Y0092920D01*
X0132505Y0094417D01*
X0132505Y0094917D02*
X0132505Y0096414D01*
X0130034Y0098885D01*
X0128536Y0098885D01*
X0128536Y0094917D01*
X0128036Y0094917D01*
X0128036Y0094417D01*
X0124068Y0094417D01*
X0124068Y0092920D01*
X0126539Y0090448D01*
X0128036Y0090448D01*
X0128036Y0094417D01*
X0128536Y0094417D01*
X0128536Y0094917D01*
X0132505Y0094917D01*
X0132505Y0095393D02*
X0143753Y0095393D01*
X0143753Y0095891D02*
X0132505Y0095891D01*
X0132505Y0096390D02*
X0143886Y0096390D01*
X0144384Y0096888D02*
X0132031Y0096888D01*
X0131532Y0097387D02*
X0144883Y0097387D01*
X0145381Y0097885D02*
X0131034Y0097885D01*
X0130535Y0098384D02*
X0145880Y0098384D01*
X0147721Y0098384D02*
X0148221Y0098384D01*
X0148221Y0097885D02*
X0147721Y0097885D01*
X0147721Y0097387D02*
X0148221Y0097387D01*
X0148221Y0096888D02*
X0147721Y0096888D01*
X0147721Y0096390D02*
X0148221Y0096390D01*
X0148221Y0095891D02*
X0147721Y0095891D01*
X0147721Y0095393D02*
X0148221Y0095393D01*
X0148221Y0094894D02*
X0147721Y0094894D01*
X0147721Y0093399D02*
X0148221Y0093399D01*
X0148221Y0092900D02*
X0147721Y0092900D01*
X0147721Y0092402D02*
X0148221Y0092402D01*
X0148221Y0091903D02*
X0147721Y0091903D01*
X0147721Y0091405D02*
X0148221Y0091405D01*
X0148221Y0090906D02*
X0147721Y0090906D01*
X0147721Y0090408D02*
X0148221Y0090408D01*
X0146107Y0090408D02*
X0085772Y0090408D01*
X0085565Y0090906D02*
X0126081Y0090906D01*
X0125583Y0091405D02*
X0085281Y0091405D01*
X0084783Y0091903D02*
X0125084Y0091903D01*
X0124586Y0092402D02*
X0083815Y0092402D01*
X0082207Y0092402D02*
X0080624Y0092402D01*
X0080624Y0092900D02*
X0124087Y0092900D01*
X0124068Y0093399D02*
X0080624Y0093399D01*
X0080624Y0093897D02*
X0124068Y0093897D01*
X0124068Y0094396D02*
X0080624Y0094396D01*
X0080624Y0094894D02*
X0128036Y0094894D01*
X0128036Y0094917D02*
X0124068Y0094917D01*
X0124068Y0096414D01*
X0126539Y0098885D01*
X0128036Y0098885D01*
X0128036Y0094917D01*
X0128036Y0095393D02*
X0128536Y0095393D01*
X0128536Y0095891D02*
X0128036Y0095891D01*
X0128036Y0096390D02*
X0128536Y0096390D01*
X0128536Y0096888D02*
X0128036Y0096888D01*
X0128036Y0097387D02*
X0128536Y0097387D01*
X0128536Y0097885D02*
X0128036Y0097885D01*
X0128036Y0098384D02*
X0128536Y0098384D01*
X0128536Y0098882D02*
X0128036Y0098882D01*
X0126536Y0098882D02*
X0080624Y0098882D01*
X0080624Y0098384D02*
X0126037Y0098384D01*
X0125539Y0097885D02*
X0080624Y0097885D01*
X0080624Y0097387D02*
X0125040Y0097387D01*
X0124542Y0096888D02*
X0080624Y0096888D01*
X0080624Y0096390D02*
X0124068Y0096390D01*
X0124068Y0095891D02*
X0080624Y0095891D01*
X0080624Y0095393D02*
X0124068Y0095393D01*
X0128036Y0094396D02*
X0128536Y0094396D01*
X0128536Y0094894D02*
X0143753Y0094894D01*
X0143753Y0093897D02*
X0132505Y0093897D01*
X0132505Y0093399D02*
X0143753Y0093399D01*
X0143753Y0092900D02*
X0132485Y0092900D01*
X0131987Y0092402D02*
X0144113Y0092402D01*
X0144612Y0091903D02*
X0131488Y0091903D01*
X0130990Y0091405D02*
X0145110Y0091405D01*
X0145609Y0090906D02*
X0130491Y0090906D01*
X0128536Y0090906D02*
X0128036Y0090906D01*
X0128036Y0091405D02*
X0128536Y0091405D01*
X0128536Y0091903D02*
X0128036Y0091903D01*
X0128036Y0092402D02*
X0128536Y0092402D01*
X0128536Y0092900D02*
X0128036Y0092900D01*
X0128036Y0093399D02*
X0128536Y0093399D01*
X0128536Y0093897D02*
X0128036Y0093897D01*
X0130037Y0098882D02*
X0159219Y0098882D01*
X0159219Y0098384D02*
X0150063Y0098384D01*
X0150561Y0097885D02*
X0159219Y0097885D01*
X0159219Y0097387D02*
X0151060Y0097387D01*
X0151558Y0096888D02*
X0159219Y0096888D01*
X0159219Y0096390D02*
X0152057Y0096390D01*
X0152190Y0095891D02*
X0159219Y0095891D01*
X0159219Y0095393D02*
X0152190Y0095393D01*
X0152190Y0094894D02*
X0159219Y0094894D01*
X0159219Y0099381D02*
X0080624Y0099381D01*
X0080624Y0099879D02*
X0159219Y0099879D01*
X0159219Y0100378D02*
X0080624Y0100378D01*
X0080624Y0100876D02*
X0124655Y0100876D01*
X0124268Y0101375D02*
X0080624Y0101375D01*
X0080624Y0101873D02*
X0124268Y0101873D01*
X0124268Y0102372D02*
X0080624Y0102372D01*
X0080624Y0102870D02*
X0124268Y0102870D01*
X0124268Y0103369D02*
X0080624Y0103369D01*
X0080624Y0103867D02*
X0124268Y0103867D01*
X0124268Y0104366D02*
X0080624Y0104366D01*
X0080624Y0104864D02*
X0124268Y0104864D01*
X0124268Y0105363D02*
X0080624Y0105363D01*
X0080624Y0105862D02*
X0124268Y0105862D01*
X0124268Y0106360D02*
X0080624Y0106360D01*
X0069650Y0108354D02*
X0033808Y0108354D01*
X0035669Y0108853D02*
X0069650Y0108853D01*
X0069650Y0109351D02*
X0036982Y0109351D01*
X0037846Y0109850D02*
X0069650Y0109850D01*
X0069650Y0110348D02*
X0038709Y0110348D01*
X0039446Y0110847D02*
X0069650Y0110847D01*
X0069650Y0111345D02*
X0039945Y0111345D01*
X0040443Y0111844D02*
X0069650Y0111844D01*
X0069650Y0112342D02*
X0040942Y0112342D01*
X0041440Y0112841D02*
X0069650Y0112841D01*
X0069650Y0113339D02*
X0041767Y0113339D01*
X0042054Y0113838D02*
X0069650Y0113838D01*
X0069650Y0114336D02*
X0042342Y0114336D01*
X0042630Y0114835D02*
X0069430Y0114835D01*
X0068932Y0115333D02*
X0042918Y0115333D01*
X0043164Y0115832D02*
X0068433Y0115832D01*
X0067935Y0116330D02*
X0043297Y0116330D01*
X0043431Y0116829D02*
X0067436Y0116829D01*
X0066938Y0117327D02*
X0043564Y0117327D01*
X0043698Y0117826D02*
X0066439Y0117826D01*
X0065941Y0118324D02*
X0043832Y0118324D01*
X0043954Y0118823D02*
X0065442Y0118823D01*
X0064944Y0119321D02*
X0043954Y0119321D01*
X0043954Y0119820D02*
X0064445Y0119820D01*
X0063947Y0120318D02*
X0043954Y0120318D01*
X0043954Y0120817D02*
X0063448Y0120817D01*
X0062950Y0121315D02*
X0043954Y0121315D01*
X0043954Y0121814D02*
X0062451Y0121814D01*
X0061953Y0122312D02*
X0043862Y0122312D01*
X0043729Y0122811D02*
X0061454Y0122811D01*
X0060956Y0123309D02*
X0043595Y0123309D01*
X0043462Y0123808D02*
X0060457Y0123808D01*
X0059959Y0124306D02*
X0043328Y0124306D01*
X0043194Y0124805D02*
X0059460Y0124805D01*
X0058962Y0125303D02*
X0042984Y0125303D01*
X0042696Y0125802D02*
X0058463Y0125802D01*
X0057965Y0126300D02*
X0042408Y0126300D01*
X0042121Y0126799D02*
X0057466Y0126799D01*
X0056968Y0127298D02*
X0041833Y0127298D01*
X0041545Y0127796D02*
X0056469Y0127796D01*
X0055971Y0128295D02*
X0041057Y0128295D01*
X0040558Y0128793D02*
X0055472Y0128793D01*
X0054974Y0129292D02*
X0040060Y0129292D01*
X0039561Y0129790D02*
X0042664Y0129790D01*
X0042165Y0130289D02*
X0038908Y0130289D01*
X0038044Y0130787D02*
X0041667Y0130787D01*
X0041168Y0131286D02*
X0037181Y0131286D01*
X0036096Y0131784D02*
X0040670Y0131784D01*
X0040171Y0132283D02*
X0034236Y0132283D01*
X0039570Y0137268D02*
X0045338Y0137268D01*
X0045528Y0137766D02*
X0039072Y0137766D01*
X0038573Y0138265D02*
X0045528Y0138265D01*
X0045528Y0138763D02*
X0038075Y0138763D01*
X0037576Y0139262D02*
X0045528Y0139262D01*
X0045528Y0139760D02*
X0037078Y0139760D01*
X0036579Y0140259D02*
X0045528Y0140259D01*
X0045528Y0140757D02*
X0026086Y0140757D01*
X0040069Y0136769D02*
X0044840Y0136769D01*
X0044634Y0136271D02*
X0040567Y0136271D01*
X0041066Y0135772D02*
X0044427Y0135772D01*
X0044350Y0135274D02*
X0041564Y0135274D01*
X0042063Y0134775D02*
X0044350Y0134775D01*
X0044359Y0134277D02*
X0042561Y0134277D01*
X0043060Y0133778D02*
X0044566Y0133778D01*
X0044772Y0133280D02*
X0043558Y0133280D01*
X0044057Y0132781D02*
X0045174Y0132781D01*
X0062907Y0142253D02*
X0090803Y0142253D01*
X0090803Y0142751D02*
X0062907Y0142751D01*
X0062907Y0143250D02*
X0090803Y0143250D01*
X0090803Y0143748D02*
X0062907Y0143748D01*
X0062907Y0144247D02*
X0090803Y0144247D01*
X0090803Y0144745D02*
X0062907Y0144745D01*
X0062907Y0145244D02*
X0090803Y0145244D01*
X0090803Y0145742D02*
X0062907Y0145742D01*
X0062907Y0146241D02*
X0090803Y0146241D01*
X0090803Y0146739D02*
X0062907Y0146739D01*
X0062907Y0147238D02*
X0090803Y0147238D01*
X0090803Y0147736D02*
X0062907Y0147736D01*
X0062907Y0148235D02*
X0090441Y0148235D01*
X0089943Y0148733D02*
X0062907Y0148733D01*
X0062907Y0149232D02*
X0089444Y0149232D01*
X0088946Y0149731D02*
X0062907Y0149731D01*
X0062907Y0150229D02*
X0088447Y0150229D01*
X0087949Y0150728D02*
X0062907Y0150728D01*
X0062907Y0151226D02*
X0087450Y0151226D01*
X0086952Y0151725D02*
X0062907Y0151725D01*
X0062907Y0152223D02*
X0086453Y0152223D01*
X0085954Y0152722D02*
X0062907Y0152722D01*
X0062907Y0153220D02*
X0085456Y0153220D01*
X0084957Y0153719D02*
X0062907Y0153719D01*
X0062907Y0154217D02*
X0084459Y0154217D01*
X0083960Y0154716D02*
X0062907Y0154716D01*
X0062907Y0155214D02*
X0083462Y0155214D01*
X0082963Y0155713D02*
X0062907Y0155713D01*
X0062907Y0156211D02*
X0082465Y0156211D01*
X0081966Y0156710D02*
X0062907Y0156710D01*
X0062907Y0157208D02*
X0081468Y0157208D01*
X0080969Y0157707D02*
X0062907Y0157707D01*
X0062907Y0158205D02*
X0080471Y0158205D01*
X0079972Y0158704D02*
X0062907Y0158704D01*
X0062907Y0159202D02*
X0079474Y0159202D01*
X0078975Y0159701D02*
X0062907Y0159701D01*
X0062907Y0160199D02*
X0078477Y0160199D01*
X0077978Y0160698D02*
X0062907Y0160698D01*
X0062907Y0161196D02*
X0077480Y0161196D01*
X0076981Y0161695D02*
X0062907Y0161695D01*
X0062907Y0162193D02*
X0076483Y0162193D01*
X0075984Y0162692D02*
X0062907Y0162692D01*
X0062907Y0163190D02*
X0075486Y0163190D01*
X0074987Y0163689D02*
X0062907Y0163689D01*
X0062907Y0164187D02*
X0074489Y0164187D01*
X0073990Y0164686D02*
X0062907Y0164686D01*
X0062907Y0165184D02*
X0073492Y0165184D01*
X0072993Y0165683D02*
X0062907Y0165683D01*
X0062907Y0166181D02*
X0072495Y0166181D01*
X0071996Y0166680D02*
X0062907Y0166680D01*
X0062907Y0167178D02*
X0071498Y0167178D01*
X0070999Y0167677D02*
X0062907Y0167677D01*
X0062907Y0168175D02*
X0070501Y0168175D01*
X0070002Y0168674D02*
X0062907Y0168674D01*
X0062907Y0169172D02*
X0069504Y0169172D01*
X0069005Y0169671D02*
X0062907Y0169671D01*
X0062907Y0170169D02*
X0068507Y0170169D01*
X0068008Y0170668D02*
X0062907Y0170668D01*
X0062907Y0171166D02*
X0067510Y0171166D01*
X0067011Y0171665D02*
X0062907Y0171665D01*
X0063216Y0172164D02*
X0066513Y0172164D01*
X0066014Y0172662D02*
X0063715Y0172662D01*
X0063948Y0173161D02*
X0065516Y0173161D01*
X0065017Y0173659D02*
X0064154Y0173659D01*
X0064191Y0174158D02*
X0064518Y0174158D01*
X0069507Y0182134D02*
X0088318Y0182134D01*
X0086457Y0182632D02*
X0069009Y0182632D01*
X0068510Y0183131D02*
X0085459Y0183131D01*
X0084595Y0183629D02*
X0068012Y0183629D01*
X0067513Y0184128D02*
X0083732Y0184128D01*
X0083110Y0184626D02*
X0067015Y0184626D01*
X0066516Y0185125D02*
X0082612Y0185125D01*
X0082113Y0185623D02*
X0066018Y0185623D01*
X0065519Y0186122D02*
X0081615Y0186122D01*
X0081144Y0186620D02*
X0065021Y0186620D01*
X0064522Y0187119D02*
X0080856Y0187119D01*
X0080569Y0187617D02*
X0064024Y0187617D01*
X0062700Y0194098D02*
X0056392Y0194098D01*
X0056891Y0194597D02*
X0062201Y0194597D01*
X0061703Y0195095D02*
X0057389Y0195095D01*
X0057888Y0195594D02*
X0061204Y0195594D01*
X0060706Y0196092D02*
X0058386Y0196092D01*
X0058565Y0196591D02*
X0060528Y0196591D01*
X0060528Y0197089D02*
X0058565Y0197089D01*
X0058565Y0197588D02*
X0060528Y0197588D01*
X0060528Y0198086D02*
X0058565Y0198086D01*
X0058565Y0198585D02*
X0060528Y0198585D01*
X0060528Y0199083D02*
X0058565Y0199083D01*
X0052700Y0194098D02*
X0046392Y0194098D01*
X0046891Y0194597D02*
X0052201Y0194597D01*
X0051703Y0195095D02*
X0047389Y0195095D01*
X0047888Y0195594D02*
X0051204Y0195594D01*
X0050706Y0196092D02*
X0048386Y0196092D01*
X0048565Y0196591D02*
X0050528Y0196591D01*
X0050528Y0197089D02*
X0048565Y0197089D01*
X0048565Y0197588D02*
X0050528Y0197588D01*
X0050528Y0198086D02*
X0048565Y0198086D01*
X0048565Y0198585D02*
X0050528Y0198585D01*
X0050528Y0199083D02*
X0048565Y0199083D01*
X0042700Y0194098D02*
X0038131Y0194098D01*
X0038565Y0194597D02*
X0042201Y0194597D01*
X0041703Y0195095D02*
X0038565Y0195095D01*
X0038565Y0195594D02*
X0041204Y0195594D01*
X0040706Y0196092D02*
X0038565Y0196092D01*
X0038565Y0196591D02*
X0040528Y0196591D01*
X0040528Y0197089D02*
X0038565Y0197089D01*
X0038565Y0197588D02*
X0040528Y0197588D01*
X0040528Y0198086D02*
X0038565Y0198086D01*
X0038565Y0198585D02*
X0040528Y0198585D01*
X0040528Y0199083D02*
X0038565Y0199083D01*
X0030528Y0199083D02*
X0018613Y0199083D01*
X0018613Y0198585D02*
X0030528Y0198585D01*
X0030528Y0198086D02*
X0018613Y0198086D01*
X0018613Y0197588D02*
X0030528Y0197588D01*
X0030528Y0197089D02*
X0018613Y0197089D01*
X0018613Y0196591D02*
X0030528Y0196591D01*
X0030528Y0196092D02*
X0018613Y0196092D01*
X0018613Y0195594D02*
X0030528Y0195594D01*
X0030528Y0195095D02*
X0018613Y0195095D01*
X0018613Y0194597D02*
X0030528Y0194597D01*
X0030961Y0194098D02*
X0018613Y0194098D01*
X0018613Y0193600D02*
X0078761Y0193600D01*
X0078761Y0194098D02*
X0066392Y0194098D01*
X0066891Y0194597D02*
X0078761Y0194597D01*
X0078761Y0195095D02*
X0067389Y0195095D01*
X0067888Y0195594D02*
X0078761Y0195594D01*
X0078894Y0196092D02*
X0068386Y0196092D01*
X0068565Y0196591D02*
X0079028Y0196591D01*
X0079161Y0197089D02*
X0068565Y0197089D01*
X0068565Y0197588D02*
X0079295Y0197588D01*
X0079428Y0198086D02*
X0068565Y0198086D01*
X0068565Y0198585D02*
X0079562Y0198585D01*
X0079821Y0199083D02*
X0068565Y0199083D01*
X0078761Y0193101D02*
X0018613Y0193101D01*
X0018613Y0192602D02*
X0078761Y0192602D01*
X0078840Y0192104D02*
X0018613Y0192104D01*
X0018613Y0191605D02*
X0078974Y0191605D01*
X0079107Y0191107D02*
X0018613Y0191107D01*
X0018613Y0190608D02*
X0079241Y0190608D01*
X0079375Y0190110D02*
X0018613Y0190110D01*
X0018613Y0189611D02*
X0079508Y0189611D01*
X0079705Y0189113D02*
X0018613Y0189113D01*
X0018613Y0188614D02*
X0079993Y0188614D01*
X0080281Y0188116D02*
X0018613Y0188116D01*
X0018613Y0187617D02*
X0040974Y0187617D01*
X0040475Y0187119D02*
X0018613Y0187119D01*
X0018613Y0186620D02*
X0039977Y0186620D01*
X0039478Y0186122D02*
X0018613Y0186122D01*
X0018613Y0185623D02*
X0038980Y0185623D01*
X0038481Y0185125D02*
X0018613Y0185125D01*
X0018613Y0184626D02*
X0036219Y0184626D01*
X0035668Y0184128D02*
X0018613Y0184128D01*
X0018613Y0183629D02*
X0035265Y0183629D01*
X0035058Y0183131D02*
X0018613Y0183131D01*
X0018613Y0182632D02*
X0034901Y0182632D01*
X0034901Y0182134D02*
X0018613Y0182134D01*
X0018613Y0181635D02*
X0034901Y0181635D01*
X0035102Y0181137D02*
X0018613Y0181137D01*
X0018613Y0180638D02*
X0035309Y0180638D01*
X0035774Y0180140D02*
X0018613Y0180140D01*
X0018613Y0179641D02*
X0036474Y0179641D01*
X0085272Y0159202D02*
X0128705Y0159202D01*
X0128705Y0158704D02*
X0085771Y0158704D01*
X0086269Y0158205D02*
X0128705Y0158205D01*
X0128705Y0157707D02*
X0086768Y0157707D01*
X0087266Y0157208D02*
X0128705Y0157208D01*
X0128705Y0156710D02*
X0087765Y0156710D01*
X0088263Y0156211D02*
X0128705Y0156211D01*
X0128705Y0155713D02*
X0088762Y0155713D01*
X0089260Y0155214D02*
X0128705Y0155214D01*
X0128705Y0154716D02*
X0089759Y0154716D01*
X0090257Y0154217D02*
X0128705Y0154217D01*
X0128705Y0153719D02*
X0090756Y0153719D01*
X0091254Y0153220D02*
X0128705Y0153220D01*
X0128705Y0152722D02*
X0091753Y0152722D01*
X0092251Y0152223D02*
X0128705Y0152223D01*
X0128705Y0151725D02*
X0092750Y0151725D01*
X0093248Y0151226D02*
X0128705Y0151226D01*
X0128705Y0150728D02*
X0093747Y0150728D01*
X0094245Y0150229D02*
X0128705Y0150229D01*
X0128705Y0149731D02*
X0094744Y0149731D01*
X0094903Y0149232D02*
X0128705Y0149232D01*
X0128705Y0148733D02*
X0094903Y0148733D01*
X0094903Y0148235D02*
X0128705Y0148235D01*
X0128705Y0147736D02*
X0094903Y0147736D01*
X0094903Y0147238D02*
X0128705Y0147238D01*
X0128705Y0146739D02*
X0094903Y0146739D01*
X0094903Y0146241D02*
X0128705Y0146241D01*
X0128705Y0145742D02*
X0094903Y0145742D01*
X0094903Y0145244D02*
X0128705Y0145244D01*
X0128705Y0144745D02*
X0094903Y0144745D01*
X0094903Y0144247D02*
X0128705Y0144247D01*
X0128705Y0143748D02*
X0094903Y0143748D01*
X0094903Y0143250D02*
X0128705Y0143250D01*
X0128705Y0142751D02*
X0094903Y0142751D01*
X0094903Y0142253D02*
X0128705Y0142253D01*
X0128705Y0141754D02*
X0094903Y0141754D01*
X0095345Y0141256D02*
X0128705Y0141256D01*
X0128705Y0140757D02*
X0095843Y0140757D01*
X0096342Y0140259D02*
X0128705Y0140259D01*
X0128705Y0139760D02*
X0096840Y0139760D01*
X0097339Y0139262D02*
X0128705Y0139262D01*
X0128705Y0138763D02*
X0097837Y0138763D01*
X0098336Y0138265D02*
X0128705Y0138265D01*
X0128705Y0137766D02*
X0098834Y0137766D01*
X0099333Y0137268D02*
X0128705Y0137268D01*
X0128705Y0136769D02*
X0099831Y0136769D01*
X0100330Y0136271D02*
X0128705Y0136271D01*
X0128705Y0135772D02*
X0100828Y0135772D01*
X0101327Y0135274D02*
X0128705Y0135274D01*
X0128705Y0134775D02*
X0101825Y0134775D01*
X0102324Y0134277D02*
X0128705Y0134277D01*
X0128705Y0133778D02*
X0102822Y0133778D01*
X0103321Y0133280D02*
X0128521Y0133280D01*
X0128022Y0132781D02*
X0103819Y0132781D01*
X0104318Y0132283D02*
X0127716Y0132283D01*
X0127509Y0131784D02*
X0110404Y0131784D01*
X0110918Y0131286D02*
X0127420Y0131286D01*
X0127420Y0130787D02*
X0111370Y0130787D01*
X0111577Y0130289D02*
X0127484Y0130289D01*
X0127690Y0129790D02*
X0111783Y0129790D01*
X0111829Y0129292D02*
X0127960Y0129292D01*
X0128459Y0128793D02*
X0111829Y0128793D01*
X0111787Y0128295D02*
X0129393Y0128295D01*
X0131805Y0139262D02*
X0154035Y0139262D01*
X0154295Y0139760D02*
X0131805Y0139760D01*
X0131805Y0140259D02*
X0154295Y0140259D01*
X0154295Y0140757D02*
X0131805Y0140757D01*
X0131805Y0141256D02*
X0154295Y0141256D01*
X0154295Y0141754D02*
X0131805Y0141754D01*
X0131805Y0142253D02*
X0154295Y0142253D01*
X0154295Y0142751D02*
X0131805Y0142751D01*
X0131805Y0143250D02*
X0154295Y0143250D01*
X0154295Y0143748D02*
X0131805Y0143748D01*
X0131805Y0144247D02*
X0154295Y0144247D01*
X0154295Y0144745D02*
X0131805Y0144745D01*
X0131805Y0145244D02*
X0154295Y0145244D01*
X0154295Y0145742D02*
X0131805Y0145742D01*
X0131805Y0146241D02*
X0154295Y0146241D01*
X0154295Y0146739D02*
X0131805Y0146739D01*
X0131805Y0147238D02*
X0154295Y0147238D01*
X0154295Y0147736D02*
X0131805Y0147736D01*
X0131805Y0148235D02*
X0154295Y0148235D01*
X0154295Y0148733D02*
X0131805Y0148733D01*
X0131805Y0149232D02*
X0154295Y0149232D01*
X0154295Y0149731D02*
X0131805Y0149731D01*
X0131805Y0150229D02*
X0154295Y0150229D01*
X0154295Y0150728D02*
X0131805Y0150728D01*
X0131805Y0151226D02*
X0154295Y0151226D01*
X0154295Y0151725D02*
X0131805Y0151725D01*
X0131805Y0152223D02*
X0154295Y0152223D01*
X0154295Y0152722D02*
X0131805Y0152722D01*
X0131805Y0153220D02*
X0154295Y0153220D01*
X0154295Y0153719D02*
X0131805Y0153719D01*
X0131805Y0154217D02*
X0154295Y0154217D01*
X0154295Y0154716D02*
X0131805Y0154716D01*
X0131805Y0155214D02*
X0154295Y0155214D01*
X0154295Y0155713D02*
X0131805Y0155713D01*
X0131805Y0156211D02*
X0154295Y0156211D01*
X0154295Y0156710D02*
X0131805Y0156710D01*
X0131805Y0157208D02*
X0154295Y0157208D01*
X0154295Y0157707D02*
X0131805Y0157707D01*
X0131805Y0158205D02*
X0154295Y0158205D01*
X0154295Y0158704D02*
X0131805Y0158704D01*
X0131805Y0159202D02*
X0154295Y0159202D01*
X0154295Y0159701D02*
X0131805Y0159701D01*
X0131805Y0160199D02*
X0154295Y0160199D01*
X0154295Y0160698D02*
X0131805Y0160698D01*
X0131805Y0161196D02*
X0154295Y0161196D01*
X0154295Y0161695D02*
X0131805Y0161695D01*
X0131805Y0162193D02*
X0154295Y0162193D01*
X0154295Y0162692D02*
X0131805Y0162692D01*
X0131805Y0163190D02*
X0154295Y0163190D01*
X0154295Y0163689D02*
X0131805Y0163689D01*
X0132013Y0164187D02*
X0154295Y0164187D01*
X0154295Y0164686D02*
X0132412Y0164686D01*
X0132811Y0165184D02*
X0154295Y0165184D01*
X0154295Y0165683D02*
X0133210Y0165683D01*
X0133609Y0166181D02*
X0154295Y0166181D01*
X0154295Y0166680D02*
X0134007Y0166680D01*
X0134406Y0167178D02*
X0154295Y0167178D01*
X0154295Y0167677D02*
X0134805Y0167677D01*
X0135204Y0168175D02*
X0154295Y0168175D01*
X0154295Y0168674D02*
X0135603Y0168674D01*
X0136002Y0169172D02*
X0154295Y0169172D01*
X0154295Y0169671D02*
X0136400Y0169671D01*
X0136799Y0170169D02*
X0154295Y0170169D01*
X0154295Y0170668D02*
X0137198Y0170668D01*
X0137597Y0171166D02*
X0154295Y0171166D01*
X0154295Y0171665D02*
X0139143Y0171665D01*
X0139988Y0172164D02*
X0154295Y0172164D01*
X0154295Y0172662D02*
X0140486Y0172662D01*
X0140719Y0173161D02*
X0154295Y0173161D01*
X0154295Y0173659D02*
X0140926Y0173659D01*
X0140963Y0174158D02*
X0154295Y0174158D01*
X0154295Y0174656D02*
X0140963Y0174656D01*
X0140848Y0175155D02*
X0154295Y0175155D01*
X0154295Y0175653D02*
X0140641Y0175653D01*
X0140298Y0176152D02*
X0154295Y0176152D01*
X0154295Y0176650D02*
X0139799Y0176650D01*
X0141122Y0177149D02*
X0154295Y0177149D01*
X0154295Y0177647D02*
X0142091Y0177647D01*
X0142590Y0178146D02*
X0154295Y0178146D01*
X0154295Y0178644D02*
X0142939Y0178644D01*
X0143146Y0179143D02*
X0154295Y0179143D01*
X0154230Y0179641D02*
X0143325Y0179641D01*
X0143325Y0180140D02*
X0153732Y0180140D01*
X0153233Y0180638D02*
X0143325Y0180638D01*
X0143211Y0181137D02*
X0152735Y0181137D01*
X0152236Y0181635D02*
X0143004Y0181635D01*
X0142747Y0182134D02*
X0151738Y0182134D01*
X0151080Y0131784D02*
X0150942Y0131784D01*
X0151990Y0107856D02*
X0159219Y0107856D01*
X0159219Y0108354D02*
X0157325Y0108354D01*
X0158848Y0108853D02*
X0159219Y0108853D01*
X0159219Y0107357D02*
X0151990Y0107357D01*
X0151990Y0106859D02*
X0159219Y0106859D01*
X0159219Y0106360D02*
X0151990Y0106360D01*
X0151990Y0105862D02*
X0159219Y0105862D01*
X0159219Y0105363D02*
X0151990Y0105363D01*
X0151990Y0104864D02*
X0159219Y0104864D01*
X0159219Y0104366D02*
X0151990Y0104366D01*
X0151990Y0103867D02*
X0159219Y0103867D01*
X0159219Y0103369D02*
X0151990Y0103369D01*
X0151990Y0102870D02*
X0159219Y0102870D01*
X0159219Y0102372D02*
X0151990Y0102372D01*
X0151990Y0101873D02*
X0159219Y0101873D01*
X0159219Y0101375D02*
X0151990Y0101375D01*
X0151760Y0100876D02*
X0159219Y0100876D01*
X0144182Y0100876D02*
X0131918Y0100876D01*
X0132305Y0101375D02*
X0143953Y0101375D01*
X0143953Y0101873D02*
X0132305Y0101873D01*
X0132305Y0102372D02*
X0143953Y0102372D01*
X0143953Y0102870D02*
X0132305Y0102870D01*
X0132305Y0103369D02*
X0143953Y0103369D01*
X0143953Y0103867D02*
X0132305Y0103867D01*
X0132305Y0104366D02*
X0143953Y0104366D01*
X0143953Y0104864D02*
X0132305Y0104864D01*
X0132305Y0105363D02*
X0143953Y0105363D01*
X0143953Y0105862D02*
X0132305Y0105862D01*
X0132305Y0106360D02*
X0143929Y0106360D01*
X0143430Y0106859D02*
X0132305Y0106859D01*
X0132305Y0107357D02*
X0142932Y0107357D01*
X0142433Y0107856D02*
X0132305Y0107856D01*
X0132021Y0108354D02*
X0141935Y0108354D01*
X0108449Y0122312D02*
X0090675Y0122312D01*
X0091718Y0122811D02*
X0107950Y0122811D01*
X0107452Y0123309D02*
X0092216Y0123309D01*
X0092308Y0126799D02*
X0106274Y0126799D01*
X0106285Y0131286D02*
X0105315Y0131286D01*
X0104816Y0131784D02*
X0106798Y0131784D01*
X0081239Y0091903D02*
X0080624Y0091903D01*
X0080624Y0091405D02*
X0080740Y0091405D01*
X0080754Y0087915D02*
X0080624Y0087915D01*
X0080624Y0087417D02*
X0081253Y0087417D01*
X0081461Y0086918D02*
X0080624Y0086918D01*
X0080624Y0086420D02*
X0081461Y0086420D01*
X0081461Y0085921D02*
X0080624Y0085921D01*
X0080624Y0085423D02*
X0081461Y0085423D01*
X0081461Y0084924D02*
X0080624Y0084924D01*
X0080624Y0084426D02*
X0081461Y0084426D01*
X0081461Y0083927D02*
X0080624Y0083927D01*
X0080624Y0083429D02*
X0081461Y0083429D01*
X0081461Y0082930D02*
X0080624Y0082930D01*
X0080624Y0082431D02*
X0081461Y0082431D01*
X0081461Y0081933D02*
X0080624Y0081933D01*
X0080624Y0081434D02*
X0081461Y0081434D01*
X0081461Y0080936D02*
X0080624Y0080936D01*
X0080624Y0080437D02*
X0081461Y0080437D01*
X0081461Y0079939D02*
X0080624Y0079939D01*
X0080624Y0079440D02*
X0081461Y0079440D01*
X0081461Y0078942D02*
X0080624Y0078942D01*
X0080624Y0078443D02*
X0081461Y0078443D01*
X0081461Y0077945D02*
X0080624Y0077945D01*
X0080624Y0077446D02*
X0081461Y0077446D01*
X0081461Y0076948D02*
X0080624Y0076948D01*
X0080624Y0076449D02*
X0081461Y0076449D01*
X0081461Y0075951D02*
X0080624Y0075951D01*
X0080624Y0075452D02*
X0081461Y0075452D01*
X0081461Y0074954D02*
X0080624Y0074954D01*
X0080624Y0074455D02*
X0081461Y0074455D01*
X0081461Y0073957D02*
X0080624Y0073957D01*
X0080624Y0073458D02*
X0081461Y0073458D01*
X0081778Y0072960D02*
X0080624Y0072960D01*
X0080624Y0072461D02*
X0082145Y0072461D01*
X0082145Y0071963D02*
X0080624Y0071963D01*
X0080624Y0071464D02*
X0082145Y0071464D01*
X0082319Y0070966D02*
X0080624Y0070966D01*
X0080624Y0070467D02*
X0082526Y0070467D01*
X0082953Y0069969D02*
X0080624Y0069969D01*
X0080624Y0069470D02*
X0083561Y0069470D01*
X0073587Y0063987D02*
X0073149Y0063987D01*
X0073587Y0063488D02*
X0072433Y0063488D01*
D17*
X0108601Y0129037D03*
X0140097Y0180218D03*
X0061357Y0180218D03*
X0047578Y0134943D03*
D18*
X0047578Y0166439D01*
X0061357Y0180218D01*
X0082026Y0159549D01*
X0102696Y0180218D01*
X0140097Y0180218D01*
X0108601Y0129037D02*
X0104664Y0129037D01*
X0092853Y0140848D01*
X0092853Y0148722D01*
X0082026Y0159549D01*
M02*
