G75*
%MOIN*%
%OFA0B0*%
%FSLAX25Y25*%
%IPPOS*%
%LPD*%
%AMOC8*
5,1,8,0,0,1.08239X$1,22.5*
%
%ADD10C,0.16548*%
%ADD11R,0.06706X0.06312*%
%ADD12R,0.05906X0.05512*%
%ADD13R,0.06312X0.06706*%
%ADD14R,0.05512X0.05906*%
%ADD15R,0.16548X0.04737*%
%ADD16R,0.15748X0.03937*%
%ADD17R,0.06737X0.06737*%
%ADD18OC8,0.06737*%
%ADD19R,0.11548X0.11548*%
%ADD20OC8,0.11548*%
%ADD21R,0.04737X0.02178*%
%ADD22R,0.03937X0.01378*%
%ADD23R,0.09658X0.03753*%
%ADD24R,0.08858X0.02953*%
%ADD25R,0.13595X0.09265*%
%ADD26R,0.12795X0.08465*%
%ADD27R,0.04540X0.09265*%
%ADD28R,0.03740X0.08465*%
%ADD29C,0.04369*%
%ADD30C,0.05156*%
D10*
X0063326Y0041635D03*
X0031830Y0120376D03*
X0090885Y0193998D03*
X0153877Y0119982D03*
D11*
X0147971Y0081891D03*
X0147971Y0073821D03*
X0138129Y0073821D03*
X0138129Y0081891D03*
X0059389Y0074017D03*
X0059389Y0065946D03*
X0049546Y0065946D03*
X0049546Y0074017D03*
D12*
X0049546Y0074017D03*
X0049546Y0065946D03*
X0059389Y0065946D03*
X0059389Y0074017D03*
X0138129Y0073821D03*
X0138129Y0081891D03*
X0147971Y0081891D03*
X0147971Y0073821D03*
D13*
X0098070Y0097541D03*
X0098070Y0107384D03*
X0089999Y0107384D03*
X0089999Y0097541D03*
X0089999Y0117226D03*
X0098070Y0117226D03*
X0057518Y0056990D03*
X0049448Y0056990D03*
D14*
X0049448Y0056990D03*
X0057518Y0056990D03*
X0089999Y0097541D03*
X0089999Y0107384D03*
X0098070Y0107384D03*
X0098070Y0097541D03*
X0098070Y0117226D03*
X0089999Y0117226D03*
D15*
X0057420Y0099509D03*
X0029861Y0099509D03*
D16*
X0029861Y0099509D03*
X0057420Y0099509D03*
D17*
X0122932Y0041596D03*
X0142026Y0043210D03*
X0147971Y0104509D03*
X0128286Y0104667D03*
X0113286Y0197935D03*
X0034546Y0197935D03*
D18*
X0044546Y0197935D03*
X0054546Y0197935D03*
X0064546Y0197935D03*
X0123286Y0197935D03*
X0133286Y0197935D03*
X0143286Y0197935D03*
X0147971Y0094509D03*
X0128286Y0094667D03*
X0128286Y0084667D03*
X0128286Y0074667D03*
X0142026Y0061793D03*
X0112932Y0041596D03*
X0102932Y0041596D03*
X0092932Y0041596D03*
X0082932Y0041596D03*
D19*
X0024782Y0042423D03*
D20*
X0042814Y0042423D03*
D21*
X0091869Y0055080D03*
X0091869Y0057639D03*
X0091869Y0060198D03*
X0091869Y0062758D03*
X0091869Y0065317D03*
X0091869Y0067876D03*
X0091869Y0070435D03*
X0091869Y0072994D03*
X0091869Y0075553D03*
X0091869Y0078112D03*
X0091869Y0080671D03*
X0091869Y0083230D03*
X0091869Y0085789D03*
X0091869Y0088348D03*
X0115491Y0088348D03*
X0115491Y0085789D03*
X0115491Y0083230D03*
X0115491Y0080671D03*
X0115491Y0078112D03*
X0115491Y0075553D03*
X0115491Y0072994D03*
X0115491Y0070435D03*
X0115491Y0067876D03*
X0115491Y0065317D03*
X0115491Y0062758D03*
X0115491Y0060198D03*
X0115491Y0057639D03*
X0115491Y0055080D03*
D22*
X0115491Y0055080D03*
X0115491Y0057639D03*
X0115491Y0060198D03*
X0115491Y0062758D03*
X0115491Y0065317D03*
X0115491Y0067876D03*
X0115491Y0070435D03*
X0115491Y0072994D03*
X0115491Y0075553D03*
X0115491Y0078112D03*
X0115491Y0080671D03*
X0115491Y0083230D03*
X0115491Y0085789D03*
X0115491Y0088348D03*
X0091869Y0088348D03*
X0091869Y0085789D03*
X0091869Y0083230D03*
X0091869Y0080671D03*
X0091869Y0078112D03*
X0091869Y0075553D03*
X0091869Y0072994D03*
X0091869Y0070435D03*
X0091869Y0067876D03*
X0091869Y0065317D03*
X0091869Y0062758D03*
X0091869Y0060198D03*
X0091869Y0057639D03*
X0091869Y0055080D03*
D23*
X0108857Y0134096D03*
X0108857Y0139096D03*
X0108857Y0144096D03*
X0108857Y0149096D03*
X0108857Y0154096D03*
X0108857Y0159096D03*
X0108857Y0164096D03*
X0108857Y0169096D03*
X0108857Y0174096D03*
X0108857Y0179096D03*
X0147715Y0179096D03*
X0147715Y0174096D03*
X0147715Y0169096D03*
X0147715Y0164096D03*
X0147715Y0159096D03*
X0147715Y0154096D03*
X0147715Y0149096D03*
X0147715Y0144096D03*
X0147715Y0139096D03*
X0147715Y0134096D03*
X0068975Y0134096D03*
X0068975Y0139096D03*
X0068975Y0144096D03*
X0068975Y0149096D03*
X0068975Y0154096D03*
X0068975Y0159096D03*
X0068975Y0164096D03*
X0068975Y0169096D03*
X0068975Y0174096D03*
X0068975Y0179096D03*
X0030117Y0179096D03*
X0030117Y0174096D03*
X0030117Y0169096D03*
X0030117Y0164096D03*
X0030117Y0159096D03*
X0030117Y0154096D03*
X0030117Y0149096D03*
X0030117Y0144096D03*
X0030117Y0139096D03*
X0030117Y0134096D03*
D24*
X0030117Y0134096D03*
X0030117Y0139096D03*
X0030117Y0144096D03*
X0030117Y0149096D03*
X0030117Y0154096D03*
X0030117Y0159096D03*
X0030117Y0164096D03*
X0030117Y0169096D03*
X0030117Y0174096D03*
X0030117Y0179096D03*
X0068975Y0179096D03*
X0068975Y0174096D03*
X0068975Y0169096D03*
X0068975Y0164096D03*
X0068975Y0159096D03*
X0068975Y0154096D03*
X0068975Y0149096D03*
X0068975Y0144096D03*
X0068975Y0139096D03*
X0068975Y0134096D03*
X0108857Y0134096D03*
X0108857Y0139096D03*
X0108857Y0144096D03*
X0108857Y0149096D03*
X0108857Y0154096D03*
X0108857Y0159096D03*
X0108857Y0164096D03*
X0108857Y0169096D03*
X0108857Y0174096D03*
X0108857Y0179096D03*
X0147715Y0179096D03*
X0147715Y0174096D03*
X0147715Y0169096D03*
X0147715Y0164096D03*
X0147715Y0159096D03*
X0147715Y0154096D03*
X0147715Y0149096D03*
X0147715Y0144096D03*
X0147715Y0139096D03*
X0147715Y0134096D03*
D25*
X0029861Y0058565D03*
D26*
X0029861Y0058565D03*
D27*
X0029861Y0081399D03*
X0038916Y0081399D03*
X0020806Y0081399D03*
D28*
X0020806Y0081399D03*
X0029861Y0081399D03*
X0038916Y0081399D03*
D29*
X0071200Y0066045D03*
X0075137Y0056202D03*
X0079074Y0058171D03*
X0084979Y0071950D03*
X0083011Y0089667D03*
X0098759Y0089667D03*
X0118444Y0099509D03*
X0130255Y0131006D03*
X0140097Y0132974D03*
X0140097Y0156596D03*
X0138129Y0174313D03*
X0118444Y0156596D03*
X0089999Y0125100D03*
X0077105Y0138880D03*
X0075137Y0156596D03*
X0061357Y0174313D03*
X0075137Y0186124D03*
X0039704Y0156596D03*
X0023955Y0138880D03*
X0037735Y0182187D03*
D30*
X0061357Y0180218D03*
X0047578Y0134943D03*
X0108601Y0129037D03*
X0140097Y0180218D03*
M02*
