%
M48
M72
T01C0.01969
T02C0.02756
T03C0.03937
T04C0.07165
T05C0.15748
%
T01
X71200Y66045
X75137Y56202
X79074Y58171
X84979Y71950
X83011Y89667
X98759Y89667
X118444Y99509
X130255Y131006
X140097Y132974
X140097Y156596
X138129Y174313
X118444Y156596
X89999Y125100
X77105Y138880
X75137Y156596
X61357Y174313
X75137Y186124
X39704Y156596
X23955Y138880
X37735Y182187
T02
X61357Y180218
X47578Y134943
X108601Y129037
X140097Y180218
T03
X143286Y197935
X133286Y197935
X123286Y197935
X113286Y197935
X64546Y197935
X54546Y197935
X44546Y197935
X34546Y197935
X128286Y104667
X128286Y94667
X128286Y84667
X128286Y74667
X142026Y61793
X142026Y43210
X122932Y41596
X112932Y41596
X102932Y41596
X92932Y41596
X82932Y41596
X147971Y94509
X147971Y104509
T04
X24782Y42423
X42814Y42423
T05
X63326Y41635
X31830Y120376
X90885Y193998
X153877Y119982
M30
