G75*
%MOIN*%
%OFA0B0*%
%FSLAX25Y25*%
%IPPOS*%
%LPD*%
%AMOC8*
5,1,8,0,0,1.08239X$1,22.5*
%
%ADD10C,0.00500*%
%ADD11C,0.00000*%
%ADD12C,0.00300*%
D10*
X0014113Y0032580D02*
X0014113Y0203840D01*
X0163719Y0203840D01*
X0163719Y0032580D01*
X0014113Y0032580D01*
D11*
X0055452Y0041635D02*
X0055454Y0041828D01*
X0055461Y0042021D01*
X0055473Y0042214D01*
X0055490Y0042407D01*
X0055511Y0042599D01*
X0055537Y0042790D01*
X0055568Y0042981D01*
X0055603Y0043171D01*
X0055643Y0043360D01*
X0055688Y0043548D01*
X0055737Y0043735D01*
X0055791Y0043921D01*
X0055849Y0044105D01*
X0055912Y0044288D01*
X0055980Y0044469D01*
X0056051Y0044648D01*
X0056128Y0044826D01*
X0056208Y0045002D01*
X0056293Y0045175D01*
X0056382Y0045347D01*
X0056475Y0045516D01*
X0056572Y0045683D01*
X0056674Y0045848D01*
X0056779Y0046010D01*
X0056888Y0046169D01*
X0057002Y0046326D01*
X0057119Y0046479D01*
X0057239Y0046630D01*
X0057364Y0046778D01*
X0057492Y0046923D01*
X0057623Y0047064D01*
X0057758Y0047203D01*
X0057897Y0047338D01*
X0058038Y0047469D01*
X0058183Y0047597D01*
X0058331Y0047722D01*
X0058482Y0047842D01*
X0058635Y0047959D01*
X0058792Y0048073D01*
X0058951Y0048182D01*
X0059113Y0048287D01*
X0059278Y0048389D01*
X0059445Y0048486D01*
X0059614Y0048579D01*
X0059786Y0048668D01*
X0059959Y0048753D01*
X0060135Y0048833D01*
X0060313Y0048910D01*
X0060492Y0048981D01*
X0060673Y0049049D01*
X0060856Y0049112D01*
X0061040Y0049170D01*
X0061226Y0049224D01*
X0061413Y0049273D01*
X0061601Y0049318D01*
X0061790Y0049358D01*
X0061980Y0049393D01*
X0062171Y0049424D01*
X0062362Y0049450D01*
X0062554Y0049471D01*
X0062747Y0049488D01*
X0062940Y0049500D01*
X0063133Y0049507D01*
X0063326Y0049509D01*
X0063519Y0049507D01*
X0063712Y0049500D01*
X0063905Y0049488D01*
X0064098Y0049471D01*
X0064290Y0049450D01*
X0064481Y0049424D01*
X0064672Y0049393D01*
X0064862Y0049358D01*
X0065051Y0049318D01*
X0065239Y0049273D01*
X0065426Y0049224D01*
X0065612Y0049170D01*
X0065796Y0049112D01*
X0065979Y0049049D01*
X0066160Y0048981D01*
X0066339Y0048910D01*
X0066517Y0048833D01*
X0066693Y0048753D01*
X0066866Y0048668D01*
X0067038Y0048579D01*
X0067207Y0048486D01*
X0067374Y0048389D01*
X0067539Y0048287D01*
X0067701Y0048182D01*
X0067860Y0048073D01*
X0068017Y0047959D01*
X0068170Y0047842D01*
X0068321Y0047722D01*
X0068469Y0047597D01*
X0068614Y0047469D01*
X0068755Y0047338D01*
X0068894Y0047203D01*
X0069029Y0047064D01*
X0069160Y0046923D01*
X0069288Y0046778D01*
X0069413Y0046630D01*
X0069533Y0046479D01*
X0069650Y0046326D01*
X0069764Y0046169D01*
X0069873Y0046010D01*
X0069978Y0045848D01*
X0070080Y0045683D01*
X0070177Y0045516D01*
X0070270Y0045347D01*
X0070359Y0045175D01*
X0070444Y0045002D01*
X0070524Y0044826D01*
X0070601Y0044648D01*
X0070672Y0044469D01*
X0070740Y0044288D01*
X0070803Y0044105D01*
X0070861Y0043921D01*
X0070915Y0043735D01*
X0070964Y0043548D01*
X0071009Y0043360D01*
X0071049Y0043171D01*
X0071084Y0042981D01*
X0071115Y0042790D01*
X0071141Y0042599D01*
X0071162Y0042407D01*
X0071179Y0042214D01*
X0071191Y0042021D01*
X0071198Y0041828D01*
X0071200Y0041635D01*
X0071198Y0041442D01*
X0071191Y0041249D01*
X0071179Y0041056D01*
X0071162Y0040863D01*
X0071141Y0040671D01*
X0071115Y0040480D01*
X0071084Y0040289D01*
X0071049Y0040099D01*
X0071009Y0039910D01*
X0070964Y0039722D01*
X0070915Y0039535D01*
X0070861Y0039349D01*
X0070803Y0039165D01*
X0070740Y0038982D01*
X0070672Y0038801D01*
X0070601Y0038622D01*
X0070524Y0038444D01*
X0070444Y0038268D01*
X0070359Y0038095D01*
X0070270Y0037923D01*
X0070177Y0037754D01*
X0070080Y0037587D01*
X0069978Y0037422D01*
X0069873Y0037260D01*
X0069764Y0037101D01*
X0069650Y0036944D01*
X0069533Y0036791D01*
X0069413Y0036640D01*
X0069288Y0036492D01*
X0069160Y0036347D01*
X0069029Y0036206D01*
X0068894Y0036067D01*
X0068755Y0035932D01*
X0068614Y0035801D01*
X0068469Y0035673D01*
X0068321Y0035548D01*
X0068170Y0035428D01*
X0068017Y0035311D01*
X0067860Y0035197D01*
X0067701Y0035088D01*
X0067539Y0034983D01*
X0067374Y0034881D01*
X0067207Y0034784D01*
X0067038Y0034691D01*
X0066866Y0034602D01*
X0066693Y0034517D01*
X0066517Y0034437D01*
X0066339Y0034360D01*
X0066160Y0034289D01*
X0065979Y0034221D01*
X0065796Y0034158D01*
X0065612Y0034100D01*
X0065426Y0034046D01*
X0065239Y0033997D01*
X0065051Y0033952D01*
X0064862Y0033912D01*
X0064672Y0033877D01*
X0064481Y0033846D01*
X0064290Y0033820D01*
X0064098Y0033799D01*
X0063905Y0033782D01*
X0063712Y0033770D01*
X0063519Y0033763D01*
X0063326Y0033761D01*
X0063133Y0033763D01*
X0062940Y0033770D01*
X0062747Y0033782D01*
X0062554Y0033799D01*
X0062362Y0033820D01*
X0062171Y0033846D01*
X0061980Y0033877D01*
X0061790Y0033912D01*
X0061601Y0033952D01*
X0061413Y0033997D01*
X0061226Y0034046D01*
X0061040Y0034100D01*
X0060856Y0034158D01*
X0060673Y0034221D01*
X0060492Y0034289D01*
X0060313Y0034360D01*
X0060135Y0034437D01*
X0059959Y0034517D01*
X0059786Y0034602D01*
X0059614Y0034691D01*
X0059445Y0034784D01*
X0059278Y0034881D01*
X0059113Y0034983D01*
X0058951Y0035088D01*
X0058792Y0035197D01*
X0058635Y0035311D01*
X0058482Y0035428D01*
X0058331Y0035548D01*
X0058183Y0035673D01*
X0058038Y0035801D01*
X0057897Y0035932D01*
X0057758Y0036067D01*
X0057623Y0036206D01*
X0057492Y0036347D01*
X0057364Y0036492D01*
X0057239Y0036640D01*
X0057119Y0036791D01*
X0057002Y0036944D01*
X0056888Y0037101D01*
X0056779Y0037260D01*
X0056674Y0037422D01*
X0056572Y0037587D01*
X0056475Y0037754D01*
X0056382Y0037923D01*
X0056293Y0038095D01*
X0056208Y0038268D01*
X0056128Y0038444D01*
X0056051Y0038622D01*
X0055980Y0038801D01*
X0055912Y0038982D01*
X0055849Y0039165D01*
X0055791Y0039349D01*
X0055737Y0039535D01*
X0055688Y0039722D01*
X0055643Y0039910D01*
X0055603Y0040099D01*
X0055568Y0040289D01*
X0055537Y0040480D01*
X0055511Y0040671D01*
X0055490Y0040863D01*
X0055473Y0041056D01*
X0055461Y0041249D01*
X0055454Y0041442D01*
X0055452Y0041635D01*
X0023956Y0120376D02*
X0023958Y0120569D01*
X0023965Y0120762D01*
X0023977Y0120955D01*
X0023994Y0121148D01*
X0024015Y0121340D01*
X0024041Y0121531D01*
X0024072Y0121722D01*
X0024107Y0121912D01*
X0024147Y0122101D01*
X0024192Y0122289D01*
X0024241Y0122476D01*
X0024295Y0122662D01*
X0024353Y0122846D01*
X0024416Y0123029D01*
X0024484Y0123210D01*
X0024555Y0123389D01*
X0024632Y0123567D01*
X0024712Y0123743D01*
X0024797Y0123916D01*
X0024886Y0124088D01*
X0024979Y0124257D01*
X0025076Y0124424D01*
X0025178Y0124589D01*
X0025283Y0124751D01*
X0025392Y0124910D01*
X0025506Y0125067D01*
X0025623Y0125220D01*
X0025743Y0125371D01*
X0025868Y0125519D01*
X0025996Y0125664D01*
X0026127Y0125805D01*
X0026262Y0125944D01*
X0026401Y0126079D01*
X0026542Y0126210D01*
X0026687Y0126338D01*
X0026835Y0126463D01*
X0026986Y0126583D01*
X0027139Y0126700D01*
X0027296Y0126814D01*
X0027455Y0126923D01*
X0027617Y0127028D01*
X0027782Y0127130D01*
X0027949Y0127227D01*
X0028118Y0127320D01*
X0028290Y0127409D01*
X0028463Y0127494D01*
X0028639Y0127574D01*
X0028817Y0127651D01*
X0028996Y0127722D01*
X0029177Y0127790D01*
X0029360Y0127853D01*
X0029544Y0127911D01*
X0029730Y0127965D01*
X0029917Y0128014D01*
X0030105Y0128059D01*
X0030294Y0128099D01*
X0030484Y0128134D01*
X0030675Y0128165D01*
X0030866Y0128191D01*
X0031058Y0128212D01*
X0031251Y0128229D01*
X0031444Y0128241D01*
X0031637Y0128248D01*
X0031830Y0128250D01*
X0032023Y0128248D01*
X0032216Y0128241D01*
X0032409Y0128229D01*
X0032602Y0128212D01*
X0032794Y0128191D01*
X0032985Y0128165D01*
X0033176Y0128134D01*
X0033366Y0128099D01*
X0033555Y0128059D01*
X0033743Y0128014D01*
X0033930Y0127965D01*
X0034116Y0127911D01*
X0034300Y0127853D01*
X0034483Y0127790D01*
X0034664Y0127722D01*
X0034843Y0127651D01*
X0035021Y0127574D01*
X0035197Y0127494D01*
X0035370Y0127409D01*
X0035542Y0127320D01*
X0035711Y0127227D01*
X0035878Y0127130D01*
X0036043Y0127028D01*
X0036205Y0126923D01*
X0036364Y0126814D01*
X0036521Y0126700D01*
X0036674Y0126583D01*
X0036825Y0126463D01*
X0036973Y0126338D01*
X0037118Y0126210D01*
X0037259Y0126079D01*
X0037398Y0125944D01*
X0037533Y0125805D01*
X0037664Y0125664D01*
X0037792Y0125519D01*
X0037917Y0125371D01*
X0038037Y0125220D01*
X0038154Y0125067D01*
X0038268Y0124910D01*
X0038377Y0124751D01*
X0038482Y0124589D01*
X0038584Y0124424D01*
X0038681Y0124257D01*
X0038774Y0124088D01*
X0038863Y0123916D01*
X0038948Y0123743D01*
X0039028Y0123567D01*
X0039105Y0123389D01*
X0039176Y0123210D01*
X0039244Y0123029D01*
X0039307Y0122846D01*
X0039365Y0122662D01*
X0039419Y0122476D01*
X0039468Y0122289D01*
X0039513Y0122101D01*
X0039553Y0121912D01*
X0039588Y0121722D01*
X0039619Y0121531D01*
X0039645Y0121340D01*
X0039666Y0121148D01*
X0039683Y0120955D01*
X0039695Y0120762D01*
X0039702Y0120569D01*
X0039704Y0120376D01*
X0039702Y0120183D01*
X0039695Y0119990D01*
X0039683Y0119797D01*
X0039666Y0119604D01*
X0039645Y0119412D01*
X0039619Y0119221D01*
X0039588Y0119030D01*
X0039553Y0118840D01*
X0039513Y0118651D01*
X0039468Y0118463D01*
X0039419Y0118276D01*
X0039365Y0118090D01*
X0039307Y0117906D01*
X0039244Y0117723D01*
X0039176Y0117542D01*
X0039105Y0117363D01*
X0039028Y0117185D01*
X0038948Y0117009D01*
X0038863Y0116836D01*
X0038774Y0116664D01*
X0038681Y0116495D01*
X0038584Y0116328D01*
X0038482Y0116163D01*
X0038377Y0116001D01*
X0038268Y0115842D01*
X0038154Y0115685D01*
X0038037Y0115532D01*
X0037917Y0115381D01*
X0037792Y0115233D01*
X0037664Y0115088D01*
X0037533Y0114947D01*
X0037398Y0114808D01*
X0037259Y0114673D01*
X0037118Y0114542D01*
X0036973Y0114414D01*
X0036825Y0114289D01*
X0036674Y0114169D01*
X0036521Y0114052D01*
X0036364Y0113938D01*
X0036205Y0113829D01*
X0036043Y0113724D01*
X0035878Y0113622D01*
X0035711Y0113525D01*
X0035542Y0113432D01*
X0035370Y0113343D01*
X0035197Y0113258D01*
X0035021Y0113178D01*
X0034843Y0113101D01*
X0034664Y0113030D01*
X0034483Y0112962D01*
X0034300Y0112899D01*
X0034116Y0112841D01*
X0033930Y0112787D01*
X0033743Y0112738D01*
X0033555Y0112693D01*
X0033366Y0112653D01*
X0033176Y0112618D01*
X0032985Y0112587D01*
X0032794Y0112561D01*
X0032602Y0112540D01*
X0032409Y0112523D01*
X0032216Y0112511D01*
X0032023Y0112504D01*
X0031830Y0112502D01*
X0031637Y0112504D01*
X0031444Y0112511D01*
X0031251Y0112523D01*
X0031058Y0112540D01*
X0030866Y0112561D01*
X0030675Y0112587D01*
X0030484Y0112618D01*
X0030294Y0112653D01*
X0030105Y0112693D01*
X0029917Y0112738D01*
X0029730Y0112787D01*
X0029544Y0112841D01*
X0029360Y0112899D01*
X0029177Y0112962D01*
X0028996Y0113030D01*
X0028817Y0113101D01*
X0028639Y0113178D01*
X0028463Y0113258D01*
X0028290Y0113343D01*
X0028118Y0113432D01*
X0027949Y0113525D01*
X0027782Y0113622D01*
X0027617Y0113724D01*
X0027455Y0113829D01*
X0027296Y0113938D01*
X0027139Y0114052D01*
X0026986Y0114169D01*
X0026835Y0114289D01*
X0026687Y0114414D01*
X0026542Y0114542D01*
X0026401Y0114673D01*
X0026262Y0114808D01*
X0026127Y0114947D01*
X0025996Y0115088D01*
X0025868Y0115233D01*
X0025743Y0115381D01*
X0025623Y0115532D01*
X0025506Y0115685D01*
X0025392Y0115842D01*
X0025283Y0116001D01*
X0025178Y0116163D01*
X0025076Y0116328D01*
X0024979Y0116495D01*
X0024886Y0116664D01*
X0024797Y0116836D01*
X0024712Y0117009D01*
X0024632Y0117185D01*
X0024555Y0117363D01*
X0024484Y0117542D01*
X0024416Y0117723D01*
X0024353Y0117906D01*
X0024295Y0118090D01*
X0024241Y0118276D01*
X0024192Y0118463D01*
X0024147Y0118651D01*
X0024107Y0118840D01*
X0024072Y0119030D01*
X0024041Y0119221D01*
X0024015Y0119412D01*
X0023994Y0119604D01*
X0023977Y0119797D01*
X0023965Y0119990D01*
X0023958Y0120183D01*
X0023956Y0120376D01*
X0083011Y0193998D02*
X0083013Y0194191D01*
X0083020Y0194384D01*
X0083032Y0194577D01*
X0083049Y0194770D01*
X0083070Y0194962D01*
X0083096Y0195153D01*
X0083127Y0195344D01*
X0083162Y0195534D01*
X0083202Y0195723D01*
X0083247Y0195911D01*
X0083296Y0196098D01*
X0083350Y0196284D01*
X0083408Y0196468D01*
X0083471Y0196651D01*
X0083539Y0196832D01*
X0083610Y0197011D01*
X0083687Y0197189D01*
X0083767Y0197365D01*
X0083852Y0197538D01*
X0083941Y0197710D01*
X0084034Y0197879D01*
X0084131Y0198046D01*
X0084233Y0198211D01*
X0084338Y0198373D01*
X0084447Y0198532D01*
X0084561Y0198689D01*
X0084678Y0198842D01*
X0084798Y0198993D01*
X0084923Y0199141D01*
X0085051Y0199286D01*
X0085182Y0199427D01*
X0085317Y0199566D01*
X0085456Y0199701D01*
X0085597Y0199832D01*
X0085742Y0199960D01*
X0085890Y0200085D01*
X0086041Y0200205D01*
X0086194Y0200322D01*
X0086351Y0200436D01*
X0086510Y0200545D01*
X0086672Y0200650D01*
X0086837Y0200752D01*
X0087004Y0200849D01*
X0087173Y0200942D01*
X0087345Y0201031D01*
X0087518Y0201116D01*
X0087694Y0201196D01*
X0087872Y0201273D01*
X0088051Y0201344D01*
X0088232Y0201412D01*
X0088415Y0201475D01*
X0088599Y0201533D01*
X0088785Y0201587D01*
X0088972Y0201636D01*
X0089160Y0201681D01*
X0089349Y0201721D01*
X0089539Y0201756D01*
X0089730Y0201787D01*
X0089921Y0201813D01*
X0090113Y0201834D01*
X0090306Y0201851D01*
X0090499Y0201863D01*
X0090692Y0201870D01*
X0090885Y0201872D01*
X0091078Y0201870D01*
X0091271Y0201863D01*
X0091464Y0201851D01*
X0091657Y0201834D01*
X0091849Y0201813D01*
X0092040Y0201787D01*
X0092231Y0201756D01*
X0092421Y0201721D01*
X0092610Y0201681D01*
X0092798Y0201636D01*
X0092985Y0201587D01*
X0093171Y0201533D01*
X0093355Y0201475D01*
X0093538Y0201412D01*
X0093719Y0201344D01*
X0093898Y0201273D01*
X0094076Y0201196D01*
X0094252Y0201116D01*
X0094425Y0201031D01*
X0094597Y0200942D01*
X0094766Y0200849D01*
X0094933Y0200752D01*
X0095098Y0200650D01*
X0095260Y0200545D01*
X0095419Y0200436D01*
X0095576Y0200322D01*
X0095729Y0200205D01*
X0095880Y0200085D01*
X0096028Y0199960D01*
X0096173Y0199832D01*
X0096314Y0199701D01*
X0096453Y0199566D01*
X0096588Y0199427D01*
X0096719Y0199286D01*
X0096847Y0199141D01*
X0096972Y0198993D01*
X0097092Y0198842D01*
X0097209Y0198689D01*
X0097323Y0198532D01*
X0097432Y0198373D01*
X0097537Y0198211D01*
X0097639Y0198046D01*
X0097736Y0197879D01*
X0097829Y0197710D01*
X0097918Y0197538D01*
X0098003Y0197365D01*
X0098083Y0197189D01*
X0098160Y0197011D01*
X0098231Y0196832D01*
X0098299Y0196651D01*
X0098362Y0196468D01*
X0098420Y0196284D01*
X0098474Y0196098D01*
X0098523Y0195911D01*
X0098568Y0195723D01*
X0098608Y0195534D01*
X0098643Y0195344D01*
X0098674Y0195153D01*
X0098700Y0194962D01*
X0098721Y0194770D01*
X0098738Y0194577D01*
X0098750Y0194384D01*
X0098757Y0194191D01*
X0098759Y0193998D01*
X0098757Y0193805D01*
X0098750Y0193612D01*
X0098738Y0193419D01*
X0098721Y0193226D01*
X0098700Y0193034D01*
X0098674Y0192843D01*
X0098643Y0192652D01*
X0098608Y0192462D01*
X0098568Y0192273D01*
X0098523Y0192085D01*
X0098474Y0191898D01*
X0098420Y0191712D01*
X0098362Y0191528D01*
X0098299Y0191345D01*
X0098231Y0191164D01*
X0098160Y0190985D01*
X0098083Y0190807D01*
X0098003Y0190631D01*
X0097918Y0190458D01*
X0097829Y0190286D01*
X0097736Y0190117D01*
X0097639Y0189950D01*
X0097537Y0189785D01*
X0097432Y0189623D01*
X0097323Y0189464D01*
X0097209Y0189307D01*
X0097092Y0189154D01*
X0096972Y0189003D01*
X0096847Y0188855D01*
X0096719Y0188710D01*
X0096588Y0188569D01*
X0096453Y0188430D01*
X0096314Y0188295D01*
X0096173Y0188164D01*
X0096028Y0188036D01*
X0095880Y0187911D01*
X0095729Y0187791D01*
X0095576Y0187674D01*
X0095419Y0187560D01*
X0095260Y0187451D01*
X0095098Y0187346D01*
X0094933Y0187244D01*
X0094766Y0187147D01*
X0094597Y0187054D01*
X0094425Y0186965D01*
X0094252Y0186880D01*
X0094076Y0186800D01*
X0093898Y0186723D01*
X0093719Y0186652D01*
X0093538Y0186584D01*
X0093355Y0186521D01*
X0093171Y0186463D01*
X0092985Y0186409D01*
X0092798Y0186360D01*
X0092610Y0186315D01*
X0092421Y0186275D01*
X0092231Y0186240D01*
X0092040Y0186209D01*
X0091849Y0186183D01*
X0091657Y0186162D01*
X0091464Y0186145D01*
X0091271Y0186133D01*
X0091078Y0186126D01*
X0090885Y0186124D01*
X0090692Y0186126D01*
X0090499Y0186133D01*
X0090306Y0186145D01*
X0090113Y0186162D01*
X0089921Y0186183D01*
X0089730Y0186209D01*
X0089539Y0186240D01*
X0089349Y0186275D01*
X0089160Y0186315D01*
X0088972Y0186360D01*
X0088785Y0186409D01*
X0088599Y0186463D01*
X0088415Y0186521D01*
X0088232Y0186584D01*
X0088051Y0186652D01*
X0087872Y0186723D01*
X0087694Y0186800D01*
X0087518Y0186880D01*
X0087345Y0186965D01*
X0087173Y0187054D01*
X0087004Y0187147D01*
X0086837Y0187244D01*
X0086672Y0187346D01*
X0086510Y0187451D01*
X0086351Y0187560D01*
X0086194Y0187674D01*
X0086041Y0187791D01*
X0085890Y0187911D01*
X0085742Y0188036D01*
X0085597Y0188164D01*
X0085456Y0188295D01*
X0085317Y0188430D01*
X0085182Y0188569D01*
X0085051Y0188710D01*
X0084923Y0188855D01*
X0084798Y0189003D01*
X0084678Y0189154D01*
X0084561Y0189307D01*
X0084447Y0189464D01*
X0084338Y0189623D01*
X0084233Y0189785D01*
X0084131Y0189950D01*
X0084034Y0190117D01*
X0083941Y0190286D01*
X0083852Y0190458D01*
X0083767Y0190631D01*
X0083687Y0190807D01*
X0083610Y0190985D01*
X0083539Y0191164D01*
X0083471Y0191345D01*
X0083408Y0191528D01*
X0083350Y0191712D01*
X0083296Y0191898D01*
X0083247Y0192085D01*
X0083202Y0192273D01*
X0083162Y0192462D01*
X0083127Y0192652D01*
X0083096Y0192843D01*
X0083070Y0193034D01*
X0083049Y0193226D01*
X0083032Y0193419D01*
X0083020Y0193612D01*
X0083013Y0193805D01*
X0083011Y0193998D01*
X0146003Y0119982D02*
X0146005Y0120175D01*
X0146012Y0120368D01*
X0146024Y0120561D01*
X0146041Y0120754D01*
X0146062Y0120946D01*
X0146088Y0121137D01*
X0146119Y0121328D01*
X0146154Y0121518D01*
X0146194Y0121707D01*
X0146239Y0121895D01*
X0146288Y0122082D01*
X0146342Y0122268D01*
X0146400Y0122452D01*
X0146463Y0122635D01*
X0146531Y0122816D01*
X0146602Y0122995D01*
X0146679Y0123173D01*
X0146759Y0123349D01*
X0146844Y0123522D01*
X0146933Y0123694D01*
X0147026Y0123863D01*
X0147123Y0124030D01*
X0147225Y0124195D01*
X0147330Y0124357D01*
X0147439Y0124516D01*
X0147553Y0124673D01*
X0147670Y0124826D01*
X0147790Y0124977D01*
X0147915Y0125125D01*
X0148043Y0125270D01*
X0148174Y0125411D01*
X0148309Y0125550D01*
X0148448Y0125685D01*
X0148589Y0125816D01*
X0148734Y0125944D01*
X0148882Y0126069D01*
X0149033Y0126189D01*
X0149186Y0126306D01*
X0149343Y0126420D01*
X0149502Y0126529D01*
X0149664Y0126634D01*
X0149829Y0126736D01*
X0149996Y0126833D01*
X0150165Y0126926D01*
X0150337Y0127015D01*
X0150510Y0127100D01*
X0150686Y0127180D01*
X0150864Y0127257D01*
X0151043Y0127328D01*
X0151224Y0127396D01*
X0151407Y0127459D01*
X0151591Y0127517D01*
X0151777Y0127571D01*
X0151964Y0127620D01*
X0152152Y0127665D01*
X0152341Y0127705D01*
X0152531Y0127740D01*
X0152722Y0127771D01*
X0152913Y0127797D01*
X0153105Y0127818D01*
X0153298Y0127835D01*
X0153491Y0127847D01*
X0153684Y0127854D01*
X0153877Y0127856D01*
X0154070Y0127854D01*
X0154263Y0127847D01*
X0154456Y0127835D01*
X0154649Y0127818D01*
X0154841Y0127797D01*
X0155032Y0127771D01*
X0155223Y0127740D01*
X0155413Y0127705D01*
X0155602Y0127665D01*
X0155790Y0127620D01*
X0155977Y0127571D01*
X0156163Y0127517D01*
X0156347Y0127459D01*
X0156530Y0127396D01*
X0156711Y0127328D01*
X0156890Y0127257D01*
X0157068Y0127180D01*
X0157244Y0127100D01*
X0157417Y0127015D01*
X0157589Y0126926D01*
X0157758Y0126833D01*
X0157925Y0126736D01*
X0158090Y0126634D01*
X0158252Y0126529D01*
X0158411Y0126420D01*
X0158568Y0126306D01*
X0158721Y0126189D01*
X0158872Y0126069D01*
X0159020Y0125944D01*
X0159165Y0125816D01*
X0159306Y0125685D01*
X0159445Y0125550D01*
X0159580Y0125411D01*
X0159711Y0125270D01*
X0159839Y0125125D01*
X0159964Y0124977D01*
X0160084Y0124826D01*
X0160201Y0124673D01*
X0160315Y0124516D01*
X0160424Y0124357D01*
X0160529Y0124195D01*
X0160631Y0124030D01*
X0160728Y0123863D01*
X0160821Y0123694D01*
X0160910Y0123522D01*
X0160995Y0123349D01*
X0161075Y0123173D01*
X0161152Y0122995D01*
X0161223Y0122816D01*
X0161291Y0122635D01*
X0161354Y0122452D01*
X0161412Y0122268D01*
X0161466Y0122082D01*
X0161515Y0121895D01*
X0161560Y0121707D01*
X0161600Y0121518D01*
X0161635Y0121328D01*
X0161666Y0121137D01*
X0161692Y0120946D01*
X0161713Y0120754D01*
X0161730Y0120561D01*
X0161742Y0120368D01*
X0161749Y0120175D01*
X0161751Y0119982D01*
X0161749Y0119789D01*
X0161742Y0119596D01*
X0161730Y0119403D01*
X0161713Y0119210D01*
X0161692Y0119018D01*
X0161666Y0118827D01*
X0161635Y0118636D01*
X0161600Y0118446D01*
X0161560Y0118257D01*
X0161515Y0118069D01*
X0161466Y0117882D01*
X0161412Y0117696D01*
X0161354Y0117512D01*
X0161291Y0117329D01*
X0161223Y0117148D01*
X0161152Y0116969D01*
X0161075Y0116791D01*
X0160995Y0116615D01*
X0160910Y0116442D01*
X0160821Y0116270D01*
X0160728Y0116101D01*
X0160631Y0115934D01*
X0160529Y0115769D01*
X0160424Y0115607D01*
X0160315Y0115448D01*
X0160201Y0115291D01*
X0160084Y0115138D01*
X0159964Y0114987D01*
X0159839Y0114839D01*
X0159711Y0114694D01*
X0159580Y0114553D01*
X0159445Y0114414D01*
X0159306Y0114279D01*
X0159165Y0114148D01*
X0159020Y0114020D01*
X0158872Y0113895D01*
X0158721Y0113775D01*
X0158568Y0113658D01*
X0158411Y0113544D01*
X0158252Y0113435D01*
X0158090Y0113330D01*
X0157925Y0113228D01*
X0157758Y0113131D01*
X0157589Y0113038D01*
X0157417Y0112949D01*
X0157244Y0112864D01*
X0157068Y0112784D01*
X0156890Y0112707D01*
X0156711Y0112636D01*
X0156530Y0112568D01*
X0156347Y0112505D01*
X0156163Y0112447D01*
X0155977Y0112393D01*
X0155790Y0112344D01*
X0155602Y0112299D01*
X0155413Y0112259D01*
X0155223Y0112224D01*
X0155032Y0112193D01*
X0154841Y0112167D01*
X0154649Y0112146D01*
X0154456Y0112129D01*
X0154263Y0112117D01*
X0154070Y0112110D01*
X0153877Y0112108D01*
X0153684Y0112110D01*
X0153491Y0112117D01*
X0153298Y0112129D01*
X0153105Y0112146D01*
X0152913Y0112167D01*
X0152722Y0112193D01*
X0152531Y0112224D01*
X0152341Y0112259D01*
X0152152Y0112299D01*
X0151964Y0112344D01*
X0151777Y0112393D01*
X0151591Y0112447D01*
X0151407Y0112505D01*
X0151224Y0112568D01*
X0151043Y0112636D01*
X0150864Y0112707D01*
X0150686Y0112784D01*
X0150510Y0112864D01*
X0150337Y0112949D01*
X0150165Y0113038D01*
X0149996Y0113131D01*
X0149829Y0113228D01*
X0149664Y0113330D01*
X0149502Y0113435D01*
X0149343Y0113544D01*
X0149186Y0113658D01*
X0149033Y0113775D01*
X0148882Y0113895D01*
X0148734Y0114020D01*
X0148589Y0114148D01*
X0148448Y0114279D01*
X0148309Y0114414D01*
X0148174Y0114553D01*
X0148043Y0114694D01*
X0147915Y0114839D01*
X0147790Y0114987D01*
X0147670Y0115138D01*
X0147553Y0115291D01*
X0147439Y0115448D01*
X0147330Y0115607D01*
X0147225Y0115769D01*
X0147123Y0115934D01*
X0147026Y0116101D01*
X0146933Y0116270D01*
X0146844Y0116442D01*
X0146759Y0116615D01*
X0146679Y0116791D01*
X0146602Y0116969D01*
X0146531Y0117148D01*
X0146463Y0117329D01*
X0146400Y0117512D01*
X0146342Y0117696D01*
X0146288Y0117882D01*
X0146239Y0118069D01*
X0146194Y0118257D01*
X0146154Y0118446D01*
X0146119Y0118636D01*
X0146088Y0118827D01*
X0146062Y0119018D01*
X0146041Y0119210D01*
X0146024Y0119403D01*
X0146012Y0119596D01*
X0146005Y0119789D01*
X0146003Y0119982D01*
D12*
X0063176Y0059255D02*
X0063176Y0056352D01*
X0061724Y0056352D01*
X0061241Y0056836D01*
X0061241Y0058771D01*
X0061724Y0059255D01*
X0063176Y0059255D01*
X0060229Y0057804D02*
X0059745Y0058287D01*
X0058778Y0058287D01*
X0058294Y0057804D01*
X0058294Y0057320D01*
X0060229Y0057320D01*
X0060229Y0056836D02*
X0060229Y0057804D01*
X0060229Y0056836D02*
X0059745Y0056352D01*
X0058778Y0056352D01*
X0057283Y0056352D02*
X0055831Y0056352D01*
X0055348Y0056836D01*
X0055831Y0057320D01*
X0056799Y0057320D01*
X0057283Y0057804D01*
X0056799Y0058287D01*
X0055348Y0058287D01*
X0054336Y0058287D02*
X0053852Y0058287D01*
X0053852Y0056352D01*
X0053369Y0056352D02*
X0054336Y0056352D01*
X0052372Y0056836D02*
X0051888Y0056352D01*
X0050437Y0056352D01*
X0050437Y0055869D02*
X0050437Y0058287D01*
X0051888Y0058287D01*
X0052372Y0057804D01*
X0052372Y0056836D01*
X0051404Y0055385D02*
X0050920Y0055385D01*
X0050437Y0055869D01*
X0049425Y0056352D02*
X0049425Y0058287D01*
X0047974Y0058287D01*
X0047490Y0057804D01*
X0047490Y0056352D01*
X0046479Y0056836D02*
X0046479Y0057804D01*
X0045995Y0058287D01*
X0045027Y0058287D01*
X0044544Y0057804D01*
X0044544Y0057320D01*
X0046479Y0057320D01*
X0046479Y0056836D02*
X0045995Y0056352D01*
X0045027Y0056352D01*
X0043532Y0056836D02*
X0043532Y0057804D01*
X0043048Y0058287D01*
X0041597Y0058287D01*
X0041597Y0059255D02*
X0041597Y0056352D01*
X0043048Y0056352D01*
X0043532Y0056836D01*
X0037639Y0056352D02*
X0036188Y0056352D01*
X0035704Y0056836D01*
X0035704Y0057320D01*
X0036188Y0057804D01*
X0037639Y0057804D01*
X0037639Y0059255D02*
X0037639Y0056352D01*
X0036188Y0057804D02*
X0035704Y0058287D01*
X0035704Y0058771D01*
X0036188Y0059255D01*
X0037639Y0059255D01*
X0034693Y0058287D02*
X0034693Y0056836D01*
X0034209Y0056352D01*
X0032758Y0056352D01*
X0032758Y0055869D02*
X0033241Y0055385D01*
X0033725Y0055385D01*
X0032758Y0055869D02*
X0032758Y0058287D01*
X0028800Y0059255D02*
X0026865Y0059255D01*
X0026865Y0058771D01*
X0028800Y0056836D01*
X0028800Y0056352D01*
X0026865Y0056352D01*
X0025853Y0056352D02*
X0025853Y0059255D01*
X0025369Y0058287D02*
X0024402Y0058287D01*
X0023918Y0057804D01*
X0023918Y0056352D01*
X0022906Y0056836D02*
X0022906Y0057804D01*
X0022423Y0058287D01*
X0021455Y0058287D01*
X0020972Y0057804D01*
X0020972Y0057320D01*
X0022906Y0057320D01*
X0022906Y0056836D02*
X0022423Y0056352D01*
X0021455Y0056352D01*
X0019960Y0056352D02*
X0019960Y0058287D01*
X0018509Y0058287D01*
X0018025Y0057804D01*
X0018025Y0056352D01*
X0014067Y0056352D02*
X0013099Y0057320D01*
X0012132Y0056352D01*
X0012132Y0059255D01*
X0011120Y0057804D02*
X0010637Y0058287D01*
X0009669Y0058287D01*
X0009185Y0057804D01*
X0009185Y0057320D01*
X0011120Y0057320D01*
X0011120Y0056836D02*
X0011120Y0057804D01*
X0011120Y0056836D02*
X0010637Y0056352D01*
X0009669Y0056352D01*
X0008174Y0056352D02*
X0007206Y0056352D01*
X0007690Y0056352D02*
X0007690Y0058287D01*
X0008174Y0058287D01*
X0007690Y0059255D02*
X0007690Y0059739D01*
X0014067Y0059255D02*
X0014067Y0056352D01*
X0025369Y0058287D02*
X0025853Y0057804D01*
X0053852Y0059255D02*
X0053852Y0059739D01*
M02*
