G75*
%MOIN*%
%OFA0B0*%
%FSLAX25Y25*%
%IPPOS*%
%LPD*%
%AMOC8*
5,1,8,0,0,1.08239X$1,22.5*
%
%ADD10C,0.16548*%
%ADD11R,0.06737X0.06737*%
%ADD12OC8,0.06737*%
%ADD13R,0.11548X0.11548*%
%ADD14OC8,0.11548*%
%ADD15C,0.04369*%
%ADD16C,0.05156*%
D10*
X0063326Y0041635D03*
X0031830Y0120376D03*
X0090885Y0193998D03*
X0153877Y0119982D03*
D11*
X0147971Y0104509D03*
X0128286Y0104667D03*
X0142026Y0043210D03*
X0122932Y0041596D03*
X0113286Y0197935D03*
X0034546Y0197935D03*
D12*
X0044546Y0197935D03*
X0054546Y0197935D03*
X0064546Y0197935D03*
X0123286Y0197935D03*
X0133286Y0197935D03*
X0143286Y0197935D03*
X0147971Y0094509D03*
X0128286Y0094667D03*
X0128286Y0084667D03*
X0128286Y0074667D03*
X0142026Y0061793D03*
X0112932Y0041596D03*
X0102932Y0041596D03*
X0092932Y0041596D03*
X0082932Y0041596D03*
D13*
X0024782Y0042423D03*
D14*
X0042814Y0042423D03*
D15*
X0071200Y0066045D03*
X0075137Y0056202D03*
X0079074Y0058171D03*
X0084979Y0071950D03*
X0083011Y0089667D03*
X0098759Y0089667D03*
X0118444Y0099509D03*
X0130255Y0131006D03*
X0140097Y0132974D03*
X0140097Y0156596D03*
X0138129Y0174313D03*
X0118444Y0156596D03*
X0089999Y0125100D03*
X0077105Y0138880D03*
X0075137Y0156596D03*
X0061357Y0174313D03*
X0075137Y0186124D03*
X0039704Y0156596D03*
X0023955Y0138880D03*
X0037735Y0182187D03*
D16*
X0061357Y0180218D03*
X0047578Y0134943D03*
X0108601Y0129037D03*
X0140097Y0180218D03*
M02*
